<svg width="433" height="332" viewBox="0 0 433 332" fill="none" xmlns="http://www.w3.org/2000/svg">
<g clip-path="url(#clip0_4592_188070)">
<circle cx="216.945" cy="183.051" r="179.815" fill="#F0F2F5"/>
</g>
<path d="M117.097 318.405C117.097 318.405 111.305 267.066 108.704 260.525C106.103 253.984 101.679 245.503 98.2576 246.752C94.8364 248.001 98.2577 276.333 94.034 273.208C89.8104 270.084 91.8223 241.753 90.0125 237.795C88.2028 233.837 81.7685 221.463 77.9464 222.442C74.1242 223.421 82.3705 250.518 77.9464 248.322C73.5223 246.125 65.6787 215.305 62.2602 210.509C58.8418 205.713 55.0208 200.264 51.4008 201.635C47.7808 203.005 56.9502 219.511 55.4827 222.612C54.0151 225.712 50.1534 204.843 47.3584 209.445C44.5633 214.046 45.5278 228.63 47.3584 234.253C49.189 239.876 71.192 255.873 69.9447 257.562C68.6973 259.251 54.6199 250.534 52.2065 251.352C49.7932 252.169 51.368 261.533 55.8096 268.933C60.2512 276.333 73.5325 273.802 74.533 276.109C75.5336 278.416 62.7955 276.062 63.066 280.523C63.3365 284.984 67.8989 291.983 74.533 300.707C81.1672 309.43 105.16 315.114 105.16 315.114L117.097 318.405Z" fill="#D0D5DC"/>
<path d="M121.478 321.738C121.478 321.738 66.1841 272.699 42.7085 288.59C40.3584 290.181 65.9531 300.743 62.6408 302.05C59.3286 303.357 41.8739 289.508 37.0833 291.198C32.2928 292.888 23.5016 301.113 24.7891 302.181C26.0765 303.249 42.5983 308.983 39.2849 310.29C35.9715 311.598 22.164 304.77 18.8957 306.823C15.6275 308.875 -0.0693588 326.184 0.823357 328.084C1.71608 329.983 24.0708 321.751 48.1094 313.753C72.1479 305.755 109.927 315.372 121.478 321.738Z" fill="#D0D5DC"/>
<path d="M57.1713 225.536C67.0449 240.758 77.499 255.561 87.5742 270.637C92.446 277.93 97.3427 285.207 102.372 292.385C107.274 299.381 112.846 307.119 116.006 315.152C116.076 315.341 116.084 315.548 116.031 315.743C115.977 315.937 115.864 316.108 115.708 316.23C115.553 316.353 115.363 316.419 115.168 316.421C114.973 316.422 114.783 316.358 114.626 316.238C108.259 311.514 103.318 304.514 98.4076 298.281C92.5713 290.876 87.416 282.728 82.3578 274.744C72.5085 259.19 64.3046 242.635 56.7671 225.77C56.7494 225.716 56.7505 225.658 56.7703 225.605C56.79 225.551 56.8272 225.507 56.8752 225.479C56.9232 225.451 56.9792 225.442 57.0333 225.452C57.0874 225.463 57.1362 225.493 57.1713 225.537V225.536Z" fill="#D0D5DC"/>
<path d="M349.805 206.378C353.337 200.659 356.275 195.325 358.714 190.378L350.795 184.672L359.909 187.904C361.5 184.535 362.858 181.354 364.011 178.365L355.682 172.759L365.129 175.356C372.677 154.168 369.736 143.435 369.736 143.435C287.258 156.875 264.347 250.044 264.347 250.044V300.752C304.858 265.705 330.029 236.399 345.597 212.948L322.081 192.003L349.805 206.378Z" fill="#D0D5DC"/>
<path d="M369.736 143.436C293.522 155.855 268.176 236.342 264.764 248.501C264.794 248.419 296.153 162.976 369.736 143.436Z" fill="#D0D5DC"/>
<path d="M264.348 283.644C264.348 283.644 327.886 184.67 418 211.862C418 211.862 416.167 233.1 406.698 245.391L399.977 238.438L391.73 245.391L379.205 231.412L388.981 251.574C388.981 251.574 378.899 258.595 372.79 260.431L357.211 234.771C357.211 234.771 360.571 256.46 365.153 262.265C365.153 262.265 309.864 293.425 264.348 300.755V283.644Z" fill="#D0D5DC"/>
<path d="M264.348 283.644C264.348 283.644 320.86 196.28 418 211.862C327.886 184.67 264.348 283.644 264.348 283.644Z" fill="#D0D5DC"/>
<path d="M397.072 274.289C397.226 274.345 397.379 274.396 397.534 274.453C397.534 274.453 394.731 291.809 364.661 305.571L353.851 288.199L359.413 307.821C352.126 310.696 344.638 313.028 337.008 314.798L330.939 293.211L331.896 315.943C329.808 316.385 327.654 316.807 325.434 317.21L322.992 307.444L319.457 318.216C313.816 319.097 307.759 319.844 301.286 320.456L298.554 310.804L296.515 320.867C286.758 321.638 276.065 322.08 264.344 322.106V284.84C264.344 284.84 321.544 246.817 397.072 274.289Z" fill="#D0D5DC"/>
<path d="M314.138 270.176C294.368 275.117 277.152 283.45 264.35 290.985V284.839C264.35 284.839 321.546 246.817 397.074 274.289C392.477 272.693 354.262 260.148 314.138 270.176Z" fill="#D0D5DC"/>
<path d="M115.983 107.67C115.983 107.67 151.795 219.786 132.256 305.547H155.931C155.931 305.547 156.162 177.254 119.234 107.67H115.983Z" fill="#D0D5DC"/>
<path d="M43.478 96.2943C91.0266 78.5754 103.98 95.9673 103.98 95.9673C97.6611 62.1429 118.026 54.7314 118.026 54.7314C119.937 65.0591 121.23 81.2191 121.23 81.2191C166.214 47.2617 192.09 70.3047 192.09 70.3047C180.718 72.1563 168.803 76.2321 158.602 80.4498C152.704 79.2708 146.7 78.7067 140.685 78.7668C140.542 78.7508 140.399 78.7916 140.286 78.8805C140.173 78.9694 140.099 79.0992 140.081 79.2418C140.063 79.3845 140.102 79.5285 140.189 79.6429C140.276 79.7572 140.405 79.8327 140.547 79.8529C144.67 80.8871 148.928 81.7451 153.094 82.8059C140.697 88.296 131.954 93.3692 131.954 93.3692C190.335 102.608 195.162 135.826 195.162 135.826C185.523 137.405 174.309 133.11 164.394 127.461C161.613 122.392 158.889 117.306 156.324 112.069C156.267 111.959 156.171 111.875 156.055 111.833C155.938 111.791 155.81 111.794 155.696 111.842C155.582 111.89 155.49 111.979 155.439 112.091C155.387 112.204 155.38 112.332 155.418 112.449C157.011 116.46 158.498 120.697 160.133 124.897C158.898 124.121 157.696 123.336 156.527 122.544C154.722 118.924 153.029 115.223 151.531 111.318C151.375 110.912 150.818 111.182 150.928 111.571C151.718 114.406 152.505 117.384 153.392 120.365C148.068 116.579 142.988 112.46 138.184 108.034C166.876 139.165 168.464 179.33 168.464 179.33C135.902 165.314 118.614 123.152 118.614 123.152C120.99 133.83 121.486 144.84 120.081 155.689C118.866 151.696 117.333 147.806 115.498 144.057C115.452 143.95 115.367 143.866 115.259 143.823C115.152 143.779 115.031 143.78 114.924 143.826C114.818 143.871 114.733 143.957 114.69 144.065C114.647 144.172 114.648 144.293 114.693 144.399C116.647 150.68 117.958 157.143 118.605 163.688C114.125 182.851 104.55 193.481 104.55 193.481C96.39 172.813 100.202 127.878 100.202 127.878C98.7243 131.752 96.9533 135.508 94.9047 139.113C94.6221 135.098 94.4979 131.084 94.5093 127.042C94.5093 126.22 93.3015 126.012 93.2064 126.876C92.645 131.935 91.7895 138.095 91.7008 144.169C84.591 154.307 77.9678 157.123 77.9678 157.123C66.0382 123.204 92.9606 100.632 92.9606 100.632C55.3189 111.067 43.478 96.2943 43.478 96.2943Z" fill="#D0D5DC"/>
<path d="M287.222 49.8896C287.222 49.8896 256.271 176.258 244.395 292.904L268.646 295.374C268.646 295.374 270.396 157.86 293.576 50.5358L287.222 49.8896Z" fill="#D0D5DC"/>
<path d="M349.033 40.8297C350.769 43.489 352.622 46.0485 354.443 48.6007C364.816 49.9843 375.031 52.3715 384.944 55.7285C384.944 55.7285 372.001 19.1524 309.536 28.1775C309.536 28.1775 316.991 11.6281 320.696 0.464998C320.696 0.464998 296.715 -3.26046 284.653 33.3362C284.653 33.3362 281.336 9.28009 225.123 0.990705C225.123 0.990705 226.798 10.4915 240.938 19.778C243.082 18.4283 245.322 17.2371 247.64 16.2141C247.801 16.1476 247.982 16.1462 248.144 16.2104C248.307 16.2746 248.438 16.3992 248.51 16.5581C248.582 16.7169 248.59 16.8976 248.532 17.0622C248.474 17.2267 248.354 17.3622 248.198 17.4402C246.229 18.4231 244.33 19.5382 242.512 20.778C244.186 21.8059 246.013 22.8338 248.017 23.828C250.145 21.9077 252.387 20.1173 254.731 18.4667C254.832 18.3916 254.958 18.3583 255.083 18.3738C255.208 18.3892 255.323 18.4522 255.402 18.5496C255.482 18.647 255.522 18.7714 255.512 18.8971C255.503 19.0227 255.445 19.1399 255.352 19.2244C253.465 20.9725 251.681 22.8288 250.01 24.7839C256.854 27.8985 263.997 30.3093 271.329 31.9793C271.329 31.9793 232.729 39.5873 226.123 79.3044C226.123 79.3044 232.208 79.9168 241.998 76.0445C241.507 73.7912 241.499 71.4594 241.976 69.203C241.99 69.17 242.013 69.1417 242.042 69.1214C242.072 69.1012 242.106 69.0899 242.142 69.0888C242.178 69.0877 242.213 69.0969 242.244 69.1153C242.275 69.1338 242.299 69.1606 242.315 69.1927C243.109 71.1285 243.668 73.1529 243.979 75.2221C246.067 74.3069 248.108 73.287 250.094 72.1663C249.25 70.6637 248.566 69.077 248.052 67.432C247.869 66.8212 248.847 66.5583 249.096 67.1104C249.803 68.5781 250.65 69.9742 251.625 71.2794C255.889 68.7288 259.935 65.8311 263.722 62.6155C263.722 62.6155 235.723 104.641 232.569 129.323C232.569 129.323 269.781 116.443 284.339 67.9225C283.45 77.8759 283.52 87.8919 284.551 97.8318C286.15 98.7133 287.826 99.4505 289.556 100.035C289.638 100.068 289.705 100.13 289.744 100.208C289.784 100.287 289.795 100.377 289.774 100.463C289.753 100.548 289.702 100.624 289.63 100.675C289.559 100.726 289.471 100.75 289.383 100.742C287.81 100.501 286.259 100.131 284.746 99.6365C285.145 103.202 285.69 106.919 286.421 110.713C289.211 109.979 291.972 109.17 294.692 108.198C294.883 108.113 295.1 108.108 295.296 108.183C295.492 108.258 295.65 108.407 295.736 108.597C295.823 108.788 295.831 109.005 295.758 109.202C295.686 109.398 295.539 109.558 295.35 109.647C292.621 111.021 289.813 112.231 286.94 113.271C289.636 125.876 294.455 139.073 302.911 149.941C302.911 149.941 323.04 109.679 311.698 63.6493C315.119 73.8376 319.475 83.6878 324.71 93.0741C325.469 91.6629 326.237 90.259 327.031 88.8669C327.307 88.3882 328.149 88.8479 327.883 89.3324C327.002 90.9595 326.19 92.6071 325.387 94.2576C326.279 95.7966 327.218 97.3311 328.187 98.8465C329.215 96.2268 330.285 93.6453 331.44 91.1416C331.492 91.0053 331.597 90.8955 331.731 90.8364C331.864 90.7774 332.016 90.7738 332.152 90.8266C332.289 90.8794 332.399 90.9841 332.458 91.1178C332.517 91.2515 332.52 91.4032 332.467 91.5395C331.316 94.5937 330.335 97.7097 329.531 100.873C335.81 110.196 343.579 118.463 352.601 121.663C352.601 121.663 365.806 86.466 313.519 45.8826C322.678 45.7992 331.836 46.1795 340.957 47.0221C340.257 44.6957 339.388 42.4237 338.356 40.2246C338.178 39.8561 338.749 39.4904 338.976 39.8414C340.44 42.1897 341.72 44.6484 342.802 47.1954C345.942 47.4979 349.218 47.8723 352.572 48.329C351.104 46.0103 349.635 43.6931 348.328 41.2717C348.084 40.8532 348.769 40.4229 349.033 40.8297Z" fill="#D0D5DC"/>
<path d="M309.322 322.105H196.936L217.958 312.969L212.147 295.374L233.14 312.969L242.282 299.096L247.699 312.292L261.92 305.187L263.951 317.706L298.826 305.187L294.763 317.029L318.125 308.909L309.322 322.105Z" fill="#828892"/>
<path d="M181.137 293.305L176.213 321.893H169.426L167.003 292.247L181.137 293.305Z" fill="#828892"/>
<path d="M117.728 251.084C119.918 250.883 122.185 250.617 124.04 249.605C127.545 247.693 128.558 243.46 127.132 240.133C125.707 236.806 122.353 234.317 118.717 232.591C114.608 230.664 110.172 229.53 105.643 229.247C101.894 229.007 97.9219 229.39 94.822 231.199C93.4574 231.998 92.2754 233.075 91.3524 234.359C90.4294 235.643 89.7858 237.107 89.463 238.655C88.6492 242.589 89.3398 249.411 94.4885 251.101C97.6719 252.145 101.459 251.855 104.786 251.793C109.11 251.715 113.424 251.479 117.728 251.084Z" fill="#828892"/>
<path d="M115.588 213.745L115.703 215.041C132.538 213.546 149.407 212.693 166.312 212.483M115.588 213.745L190.896 275.797C191.212 260.543 189.57 245.312 186.01 230.477L184.745 230.781M115.588 213.745C132.456 212.248 149.358 211.393 166.295 211.182M115.588 213.745C112.547 214.015 107.769 214.755 104.534 215.741L174.281 212.096M115.588 213.745L115.703 215.041C112.758 215.302 108.238 216.005 105.149 216.914M115.588 213.745L105.149 216.914M166.312 212.483L166.295 211.182M166.312 212.483L166.295 211.182M166.312 212.483C169.035 212.449 171.546 212.458 173.824 213.313L173.825 213.313C176.833 214.441 179.112 216.874 180.883 220.059C182.654 223.245 183.852 227.07 184.745 230.78C184.745 230.781 184.745 230.78 184.745 230.781M166.295 211.182C168.986 211.149 171.74 211.142 174.281 212.096M184.745 230.781C188.279 245.508 189.909 260.628 189.596 275.77L189.596 275.771C189.54 278.516 189.361 281.026 188.18 282.942L188.179 282.942C186.36 285.896 182.612 286.766 178.624 287.285L178.791 288.574M184.745 230.781L178.791 288.574M178.791 288.574L178.624 287.285C167.4 288.743 156.101 289.546 144.784 289.689C143.4 289.706 142.562 289.585 142.092 289.076L142.091 289.076C141.778 288.737 141.586 288.189 141.367 287.319L140.106 287.637L141.367 287.319C140.361 283.323 139.825 279.208 139.383 275.008C139.271 273.938 139.164 272.86 139.057 271.778C138.746 268.637 138.431 265.457 137.957 262.319L137.957 262.319C136.41 252.069 133.029 241.852 126.856 233.672C121.13 226.083 112.777 220.372 103.622 219.212C103.78 219.007 103.935 218.813 104.072 218.647C104.187 218.508 104.282 218.398 104.352 218.323C104.367 218.306 104.38 218.293 104.39 218.283C104.574 218.154 104.814 217.949 104.976 217.642C105.08 217.444 105.156 217.196 105.149 216.914M178.791 288.574L105.149 216.914M174.281 212.096L174.281 212.096L174.281 212.096ZM103.762 217.377C103.761 217.377 103.76 217.377 103.761 217.377L103.762 217.377Z" fill="white" stroke="#828892" stroke-width="2.60126"/>
<path d="M284.223 185.258C283.886 183.258 283.346 181.228 282.098 179.598C280.017 176.883 276.396 175.773 272.975 175.055C261.485 172.642 249.594 172.846 237.845 173.314C223.647 173.88 209.471 174.814 195.318 176.118C187.021 176.882 178.043 178.083 172.174 183.787C167.558 188.275 165.772 194.718 164.199 200.854C159.399 219.58 154.902 238.496 153.778 257.755C153.571 261.301 153.487 264.918 154.479 268.339C156.945 276.844 165.758 282.5 174.756 284.149C183.753 285.798 193.01 284.196 202.017 282.596L210.633 281.065C226.368 278.269 242.723 275.218 255.539 265.982C267.137 257.624 274.848 244.43 276.254 230.534C277.808 215.175 286.889 201.072 284.223 185.258Z" fill="white" stroke="#828892" stroke-width="2.60126"/>
<path d="M188.535 282.813L196.968 281.259C212.366 278.422 228.371 275.326 240.913 265.952C252.263 257.47 259.809 244.079 261.185 229.977C262.706 214.39 271.592 200.077 268.984 184.028C268.654 181.999 268.125 179.938 266.903 178.285C264.868 175.529 260.295 175.59 256.948 174.86C251.995 173.817 240.719 173.253 240.719 173.253C253.622 170.787 263.843 171.459 274.01 173.674C277.358 174.404 280.902 175.528 282.938 178.285C284.16 179.938 284.689 181.999 285.018 184.028C287.627 200.077 278.741 214.39 277.219 229.977C275.843 244.08 268.298 257.47 256.948 265.952C244.405 275.326 228.401 278.421 213.002 281.259L204.569 282.813C195.929 284.406 187.055 285.997 178.414 284.484C181.805 284.047 185.187 283.431 188.535 282.813Z" fill="#828892"/>
<path d="M85.3312 236.275L85.3312 236.275C85.6152 233.704 86.6412 231.25 87.9949 229.009C94.1908 218.763 106.549 214.511 117.227 217.426L117.237 217.428L117.237 217.428C119.89 218.13 122.407 219.273 124.682 220.81C130.277 224.656 134.212 231.294 136.465 238.538C138.718 245.779 139.415 253.551 139.869 261.377C140.447 271.362 140.647 281.362 140.471 291.378C136.125 291.594 131.769 291.467 127.442 290.999C127.899 278.147 128.296 265.106 126.651 252.254C126.038 247.458 125.049 242.276 122.281 238.161C119.962 234.713 115.655 232.492 112.045 232.613C110.194 232.675 108.388 233.368 107.237 234.996C106.102 236.601 105.787 238.854 106.321 241.653L85.3312 236.275ZM85.3312 236.275C84.7635 241.411 87.4549 246.7 91.4302 249.027M85.3312 236.275L91.4302 249.027M91.4302 249.027C94.0818 250.579 98.343 250.87 101.706 249.598M91.4302 249.027L101.706 249.598M101.706 249.598C103.36 248.972 104.699 248.004 105.528 246.732M101.706 249.598L105.528 246.732M105.528 246.732C106.34 245.483 106.737 243.829 106.321 241.653L105.528 246.732Z" fill="white" stroke="#828892" stroke-width="2.60126"/>
<path d="M126.428 277.666H213.362V297.263H126.428V277.666Z" fill="#9D5AEF"/>
<path d="M131.565 265.923C134.483 262.448 139.94 261.086 145.462 260.581L131.565 265.923ZM131.565 265.923C129.19 268.751 128.849 272.602 129.149 276.528M131.565 265.923L129.149 276.528M129.149 276.528C129.277 278.178 129.522 279.525 130.365 280.504L129.149 276.528ZM169.25 263.276L168.638 262.962L130.365 280.504C131.242 281.522 132.757 282.142 134.583 282.693C145.637 286.029 157.711 285.587 169.686 285.011C177.855 284.619 185.966 284.194 193.898 282.843C195.679 282.539 197.15 282.19 198.107 281.376L198.949 282.367L198.107 281.376C198.503 281.04 198.75 280.563 198.802 280.137C198.837 279.854 198.788 279.631 198.672 279.458L195.472 278.881L195.916 276.318C196.791 276.463 197.827 275.87 198.296 275.007C198.786 274.106 198.826 273.026 198.83 271.61L198.83 271.61C198.837 269.733 198.757 267.843 198.289 266.182C197.83 264.55 197.021 263.215 195.602 262.326L195.602 262.326C194.702 261.761 193.586 261.409 192.32 261.093C185.555 259.418 180.686 258.772 173.651 261.374C172.209 261.908 171.242 262.31 170.644 262.575C170.345 262.708 170.139 262.805 170.011 262.868C169.948 262.899 169.904 262.921 169.878 262.934L169.853 262.947L169.853 262.947L169.852 262.947L169.851 262.948L169.85 262.949L169.85 262.949L169.25 263.276ZM168.638 262.962L168.638 262.962L168.637 262.962L168.633 262.96L168.617 262.951L168.549 262.917C168.49 262.887 168.403 262.843 168.294 262.789C168.076 262.68 167.77 262.528 167.42 262.36C166.712 262.02 165.856 261.626 165.186 261.368C159.314 259.105 154.248 259.651 148.628 260.258C147.595 260.369 146.542 260.483 145.463 260.581L168.638 262.962Z" fill="white" stroke="#828892" stroke-width="2.60126"/>
<path d="M128.45 265.383C128.538 266.817 128.476 268.257 128.263 269.68C129.412 265.674 130.124 261.568 130.389 257.425C130.84 250.866 130.243 244.11 127.428 238.1C124.614 232.09 119.361 226.896 112.701 225.024C106.041 223.152 98.0617 225.142 94.0737 230.524C92.8604 232.162 92.0233 234.098 91.9928 236.098C91.9624 238.098 92.8121 240.154 94.4678 241.396C95.0149 241.841 95.6923 242.116 96.4094 242.186C97.593 242.252 98.6808 241.509 99.379 240.603C100.077 239.696 100.485 238.624 101.034 237.629C102.087 235.718 103.732 234.052 105.815 233.176C108.607 232.002 111.951 232.368 114.655 233.715C117.359 235.062 119.476 237.295 121.081 239.755C124.41 244.856 125.688 250.938 126.02 256.925C126.351 262.911 125.797 268.907 125.757 274.902C126.552 274.24 127.166 273.405 127.546 272.469C127.926 271.533 128.06 270.524 127.937 269.529L128.45 265.383Z" fill="#828892"/>
<path d="M209.933 296.52V291.954H127.136V296.52H209.933Z" fill="#828892" stroke="#828892" stroke-width="2.60126"/>
<path d="M209.933 290.946V276.203H129.056V290.946H209.933Z" fill="white" stroke="#828892" stroke-width="2.60126"/>
<path d="M95.2747 236.91C96.7621 234.633 99.3833 230.627 101.959 229.716C108.465 227.417 116.234 227.726 120.985 230.307C126.089 233.082 127.649 238.68 129.166 244.256C130.683 249.832 130.58 255.697 130.467 261.472C130.071 281.594 129.674 301.715 129.277 321.837C127.702 322.015 122.312 321.684 120.737 321.862C122.945 300.172 125.268 278.742 125.083 257.063C125.036 251.476 124.363 244.431 120.523 240.346C114.753 234.208 111.896 238.683 107.228 242.381C101.869 246.629 91.1904 243.164 95.2747 236.91Z" fill="#828892"/>
<path d="M95.7061 234.192C97.3882 232.131 99.2785 230.448 101.938 229.824C106.68 228.712 111.876 228.669 116.258 230.725C121.486 233.179 124.876 238.324 126.395 243.69C127.914 249.056 127.811 254.701 127.698 260.259C127.301 279.623 126.904 298.988 126.506 318.353C124.929 318.523 119.532 318.206 117.956 318.377C120.166 297.502 122.492 276.879 122.307 256.016C122.259 250.639 121.587 243.859 117.741 239.928C111.965 234.02 108.052 236.368 103.379 239.928C98.013 244.015 92.0874 238.624 95.7061 234.192Z" fill="white" stroke="#828892" stroke-width="2.60126"/>
<path d="M199.543 227.358C185.851 223.748 178.976 210.425 177.249 204.215C184.195 207.483 199.939 214.462 207.349 216.235C214.758 218.008 223.658 218.041 227.182 217.837C223.674 222.515 213.234 230.969 199.543 227.358Z" fill="#828892"/>
<path d="M208.859 165.899C208.859 165.899 244.723 180.143 238.621 225.554C235.963 245.336 200.802 261.283 200.802 261.283C200.802 261.283 186.362 246.87 168.483 250.308C150.605 253.747 139.74 268.187 140.29 281.939C140.841 295.692 144.868 314.616 146.243 319.887" stroke="#828892" stroke-width="7.218"/>
<path d="M271.666 293.304L266.742 321.892H259.955L257.531 292.246L271.666 293.304Z" fill="#828892"/>
<path d="M196.983 288.116C198.62 274.977 201.685 259.453 205.913 247.183C210.142 234.913 216.458 223.468 225.17 215.33L229 213.15C240.759 213.786 259.317 213.42 271.07 212.629C274.339 212.407 277.638 212.135 280.869 212.767C288.099 214.179 294.546 220.421 297.252 228.624C299.957 236.828 296.181 244.208 291.964 248.486C289.329 251.16 283.632 252.45 280.866 255.111C277.222 258.618 276.304 273.332 276.075 278.947C275.973 281.456 276.024 291.565 274.516 293.3C273.931 293.973 251.882 294.57 241.292 295.677C232.951 296.549 224.593 297.067 216.215 297.233C219.984 298.148 212.371 297.308 216.215 297.233L211.495 288.116H196.983Z" fill="white"/>
<path d="M216.215 297.233C224.593 297.067 232.951 296.549 241.292 295.677C251.882 294.57 273.931 293.973 274.516 293.3C276.024 291.565 275.973 281.456 276.075 278.947C276.304 273.332 277.222 258.618 280.866 255.111C283.632 252.45 289.329 251.16 291.964 248.486C296.181 244.208 299.957 236.828 297.252 228.624C294.546 220.421 288.099 214.179 280.869 212.767C277.638 212.135 274.339 212.407 271.07 212.629C259.317 213.42 240.759 213.786 229 213.15L225.17 215.33C216.458 223.468 210.142 234.913 205.913 247.183C201.685 259.453 198.62 274.977 196.983 288.116H211.495L216.215 297.233ZM216.215 297.233C212.371 297.308 219.984 298.148 216.215 297.233Z" stroke="#828892" stroke-width="2.60126"/>
<path d="M228.011 235.459C228.601 234.689 229.423 234.13 230.355 233.865C232.051 233.422 233.799 234.17 235.439 234.789C240.797 236.802 249.153 244.679 254.845 244.083C256.543 243.903 258.352 243.542 259.537 242.313C261.648 240.121 261.028 235.971 263.588 234.327C264.444 233.777 265.498 233.643 266.514 233.584C271.102 233.317 275.659 234.294 280.229 234.789C284.799 235.284 289.634 235.25 293.716 233.136C295.603 232.151 297.249 230.761 298.535 229.064C300.623 236.859 296.989 243.81 292.948 247.911C290.313 250.585 284.614 251.875 281.85 254.536C281.658 254.724 281.482 254.927 281.324 255.145C278.647 255.354 275.962 255.426 273.278 255.362L245.027 255.143C241.026 255.112 236.786 255.014 233.408 252.869C230.03 250.724 225.528 238.597 228.011 235.459Z" fill="#828892"/>
<path d="M253.508 248.024C258.541 245.425 261.846 239.627 261.142 234.006C260.789 231.189 259.524 228.553 257.919 226.211C250.534 215.436 235.833 210.987 223.134 214.045C220.004 214.769 217.005 215.971 214.242 217.609C207.526 221.679 202.919 228.62 200.307 236.025C197.695 243.431 196.9 251.341 196.386 259.176C195.703 269.594 195.483 280.03 195.727 290.482C201.642 290.817 207.574 290.665 213.464 290.027C212.929 276.77 212.397 263.423 214.302 250.293C214.996 245.513 216.089 240.602 219.017 236.76C223.751 230.55 236.689 228.867 234.436 239.283C232.299 249.162 246.637 251.572 253.508 248.024Z" fill="white" stroke="#828892" stroke-width="2.60126"/>
<path d="M259.498 283.149C261.671 282.324 263.881 281.396 265.528 279.755C267.862 277.429 268.722 274.019 269.131 270.749C269.54 267.479 269.608 264.115 270.761 261.028C273.064 254.858 280.043 250.964 286.504 251.778C284.384 252.777 282.241 253.771 280.845 255.115C277.2 258.622 276.282 273.336 276.054 278.949C275.951 281.459 276.002 291.568 274.494 293.303C273.91 293.976 251.861 294.573 241.27 295.68C232.929 296.552 224.57 297.07 216.193 297.235C215.619 297.247 215.044 297.255 214.469 297.261C214.291 295.144 214.267 293.017 214.399 290.897C229.79 291.236 245.102 288.605 259.498 283.149Z" fill="#828892"/>
<path d="M246.328 233.717C244.841 231.422 242.023 229.836 239.367 229.183C234.631 228.018 228.234 227.454 223.858 229.607C218.636 232.176 217.194 238.044 215.677 243.662C214.16 249.281 214.263 255.192 214.376 261.01C214.772 281.286 215.168 301.562 215.564 321.837C217.139 322.016 222.53 321.683 224.104 321.862C221.897 300.006 219.573 278.413 219.758 256.568C219.806 250.938 220.478 243.839 224.319 239.723C230.088 233.538 232.946 238.047 237.613 241.773C242.974 246.053 250.412 240.02 246.328 233.717Z" fill="#828892"/>
<path d="M246.018 233.717C244.154 231.56 242.06 229.797 239.113 229.144C233.859 227.98 228.102 227.935 223.247 230.088C217.454 232.657 213.698 238.044 212.015 243.662C210.332 249.281 210.446 255.192 210.571 261.01C211.011 281.286 211.451 301.562 211.892 321.837C213.639 322.016 219.619 321.683 221.366 321.862C218.916 300.006 216.339 278.413 216.544 256.568C216.596 250.938 217.342 243.839 221.603 239.723C228.003 233.538 234.167 237.613 239.345 241.339C245.29 245.619 250.028 238.358 246.018 233.717Z" fill="white" stroke="#828892" stroke-width="2.60126"/>
<path d="M263.52 206.671C254.283 199.896 242.453 202.873 237.693 205.208C243.277 207.849 255.665 214.074 260.551 217.841C265.437 221.609 269.997 227.296 271.666 229.668C272.799 224.826 272.757 213.447 263.52 206.671Z" fill="#828892"/>
<path d="M192.648 210.532L191.702 211.942L192.648 210.532L200.196 215.598C201.797 216.673 201.589 219.09 199.827 219.875L179.084 229.121C178.178 229.525 177.117 229.343 176.397 228.66L167.219 219.945M192.648 210.532L167.219 219.945M192.648 210.532C192.072 210.145 191.359 210.021 190.686 210.189M192.648 210.532L190.686 210.189M167.219 219.945C165.816 218.613 166.436 216.257 168.312 215.788L190.686 210.189M167.219 219.945L190.686 210.189" fill="white" stroke="#828892" stroke-width="3.39566"/>
<path d="M178.423 221.438L174.384 217.648C173.954 217.244 174.133 216.524 174.703 216.369L180.191 214.878C180.416 214.817 180.658 214.864 180.844 215.005L184.933 218.103C185.402 218.458 185.302 219.19 184.754 219.406L179.216 221.59C178.945 221.697 178.636 221.638 178.423 221.438Z" fill="#828892"/>
<path d="M175.748 233.217L176.916 231.985L175.748 233.217C176.513 233.943 177.658 234.098 178.589 233.602L200.81 221.761C201.61 221.335 202.109 220.503 202.109 219.597V218.95C202.109 217.186 200.303 215.999 198.684 216.699L199.357 218.257L198.684 216.699L178.377 225.475L169.885 217.705C168.311 216.266 165.777 217.382 165.777 219.515V222.705C165.777 223.378 166.053 224.021 166.541 224.484L175.748 233.217Z" fill="white" stroke="#828892" stroke-width="3.39566"/>
<path d="M94.8301 322.105H207.216L186.194 312.969L192.004 295.374L171.012 312.969L161.87 299.096L156.453 312.292L142.232 305.187L140.201 317.706L105.326 305.187L109.389 317.029L86.0269 308.909L94.8301 322.105Z" fill="#828892"/>
<path fill-rule="evenodd" clip-rule="evenodd" d="M197.764 150.94L205.966 161.181L207.005 145.49L203.911 153.173L194.051 138.496L192.128 153.035L180.254 139.317L175.892 157.99L162.441 144.187C163.917 139.873 166.387 135.829 169.85 132.419C181.738 120.71 200.815 120.906 212.46 132.856C224.105 144.806 223.908 163.985 212.02 175.693C200.132 187.401 181.055 187.205 169.41 175.255C168.198 174.012 167.115 172.69 166.16 171.307L181.145 175.595L184.869 154.785L196.243 166.827L197.764 150.94Z" fill="#828892"/>
<path d="M198.227 135.973C200.72 135.481 202.598 133.671 203.68 131.349C204.763 129.027 205.101 126.109 204.513 123.133C203.925 120.157 202.504 117.587 200.619 115.851C198.735 114.115 196.31 113.155 193.817 113.647C191.325 114.14 189.446 115.95 188.364 118.271C187.282 120.594 186.943 123.511 187.531 126.487C188.119 129.463 189.541 132.033 191.425 133.77C193.309 135.506 195.734 136.465 198.227 135.973Z" fill="white" stroke="#828892" stroke-width="2.50991"/>
<path fill-rule="evenodd" clip-rule="evenodd" d="M194.983 130.408C196.683 130.044 197.467 126.913 196.724 123.416C195.988 119.887 194.003 117.363 192.303 117.727C191.099 117.979 190.06 118.943 190.375 120.949L194.339 122.265L191.308 124.125C191.491 124.821 191.64 125.526 191.756 126.237C192.238 129.53 193.553 130.706 194.983 130.408Z" fill="#828892"/>
<path d="M194.613 112.607C190.866 112.718 187.874 119.104 187.06 123.268C192.991 119.271 196.953 116.887 201.232 116.638C199.786 113.028 197.824 112.512 194.613 112.607Z" fill="#828892"/>
<path d="M179.531 131.116C181.007 130.824 182.076 129.76 182.672 128.482C183.269 127.202 183.443 125.625 183.13 124.04C182.817 122.455 182.056 121.063 181.018 120.106C179.981 119.15 178.587 118.572 177.111 118.864C175.635 119.155 174.566 120.22 173.97 121.498C173.374 122.778 173.199 124.355 173.512 125.94C173.825 127.525 174.586 128.917 175.624 129.874C176.662 130.829 178.055 131.407 179.531 131.116Z" fill="white" stroke="#828892" stroke-width="2.50991"/>
<path fill-rule="evenodd" clip-rule="evenodd" d="M177.633 128.373C178.668 128.151 179.145 126.246 178.693 124.118C178.245 121.97 177.037 120.434 176.002 120.655C175.27 120.808 174.637 121.395 174.829 122.616L177.241 123.417L175.397 124.549C175.508 124.973 175.599 125.402 175.669 125.835C175.963 127.839 176.763 128.554 177.633 128.373Z" fill="#828892"/>
<path d="M177.626 118.975C175.779 119.029 174.395 119.37 173.993 121.423C176.888 121.097 179.081 121.134 181.585 122.367C180.872 120.588 179.209 118.928 177.626 118.975Z" fill="#828892"/>
<path d="M231.573 162.041C225.475 167.332 216.236 166.844 216.236 166.844C216.236 166.844 216.918 157.59 223.016 152.299C229.114 147.007 238.353 147.495 238.353 147.495C238.353 147.495 237.671 156.749 231.573 162.041Z" fill="#828892"/>
<path d="M220.47 177.599C220.289 183.888 216.248 188.994 216.248 188.994C216.248 188.994 212.468 183.858 212.649 177.569C212.83 171.28 216.87 166.174 216.87 166.174C216.87 166.174 220.651 171.31 220.47 177.599Z" fill="#828892"/>
<path d="M227.323 168.2C232.396 171.03 234.783 176.39 234.783 176.39C234.783 176.39 228.891 177.168 223.817 174.337C218.743 171.507 216.357 166.148 216.357 166.148C216.357 166.148 222.249 165.37 227.323 168.2Z" fill="#828892"/>
<defs>
<clipPath id="clip0_4592_188070">
<rect width="359.376" height="316.994" fill="white" transform="translate(37.3125 3.33203)"/>
</clipPath>
</defs>
</svg>
