<svg width="480" height="481" viewBox="0 0 480 481" fill="none" xmlns="http://www.w3.org/2000/svg">
<g clip-path="url(#clip0_3059_97937)">
<path d="M207.69 501.443C200.776 475.936 191.699 452.811 174.815 432.194C166.754 422.349 158.209 413.021 150.25 403.046C142.114 392.835 135.609 381.415 128.758 370.338C115.694 349.218 101.65 328.301 85.4402 309.447C84.6579 308.529 78.019 301.413 83.7911 307.478C81.793 305.382 79.7104 303.369 77.6278 301.356C73.4377 297.307 68.9753 293.543 64.4253 289.917C62.1127 288.069 59.7079 286.339 57.3077 284.615C56.4096 283.966 48.0449 278.559 54.9967 282.863C43.4668 275.722 36.6777 270.6 30.5193 258.005C20.8951 238.315 38.0124 215.03 58.0744 212.808C77.2196 210.686 92.7048 222.559 107.226 233.436C119.004 242.259 129.097 252.917 139.033 263.698C157.211 283.41 172.249 306.307 185.106 329.739C193.711 345.431 201.744 360.912 205.477 378.575C208.185 391.874 209.438 405.426 209.214 418.995C209.161 446.372 210.791 473.861 209.826 501.216C209.782 501.454 209.663 501.672 209.485 501.836C209.307 502.001 209.081 502.103 208.84 502.129C208.599 502.154 208.356 502.1 208.148 501.976C207.941 501.852 207.779 501.664 207.687 501.44L207.69 501.443Z" fill="white"/>
<path d="M212.867 484.921C208.643 476.55 208.46 465.595 207.335 456.375C205.711 444.474 203.409 432.675 200.441 421.036C197.29 407.951 193.918 397.595 191.917 385.893C189.897 374.062 190.92 361.495 190.665 349.538C190.149 325.703 189.413 301.936 187.536 278.162C186.71 266.821 185.171 255.543 182.929 244.395C183.907 248.072 183.865 247.912 182.804 243.915C181.969 240.76 180.938 237.664 179.908 234.565C176.848 225.378 174.097 216.919 176.549 207.102C181.152 188.653 203.329 169.936 223.107 182.27C233.662 188.856 239.692 194.436 244.769 205.989C246.774 211.06 248.391 216.275 249.607 221.59C252.9 234.015 255.338 246.651 256.902 259.408C259.834 284.409 261.078 309.578 260.627 334.745C260.441 348.718 260.248 362.984 258.734 376.887C257.11 391.818 250.544 404.976 243.345 417.853C237.556 428.217 231.601 438.365 226.464 449.084C220.988 460.491 219.705 474.036 213.634 484.94C213.598 485.013 213.542 485.073 213.472 485.115C213.402 485.156 213.322 485.176 213.241 485.174C213.16 485.171 213.082 485.146 213.015 485.1C212.948 485.054 212.896 484.99 212.864 484.915L212.867 484.921Z" fill="white"/>
<path d="M216.867 470.776C226.218 450.384 233.685 429.183 239.176 407.435C244.682 385.704 249.443 362.273 259.986 342.426C271.306 321.123 287.91 301.669 303.359 283.252C319.527 263.973 336.621 244.568 356.881 229.465C372.384 217.911 395.259 222.006 406.434 237.477C411.84 245.137 414.027 254.607 412.528 263.858C411.028 273.11 405.961 281.407 398.412 286.973C394.657 289.772 391.069 292.71 387.557 295.813C389.982 293.532 389.701 293.836 386.713 296.727C384.275 299.123 381.905 301.592 379.516 304.038C372.005 311.748 365.087 320.153 358.138 328.365C343.551 345.6 330.616 364.67 315.088 381.028C300.067 396.864 281.354 409.209 264.479 423.038C247.218 437.289 232.055 453.9 219.437 472.38C218.43 473.831 216.161 472.313 216.864 470.769L216.867 470.776Z" fill="white"/>
<path d="M67.9662 232.114C81.1617 239.264 93.4325 247.998 104.506 258.122C102.487 251.998 100.995 245.713 100.046 239.335C100.043 239.254 100.068 239.173 100.117 239.108C100.166 239.043 100.237 238.997 100.317 238.978C100.397 238.96 100.48 238.97 100.553 239.006C100.627 239.043 100.685 239.104 100.718 239.179C103.622 247.772 107.061 256.175 111.016 264.339C111.955 265.266 112.894 266.197 113.803 267.144C114.256 267.539 114.718 267.925 115.155 268.344C115.301 268.491 115.409 268.673 115.468 268.872C120.384 274.041 125.058 279.441 129.49 285.075C127.946 277.076 127.406 268.916 127.882 260.784C127.9 260.388 128.537 260.418 128.572 260.799C129.413 268.556 131.021 276.21 133.37 283.651C134.564 287.825 136.274 291.891 137.664 296.032C142.101 302.308 146.297 308.775 150.251 315.434C152.685 319.513 155.136 323.635 157.605 327.798C157.538 327.276 157.466 326.751 157.408 326.235C156.51 318.34 154.934 310.139 157.261 302.379C157.418 301.883 158.173 301.968 158.089 302.513C156.837 310.495 159.68 318.114 161.439 325.798C162.606 330.906 164.127 336.068 165.457 341.253C171.881 352.419 178.141 363.834 183.837 375.477C184.048 366.286 184.729 357.054 184.225 348.229C184.22 348.105 184.262 347.984 184.343 347.89C184.424 347.796 184.538 347.736 184.662 347.723C184.785 347.709 184.909 347.743 185.008 347.818C185.108 347.893 185.175 348.002 185.196 348.124C187.374 361.509 188.298 374.964 189.868 388.372C196.636 403.308 201.864 418.893 205.473 434.887C206.089 437.753 201.691 438.576 200.643 436.059C197.535 428.62 194.384 421.264 191.192 413.937C190.836 413.999 190.47 413.98 190.122 413.88C189.774 413.78 189.453 413.602 189.185 413.36C170.78 397.98 155.814 380.183 134.344 368.521C134.021 368.349 134.148 367.74 134.545 367.861C152.914 373.331 171.248 383.937 184.362 398.556C176.805 381.827 168.894 365.341 160.368 349.029C155.687 344.577 151.182 339.925 146.11 335.88C135.954 327.781 123.083 323.8 111.317 318.703C110.472 318.334 110.877 316.859 111.797 317.121C126.803 321.402 140.87 326.287 152.749 334.804C150.558 330.801 148.339 326.806 146.061 322.817C143.669 318.639 141.197 314.493 138.645 310.38C129.224 304.956 120.606 297.998 111.198 292.491C99.8918 286.113 87.9886 280.855 75.6581 276.791C74.7334 276.478 75.2387 275.093 76.1274 275.206C92.6064 277.316 112.604 283.556 127.855 294.077C120.955 284.197 113.413 274.779 105.279 265.884C93.8411 260.08 81.818 255.507 69.412 252.243C68.736 252.059 68.8722 251.01 69.5903 251.149C78.5449 252.853 88.5226 254.578 97.6211 257.941C88.3569 248.712 78.2032 240.42 67.3075 233.184C66.713 232.775 67.345 231.781 67.9662 232.114Z" fill="#D4D7DC"/>
<path d="M205.635 304.703C205.282 303.836 206.591 303.098 207.093 303.922C214.122 315.106 219.633 327.173 223.483 339.805C224.018 328.169 224.488 316.546 224.391 304.975C224.372 303.045 224.338 301.117 224.288 299.193C218.256 283.933 212.759 268.526 203.359 254.855C203.219 254.661 203.161 254.42 203.2 254.184C203.238 253.948 203.369 253.737 203.563 253.597C203.757 253.457 203.999 253.4 204.235 253.438C204.472 253.476 204.683 253.607 204.823 253.801C212.743 264.184 219.138 275.644 223.815 287.834C223.277 278.229 222.399 268.634 221.291 259.061C216.669 248.361 211.853 237.397 203.913 228.73C203.377 228.15 204.355 227.241 204.922 227.792C211.391 234.291 216.583 241.944 220.229 250.353C218.268 235.132 215.848 219.965 213.441 204.866C213.432 204.766 213.46 204.667 213.518 204.585C213.576 204.504 213.661 204.447 213.759 204.423C213.856 204.399 213.958 204.411 214.047 204.457C214.136 204.502 214.206 204.578 214.244 204.67C218.855 219.214 222.829 233.96 226.054 248.839C228.467 241.371 233.394 234.739 237.121 227.55C237.183 227.416 237.296 227.312 237.435 227.261C237.574 227.21 237.728 227.216 237.862 227.278C237.997 227.34 238.101 227.453 238.152 227.592C238.203 227.731 238.197 227.885 238.135 228.019C234.078 237.353 228.961 245.551 227.442 255.506C229.304 264.778 230.853 274.096 232.089 283.46C235.157 274.593 240.095 266.573 244.177 257.468C244.62 256.474 246.066 257.165 245.695 258.162C242.879 265.804 238.465 272.675 236.182 280.528C234.893 284.974 234.272 289.554 233.32 294.063C234.986 310.009 235.567 326.049 235.06 342.074C235.602 340.921 236.134 339.764 236.701 338.606C240.214 331.432 245.564 325.353 248.576 317.933C248.953 316.996 250.563 317.464 250.297 318.454C248.441 325.195 244.778 331.087 242.09 337.505C239.43 343.843 237.025 350.263 234.257 356.536C233.065 372.062 230.684 387.473 227.134 402.636C226.597 404.908 223.044 405.069 222.857 402.527C221.996 388.66 221.897 374.757 222.563 360.88C217.153 341.998 213.092 323.062 205.635 304.703Z" fill="#D4D7DC"/>
<path d="M338.245 288.04C349.111 284.727 362.295 286.321 372.456 289.045C372.67 289.085 372.86 289.207 372.985 289.386C373.111 289.564 373.161 289.784 373.127 289.999C373.092 290.214 372.975 290.407 372.8 290.537C372.625 290.667 372.406 290.723 372.19 290.695C359.017 289.445 343.004 288.793 331.462 296.321C331.22 296.488 330.948 296.606 330.66 296.666C330.372 296.726 330.075 296.728 329.786 296.671C320.711 306.185 312.001 316.048 303.514 325.925C302.888 326.661 302.289 327.42 301.666 328.156C312.741 325.928 327.796 329.474 336.782 330.958C337.778 331.124 337.498 332.512 336.538 332.47C329.106 332.055 321.658 332.045 314.226 332.438C308.177 332.81 301.978 334.975 295.976 335.029C287.91 345.085 280.368 355.559 273.305 366.334C271.669 368.834 270.134 371.369 268.636 373.927C277.571 369.409 287.936 366.867 297.054 363.688C297.209 363.629 297.381 363.633 297.533 363.701C297.685 363.768 297.804 363.893 297.863 364.048C297.923 364.203 297.918 364.376 297.851 364.527C297.783 364.679 297.658 364.797 297.503 364.857C290.509 367.884 283.344 370.508 276.416 373.699C272.162 375.671 268.179 378.178 264.562 381.159C258.314 392.684 252.771 404.572 246.194 415.949C245.204 417.668 242.126 417.074 242.629 414.867C244.705 406.122 247.689 397.617 251.532 389.49C251.532 389.478 251.532 389.462 251.547 389.445C251.563 389.428 251.572 389.407 251.583 389.389C252.089 388.295 252.625 387.216 253.159 386.135C256.585 368.965 262.908 354.477 271.115 339.002C271.197 338.844 271.337 338.723 271.505 338.665C271.674 338.607 271.858 338.616 272.021 338.69C272.183 338.763 272.311 338.896 272.378 339.061C272.445 339.227 272.446 339.411 272.381 339.577C268.938 347.639 265.171 355.251 262.77 363.732C261.947 366.637 261.27 369.573 260.6 372.511C269.413 358.282 279.358 344.783 290.34 332.148C292.374 325.584 294.96 319.208 297.467 312.793C300.655 304.634 306.166 297.836 310.217 290.121C310.274 290.01 310.373 289.925 310.492 289.884C310.61 289.843 310.74 289.85 310.854 289.902C310.968 289.955 311.057 290.05 311.103 290.167C311.149 290.283 311.147 290.413 311.1 290.529C308.44 297.382 304.763 303.756 302.101 310.609C300.389 315.019 298.884 319.504 297.387 323.99C308.382 311.36 320.013 299.297 332.235 287.847C334.286 280.355 337.012 273.064 340.379 266.062C344.134 257.97 351.239 251.677 356.55 244.626C356.924 244.129 357.801 244.659 357.488 245.212C353.164 252.832 348.043 259.901 344.189 267.806C342.142 272.388 340.362 277.084 338.855 281.87C352.251 269.901 366.797 259.28 382.282 250.164C382.739 249.9 383.221 250.537 382.772 250.841C366.758 261.771 351.846 274.229 338.245 288.04Z" fill="#D4D7DC"/>
<path d="M198.651 507.22C199.131 484.746 204.378 462.356 216.788 443.461C231.599 420.897 259.482 407.117 283.695 397.215C318.917 383.255 356.26 375.381 394.126 373.931C407.384 373.384 422.924 371.838 435.746 375.117C450.991 379.023 463.1 389.284 464.888 405.768C465.786 414.945 463.05 424.108 457.267 431.295C451.484 438.483 443.113 443.123 433.947 444.222C429.213 444.606 424.454 444.572 419.726 444.122C417.692 444.012 409.164 443.847 419.436 444.056C414.409 443.953 409.38 444.042 404.353 444.189C393.917 444.489 383.506 445.43 373.149 446.728C362.495 448.06 351.898 449.935 341.407 452.212C332.413 454.164 348.705 450.307 339.769 452.575C337.142 453.242 334.533 453.981 331.928 454.714C325.861 456.433 319.88 458.422 313.935 460.538C303.84 464.133 294.347 468.872 284.555 473.153C282.16 474.2 279.808 475.34 277.46 476.486C276.22 477.086 268.503 481.246 275.821 477.22C269.613 480.638 263.324 483.693 257.011 486.875C239.8 495.543 221.673 498.844 205.682 510.347C203.234 512.111 198.574 510.695 198.642 507.221L198.651 507.22Z" fill="#D4D7DC"/>
<path d="M232.535 455.08C238.366 441.872 248.665 430.876 258.821 420.716C258.904 420.616 259.023 420.553 259.153 420.541C259.282 420.529 259.411 420.569 259.511 420.651C259.611 420.734 259.674 420.854 259.686 420.983C259.698 421.112 259.658 421.241 259.575 421.341C253.436 429.43 247.904 437.962 243.023 446.866C245.118 445.324 247.169 443.847 249.092 442.444C264.34 431.61 281.027 422.955 298.67 416.729C299.659 416.366 300.66 416.074 301.657 415.738C303.671 412.894 305.91 410.215 308.352 407.728C313.687 402.285 320.689 399.031 326.075 393.64C326.635 393.08 327.574 393.807 327.045 394.437C322.686 399.578 316.95 403.09 312.318 407.94C310.513 409.849 308.822 411.863 307.255 413.972C323.728 409.24 341.028 407.615 358.084 406.829C363.852 406.565 369.625 406.399 375.404 406.332C383.07 397.933 392.951 389.886 403.641 386.903C404.32 386.711 404.736 387.684 404.042 387.936C393.94 391.53 387.805 399.512 380.428 406.312C394.184 406.25 407.926 407.21 421.541 409.181C422.146 409.272 422.151 410.275 421.511 410.284C408.951 410.284 396.462 410.863 383.975 411.647C395.021 415.616 405.323 422.595 414.47 429.395C414.543 429.45 414.454 429.551 414.381 429.501C402.22 421.709 389.824 416.868 376.469 412.139C371.747 412.461 367.022 412.793 362.295 413.135C347.213 414.014 332.248 416.312 317.599 419.998C333.089 423.557 347.426 432.266 360.94 440.204C361.395 440.468 361.096 441.187 360.594 440.961C343.291 433.17 326.541 426.271 307.978 422.888C306.93 423.238 305.872 423.558 304.828 423.933C295.754 427.252 286.977 431.33 278.589 436.122C288.551 434.853 298.972 437.987 307.789 442.606C308.003 442.708 308.168 442.89 308.249 443.113C308.33 443.336 308.32 443.582 308.221 443.797C308.122 444.012 307.943 444.18 307.721 444.265C307.499 444.349 307.253 444.344 307.036 444.249C295.118 439.171 283.566 439.068 270.952 440.967C270.763 440.998 270.57 440.989 270.386 440.94C266.135 443.555 261.962 446.264 257.868 449.066C254.365 451.461 250.967 454.014 247.651 456.671C261.719 455.833 276.666 458.38 289.635 460.762C289.717 460.775 289.795 460.804 289.865 460.847C289.935 460.891 289.995 460.947 290.044 461.014C290.092 461.081 290.126 461.156 290.145 461.237C290.164 461.317 290.167 461.4 290.153 461.481C290.14 461.562 290.111 461.64 290.068 461.71C290.024 461.779 289.968 461.84 289.901 461.888C289.834 461.936 289.758 461.971 289.678 461.989C289.598 462.008 289.515 462.011 289.434 461.998C279.891 460.742 270.279 460.087 260.653 460.037C254.338 460.211 248.037 460.72 241.776 461.56C239.956 463.145 238.163 464.751 236.406 466.405C230.792 471.659 225.663 477.588 218.855 481.293C218.403 481.596 217.866 481.746 217.322 481.719C216.778 481.693 216.258 481.493 215.837 481.148C215.416 480.803 215.118 480.332 214.987 479.804C214.856 479.276 214.898 478.721 215.108 478.219C217.823 469.366 224.781 461.704 232.535 455.08Z" fill="#B9BEC8"/>
</g>
<path d="M58.7196 425.767C100.191 442.246 154.958 406.903 169.432 390.798C143.887 398.867 93.2203 410.988 71.068 401.497C48.9156 392.006 42.7157 344.391 40.991 339.174C31.846 361.651 17.2483 409.289 58.7196 425.767Z" fill="#8C8C8C"/>
<path d="M27.9591 333.819L26.106 334.157V332.274V303.397V301.514L27.9591 301.852L86.6008 312.549C88.059 312.634 88.8587 313.809 89.2233 314.658C89.6323 315.611 89.7999 316.768 89.7999 317.835C89.7999 318.903 89.6323 320.06 89.2233 321.013C88.8588 321.862 88.059 323.037 86.6009 323.122L27.9591 333.819Z" fill="white" stroke="#8C8C8C" stroke-width="3.14237"/>
<path d="M39.4585 317.762C39.5223 322.651 38.619 326.636 36.5704 329.434C34.461 332.316 31.3027 333.719 27.4224 333.719C23.4807 333.719 20.3497 332.317 18.2546 329.429C16.2288 326.636 15.3252 322.66 15.2603 317.793C15.195 312.899 16.0981 308.911 18.1482 306.11C20.2577 303.229 23.416 301.826 27.2963 301.826C31.2339 301.826 34.395 303.225 36.5074 306.11C38.5539 308.906 39.4572 312.887 39.4585 317.762Z" fill="white" stroke="#8C8C8C" stroke-width="3.14237"/>
<path d="M40.6394 317.753C40.6394 323.154 39.6343 327.521 37.4055 330.571C35.1129 333.708 31.6901 335.233 27.4249 335.233C23.1764 335.233 19.7512 333.762 17.4511 330.662C15.2149 327.649 14.2103 323.317 14.2103 317.917C14.2103 312.516 15.2154 308.15 17.4442 305.1C19.7339 301.966 23.1508 300.441 27.4082 300.437C31.6732 300.351 35.1038 301.83 37.4021 304.952C39.6352 307.984 40.6394 312.354 40.6394 317.753Z" fill="white" stroke="#8C8C8C" stroke-width="3.14237"/>
<path d="M40.6394 317.753C40.6394 323.154 39.6343 327.521 37.4055 330.571C35.1129 333.708 31.6901 335.233 27.4249 335.233C23.1764 335.233 19.7512 333.762 17.4511 330.662C15.2149 327.649 14.2103 323.317 14.2103 317.917C14.2103 312.516 15.2154 308.15 17.4442 305.1C19.7339 301.966 23.1508 300.441 27.4082 300.437C31.6732 300.351 35.1038 301.83 37.4021 304.952C39.6352 307.984 40.6394 312.354 40.6394 317.753Z" fill="#8C8C8C" stroke="#8C8C8C" stroke-width="3.14237"/>
<path d="M53.0716 306.864C55.7194 310.773 55.8454 317.33 55.5933 320.23C55.3411 323.257 54.2064 326.787 52.5673 328.805" stroke="#8C8C8C" stroke-width="3.14237"/>
<path d="M46.1793 305.665C49.1166 310.001 49.2565 317.275 48.9767 320.493C48.697 323.85 47.4382 327.767 45.6198 330.005" stroke="#8C8C8C" stroke-width="3.14237"/>
<path fill-rule="evenodd" clip-rule="evenodd" d="M126.74 342.933L142.855 357.685L140.518 331.581L137.415 345.027L117.432 323.398L118.019 347.831L94.9729 328.299L92.6177 360.166L66.9615 340.9C68.2741 333.419 71.2914 326.127 76.1008 319.623C92.6171 297.287 124.014 292.702 146.228 309.383C168.442 326.064 173.061 357.693 156.545 380.03C140.028 402.366 108.631 406.95 86.4172 390.269C84.1029 388.532 81.9795 386.631 80.0511 384.596L105.785 387.802L106.542 352.58L128.334 369.482L126.74 342.933Z" fill="#8C8C8C"/>
<path d="M147.952 379.829C147.952 379.829 143.167 392.38 155.333 394.262C170.541 396.615 185.128 368.066 214.417 361.793C275.75 348.656 237.573 452.586 231.315 470.01" stroke="#8C8C8C" stroke-width="12"/>
<path d="M220.397 308.875C230.969 333.511 196.241 367.473 186.57 373.24C192.111 359.433 198.924 345.444 193.367 332.196C184.448 310.939 109.348 308.273 109.348 308.273C109.348 308.273 201.392 264.587 220.397 308.875Z" fill="#8C8C8C"/>
<path d="M52.2873 337.486L50.4341 337.824V335.94V299.729V297.846L52.2873 298.184L125.849 311.603C127.463 311.686 128.377 312.984 128.817 314.008C129.302 315.137 129.508 316.531 129.508 317.835C129.508 319.139 129.302 320.532 128.817 321.662C128.377 322.686 127.463 323.983 125.849 324.066L52.2873 337.486Z" fill="white" stroke="#8C8C8C" stroke-width="3.14237"/>
<path d="M66.3812 317.747C66.461 323.837 65.3336 328.735 62.8367 332.146C60.2789 335.64 56.448 337.355 51.6871 337.355C46.8487 337.355 43.0532 335.641 40.5137 332.141C38.0436 328.735 36.9158 323.846 36.8349 317.779C36.7536 311.684 37.8809 306.783 40.3793 303.369C42.9371 299.875 46.768 298.16 51.5289 298.16C56.3632 298.16 60.1969 299.871 62.7576 303.369C65.2524 306.778 66.3799 311.671 66.3812 317.747Z" fill="white" stroke="#8C8C8C" stroke-width="3.14237"/>
<path d="M27.63 333.9C35.5067 333.9 39.5288 328.369 39.5288 317.642C39.5288 306.915 35.5067 301.384 27.63 301.552C19.7533 301.552 15.7311 307.083 15.7311 317.809C15.7311 328.536 19.7533 333.9 27.63 333.9Z" fill="#8C8C8C"/>
<ellipse cx="26.2431" cy="317.476" rx="9.83619" ry="13.4562" transform="rotate(0.131008 26.2431 317.476)" fill="white"/>
<path d="M29.9653 317.049C30.0217 321.8 28.1843 325.677 25.8733 325.708C23.9323 325.723 22.5252 323.849 22.7544 319.431C22.8224 317.559 22.7143 315.686 22.4309 313.835C21.857 309.875 23.7516 308.498 25.6843 308.482C27.9953 308.45 29.9252 312.257 29.9653 317.049Z" fill="#8C8C8C"/>
<path d="M20.7593 311.281L27.1555 314.925L17.644 318.433L20.7593 311.281Z" fill="white"/>
<path d="M67.8617 317.735C67.8617 324.469 66.6068 329.845 63.8833 333.572C61.0961 337.387 56.9339 339.256 51.6899 339.256C46.4626 339.256 42.298 337.451 39.5033 333.685C36.7725 330.005 35.5179 324.674 35.5179 317.94C35.5179 311.206 36.7729 305.83 39.4964 302.103C42.2807 298.292 46.437 296.424 51.6732 296.42C56.9169 296.312 61.0869 298.125 63.8799 301.918C66.6076 305.622 67.8617 311.003 67.8617 317.735Z" fill="#8C8C8C" stroke="#8C8C8C" stroke-width="3.14237"/>
<ellipse cx="49.9889" cy="317.531" rx="13.2537" ry="18.1314" transform="rotate(0.131008 49.9889 317.531)" fill="white"/>
<path d="M55.0043 316.956C55.0804 323.359 52.6046 328.582 49.4907 328.625C46.8752 328.645 44.9792 326.119 45.2881 320.167C45.3798 317.644 45.2341 315.12 44.8522 312.625C44.079 307.29 46.6318 305.435 49.236 305.412C52.3499 305.369 54.9503 310.499 55.0043 316.956Z" fill="#8C8C8C"/>
<path d="M42.5999 309.185L51.2184 314.095L38.4022 318.821L42.5999 309.185Z" fill="white"/>
<path d="M83.8486 304.078C87.1689 308.98 87.327 317.202 87.0108 320.839C86.6946 324.634 85.2716 329.062 83.2162 331.592" stroke="#8C8C8C" stroke-width="3.14237"/>
<path d="M75.2065 302.573C78.8898 308.011 79.0652 317.133 78.7144 321.167C78.3636 325.377 76.7851 330.289 74.5049 333.095" stroke="#8C8C8C" stroke-width="3.14237"/>
<path d="M296.381 475.659H150.033L145.295 432.512L177.934 460.912L192.147 438.52L200.57 459.82L222.68 448.351L225.839 468.559L280.062 448.351L273.744 467.467L310.068 454.358L296.381 475.659Z" fill="#8C8C8C"/>
<defs>
<clipPath id="clip0_3059_97937">
<rect width="438.103" height="289.104" fill="white" transform="matrix(-1 0 0 1 465.463 178.098)"/>
</clipPath>
</defs>
</svg>
