<svg width="422" height="318" viewBox="0 0 422 318" fill="none" xmlns="http://www.w3.org/2000/svg">
<g clip-path="url(#clip0_4313_193444)">
<circle cx="211.357" cy="180.545" r="179.815" fill="#FFE75C"/>
<mask id="mask0_4313_193444" style="mask-type:alpha" maskUnits="userSpaceOnUse" x="31" y="0" width="361" height="361">
<circle cx="211.356" cy="180.545" r="179.815" fill="#FFE75C"/>
</mask>
<g mask="url(#mask0_4313_193444)">
<path d="M-2.15727 235.506C-1.05597 234.639 0.108461 234.803 1.14718 235.88C1.24831 235.975 1.24216 235.975 1.12706 235.88C0.632004 233.041 5.23778 234.058 6.99393 234.63C6.40724 230.296 10.4369 231.468 13.1335 230.701C12.1735 228.436 13.576 227.095 15.9177 227.642C13.443 225.746 15.2595 223.431 17.8734 222.874C17.0727 221.786 17.3504 220.528 18.445 219.551C18.7327 219.582 18.9523 219.947 19.2317 220.058C18.4986 215.472 24.1967 217.833 25.4193 220.329C25.4299 219.929 25.469 219.451 25.4483 219.068C27.3794 219.292 29.0433 221.177 29.9362 222.921C32.1215 222.252 33.8318 224.66 34.071 226.747C37.3033 225.292 41.6426 227.04 44.0726 226.019C46.1757 225.138 46.0841 221.423 49.322 222.991C49.2399 223.215 49.1444 224.223 49.127 224.309C49.6232 221.25 53.5579 220.877 55.9818 221.781C56.16 218.834 58.3961 217.456 61.2865 217.863C61.334 215.576 64.0289 213.562 65.2056 216.128C67.6904 215.426 68.9906 218.563 68.319 220.662C71.0233 220.382 72.1542 222.352 71.6665 224.845C75.3637 224.285 74.7105 228.56 73.4081 230.732C76.3857 229.501 75.9884 232.827 75.5514 234.839C79.161 233.827 79.9097 236.155 78.3452 238.813C79.1755 238.766 80.0024 238.952 80.7335 239.349C81.4646 239.746 82.071 240.339 82.485 241.062C84.8317 240.027 86.4577 242.023 85.0116 244.134C86.2213 243.574 87.4059 242.765 88.5692 242.159C89.0017 239.659 90.8863 237.483 92.9956 236.117C89.6588 235.102 91.9871 231.559 94.6322 231.892C94.8775 229.664 97.7914 231.018 98.1333 232.962C100.335 232.004 101.437 233.833 101.182 236.033C102.098 234.017 103.492 233.218 105.066 234.607C106.026 233.014 107.987 232.653 109.749 233.144C109.617 233.036 109.45 230.961 110.863 230.414C108.809 229.483 108.695 227.209 110.522 225.768C109.32 225.919 108.204 225.289 107.078 225.188C107.679 224.158 107.709 223.361 109.192 222.994C105.461 221.676 110.169 218.708 112.48 219.029C107.799 216.777 116.209 215.432 117.552 215.118C115.235 211.707 122.323 210.851 124.505 210.864C121.632 209.448 119.742 204.806 124.728 205.068C119.378 203.46 126.597 201.976 128.396 201.924C125.273 199.248 129.397 196.118 132.329 198.25C135.694 191.751 140.728 199.621 140.728 199.621C140.728 199.621 149.567 197.317 146.553 201.58C149.75 201.063 150.594 202.851 151.785 202.181C148.16 198.935 153.361 198.38 155.689 198.019C154.572 195.979 151.418 191.47 157.09 192.446C154.807 187.112 162.454 190.048 162.454 190.048C162.454 190.048 163.791 187.637 166.569 189.885C167.926 190.983 169.019 193.183 169.701 194.686C172.124 193.146 175.085 194.948 176.885 196.922C182.408 192.22 185.788 198.87 185.788 198.87C185.788 198.87 188.328 196.922 190.787 197.558C193.423 198.239 196.107 199.265 196.921 201.98C198.854 197.821 204.685 200.624 200.858 205.248C203.459 201.153 209.12 204.8 203.908 208.864C207.525 206.609 206.846 213.189 203.848 214.229C208.491 216.188 206.362 221.552 202.709 224.585C201.319 221.139 208.599 221.553 205.542 226.462C205.387 220.36 212.855 221.978 209.163 227.872C209.518 222.569 216.505 223.807 214.451 229.272C214.852 224.336 222.569 226.576 218.083 231.032C219.185 230.165 220.789 232.208 221.109 235.876C221.121 236.015 221.203 235.972 221.089 235.876C220.593 233.037 225.2 234.054 226.955 234.626C226.369 230.292 230.399 231.464 233.095 230.697C232.136 228.432 233.537 227.091 235.88 227.638C233.406 225.742 235.22 223.427 237.835 222.87C237.035 221.783 237.312 220.524 238.406 219.547C238.694 219.578 238.914 219.943 239.194 220.054C238.461 215.468 244.159 217.829 245.381 220.325C245.391 219.925 245.431 219.447 245.409 219.064C247.341 219.288 249.006 221.173 249.898 222.917C252.083 222.248 253.793 224.656 254.032 226.743C257.265 225.288 261.603 227.036 264.034 226.016C266.138 225.134 266.046 221.419 269.286 222.987C269.203 223.211 269.109 224.219 269.09 224.305C269.587 221.246 273.522 220.874 275.945 221.778C276.124 218.83 278.36 217.452 281.254 217.859C281.301 215.572 283.995 213.558 285.173 216.124C287.657 215.422 288.957 218.559 288.285 220.658C290.99 220.378 292.121 222.348 291.634 224.841C295.33 224.281 294.678 228.556 293.375 230.728C296.352 229.497 295.955 232.823 295.518 234.835C299.127 233.823 299.877 236.151 298.312 238.809C299.142 238.762 299.969 238.948 300.7 239.345C301.431 239.742 302.038 240.335 302.451 241.058C304.798 240.023 306.425 242.019 304.979 244.13C306.188 243.57 307.373 242.762 308.537 242.155C308.969 239.655 310.853 237.48 312.963 236.113C309.626 235.098 311.954 231.555 314.599 231.888C314.844 229.66 317.76 231.014 318.1 232.958C320.302 232.001 321.404 233.829 321.149 236.029C322.714 235.067 324.094 233.51 326.089 233.586C325.496 234.262 325.902 234.101 325.033 234.603C325.993 233.01 327.954 232.649 329.716 233.14C329.47 232.978 329.21 232.84 328.938 232.727C329.565 231.706 329.417 230.958 330.83 230.41C328.776 229.479 328.662 227.205 330.49 225.764C329.287 225.915 328.17 225.286 327.046 225.184C327.646 224.154 327.676 223.357 329.158 222.991C325.427 221.672 330.136 218.704 332.447 219.025C327.766 216.773 336.177 215.428 337.52 215.114C335.202 211.703 342.29 210.847 344.471 210.86C341.599 209.444 339.71 204.802 344.695 205.064C339.344 203.456 346.564 201.972 348.362 201.92C345.239 199.244 349.364 196.114 352.296 198.246C352.98 192.274 359.206 197.518 361.472 198.078C363.076 198.477 369.533 197.312 366.519 201.578C369.717 201.062 370.56 202.85 371.752 202.179C368.126 198.933 373.327 198.379 375.655 198.018C374.537 195.977 371.384 191.468 377.057 192.444C374.774 187.111 380.436 189.863 382.421 190.047C384.183 190.209 384.382 188.697 386.536 189.884C388.065 190.723 388.986 193.181 389.668 194.684C392.092 193.144 395.053 194.946 396.852 196.92C399.534 192.808 403.097 198.667 405.756 198.868C407.02 198.964 408.296 196.92 410.753 197.556C413.39 198.238 414.822 200.391 416.887 201.978V344.604H-2.16846L-2.15727 235.506Z" fill="#FFC619"/>
<path d="M91.201 174.935C91.201 174.935 92.5052 236.137 89.8975 258.154H97.72C97.72 258.154 97.1612 196.02 92.5051 174.935H91.201Z" fill="#FFC619"/>
<path d="M113.774 162.201C95.5591 163.021 93.7186 170.607 93.7186 170.607C91.0579 158.51 83.2812 158.92 83.2812 158.92C84.0997 162.611 85.942 168.147 85.942 168.147C66.2952 163.226 60.9736 174.502 60.9736 174.502C65.0772 173.587 69.27 173.134 73.474 173.151C75.2592 171.931 77.1657 170.899 79.1632 170.072C79.2082 170.046 79.2619 170.039 79.3124 170.052C79.3628 170.065 79.4059 170.098 79.4322 170.143C79.4585 170.188 79.4659 170.242 79.4526 170.293C79.4393 170.343 79.4066 170.386 79.3615 170.413C78.1435 171.335 76.8555 172.219 75.6252 173.156C80.4964 173.23 84.0998 173.681 84.0998 173.681C66.0901 184.957 69.1599 196.644 69.1599 196.644C72.5683 195.81 75.6755 192.81 78.1608 189.542C78.3692 187.47 78.5547 185.403 78.6676 183.307C78.6701 183.262 78.6899 183.219 78.7227 183.188C78.7556 183.157 78.7992 183.139 78.8444 183.139C78.8897 183.139 78.9332 183.157 78.9661 183.188C78.999 183.219 79.0187 183.262 79.0213 183.307C79.0581 184.86 79.1615 186.473 79.2107 188.095C79.5087 187.664 79.7961 187.234 80.0728 186.807C80.1611 185.355 80.2008 183.89 80.1483 182.385C80.1427 182.229 80.3645 182.239 80.3841 182.385C80.521 183.436 80.6791 184.533 80.8043 185.646C82.0331 183.643 83.1342 181.564 84.1009 179.421C78.9844 193.773 84.1009 207.305 84.1009 207.305C92.9012 198.079 92.6967 181.676 92.6967 181.676C93.4106 185.549 94.793 189.266 96.7817 192.663C96.6229 191.169 96.5833 189.665 96.6633 188.165C96.6656 188.124 96.6833 188.087 96.7125 188.059C96.7417 188.032 96.7804 188.016 96.8205 188.016C96.8607 188.016 96.8993 188.032 96.9286 188.059C96.9578 188.087 96.9754 188.124 96.9778 188.165C97.2139 190.52 97.6881 192.846 98.3931 195.106C102.566 200.825 107.227 202.998 107.227 202.998C107.022 195.003 99.4503 180.651 99.4503 180.651C100.483 181.726 101.596 182.722 102.78 183.628C102.309 182.258 101.786 180.91 101.215 179.573C101.099 179.301 101.47 179.062 101.622 179.334C102.516 180.931 103.667 182.852 104.55 184.852C108.324 187.209 110.911 187.211 110.911 187.211C110.093 174.295 98.0177 170.605 98.0177 170.605C111.933 168.761 113.774 162.201 113.774 162.201Z" fill="#FFC619"/>
<path d="M161.86 133.592C161.86 133.592 177.649 183.112 169.035 220.991H179.473C179.473 220.991 179.574 164.326 163.294 133.592H161.86Z" fill="#FFC619"/>
<path d="M129.894 128.569C150.857 120.742 156.568 128.424 156.568 128.424C153.782 113.484 162.761 110.211 162.761 110.211C163.603 114.772 164.173 121.91 164.173 121.91C184.006 106.912 195.414 117.089 195.414 117.089C190.4 117.907 185.147 119.707 180.65 121.57C178.049 121.05 175.402 120.8 172.751 120.827C172.688 120.82 172.624 120.838 172.575 120.877C172.525 120.916 172.492 120.974 172.484 121.037C172.476 121.1 172.493 121.163 172.532 121.214C172.57 121.264 172.627 121.298 172.69 121.307C174.507 121.763 176.385 122.142 178.221 122.611C172.756 125.036 168.901 127.277 168.901 127.277C194.64 131.357 196.769 146.029 196.769 146.029C192.519 146.726 187.575 144.829 183.203 142.334C181.977 140.095 180.777 137.849 179.646 135.536C179.621 135.487 179.578 135.45 179.527 135.432C179.475 135.413 179.419 135.414 179.369 135.436C179.318 135.457 179.278 135.496 179.255 135.546C179.232 135.595 179.229 135.652 179.246 135.704C179.949 137.476 180.604 139.347 181.325 141.202C180.78 140.859 180.25 140.512 179.735 140.162C178.939 138.564 178.193 136.929 177.532 135.204C177.464 135.025 177.218 135.144 177.267 135.316C177.615 136.568 177.962 137.884 178.353 139.2C176.005 137.528 173.766 135.709 171.648 133.754C184.298 147.504 184.998 165.244 184.998 165.244C170.642 159.053 163.02 140.431 163.02 140.431C164.067 145.147 164.286 150.01 163.667 154.802C163.131 153.038 162.455 151.32 161.646 149.664C161.626 149.617 161.588 149.58 161.541 149.561C161.493 149.542 161.44 149.542 161.393 149.562C161.346 149.582 161.309 149.62 161.29 149.668C161.271 149.715 161.271 149.768 161.291 149.816C162.153 152.59 162.731 155.444 163.016 158.335C161.041 166.799 156.82 171.494 156.82 171.494C153.222 162.366 154.903 142.518 154.903 142.518C154.251 144.23 153.47 145.889 152.567 147.481C152.442 145.707 152.388 143.935 152.393 142.149C152.393 141.786 151.86 141.694 151.818 142.076C151.571 144.31 151.194 147.031 151.154 149.714C148.02 154.192 145.1 155.436 145.1 155.436C139.84 140.454 151.71 130.485 151.71 130.485C135.114 135.093 129.894 128.569 129.894 128.569Z" fill="#FFC619"/>
<path d="M366.233 160.76C366.233 160.76 357.98 194.514 354.813 225.674L361.28 226.334C361.28 226.334 361.747 189.601 367.929 160.932L366.233 160.76Z" fill="#FFC619"/>
<path d="M382.716 158.34C383.178 159.05 383.672 159.733 384.158 160.416C386.924 160.785 389.648 161.422 392.291 162.319C392.291 162.319 388.84 152.549 372.184 154.96C372.184 154.96 374.173 150.538 375.159 147.557C375.159 147.557 368.765 146.562 365.549 156.337C365.549 156.337 364.664 149.911 349.676 147.697C349.676 147.697 350.123 150.235 353.893 152.716C354.465 152.355 355.062 152.037 355.681 151.764C355.724 151.747 355.771 151.747 355.814 151.765C355.857 151.782 355.891 151.815 355.91 151.857C355.929 151.899 355.932 151.947 355.917 151.99C355.902 152.034 355.871 152.07 355.83 152.091C355.305 152.354 354.798 152.652 354.314 152.984C354.761 153.259 355.247 153.531 355.782 153.798C356.349 153.285 356.946 152.807 357.57 152.366C357.597 152.343 357.631 152.333 357.666 152.336C357.701 152.339 357.733 152.356 357.755 152.383C357.777 152.41 357.788 152.445 357.784 152.479C357.781 152.514 357.764 152.546 357.737 152.568C357.234 153.035 356.758 153.531 356.313 154.053C358.138 154.885 360.042 155.529 361.997 155.976C361.997 155.976 351.705 158.008 349.944 168.617C349.944 168.617 351.564 168.781 354.177 167.746C354.046 167.144 354.044 166.522 354.171 165.919C354.175 165.91 354.181 165.903 354.189 165.898C354.197 165.893 354.206 165.89 354.216 165.89C354.225 165.89 354.235 165.893 354.243 165.898C354.25 165.903 354.257 165.91 354.261 165.919C354.473 166.436 354.622 166.977 354.705 167.529C355.262 167.285 355.806 167.012 356.335 166.713C356.11 166.312 355.928 165.888 355.791 165.449C355.742 165.285 356.003 165.215 356.071 165.363C356.259 165.755 356.485 166.128 356.745 166.476C357.882 165.795 358.961 165.022 359.97 164.163C359.97 164.163 352.505 175.388 351.664 181.981C351.664 181.981 361.586 178.541 365.465 165.58C365.228 168.239 365.246 170.914 365.521 173.57C365.947 173.806 366.394 174.004 366.855 174.16C366.877 174.169 366.895 174.185 366.905 174.206C366.916 174.227 366.919 174.251 366.913 174.274C366.908 174.297 366.894 174.317 366.875 174.331C366.856 174.344 366.833 174.351 366.809 174.349C366.39 174.284 365.976 174.185 365.572 174.053C365.679 175.005 365.824 175.999 366.019 177.012C366.763 176.819 367.499 176.6 368.224 176.341C368.275 176.32 368.332 176.319 368.383 176.34C368.434 176.36 368.475 176.399 368.498 176.449C368.52 176.499 368.523 176.556 368.505 176.608C368.487 176.66 368.449 176.703 368.4 176.727C367.672 177.095 366.924 177.418 366.158 177.696C366.876 181.063 368.161 184.588 370.416 187.492C370.416 187.492 375.783 176.737 372.759 164.442C373.671 167.163 374.832 169.795 376.229 172.302C376.43 171.925 376.635 171.55 376.847 171.178C376.921 171.05 377.145 171.173 377.074 171.302C376.839 171.736 376.623 172.177 376.408 172.618C376.646 173.028 376.895 173.437 377.155 173.844C377.427 173.144 377.713 172.455 378.022 171.785C378.036 171.75 378.064 171.721 378.1 171.706C378.135 171.691 378.175 171.69 378.211 171.704C378.247 171.718 378.276 171.746 378.292 171.781C378.307 171.816 378.309 171.856 378.296 171.892C377.988 172.708 377.727 173.54 377.513 174.385C379.19 176.875 381.257 179.083 383.665 179.938C383.665 179.938 387.185 170.534 373.244 159.696C375.686 159.673 378.128 159.775 380.56 160C380.373 159.379 380.141 158.772 379.866 158.185C379.819 158.086 379.971 157.987 380.034 158.082C380.424 158.709 380.766 159.366 381.055 160.046C381.893 160.127 382.765 160.228 383.66 160.349C383.268 159.73 382.874 159.111 382.528 158.464C382.464 158.346 382.646 158.231 382.716 158.34Z" fill="#FFC619"/>
<path d="M288.478 172.143C288.478 172.143 299.297 216.399 303.448 257.25L294.97 258.115C294.97 258.115 294.359 209.952 286.256 172.37L288.478 172.143Z" fill="#FFC619"/>
<path d="M266.866 168.967C266.26 169.895 265.612 170.794 264.976 171.688C261.349 172.173 257.778 173.009 254.312 174.184C254.312 174.184 258.838 161.375 280.673 164.536C280.673 164.536 278.068 158.738 276.774 154.83C276.774 154.83 285.157 153.526 289.373 166.343C289.373 166.343 290.531 157.916 310.184 155.015C310.184 155.015 309.598 158.339 304.655 161.594C303.905 161.122 303.122 160.705 302.312 160.346C302.255 160.32 302.19 160.318 302.132 160.34C302.073 160.362 302.026 160.406 302 160.463C301.975 160.52 301.972 160.585 301.994 160.644C302.016 160.702 302.061 160.749 302.117 160.775C302.805 161.12 303.469 161.511 304.104 161.945C303.519 162.305 302.88 162.662 302.18 163.013C301.436 162.34 300.653 161.713 299.834 161.135C299.798 161.11 299.755 161.099 299.712 161.105C299.669 161.111 299.629 161.133 299.602 161.166C299.574 161.2 299.56 161.243 299.563 161.286C299.566 161.33 299.585 161.371 299.616 161.401C300.276 162.013 300.899 162.663 301.484 163.348C299.091 164.438 296.594 165.283 294.031 165.868C294.031 165.868 307.524 168.532 309.835 182.441C307.924 182.471 306.029 182.081 304.284 181.3C304.456 180.511 304.458 179.694 304.292 178.903C304.287 178.892 304.278 178.882 304.268 178.876C304.257 178.869 304.245 178.865 304.233 178.865C304.22 178.865 304.208 178.869 304.198 178.876C304.187 178.882 304.179 178.892 304.174 178.903C303.896 179.581 303.7 180.289 303.592 181.014C302.862 180.693 302.149 180.336 301.454 179.944C301.749 179.418 301.988 178.862 302.168 178.286C302.232 178.073 301.89 177.977 301.802 178.174C301.556 178.688 301.26 179.178 300.919 179.635C299.428 178.742 298.014 177.728 296.69 176.602C296.69 176.602 306.477 191.319 307.581 199.964C307.581 199.964 294.572 195.453 289.483 178.46C289.793 181.946 289.767 185.454 289.405 188.935C288.846 189.244 288.261 189.503 287.656 189.708C287.627 189.72 287.604 189.741 287.59 189.769C287.576 189.796 287.572 189.828 287.579 189.858C287.587 189.888 287.604 189.915 287.63 189.933C287.655 189.951 287.685 189.959 287.716 189.956C288.266 189.871 288.808 189.742 289.337 189.57C289.197 190.819 289.006 192.121 288.751 193.448C287.775 193.195 286.81 192.907 285.86 192.568C285.794 192.541 285.719 192.541 285.653 192.568C285.586 192.594 285.532 192.645 285.502 192.711C285.472 192.776 285.469 192.851 285.492 192.919C285.516 192.987 285.565 193.043 285.629 193.076C286.583 193.557 287.565 193.98 288.569 194.345C287.689 198.99 285.781 203.378 282.986 207.187C282.986 207.187 275.949 193.086 279.915 176.967C278.718 180.535 277.196 183.984 275.365 187.271C275.101 186.777 274.831 186.287 274.554 185.798C274.458 185.63 274.164 185.792 274.257 185.962C274.565 186.531 274.848 187.107 275.131 187.686C274.818 188.227 274.49 188.763 274.152 189.293C273.794 188.375 273.418 187.471 273.015 186.595C272.994 186.55 272.957 186.515 272.912 186.497C272.866 186.479 272.816 186.478 272.77 186.496C272.724 186.514 272.687 186.549 272.666 186.593C272.645 186.637 272.641 186.688 272.656 186.735C273.06 187.804 273.403 188.895 273.685 190.003C271.49 193.268 268.774 196.162 265.62 197.283C265.62 197.283 261.004 184.957 279.282 170.745C276.081 170.715 272.88 170.848 269.691 171.144C269.935 170.329 270.239 169.533 270.6 168.764C270.662 168.634 270.462 168.504 270.383 168.629C269.871 169.452 269.424 170.313 269.045 171.204C267.948 171.311 266.803 171.442 265.63 171.602C266.143 170.789 266.659 169.978 267.114 169.128C267.198 168.978 266.959 168.828 266.866 168.967Z" fill="#FFC619"/>
<path d="M50.0036 193.951C50.0036 193.951 44.5837 226.493 35.6996 254.861L29.812 253.01C29.812 253.01 43.1354 220.793 48.4608 193.467L50.0036 193.951Z" fill="#FFC619"/>
<path d="M36.5296 185.656C35.8591 186.104 35.174 186.513 34.4962 186.926C31.9451 186.211 29.3308 185.745 26.6899 185.535C26.6899 185.535 33.3525 178.308 46.9799 186.66C46.9799 186.66 46.8988 182.058 47.1525 179.087C47.1525 179.087 53.1015 180.617 52.2528 190.352C52.2528 190.352 55.427 185.078 69.3287 188.77C69.3287 188.77 67.9905 190.816 63.7748 191.565C63.4106 191.036 63.0085 190.535 62.5718 190.064C62.5406 190.033 62.499 190.016 62.4554 190.015C62.4118 190.014 62.3696 190.03 62.3373 190.06C62.3051 190.089 62.2852 190.13 62.2819 190.173C62.2785 190.217 62.2918 190.26 62.3192 190.294C62.679 190.72 63.0095 191.17 63.3082 191.641C62.8159 191.713 62.2896 191.768 61.723 191.801C61.4201 191.14 61.0777 190.499 60.6977 189.88C60.6812 189.854 60.6555 189.835 60.6258 189.827C60.5961 189.819 60.5645 189.822 60.537 189.836C60.5096 189.85 60.4883 189.873 60.4773 189.902C60.4663 189.931 60.4664 189.963 60.4776 189.992C60.7417 190.588 60.9711 191.199 61.1648 191.821C59.2618 191.862 57.3595 191.71 55.4874 191.365C55.4874 191.365 63.7049 196.999 61.2766 206.915C59.9966 206.388 58.8472 205.587 57.909 204.568C58.2482 204.091 58.4828 203.548 58.5974 202.974C58.5973 202.965 58.5947 202.957 58.5898 202.949C58.5849 202.942 58.578 202.936 58.5698 202.932C58.5617 202.928 58.5526 202.927 58.5437 202.928C58.5348 202.929 58.5265 202.933 58.5197 202.939C58.1415 203.31 57.8095 203.726 57.5307 204.177C57.1363 203.755 56.7634 203.313 56.4132 202.854C56.7603 202.588 57.0787 202.287 57.3631 201.955C57.4665 201.831 57.2659 201.671 57.1525 201.775C56.841 202.047 56.5042 202.287 56.1467 202.494C55.4097 201.473 54.7578 200.393 54.1978 199.265C54.1978 199.265 56.5133 211.86 54.7822 217.925C54.7822 217.925 47.4134 211.201 48.8729 198.439C48.0858 200.848 47.069 203.174 45.8366 205.388C45.3764 205.433 44.9131 205.437 44.4521 205.401C44.4301 205.401 44.4089 205.409 44.3922 205.424C44.3755 205.438 44.3643 205.458 44.3607 205.479C44.357 205.501 44.3611 205.523 44.3721 205.542C44.3832 205.562 44.4006 205.576 44.4213 205.584C44.8115 205.684 45.2091 205.753 45.6103 205.79C45.1633 206.581 44.6638 207.392 44.1151 208.203C43.538 207.755 42.9775 207.288 42.4428 206.79C42.4062 206.753 42.3568 206.731 42.3047 206.73C42.2527 206.728 42.2022 206.747 42.1636 206.782C42.1251 206.817 42.1016 206.866 42.098 206.918C42.0944 206.97 42.1111 207.021 42.1444 207.061C42.6423 207.654 43.1746 208.217 43.7385 208.747C41.8287 211.585 39.3085 213.959 36.363 215.693C36.363 215.693 35.7015 204.299 42.9362 194.708C41.1231 196.74 39.1264 198.599 36.9715 200.262C36.9357 199.858 36.8972 199.454 36.8519 199.05C36.8352 198.911 36.5938 198.933 36.6072 199.073C36.6491 199.54 36.6737 200.005 36.6972 200.473C36.3351 200.742 35.9641 201.006 35.5875 201.262C35.611 200.548 35.6182 199.84 35.6003 199.141C35.6016 199.104 35.5881 199.068 35.5628 199.041C35.5375 199.014 35.5024 198.998 35.4654 198.996C35.4283 198.995 35.3923 199.009 35.3652 199.034C35.3381 199.059 35.3222 199.095 35.321 199.132C35.2848 199.958 35.2022 200.783 35.0734 201.6C32.6826 203.145 30.0503 204.294 27.6314 204.137C27.6314 204.137 28.0756 194.615 44.2889 190.389C42.1672 189.453 39.9995 188.626 37.794 187.91C38.1891 187.437 38.6187 186.995 39.0791 186.586C39.1574 186.518 39.0618 186.374 38.973 186.435C38.3978 186.835 37.8547 187.28 37.3487 187.765C36.5882 187.522 35.7892 187.281 34.9634 187.052C35.5361 186.66 36.1105 186.268 36.6553 185.832C36.748 185.757 36.6318 185.589 36.5296 185.656Z" fill="#FFC619"/>
<path d="M128.545 0.825195C128.545 0.825195 158.52 79.1751 259.147 91.7437C359.774 104.312 424.976 115.464 448.312 136.26V82.4457C448.312 82.4457 393.17 58.1427 309.93 58.1427C245.937 58.1427 177.16 37.597 169.492 0.827009L128.545 0.825195Z" fill="#712EC3"/>
<path d="M258.185 66.4035C286.236 72.4683 315.045 78.5332 343.095 82.3237C372.662 86.1143 402.988 84.598 432.555 89.1473C437.927 90.042 443.166 91.1985 448.313 92.5612V82.4458C448.313 82.4458 393.172 58.1429 309.931 58.1429C245.938 58.1429 177.161 37.5972 169.494 0.827148H134.052C152.116 12.7271 168.979 25.5388 186.921 38.3541C208.148 53.515 232.409 60.338 258.185 66.4035Z" fill="#B175FB"/>
<path d="M424.018 89.9712C405.049 86.9194 385.968 83.9256 366.842 82.0872C363.688 81.7837 360.533 81.5218 357.379 81.3013C375.939 82.2873 394.551 84.5411 412.975 86.7308C422.933 87.8097 432.795 89.6407 442.477 92.208C444.426 92.7436 446.371 93.2936 448.312 93.8578V91.4777C442.249 89.6586 436.152 87.9671 429.946 86.677C420.319 84.6759 410.358 83.9692 400.59 82.9547C390.4 81.896 380.197 80.974 369.98 80.1889C330.419 77.1232 291.098 74.4197 251.278 71.0674C208.933 67.5024 163.864 24.7304 145.185 0.825195H144.173C160.741 23.2946 179.347 44.4587 202.5 60.2103C193.985 57.4837 185.663 54.1848 177.592 50.3362C177.353 50.2062 177.073 50.1744 176.811 50.2475C176.548 50.3207 176.325 50.493 176.188 50.728C176.05 50.9631 176.01 51.2424 176.075 51.5067C176.14 51.7711 176.305 51.9998 176.536 52.1444C194.612 63.2077 219.495 73.4246 220.019 73.6664C228.264 77.4962 234.909 82.1126 229.743 81.2886C222.373 78.4073 215.145 75.1742 207.979 71.8038C191.075 63.8509 175.031 54.3087 159.086 44.6159C164.549 50.0755 170.405 55.1282 176.606 59.7333C179.781 61.9617 182.976 64.157 186.192 66.3193C204.812 78.1461 228.753 87.9465 259.146 91.7419C341.888 102.074 400.671 111.454 431.927 126.023C433.548 126.524 435.166 127.035 436.782 127.554C440.643 128.798 444.482 130.112 448.308 131.459V110.491C441.184 107.06 433.869 104.041 426.399 101.45C418.029 98.5564 409 96.8673 400.303 95.2924C391.451 93.6898 382.554 92.3483 373.656 91.0352C358.565 88.8068 343.516 86.4104 328.458 84.0067C345.624 85.0713 362.654 87.3317 379.648 90.0872C397.996 93.0628 416.402 96.0584 434.657 99.5648C439.221 100.441 443.771 101.374 448.308 102.361V94.3898C440.251 92.7328 432.144 91.2788 424.018 89.9712Z" fill="#712EC4"/>
<path d="M232.023 86.5574C236.493 97.6285 241.888 108.503 250.764 116.75C262.514 127.669 279.903 132.106 295.605 131.57C316.757 130.848 336.443 120.336 349.732 104.052C355.935 96.4527 360.722 88.0712 365.347 79.4636C367.282 75.858 369.315 72.241 372.005 69.139C374.087 66.739 377.281 63.6376 380.662 64.0717C380.125 61.5217 375.523 59.8568 371.11 60.4649C366.356 64.6013 362.54 70.8632 359.816 75.7039C356.089 82.3322 352.826 89.1854 348.364 95.3748C344.226 101.118 338.76 106.081 333.037 110.196C310.499 126.401 276.539 133.032 253.944 113.335C243.865 104.549 237.645 91.8267 231.803 80.0536C225.96 68.2806 219.305 52.4298 220.205 54.712C224.361 65.2457 227.782 76.0551 232.023 86.5574Z" fill="white"/>
<path fill-rule="evenodd" clip-rule="evenodd" d="M220.206 54.7096C217.891 48.8419 214.066 41.6326 207.778 38.7912C207.778 38.7912 217.408 33.4971 230.534 54.0259C234.453 60.1526 236.574 66.871 238.699 73.6012C240.772 80.1697 242.85 86.7495 246.605 92.8018C252.93 102.999 259.313 111.489 270.715 115.976C286.377 122.141 304.635 121.846 319.749 114.089C334.058 106.747 344.757 94.3743 352.863 80.7005C352.875 80.6806 352.887 80.6606 352.899 80.6407C354.163 78.4269 355.495 76.2533 356.892 74.1227C359.342 70.3131 362.003 66.6164 365.068 63.359C369.753 58.3787 379.852 60.2165 380.663 64.0693C377.282 63.6352 374.088 66.7366 372.006 69.1367C369.316 72.2386 367.283 75.8556 365.348 79.4612C360.723 88.0688 355.936 96.4503 349.733 104.05C336.443 120.334 316.758 130.846 295.605 131.568C279.904 132.103 262.515 127.667 250.764 116.748C241.889 108.5 236.493 97.6262 232.023 86.555C229.788 81.0169 227.78 75.3948 225.772 69.7731C223.971 64.7314 222.171 59.69 220.206 54.7096Z" fill="white"/>
<path d="M379.706 62.4897C369.731 64.2315 362.635 74.0572 357.831 82.3045C353.352 89.9944 349.828 98.1649 344.514 105.356C339.411 112.104 332.907 117.666 325.45 121.661C320.087 124.51 314.461 126.832 308.649 128.593C305.336 129.653 301.962 130.517 298.592 131.395C318.602 129.834 337.07 119.566 349.731 104.051C355.933 96.4522 360.72 88.0707 365.346 79.4631C367.28 75.8576 369.313 72.2406 372.004 69.1386C374.077 66.7482 377.254 63.662 380.62 64.0688L380.654 64.0525C380.501 63.4488 380.171 62.9046 379.706 62.4897Z" fill="#FFC619"/>
<path d="M352.48 99.5071C352.731 101.329 354.052 103.16 355.092 104.631C356.078 106.028 356.956 108.004 358.819 108.138C359.136 108.133 359.44 108.005 359.664 107.781C359.889 107.556 360.017 107.253 360.021 106.935C360.21 105.166 358.038 103.676 356.929 102.508C355.774 101.291 354.38 99.8263 352.809 99.1776C352.596 99.09 352.457 99.3336 352.48 99.5065V99.5071Z" fill="#FFC619"/>
<path d="M356.087 93.8572C357.149 95.0977 359.087 95.8105 360.511 96.591C362.123 97.4748 363.52 98.5322 365.373 98.8357C365.642 98.901 365.924 98.8779 366.178 98.7698C366.432 98.6616 366.644 98.4743 366.783 98.2357C366.922 97.9971 366.98 97.72 366.949 97.4457C366.917 97.1714 366.798 96.9147 366.609 96.7137C365.306 95.1648 363.529 94.5113 361.68 93.8179C360.139 93.2393 357.878 92.5296 356.274 93.1529C356.204 93.1742 356.14 93.2131 356.089 93.2658C356.038 93.3186 356.002 93.3835 355.983 93.4544C355.964 93.5253 355.964 93.5998 355.982 93.6708C356 93.7419 356.036 93.8071 356.087 93.8602V93.8572Z" fill="#FFC619"/>
<path d="M344.601 94.6732C343.719 93.1903 342.108 92.1946 340.685 91.2878C339.02 90.2274 336.68 89.1718 334.835 90.3809C334.531 90.5612 334.309 90.8542 334.22 91.1965C334.13 91.5388 334.179 91.9026 334.356 92.2091C335.417 93.6818 337.126 93.9986 338.851 94.1769C340.692 94.3673 342.574 95.094 344.428 94.9785C344.463 94.9781 344.497 94.9684 344.527 94.9506C344.558 94.9328 344.583 94.9074 344.6 94.8769C344.618 94.8463 344.627 94.8118 344.627 94.7766C344.627 94.7415 344.618 94.7069 344.601 94.6763V94.6732Z" fill="#FFC619"/>
<path d="M302.254 131.213C301.075 131.627 300.211 133.49 299.594 134.483C298.615 136.061 297.596 137.559 298.047 139.489C298.1 139.668 298.193 139.832 298.318 139.97C298.444 140.108 298.598 140.216 298.771 140.286C298.943 140.357 299.13 140.387 299.316 140.376C299.502 140.365 299.683 140.312 299.846 140.221C301.858 139.363 302.593 137.165 303.32 135.264C303.602 134.524 304.189 130.534 302.254 131.213L302.254 131.213Z" fill="#FFC619"/>
<path d="M303.284 131.88C303.37 133.157 304.066 134.416 304.522 135.598C305.1 137.099 305.344 138.603 306.452 139.845C306.619 140.01 306.821 140.134 307.043 140.209C307.265 140.284 307.502 140.307 307.734 140.277C307.967 140.247 308.189 140.165 308.385 140.036C308.581 139.907 308.745 139.735 308.865 139.534C309.858 137.656 309.014 135.789 307.973 134.142C307.119 132.793 305.813 131.212 304.122 131.041C304.012 131.041 303.903 131.062 303.801 131.105C303.699 131.147 303.607 131.209 303.529 131.286C303.451 131.364 303.389 131.457 303.347 131.559C303.305 131.661 303.283 131.77 303.284 131.88Z" fill="#FFC619"/>
<path d="M277.498 120.868C278.417 119.78 278.008 118.103 277.763 116.823C277.482 115.356 277.46 112.732 276.191 111.729C275.952 111.504 275.637 111.379 275.309 111.379C274.981 111.379 274.665 111.504 274.427 111.729C273.119 112.9 273.883 115.076 274.421 116.441C274.922 117.922 275.56 119.353 276.326 120.717C276.384 120.814 276.464 120.897 276.559 120.96C276.654 121.022 276.762 121.062 276.875 121.076C276.987 121.091 277.102 121.08 277.21 121.044C277.317 121.007 277.416 120.947 277.497 120.868H277.498Z" fill="#FFC619"/>
<path d="M251.53 100.717C252.444 101.516 253.926 101.325 255.02 101.032C256.387 100.664 258.022 100.306 259.162 99.4332C259.315 99.3368 259.438 99.1983 259.516 99.0341C259.593 98.8698 259.622 98.6869 259.598 98.5069C259.575 98.3269 259.5 98.1574 259.383 98.0185C259.266 97.8797 259.112 97.7773 258.939 97.7236C257.653 97.1904 256.447 97.7985 255.292 98.3686C254.124 98.9436 252.632 99.3528 251.607 100.122C251.558 100.152 251.516 100.192 251.485 100.241C251.453 100.289 251.433 100.344 251.426 100.401C251.419 100.458 251.424 100.516 251.442 100.571C251.46 100.625 251.49 100.675 251.53 100.717V100.717Z" fill="#FFC619"/>
<path d="M251.499 99.5728C252.849 97.755 255.277 95.5604 254.813 93.083C254.778 92.953 254.717 92.8313 254.635 92.7248C254.552 92.6184 254.449 92.5294 254.332 92.4628C254.215 92.3963 254.086 92.3536 253.952 92.3372C253.818 92.3208 253.683 92.331 253.553 92.3672C251.124 93.3375 250.655 96.7532 250.193 99.0227C250.153 99.1882 250.174 99.3625 250.25 99.5145C250.327 99.6665 250.455 99.7863 250.612 99.8524C250.769 99.9186 250.944 99.9268 251.107 99.8755C251.269 99.8243 251.408 99.717 251.499 99.5728Z" fill="#FFC619"/>
<path d="M240.245 99.262C237.18 99.1266 232.249 98.3673 230.49 101.666C229.951 102.68 230.829 103.575 231.849 103.433C233.25 103.239 234.529 102.455 235.853 101.983C237.365 101.444 238.871 100.9 240.399 100.397C240.531 100.356 240.644 100.27 240.717 100.154C240.791 100.038 240.822 99.8997 240.803 99.7633C240.785 99.6269 240.719 99.5015 240.617 99.4093C240.514 99.3171 240.383 99.2641 240.245 99.2596V99.262Z" fill="#FFC619"/>
<path d="M228.857 73.4979C227.542 73.1956 225.865 73.516 224.565 73.8243C223.008 74.1044 221.592 74.9014 220.545 76.0866C220.365 76.2769 220.252 76.5203 220.222 76.7804C220.192 77.0404 220.247 77.3032 220.379 77.5294C220.511 77.7555 220.712 77.933 220.953 78.0353C221.194 78.1375 221.462 78.1591 221.716 78.0967C223.108 77.7533 224.457 77.2523 225.736 76.6035C226.861 76.0787 228.311 75.4899 229.135 74.5407C229.21 74.4626 229.263 74.3665 229.291 74.2616C229.318 74.1567 229.318 74.0466 229.29 73.9418C229.262 73.837 229.208 73.7411 229.133 73.6634C229.057 73.5856 228.963 73.5286 228.859 73.4979H228.857Z" fill="#FFC619"/>
<path d="M234.223 62.4778C235.382 62.1937 236.209 60.7403 236.985 59.9151C238.067 58.7665 239.64 57.7629 239.712 56.0399C239.714 55.6555 239.589 55.2811 239.357 54.9751C239.124 54.669 238.797 54.4483 238.426 54.3472C236.427 53.9101 234.954 55.6506 234.087 57.2339C233.41 58.469 232.284 60.649 233.116 62.025C233.227 62.2095 233.395 62.3532 233.594 62.4344C233.794 62.5156 234.014 62.53 234.223 62.4754V62.4778Z" fill="#FFC619"/>
<path d="M227.004 71.4296C226.628 70.333 225.602 69.8789 224.57 69.5168C223.23 69.0465 221.566 68.5973 220.378 69.6014C220.225 69.7558 220.109 69.9432 220.039 70.1492C219.969 70.3553 219.947 70.5746 219.975 70.7904C220.003 71.0062 220.08 71.2128 220.2 71.3944C220.319 71.5761 220.479 71.7279 220.667 71.8383C221.65 72.2754 222.76 72.094 223.81 72.2615C224.838 72.4271 225.707 72.6242 226.687 72.201C226.819 72.126 226.921 72.0091 226.979 71.8689C227.036 71.7286 227.044 71.5733 227.002 71.4278L227.004 71.4296Z" fill="#FFC619"/>
<path d="M225.782 78.7C224.719 80.2326 222.638 82.8189 223.753 84.7516C223.868 84.9463 224.043 85.0979 224.252 85.1831C224.461 85.2682 224.693 85.2821 224.911 85.2225C227.132 84.4505 227.226 81.0125 227.087 79.0561C227.082 78.9045 227.029 78.7583 226.935 78.6392C226.841 78.5201 226.712 78.4344 226.565 78.3947C226.419 78.355 226.264 78.3635 226.122 78.419C225.981 78.4744 225.861 78.5738 225.781 78.7025L225.782 78.7Z" fill="#FFC619"/>
<path d="M190.885 0.825195C190.885 0.825195 104.986 113.114 -26.0767 57.8441V103.203C-26.0767 103.203 26.506 120.748 75.9432 113.851C179.48 99.407 206.966 24.1609 245.336 0.825195H190.885Z" fill="#7E3FCC"/>
<path d="M81.2137 77.5839C127.777 65.2299 162.939 34.8203 204.752 12.0124C212.646 7.68587 220.848 3.94667 229.291 0.825195H190.885C190.885 0.825195 104.986 113.114 -26.0767 57.8441V62.2664C6.69306 82.4493 40.4561 87.3655 81.2137 77.5839Z" fill="#AD71F7"/>
<path d="M152.43 78.8215C144.562 81.7052 136.66 84.4396 128.607 86.7514C129.98 85.8271 131.327 84.8465 132.634 83.7825C132.931 83.5407 132.546 83.057 132.23 83.2577C128.42 85.6853 124.323 87.6284 120.033 89.0421C116.702 89.8687 113.36 90.6345 110.006 91.3394C110.262 91.2547 110.519 91.1743 110.774 91.0885C127.438 85.4885 142.486 77.3156 156.897 67.3296C158.62 66.1344 160.311 64.8902 161.987 63.6304C162.456 63.2779 162.039 62.4944 161.515 62.8221C148.578 70.9134 134.336 76.6198 119.779 81.1037C137.6 74.1991 154.277 64.6443 169.245 52.7623C175.565 47.7004 181.559 42.2214 187.436 36.6571C187.671 36.4352 187.349 35.9993 187.086 36.2025C172.491 47.4653 157.151 57.953 140.358 65.6737C122.491 73.8896 103.111 79.6479 83.9191 83.7819C64.5698 87.9497 44.8276 89.7833 25.0805 87.9297C7.36713 86.2672 -9.95509 81.0983 -26.0767 73.6206V89.5166C-20.3582 91.8375 -14.5214 93.8555 -8.59061 95.5622C-9.41039 95.5017 -10.2302 95.4485 -11.0499 95.3893C-16.0677 95.0265 -21.0667 94.6366 -26.0767 94.3766V103.203C-26.0767 103.203 -22.9844 104.234 -17.6075 105.696C-16.6668 105.748 -15.7251 105.805 -14.7824 105.867C-1.77913 106.735 11.1958 107.247 24.1912 107.087C18.7954 108.478 13.4139 109.918 8.04665 111.409C11.8323 112.074 15.8399 112.708 20.0198 113.264C30.2766 111.71 40.5479 110.251 50.8519 108.966C71.2253 106.422 91.6047 104.098 111.73 99.9264C123.547 97.4774 135.26 94.4069 146.517 90.1285C158.325 83.1961 169.381 75.0554 179.507 65.8376C178.721 66.3557 177.93 66.8726 177.128 67.3695C169.437 72.1388 160.904 75.7147 152.43 78.8215Z" fill="#AD71F7"/>
<path d="M132.014 82.6331C127.739 93.7816 122.535 104.751 113.807 113.15C102.248 124.273 84.9411 129.014 69.2318 128.753C48.0725 128.401 28.2033 118.234 14.6306 102.186C8.29667 94.6963 3.36292 86.4 -1.41243 77.8746C-3.41229 74.3035 -5.50585 70.7228 -8.24991 67.668C-10.3737 65.3048 -13.6213 62.2579 -16.9941 62.7536C-16.502 60.1945 -11.9268 58.4492 -7.50268 58.9794C-2.67715 63.0299 1.24699 69.2229 4.05574 74.0188C7.89887 80.5806 11.2807 87.3739 15.8505 93.4854C20.0884 99.1536 25.64 104.021 31.4347 108.036C54.2529 123.844 88.323 129.88 110.57 109.789C120.494 100.829 126.491 87.9991 132.125 76.1257C137.76 64.2523 144.135 48.2867 143.274 50.5852C139.302 61.1908 136.07 72.0588 132.014 82.6331Z" fill="#4B6130"/>
<path fill-rule="evenodd" clip-rule="evenodd" d="M143.272 50.587C145.485 44.6793 149.184 37.4047 155.42 34.4533C155.42 34.4533 152.198 32.7542 147.029 35.2715C147.03 35.2705 147.032 35.2696 147.033 35.2686C145.011 36.253 142.69 37.8828 140.147 40.5128C139.838 40.832 139.526 41.1659 139.211 41.5152C137.23 43.7106 135.126 46.5132 132.932 50.0803C129.122 56.2749 127.119 63.0294 125.113 69.7961C123.155 76.4002 121.193 83.016 117.545 89.1344C111.401 99.4408 105.167 108.041 93.8461 112.728C88.5001 114.941 82.8343 116.396 77.0809 117.049C76.8684 117.073 76.6558 117.096 76.4431 117.118C65.6609 118.228 54.6016 116.52 44.7882 111.7C30.3527 104.609 19.4369 92.4259 11.0941 78.8955C9.72221 76.5848 8.27607 74.32 6.75804 72.1043C4.29457 68.4393 1.62816 64.8928 -1.41425 61.7705C-6.18597 56.8731 -16.2511 58.888 -16.9941 62.7542C-13.6213 62.2584 -10.3737 65.3054 -8.24991 67.6686C-5.50585 70.7234 -3.41229 74.3041 -1.41243 77.8752C3.36292 86.4006 8.29667 94.6968 14.6306 102.187C28.2033 118.234 48.0725 128.401 69.2318 128.754C84.9411 129.015 102.248 124.274 113.807 113.15C122.535 104.751 127.739 93.7822 132.014 82.6336C134.154 77.0565 136.063 71.3977 137.973 65.7389C139.684 60.6686 141.396 55.5984 143.272 50.587Z" fill="white"/>
<path d="M-16.0666 61.1558C-6.06006 62.7228 1.20423 72.4228 6.15188 80.5848C10.7646 88.1949 14.4342 96.3032 19.871 103.399C25.0904 110.057 31.6904 115.505 39.2166 119.368C44.6282 122.123 50.2947 124.346 56.1362 126.005C59.4661 127.007 62.8558 127.812 66.2407 128.631C46.2064 127.422 27.5615 117.476 14.6307 102.187C8.29683 94.6969 3.36308 86.4006 -1.41227 77.8752C-3.41212 74.3042 -5.50569 70.7234 -8.24975 67.6686C-10.3657 65.3145 -13.5952 62.2851 -16.9553 62.7506L-16.9897 62.7349C-16.8467 62.1281 -16.5251 61.5781 -16.0666 61.1558Z" fill="#FFC619"/>
<path d="M85.3948 124.784C82.8381 128.136 78.5416 132.305 80.4175 136.919C80.5257 137.27 80.7326 137.583 81.0135 137.82C81.2945 138.057 81.6376 138.209 82.0021 138.256C82.3667 138.304 82.7372 138.246 83.0697 138.089C83.4021 137.932 83.6825 137.683 83.8773 137.371C86.2405 134.093 86.628 129.171 87.1377 125.256C87.2743 124.213 85.8766 124.152 85.3948 124.784Z" fill="#FFC619"/>
<path d="M87.819 125.367C87.4175 127.081 87.2853 128.848 87.4273 130.602C87.5597 132.537 87.2628 134.871 88.8697 136.267C89.2166 136.602 89.6796 136.789 90.1614 136.789C90.6432 136.789 91.1062 136.602 91.453 136.267C94.4062 133.403 90.5431 128.416 89.623 125.367C89.5647 125.174 89.4455 125.004 89.283 124.883C89.1206 124.762 88.9235 124.697 88.721 124.697C88.5186 124.697 88.3215 124.762 88.159 124.883C87.9966 125.004 87.8773 125.174 87.819 125.367Z" fill="#FFC619"/>
<path d="M117.432 114.709C117.672 116.112 118.208 117.448 119.004 118.629C119.807 119.852 120.721 121.295 122.016 122.03C122.395 122.241 122.832 122.323 123.262 122.264C123.692 122.204 124.091 122.006 124.398 121.699C124.705 121.393 124.904 120.994 124.964 120.564C125.024 120.135 124.942 119.697 124.731 119.318C124.078 118.219 122.998 117.594 122.024 116.809C120.94 116.013 119.982 115.056 119.183 113.973C119.062 113.777 118.876 113.631 118.657 113.561C118.438 113.491 118.202 113.501 117.99 113.591C117.778 113.68 117.605 113.842 117.502 114.047C117.4 114.253 117.374 114.488 117.43 114.711L117.432 114.709Z" fill="#FFC619"/>
<path d="M117.906 111.216C117.917 112.386 119.869 113.042 120.739 113.501C122.324 114.371 123.839 115.363 125.27 116.471C126.953 117.718 129.078 114.934 127.502 113.577C126.112 112.376 124.257 111.992 122.491 111.655C121.615 111.488 120.737 111.34 119.867 111.137C119.211 110.982 118.712 110.622 118.072 110.927C118.021 110.956 117.979 110.999 117.95 111.049C117.921 111.1 117.906 111.158 117.906 111.216Z" fill="#FFC619"/>
<path d="M141.149 39.0858C140.329 37.282 139.854 35.341 139.747 33.3626C139.659 31.6855 140.11 29.9988 138.623 28.8611C138.446 28.7564 138.244 28.7012 138.039 28.7012C137.833 28.7012 137.631 28.7564 137.454 28.8611C135.456 29.8888 136.259 32.6861 136.877 34.3383C137.64 36.3944 139 38.1753 140.783 39.4516C141.025 39.6287 141.247 39.3005 141.149 39.0858Z" fill="#FFC619"/>
<path d="M142.526 37.7633C142.84 37.582 142.909 37.2398 143.052 36.9339C143.385 36.2181 143.774 35.5392 144.08 34.8113C144.786 33.1234 145.712 31.6743 145.193 29.8002C144.911 28.79 143.419 28.2356 142.678 29.1352C141.51 30.5534 141.255 32.1628 140.882 33.928C140.634 35.1045 140.646 36.7549 141.594 37.6303C141.692 37.7284 141.814 37.7987 141.947 37.8342C142.081 37.8697 142.221 37.869 142.355 37.8322C142.413 37.8122 142.471 37.7887 142.526 37.7621V37.7633Z" fill="#FFC619"/>
<path d="M140.164 61.5486C138.203 64.6711 142.026 71.161 145.6 71.0709C146.88 71.0395 148.274 69.6677 147.708 68.3021C147.043 66.7 145.741 66.0561 144.47 64.9861C143.247 63.9584 142.657 62.4718 141.569 61.3679C141.471 61.2733 141.353 61.202 141.224 61.1593C141.095 61.1165 140.957 61.1033 140.823 61.1207C140.688 61.1382 140.558 61.1857 140.444 61.2599C140.33 61.3341 140.234 61.4329 140.164 61.5492L140.164 61.5486Z" fill="#FFC619"/>
<path d="M123.949 69.6429C123.839 69.0204 123.568 68.4375 123.164 67.9519C122.759 67.4663 122.234 67.095 121.642 66.8746C119.916 66.1492 118.092 66.2036 116.973 67.8897C115.952 69.4271 118.158 70.4463 119.354 70.5183C120.772 70.5291 122.188 70.3981 123.581 70.1271C123.687 70.0993 123.782 70.0366 123.848 69.9489C123.915 69.8612 123.951 69.7537 123.949 69.6435V69.6429Z" fill="#FFC619"/>
<path d="M280.132 317.61C280.132 317.61 275.573 256.238 332.159 171.156C388.745 86.0748 404.588 48.6241 408.387 0.825195H448.902V52.313C448.902 52.313 424.647 144.112 398.459 201.577C372.27 259.042 385.737 317.61 385.737 317.61H280.132Z" fill="#AD71F7"/>
<path d="M433.819 0.825195H408.387C404.589 48.6241 388.75 86.0754 332.16 171.157C302.537 215.698 289.676 253.733 284.141 279.874C306.79 230.715 336.088 182.23 367.839 138.028C397.788 95.7785 418.257 49.9148 433.819 0.825195Z" fill="#AD71F7"/>
<path d="M436.822 0.825195C435.673 15.705 432.536 29.912 428.369 44.1498C412.263 75.7225 398.293 108.42 387.495 142.192C382.848 156.73 378.384 171.344 373.071 185.652C370.592 190.102 368.003 194.502 365.305 198.851C365.3 198.832 365.296 198.809 365.291 198.791C366.111 189.128 367.545 179.526 369.584 170.045C372.201 158.373 375.867 146.942 379.693 135.62C379.862 135.121 379.057 134.773 378.838 135.257C374.193 145.577 369.77 155.997 366.04 166.687C364.079 172.302 362.451 177.954 361.025 183.657C359.399 180.7 357.141 178.846 353.899 179.843C344.396 183.01 339.961 212.155 337.426 219.758C330.458 249.538 327.29 280.581 319.687 310.359C317.153 285.65 294.978 263.475 290.543 281.215C288.271 293.143 284.981 305.578 281.584 317.609H385.737C385.737 317.609 372.273 259.038 398.461 201.574C424.649 144.109 448.902 52.313 448.902 52.313V0.825195H436.822ZM380.61 171.348C383.542 162.629 386.281 153.84 389.013 145.074C399.491 111.593 412.336 78.8993 427.453 47.2408C424.776 56.086 421.728 64.9615 418.524 74.0382C407.326 107.146 396.125 140.252 380.61 171.348Z" fill="#7E3FCC"/>
</g>
</g>
<path fill-rule="evenodd" clip-rule="evenodd" d="M256.934 204.867L266.355 218.133L268.779 198.795L264.389 208.075L253.234 189.201L249.798 207.049L236.077 189.216L229.319 212.001L213.651 193.947C215.792 188.715 219.147 183.89 223.685 179.922C239.264 166.299 262.89 167.927 276.454 183.557C290.018 199.187 288.385 222.9 272.806 236.523C257.226 250.145 233.601 248.517 220.037 232.887C218.627 231.263 217.381 229.551 216.298 227.772L234.553 234.163L240.676 208.687L253.898 224.412L256.934 204.867Z" fill="black"/>
<path d="M294.797 202.165C291.934 211.027 282.522 216.056 282.522 216.056C282.522 216.056 277.675 206.514 280.539 197.653C283.402 188.792 292.814 183.762 292.814 183.762C292.814 183.762 297.661 193.304 294.797 202.165Z" fill="black"/>
<path d="M293.117 224.147C296.69 230.463 295.747 237.914 295.747 237.914C295.747 237.914 288.951 235.099 285.378 228.783C281.806 222.467 282.749 215.016 282.749 215.016C282.749 215.016 289.544 217.831 293.117 224.147Z" fill="black"/>
<path d="M294.275 210.781C300.972 210.549 306.525 214.416 306.525 214.416C306.525 214.416 301.173 218.699 294.476 218.931C287.779 219.164 282.226 215.296 282.226 215.296C282.226 215.296 287.579 211.014 294.275 210.781Z" fill="black"/>
<path d="M278.628 208.91C298.388 263.51 238.355 265.504 259.126 309.746" stroke="black" stroke-width="7.63131"/>
<path d="M318.51 317.82H219.135L215.918 289.621L238.08 308.182L247.732 293.547L253.451 307.468L268.465 299.972L270.61 313.179L307.428 299.972L303.139 312.465L327.804 303.899L318.51 317.82Z" fill="black"/>
<path d="M236.845 260.51C225.665 265.175 223.637 278.178 224.02 284.096C229.245 280.399 241.22 272.416 247.327 270.059C253.434 267.703 261.423 266.813 264.653 266.662C260.042 262.668 248.025 255.845 236.845 260.51Z" fill="black"/>
<path d="M270.501 174.838L269.179 171.869L268.012 174.903L266.257 179.466L266.007 180.114L266.39 180.693L273.142 190.902L274.584 193.083L275.524 190.643L276.258 188.738L276.459 188.216L276.232 187.705L270.501 174.838Z" fill="white" stroke="black" stroke-width="2.69579"/>
<path d="M268.225 169.377L268.22 169.375L229.912 154.647C229.911 154.646 229.909 154.646 229.908 154.645C229.161 154.355 228.332 154.354 227.584 154.643C226.835 154.931 226.222 155.489 225.863 156.204L220.698 166.417C220.06 167.636 219.688 168.978 219.609 170.353L219.609 170.354C219.532 171.733 219.75 173.112 220.248 174.399L220.249 174.4C220.749 175.685 221.516 176.851 222.504 177.816L222.504 177.817C223.489 178.779 224.667 179.519 225.959 179.989C228.13 180.822 230.533 180.821 232.703 179.987L232.704 179.987C234.878 179.151 236.666 177.537 237.719 175.458L237.72 175.456L240.457 170.032C240.457 170.032 240.457 170.032 240.457 170.032C240.51 169.928 240.602 169.843 240.718 169.797C240.83 169.754 240.954 169.754 241.065 169.797L241.065 169.797C241.174 169.839 241.265 169.919 241.32 170.025C241.374 170.131 241.388 170.253 241.359 170.367L241.358 170.372L240.435 174.038C240.435 174.038 240.435 174.038 240.435 174.038C239.705 176.936 240.06 180.002 241.435 182.656C242.809 185.308 245.107 187.366 247.892 188.442L250 189.277L250.019 189.285L250.039 189.292C252.747 190.269 255.717 190.239 258.405 189.207L258.406 189.207C261.093 188.173 263.319 186.207 264.674 183.666L264.681 183.653L264.688 183.64L269.808 173.507C269.808 173.507 269.808 173.507 269.808 173.507C269.996 173.134 270.104 172.727 270.125 172.31L270.125 172.308C270.145 171.896 270.08 171.481 269.932 171.093L269.93 171.088C269.779 170.697 269.549 170.347 269.261 170.055L269.256 170.05C268.964 169.759 268.613 169.528 268.225 169.377Z" fill="white" stroke="black" stroke-width="2.69579"/>
<path d="M227.67 161.223L237.102 158.954L234.38 157.868L228.705 159.234L227.67 161.223Z" fill="#D4D4D4"/>
<path d="M269.517 170.627L264.342 168.401L240.423 175.916L240.142 176.981C239.837 178.136 239.742 179.336 239.862 180.525L269.517 170.627Z" fill="black" fill-opacity="0.17"/>
<path d="M271.054 175.389L269.283 171.299L241.96 180.678L241.68 181.743C241.374 182.898 241.279 184.098 241.399 185.287L271.054 175.389Z" fill="black" fill-opacity="0.17"/>
<path d="M224.223 168.17L247.043 162.679L240.458 160.051L226.727 163.358L224.223 168.17Z" fill="#D4D4D4"/>
<path d="M262.555 182.11C261.41 184.259 259.533 185.925 257.269 186.803C255.003 187.679 252.503 187.709 250.224 186.887L248.22 186.093C245.867 185.186 243.929 183.444 242.772 181.197C241.615 178.95 241.32 176.353 241.941 173.895L242.823 170.402C242.929 169.988 242.88 169.549 242.686 169.17C242.491 168.79 242.164 168.496 241.766 168.344C241.364 168.19 240.919 168.192 240.517 168.348C240.116 168.506 239.785 168.805 239.59 169.191L236.982 174.363C236.123 176.061 234.668 177.38 232.899 178.066C231.131 178.751 229.174 178.754 227.407 178.074C226.348 177.69 225.384 177.084 224.579 176.294C223.774 175.504 223.149 174.55 222.742 173.496C222.337 172.442 222.161 171.311 222.226 170.181C222.293 169.051 222.6 167.948 223.125 166.945L228.049 157.199" stroke="white" stroke-width="2.54377"/>
<path d="M306.374 263.285C294.156 273.593 277.672 268.131 270.958 264.112C278.447 260.21 295.039 250.97 301.487 245.223C307.936 239.477 313.798 230.638 315.923 226.937C317.831 234.758 318.591 252.977 306.374 263.285Z" fill="black"/>
<path d="M312.234 252.512L312.495 253.639L313.648 253.552L329.894 252.334L331.014 252.25L331.133 251.133L333.773 226.358L333.941 224.778L332.355 224.87L307.783 226.291L306.188 226.383L306.548 227.941L312.234 252.512Z" fill="white" stroke="black" stroke-width="2.69579"/>
<path d="M321.061 242.968L318.143 214.459L328.693 205.704" stroke="black" stroke-width="3.17971"/>
<path d="M333.275 232.054L333.096 233.608L334.659 233.555C335.637 233.523 336.99 233.431 338.316 233.203C339.595 232.982 341.044 232.604 342.076 231.892C343.842 230.671 345.221 228.969 346.048 226.988C346.874 225.006 347.114 222.829 346.738 220.715C346.363 218.601 345.388 216.64 343.929 215.065C342.471 213.489 340.59 212.366 338.512 211.829C336.433 211.292 334.244 211.363 332.204 212.035C330.165 212.707 328.362 213.95 327.009 215.617L326.987 215.645L326.966 215.674C324.896 218.522 324.732 220.807 324.611 222.493C324.59 222.789 324.57 223.067 324.541 223.326L324.361 224.951L325.99 224.819L334.183 224.152L333.275 232.054Z" fill="#FFE75C" stroke="black" stroke-width="2.69579"/>
<path d="M334.44 220.103L331.732 216.052" stroke="black" stroke-width="2.69579"/>
<path d="M337.603 220.919L342.122 217.595" stroke="black" stroke-width="2.69579"/>
<path d="M337.603 224.103L340.512 227.739" stroke="black" stroke-width="2.69579"/>
<path fill-rule="evenodd" clip-rule="evenodd" d="M143.94 231.715L139.919 243.393L134.021 229.814L139.2 235.643L143.284 219.507L149.6 231.783L155.774 215.859L165.563 231.026L173.107 214.526C170.431 211.17 166.958 208.369 162.808 206.445C148.557 199.837 131.71 206.062 125.179 220.347C118.648 234.632 124.905 251.569 139.155 258.176C153.406 264.783 170.252 258.558 176.784 244.273C177.463 242.787 178.004 241.272 178.413 239.743L166.491 248.296L156.589 231.032L150.327 245.313L143.94 231.715Z" fill="black"/>
<path d="M128.567 235.698C115.111 280.395 157.325 274.981 143.181 311.199" stroke="black" stroke-width="7.63131"/>
<path d="M111.858 286.349C123.464 290.878 134.249 282.7 138.191 278.045C131.684 277.052 117.119 274.411 110.916 271.796C104.713 269.18 98.1641 264.136 95.665 261.94C96.2265 268.189 100.251 281.82 111.858 286.349Z" fill="black"/>
<path d="M158.092 281.005C166.115 276.877 168.509 267.621 168.703 263.509C164.837 266.5 156.013 273.011 151.645 275.132C147.278 277.253 141.734 278.492 139.508 278.847C142.36 281.286 150.069 285.133 158.092 281.005Z" fill="black"/>
<path d="M46.3954 233.208L44.0631 232.824L45.1035 234.946L50.3717 245.694L48.104 252.927L48.0037 253.247L48.0812 253.573L54.4375 280.334L56.6153 306.074L56.7262 307.385L58.0245 307.174L113.548 298.149L114.834 297.94L114.539 296.67L108.682 271.517L106.002 244.148L105.975 243.878L105.837 243.644L102.075 237.312L102.935 225.474L103.047 223.935L101.525 224.183L89.4301 226.149L89.2815 226.173L89.1433 226.233L77.2798 231.347L66.5503 229.921L66.1886 229.872L65.8601 230.031L56.0009 234.792L46.3954 233.208Z" fill="white" stroke="black" stroke-width="2.43622"/>
<circle cx="82.3538" cy="279.041" r="17.3763" fill="#FFE75C"/>
<path d="M52.2466 245.963L71.5627 242.823L81.2207 241.253L97.8809 238.545" stroke="black" stroke-width="2.43622" stroke-dasharray="4.06 4.06"/>
<path d="M85.289 278.173L87.2554 280.462L84.2511 280.18L76.8712 279.487L76.8635 279.486L76.8558 279.485C75.8118 279.374 74.8559 278.858 74.1864 278.055L74.1837 278.052C73.8528 277.652 73.5998 277.187 73.4447 276.684C73.2881 276.178 73.2411 275.65 73.2861 275.143L73.2861 275.143L73.2872 275.132C73.3384 274.612 73.4911 274.109 73.7322 273.651L73.7322 273.651L73.7367 273.642C73.9832 273.183 74.3164 272.775 74.7164 272.444C75.5979 271.712 76.7323 271.357 77.8761 271.457C79.019 271.554 80.0777 272.1 80.8185 272.97L85.289 278.173Z" fill="#FFE75C" stroke="black" stroke-width="2.43622"/>
<path d="M85.403 279.598L83.8386 282.187L83.1723 279.237L81.542 272.017L81.5414 272.014C81.4272 271.503 81.4138 270.976 81.5072 270.457C81.5971 269.937 81.7934 269.441 82.0763 269.003C82.6433 268.113 83.5391 267.489 84.5643 267.259C85.59 267.03 86.6669 267.214 87.5561 267.769L87.5561 267.769L87.5641 267.774C88.5268 268.386 89.2124 269.346 89.4737 270.458C89.7352 271.57 89.5463 272.736 88.9625 273.708L88.9625 273.708L88.9608 273.711L85.403 279.598Z" fill="#FFE75C" stroke="black" stroke-width="2.43622"/>
<path d="M76.8293 284.924L76.8202 284.907L76.8116 284.89C76.157 283.592 76.0193 282.116 76.7361 280.718C77.4257 279.373 78.8042 278.304 80.7485 277.515C82.1624 276.904 83.4937 276.12 84.7146 275.179L84.7211 275.174L84.7277 275.169C86.3762 273.933 88.0226 273.606 89.5009 274.132C90.8975 274.629 91.8672 275.794 92.4596 276.958C93.3619 278.656 93.0314 280.592 92.0949 282.227C91.1509 283.875 89.523 285.372 87.4832 286.401C85.4425 287.431 83.2758 287.851 81.3811 287.645C79.4985 287.441 77.7347 286.589 76.8293 284.924Z" fill="#FFE75C" stroke="black" stroke-width="2.43622"/>
<path d="M77.271 288.627C74.6049 289.012 72.1301 287.168 71.7401 284.501L71.7398 284.499C71.3547 281.832 73.2112 279.359 75.8796 278.973L75.8806 278.973L78.3777 278.615L78.5518 279.82L78.3786 278.614L78.3781 278.614C81.0465 278.229 83.5233 280.072 83.9089 282.743L83.9089 282.743C84.2938 285.408 82.4427 287.882 79.7728 288.268L79.7719 288.268L77.271 288.627ZM77.271 288.627L77.0969 287.422M77.271 288.627L77.2702 288.627L77.0969 287.422M77.0969 287.422C75.0951 287.711 73.2381 286.326 72.9454 284.325L77.0969 287.422Z" fill="#FFE75C" stroke="black" stroke-width="2.43622"/>
<path d="M59.3416 253.227L59.5261 254.362L57.7417 254.652L58.5189 259.434L57.187 259.65L56.4098 254.869L54.6254 255.159L54.4408 254.023L59.3416 253.227Z" fill="black"/>
<path d="M62.0037 257.956C62.1289 257.935 62.248 257.913 62.3609 257.889C62.4738 257.865 62.5635 257.841 62.63 257.819L62.4731 256.854C62.4201 256.851 62.3414 256.852 62.2371 256.857C62.1328 256.863 62.0379 256.872 61.9525 256.886C61.833 256.906 61.7206 256.933 61.6152 256.967C61.5146 256.995 61.4277 257.036 61.3545 257.089C61.2813 257.141 61.2274 257.206 61.193 257.281C61.1586 257.357 61.1497 257.446 61.1663 257.549C61.1987 257.748 61.2868 257.877 61.4307 257.935C61.5793 257.987 61.7703 257.994 62.0037 257.956ZM61.2962 254.25C61.6718 254.189 61.9918 254.181 62.2562 254.225C62.5205 254.27 62.7396 254.36 62.9135 254.495C63.0931 254.63 63.2327 254.806 63.3323 255.023C63.4319 255.241 63.5044 255.489 63.5497 255.768L63.98 258.415C63.8043 258.484 63.5584 258.571 63.2423 258.675C62.9271 258.784 62.539 258.877 62.0779 258.952C61.7876 258.999 61.5188 259.016 61.2714 259.004C61.0297 258.99 60.8142 258.941 60.625 258.855C60.4348 258.763 60.2789 258.631 60.1573 258.457C60.0357 258.284 59.9527 258.061 59.9083 257.788C59.8657 257.526 59.8808 257.296 59.9537 257.097C60.0322 256.897 60.1509 256.729 60.3098 256.592C60.4687 256.456 60.6583 256.346 60.8785 256.263C61.0979 256.175 61.3299 256.111 61.5747 256.071C61.7398 256.044 61.8863 256.029 62.0143 256.026C62.1471 256.016 62.2551 256.016 62.3385 256.026L62.3191 255.906C62.2839 255.69 62.1903 255.527 62.0381 255.418C61.8859 255.308 61.6476 255.279 61.3231 255.332C61.1068 255.367 60.8962 255.419 60.6911 255.488C60.4851 255.55 60.3099 255.622 60.1655 255.704L59.8367 254.706C59.907 254.671 59.9944 254.634 60.0988 254.593C60.2081 254.547 60.3267 254.504 60.4549 254.466C60.5821 254.421 60.7159 254.382 60.8564 254.348C61.0016 254.307 61.1482 254.274 61.2962 254.25Z" fill="black"/>
<path d="M66.2919 257.232C66.5252 257.195 66.6866 257.145 66.776 257.084C66.8653 257.022 66.8994 256.926 66.8781 256.795C66.8614 256.693 66.7845 256.615 66.6472 256.561C66.5091 256.502 66.304 256.445 66.0322 256.39C65.8209 256.348 65.6263 256.301 65.4483 256.248C65.2759 256.194 65.1241 256.122 64.9926 256.033C64.8603 255.937 64.7503 255.818 64.6627 255.674C64.5752 255.531 64.5138 255.351 64.4786 255.135C64.4102 254.714 64.5126 254.355 64.7858 254.06C65.0591 253.764 65.469 253.572 66.0154 253.483C66.2886 253.438 66.5546 253.421 66.8134 253.432C67.0712 253.437 67.2788 253.456 67.436 253.489L67.375 254.515C67.2187 254.488 67.0491 254.469 66.8661 254.458C66.6889 254.445 66.4921 254.457 66.2758 254.492C65.8774 254.557 65.6962 254.7 65.7323 254.922C65.7406 254.973 65.7566 255.018 65.7801 255.055C65.8037 255.092 65.8443 255.126 65.902 255.158C65.9588 255.183 66.0336 255.212 66.1264 255.244C66.2239 255.269 66.3451 255.296 66.4901 255.325C66.7856 255.382 67.0328 255.447 67.2316 255.52C67.4295 255.587 67.5894 255.672 67.7112 255.775C67.8379 255.871 67.9327 255.987 67.9957 256.123C68.0643 256.258 68.1139 256.419 68.1445 256.607C68.2166 257.051 68.1033 257.414 67.8045 257.696C67.5114 257.978 67.0603 258.168 66.4512 258.267C66.0528 258.332 65.7143 258.352 65.4357 258.327C65.1627 258.301 64.9713 258.274 64.8615 258.245L64.907 257.177C65.1372 257.227 65.3703 257.26 65.6063 257.274C65.8413 257.282 66.0699 257.269 66.2919 257.232Z" fill="black"/>
<path d="M68.3406 252.08L69.5794 251.668L69.7945 252.991L71.3228 252.743L71.4949 253.802L69.9666 254.05L70.2233 255.629C70.2668 255.897 70.3471 256.103 70.464 256.248C70.5867 256.391 70.7903 256.44 71.0749 256.394C71.2115 256.371 71.3492 256.337 71.4878 256.292C71.6311 256.239 71.7589 256.18 71.871 256.115L72.2113 257.077C72.0678 257.164 71.9058 257.246 71.7254 257.322C71.5449 257.398 71.3181 257.458 71.0449 257.503C70.6977 257.559 70.4028 257.56 70.1604 257.506C69.9169 257.447 69.7135 257.345 69.5501 257.202C69.3857 257.054 69.2557 256.865 69.1599 256.635C69.0698 256.404 69.0012 256.144 68.954 255.853L68.3406 252.08Z" fill="black"/>
<path d="M76.4294 251.913C76.3139 252.82 76.1782 253.674 76.0223 254.477C75.8665 255.279 75.6813 256.063 75.4668 256.828C75.3889 257.103 75.3045 257.339 75.2137 257.535C75.1238 257.737 75.0169 257.906 74.8931 258.043C74.7702 258.185 74.6219 258.297 74.4481 258.378C74.2809 258.464 74.0778 258.526 73.8387 258.565C73.6395 258.597 73.4512 258.607 73.274 258.595C73.1034 258.588 72.9603 258.57 72.8448 258.542L72.9016 257.49C73.0399 257.514 73.1617 257.527 73.2669 257.527C73.3722 257.528 73.4817 257.519 73.5955 257.5C73.8232 257.463 73.9866 257.372 74.0858 257.228C74.1916 257.088 74.2696 256.903 74.3198 256.672C73.937 256.15 73.5431 255.56 73.1381 254.902C72.7322 254.237 72.3294 253.485 71.9299 252.644L73.2789 252.425C73.3719 252.638 73.4767 252.869 73.5932 253.119C73.7145 253.362 73.8396 253.61 73.9685 253.864C74.0964 254.112 74.2234 254.354 74.3495 254.591C74.4813 254.826 74.6037 255.04 74.7167 255.232C74.7574 255.015 74.7972 254.775 74.8362 254.512C74.8752 254.248 74.9104 253.98 74.9418 253.706C74.978 253.425 75.0094 253.151 75.0361 252.884C75.0676 252.61 75.0937 252.358 75.1145 252.127L76.4294 251.913Z" fill="black"/>
<path d="M81.9626 255.702C81.6381 255.755 81.3118 255.796 80.9837 255.826C80.6622 255.861 80.3218 255.869 79.9625 255.852L79.0299 250.114C79.2948 250.019 79.5876 249.933 79.9084 249.857C80.2282 249.776 80.5276 249.713 80.8065 249.668C81.1821 249.607 81.5311 249.579 81.8534 249.585C82.1805 249.585 82.4685 249.631 82.7175 249.725C82.9665 249.819 83.1711 249.964 83.3315 250.16C83.4966 250.349 83.6047 250.6 83.6556 250.913C83.7323 251.386 83.5653 251.796 83.1543 252.143C83.5531 252.224 83.8407 252.376 84.0171 252.599C84.1935 252.821 84.3067 253.086 84.3566 253.394C84.4575 254.014 84.3057 254.518 83.9012 254.905C83.5024 255.291 82.8562 255.557 81.9626 255.702ZM80.8565 253.156L81.1049 254.685C81.2035 254.68 81.3102 254.672 81.4249 254.659C81.5397 254.646 81.6654 254.628 81.802 254.606C82.2004 254.541 82.5128 254.432 82.739 254.279C82.9653 254.125 83.0534 253.895 83.0035 253.587C82.9591 253.314 82.8251 253.137 82.6017 253.057C82.3774 252.97 82.0745 252.958 81.6932 253.02L80.8565 253.156ZM80.6913 252.14L81.3402 252.035C81.75 251.968 82.0348 251.869 82.1946 251.738C82.3535 251.601 82.414 251.416 82.376 251.183C82.3372 250.944 82.2188 250.791 82.0209 250.723C81.8231 250.656 81.5477 250.651 81.1948 250.709C81.0809 250.727 80.959 250.75 80.829 250.777C80.6981 250.798 80.5824 250.823 80.4818 250.851L80.6913 252.14Z" fill="black"/>
<path d="M89.4374 254.25C89.2313 254.348 88.9616 254.45 88.6285 254.557C88.2962 254.669 87.9422 254.756 87.5666 254.817C87.1852 254.879 86.8581 254.88 86.5853 254.819C86.3182 254.757 86.0959 254.647 85.9183 254.489C85.7398 254.325 85.5984 254.121 85.4941 253.875C85.3899 253.629 85.3128 253.352 85.2628 253.045L84.8562 250.543L86.1283 250.336L86.51 252.684C86.5766 253.094 86.6788 253.381 86.8165 253.546C86.9543 253.71 87.1712 253.769 87.4671 253.72C87.5582 253.706 87.6545 253.687 87.756 253.665C87.8567 253.637 87.9459 253.611 88.0237 253.586L87.4603 250.12L88.7324 249.913L89.4374 254.25Z" fill="black"/>
<path d="M91.3523 251.643C91.468 252.354 91.8132 252.663 92.3881 252.57C92.519 252.549 92.6386 252.512 92.7469 252.459C92.8552 252.406 92.9455 252.351 93.0178 252.292L92.6875 250.26C92.623 250.259 92.5476 250.263 92.4613 250.271C92.3741 250.273 92.2736 250.284 92.1597 250.302C91.8239 250.357 91.5915 250.509 91.4625 250.757C91.3335 251.006 91.2968 251.301 91.3523 251.643ZM94.4412 253.016C94.5606 253.751 94.4611 254.325 94.1428 254.739C93.8311 255.157 93.2853 255.43 92.5055 255.557C92.2323 255.601 91.9549 255.62 91.6734 255.613C91.3928 255.612 91.1293 255.591 90.883 255.549L90.9315 254.446C91.1437 254.493 91.3616 254.522 91.5853 254.532C91.8147 254.542 92.0688 254.524 92.3478 254.478C92.712 254.419 92.9552 254.298 93.0773 254.114C93.2051 253.93 93.2486 253.713 93.2079 253.462L93.1815 253.3C93.0551 253.385 92.9207 253.456 92.7782 253.514C92.6406 253.566 92.4863 253.606 92.3156 253.633C91.6952 253.734 91.1903 253.629 90.8009 253.319C90.4107 253.002 90.1619 252.514 90.0545 251.854C90.0009 251.524 90.0035 251.217 90.0625 250.932C90.1206 250.643 90.2306 250.385 90.3927 250.16C90.5604 249.934 90.7783 249.747 91.0462 249.598C91.3133 249.444 91.6261 249.337 91.9847 249.279C92.1383 249.254 92.2963 249.237 92.4584 249.228C92.6253 249.213 92.7903 249.204 92.9534 249.201C93.1165 249.197 93.2719 249.201 93.4198 249.212C93.5724 249.217 93.7084 249.227 93.8278 249.243L94.4412 253.016Z" fill="black"/>
<path d="M96.8667 252.263C97.1001 252.225 97.2615 252.175 97.3508 252.114C97.4402 252.053 97.4742 251.957 97.4529 251.826C97.4363 251.723 97.3593 251.645 97.2221 251.592C97.0839 251.532 96.8789 251.475 96.607 251.42C96.3958 251.378 96.2011 251.331 96.0231 251.278C95.8508 251.224 95.6989 251.153 95.5675 251.063C95.4352 250.968 95.3252 250.848 95.2376 250.705C95.15 250.561 95.0886 250.381 95.0535 250.165C94.985 249.744 95.0874 249.385 95.3607 249.09C95.634 248.794 96.0438 248.602 96.5902 248.513C96.8635 248.469 97.1295 248.452 97.3882 248.462C97.6461 248.467 97.8536 248.486 98.0109 248.519L97.9499 249.545C97.7935 249.518 97.6239 249.499 97.441 249.488C97.2638 249.476 97.067 249.487 96.8507 249.522C96.4523 249.587 96.2711 249.73 96.3072 249.952C96.3155 250.004 96.3314 250.048 96.355 250.085C96.3785 250.122 96.4192 250.156 96.4769 250.188C96.5336 250.214 96.6084 250.242 96.7012 250.274C96.7988 250.299 96.92 250.326 97.0649 250.355C97.3605 250.412 97.6077 250.477 97.8065 250.55C98.0043 250.617 98.1642 250.702 98.2861 250.805C98.4128 250.901 98.5076 251.017 98.5705 251.153C98.6392 251.288 98.6888 251.45 98.7193 251.637C98.7915 252.081 98.6782 252.444 98.3794 252.727C98.0862 253.008 97.6351 253.198 97.0261 253.297C96.6277 253.362 96.2891 253.382 96.0105 253.357C95.7376 253.331 95.5462 253.304 95.4363 253.275L95.4819 252.207C95.712 252.258 95.9451 252.29 96.1811 252.304C96.4162 252.313 96.6447 252.299 96.8667 252.263Z" fill="black"/>
<path d="M105.955 317.82H172.509L174.664 298.919L159.821 311.36L153.357 301.551L149.526 310.881L139.471 305.857L133.207 311.36L113.376 305.857L116.249 314.231L99.7305 308.489L105.955 317.82Z" fill="black"/>
<path d="M138.808 218.762C136.377 219.126 134.088 218.087 132.365 216.345C130.641 214.602 129.402 212.09 128.975 209.235C128.547 206.379 128.996 203.614 130.134 201.443C131.271 199.273 133.155 197.61 135.586 197.245C138.017 196.881 140.306 197.92 142.029 199.662C143.753 201.405 144.992 203.917 145.42 206.772C145.847 209.628 145.398 212.393 144.261 214.564C143.124 216.734 141.239 218.398 138.808 218.762Z" fill="white" stroke="black" stroke-width="2.69579"/>
<path d="M134.544 208.089C134.996 211.425 136.683 213.951 138.306 213.734C139.667 213.544 140.46 212.086 139.843 209.014C139.602 207.709 139.484 206.386 139.491 205.059C139.485 202.226 138.015 201.456 136.659 201.645C135.037 201.861 134.078 204.728 134.544 208.089Z" fill="black"/>
<path d="M140.399 203.098L136.293 206.312L143.32 207.787L140.399 203.098Z" fill="white"/>
<path d="M134.575 196.74C137.931 195.65 141.573 197.479 143.616 200.912C138.2 202.189 133.574 203.45 129.703 204.587C129.84 200.928 131.698 197.674 134.575 196.74Z" fill="black"/>
<path d="M153.838 208.526C152.372 208.746 151.037 208.112 150.076 207.14C149.114 206.167 148.445 204.792 148.215 203.256C147.985 201.721 148.222 200.209 148.856 198.998C149.491 197.787 150.582 196.789 152.048 196.57C153.514 196.35 154.85 196.984 155.811 197.956C156.773 198.929 157.442 200.305 157.672 201.84C157.902 203.375 157.665 204.887 157.03 206.099C156.396 207.309 155.305 208.307 153.838 208.526Z" fill="white" stroke="black" stroke-width="2.69579"/>
<path d="M151.636 202.59C151.858 204.234 152.69 205.479 153.49 205.372C154.161 205.279 154.551 204.56 154.247 203.046C154.128 202.403 154.07 201.751 154.074 201.097C154.071 199.7 153.346 199.321 152.678 199.414C151.878 199.52 151.406 200.933 151.636 202.59Z" fill="black"/>
<path d="M154.521 200.13L152.498 201.713L155.961 202.441L154.521 200.13Z" fill="white"/>
<path d="M151.651 196.997C153.305 196.46 155.1 197.361 156.107 199.053C153.437 199.682 151.158 200.304 149.25 200.864C149.317 199.061 150.233 197.457 151.651 196.997Z" fill="black"/>
<path d="M116.672 251.173C118.011 244.549 124.385 240.152 124.385 240.152C124.385 240.152 128.661 246.635 127.322 253.259C125.983 259.882 119.609 264.279 119.609 264.279C119.609 264.279 115.333 257.796 116.672 251.173Z" fill="black"/>
<path d="M116.083 235.187C112.99 230.925 113.06 225.476 113.06 225.476C113.06 225.476 118.19 226.949 121.283 231.21C124.376 235.472 124.306 240.921 124.306 240.921C124.306 240.921 119.176 239.448 116.083 235.187Z" fill="black"/>
<path d="M116.343 244.918C111.534 245.634 107.213 243.3 107.213 243.3C107.213 243.3 110.722 239.774 115.531 239.058C120.34 238.342 124.661 240.676 124.661 240.676C124.661 240.676 121.152 244.202 116.343 244.918Z" fill="black"/>
<defs>
<clipPath id="clip0_4313_193444">
<rect width="359.376" height="316.994" fill="white" transform="translate(31.7246 0.825195)"/>
</clipPath>
</defs>
</svg>
