<svg width="481" height="480" viewBox="0 0 481 480" fill="none" xmlns="http://www.w3.org/2000/svg">
<g clip-path="url(#clip0_3072_98692)">
<path d="M254.739 464.677C254.739 464.677 219.761 318.068 220.598 297.453C221.435 276.839 225.509 249.013 236.482 248.877C247.456 248.741 266.12 329.882 274.991 316.934C283.862 303.986 249.76 228.498 250.937 215.778C252.114 203.057 258 162.483 269.842 161.191C281.684 159.898 285.4 242.673 295.771 232.059C306.141 221.445 297.55 128.892 302.459 112.205C307.368 95.5188 312.766 76.6245 324.426 76.6137C336.085 76.603 326.567 131.336 333.844 138.301C341.12 145.266 331.184 84.1025 343.737 93.7975C356.29 103.492 368.161 144.431 368.593 161.732C369.024 179.032 322.529 245.714 327.766 249.043C333.003 252.372 364.271 213.866 371.948 213.596C379.625 213.326 384.532 240.605 379.325 265.487C374.117 290.368 333.842 297.245 333.31 304.603C332.778 311.96 366.616 292.27 370.317 304.767C374.018 317.265 368.066 341.175 357.955 371.96C347.843 402.746 285.359 443.254 285.359 443.254L254.739 464.677Z" fill="white"/>
<path d="M229 479.263C229 479.263 405.985 502.524 447.696 375.449C448.731 367.022 375.273 406.394 378.818 396.275C382.363 386.156 447.275 371.793 452.849 357.533C458.422 343.274 457.224 307.478 452.332 308.45C447.44 309.422 402.439 336.874 405.985 326.751C409.531 316.628 451.677 297.51 453.473 286.092C455.269 274.673 447.283 205.831 441.307 204.327C435.33 202.822 410.098 270.015 381.058 340.662C352.018 411.309 252.261 454.063 229 479.263Z" fill="#D4D7DC"/>
<path d="M265.888 477.96C265.888 477.96 290.086 451.3 261.086 342.108C258.149 326.346 238.685 284.408 235.696 276.953C221.155 240.671 212.748 306.179 216.695 325.919C220.642 345.659 209.374 334.541 206.508 317.867C203.641 301.193 202.664 259.274 195.507 247.565C188.35 235.856 135.93 199.997 131.926 207.017C127.922 214.036 153.075 282.798 141.552 272.199C130.029 261.599 118.63 197.48 105.041 187.172C91.4511 176.864 39.738 166.208 36.0339 175.28C32.3298 184.351 81.7078 238.528 72.3527 234.067C62.9977 229.606 30.8998 191.321 24.0334 181.668C17.167 172.016 -10.2715 233.263 6.78736 246.962C23.8463 260.661 79.419 255.295 97.3594 264.495C115.3 273.694 130.75 288.084 117.078 287.3C103.407 286.516 40.2461 270.401 41.0357 286.082C41.8254 301.764 73.462 343.649 106.979 344.341C140.495 345.033 169.901 324.992 183.998 331.536C198.094 338.08 213.485 348.616 201.891 348.822C190.298 349.027 123.355 352.803 130.783 365.275C138.211 377.747 164.171 403.529 193.345 406.614C222.519 409.7 235.362 392.227 239.269 394.73C243.175 397.233 222.995 422.038 215.122 429.124C207.25 436.211 236.788 468.27 265.888 477.96Z" fill="white"/>
<path d="M123.985 264.702C168.487 295.978 184.796 313.994 218.078 357.431C232.395 376.118 241.234 397.851 246.816 420.566C251.887 441.211 249.045 465.095 256.58 484.785C258.599 490.062 265.205 489.623 267.033 484.498C274.297 464.059 263.019 435.586 258.33 415.051C252.961 391.479 243.129 375.987 227.837 357.431C209.713 335.439 189.447 313.869 167.486 295.87C145.071 277.49 149.136 278.982 124.524 263.719C123.897 263.329 123.406 264.293 123.985 264.702Z" fill="#D4D7DC"/>
<path d="M324.902 161.791C315.591 214.48 304.178 266.762 294.138 319.308C289.285 344.724 284.345 370.126 278.922 395.43C273.637 420.094 267.374 447.555 268.13 472.843C268.162 473.432 268.383 473.995 268.761 474.447C269.14 474.899 269.655 475.217 270.229 475.352C270.804 475.487 271.407 475.433 271.948 475.197C272.49 474.962 272.941 474.557 273.233 474.044C285.258 453.64 290.647 428.921 296.859 406.283C304.246 379.384 308.871 351.342 313.421 323.854C322.273 270.313 325.39 216.121 326.297 161.92C326.282 161.755 326.21 161.6 326.092 161.482C325.975 161.365 325.819 161.292 325.654 161.277C325.488 161.261 325.322 161.305 325.185 161.399C325.047 161.493 324.948 161.633 324.902 161.793L324.902 161.791Z" fill="#D4D7DC"/>
<path d="M128.018 480H291.931L297.238 425.746L260.682 461.457L244.762 433.3L235.328 460.084L210.564 445.662L207.026 471.072L146.296 445.662L153.371 469.699L112.688 453.216L128.018 480Z" fill="#8C8C8C"/>
<path fill-rule="evenodd" clip-rule="evenodd" d="M208.403 235.99L224.518 258.678L228.664 225.603L221.154 241.476L202.074 209.194L196.197 239.722L172.726 209.219L161.167 248.19L134.365 217.31C138.027 208.362 143.766 200.109 151.529 193.322C178.178 170.023 218.59 172.807 241.793 199.54C264.995 226.273 262.201 266.833 235.553 290.132C208.904 313.431 168.491 310.647 145.289 283.914C142.877 281.135 140.747 278.208 138.894 275.165L170.119 286.097L180.592 242.523L203.21 269.418L208.403 235.99Z" fill="#8C8C8C"/>
<path d="M244.869 248.344C277.809 353.044 175.142 384.665 209.768 469.504" stroke="#8C8C8C" stroke-width="12"/>
<path d="M283.199 351.291C267.765 364.314 246.94 357.414 238.457 352.336C247.919 347.407 268.879 335.733 277.027 328.473C285.174 321.214 292.58 310.047 295.264 305.372C297.674 315.252 298.634 338.268 283.199 351.291Z" fill="#8C8C8C"/>
<path d="M133.582 361.296C106.678 333.406 114.255 292.433 121.406 275.432C132.423 292.947 158.181 331.643 173.073 346.312C187.965 360.981 209.692 373.691 218.694 378.212C201.533 384.194 160.486 389.186 133.582 361.296Z" fill="#8C8C8C"/>
<circle cx="193.936" cy="187.659" r="43.1447" fill="#8C8C8C"/>
<path d="M155.253 221.758L156.325 220.52L155.302 219.24C154.329 218.023 153.328 216.748 152.448 215.416C138.027 193.582 144.059 164.086 165.893 149.666C187.726 135.246 217.147 141.159 231.763 163.037C246.18 184.87 240.148 214.363 218.316 228.783C204.402 237.973 187.287 238.878 173.099 232.65L171.624 232.002L170.697 233.32L108.674 321.467C108.506 321.659 108.172 321.874 107.383 321.892C106.524 321.911 105.347 321.679 103.895 321.142C101.008 320.073 97.5285 317.982 94.2809 315.444C91.0335 312.906 88.1664 310.036 86.4332 307.504C85.5611 306.23 85.0534 305.152 84.8653 304.325C84.6919 303.563 84.8237 303.212 84.9553 303.029L155.253 221.758ZM212.508 220.247C229.681 208.905 234.287 185.846 223.028 168.8C211.689 151.632 188.75 146.941 171.582 158.28C154.414 169.619 149.723 192.559 161.062 209.727C172.404 226.899 195.462 231.505 212.508 220.247Z" fill="white" stroke="#8C8C8C" stroke-width="3.93878"/>
<rect x="282.135" y="289.509" width="102.012" height="125.251" transform="rotate(-8.65735 282.135 289.509)" fill="white" stroke="#8C8C8C" stroke-width="2.93422"/>
<path d="M308.318 320.233L313.336 318.923L309.43 314.29C310.68 313.14 311.112 311.551 310.771 309.379C310.197 305.722 307.93 304.011 304.406 304.564L297.291 305.68L299.705 321.063L304.36 320.332L303.768 316.564L304.985 316.214L308.318 320.233ZM302.589 309.05L304.207 308.796C305.205 308.64 305.871 309.126 306.028 310.123C306.174 311.054 305.785 311.615 304.783 311.886L303.107 312.353L302.589 309.05ZM323.056 310.063C322.611 307.226 320.671 306.008 317.391 306.523C313.512 307.132 311.929 309.492 312.593 313.726C313.216 317.693 315.171 318.863 320.164 318.261L322.837 317.932L322.723 314.453L319.324 314.645C318.021 314.736 317.462 314.506 317.223 313.703L323.163 312.771C323.22 311.831 323.181 310.861 323.056 310.063ZM317.638 309.55C318.281 309.449 318.669 309.752 318.777 310.439L318.875 311.06L316.835 311.38L316.79 311.091C316.648 310.183 316.929 309.662 317.638 309.55ZM324.913 317.561L328.336 316.797C332.106 315.932 333.555 314.456 333.155 311.907C332.894 310.245 332.017 309.429 330.266 309.272L329.068 309.165C328.56 309.108 328.439 309.059 328.411 308.882C328.383 308.704 328.506 308.617 328.927 308.551L332.008 308.067L331.482 304.721L328.268 305.225C324.811 305.768 323.192 307.316 323.574 309.754C323.845 311.483 324.914 312.36 326.883 312.46L327.959 312.518C328.575 312.535 328.671 312.565 328.699 312.743C328.727 312.92 328.582 313.011 328.146 313.125L323.978 314.21L324.913 317.561ZM340.126 315.128C344.004 314.52 345.411 312.777 344.858 309.253L343.843 302.781L339.277 303.497L340.286 309.925C340.459 311.033 340.278 311.471 339.569 311.582C338.86 311.693 338.553 311.332 338.379 310.224L337.371 303.797L332.805 304.513L333.82 310.985C334.373 314.509 336.247 315.737 340.126 315.128ZM346.816 313.67L351.382 312.953L348.895 297.105L344.402 298.287L346.816 313.67ZM358.209 308.589C357.131 308.667 356.621 308.315 356.482 307.429L356.006 304.392L359.508 303.843L358.969 300.407L355.489 300.953L355.05 298.16L350.561 299.365L351.956 308.253C352.495 311.688 354.137 312.748 358.288 312.278L360.655 312.02L360.526 308.452L358.209 308.589ZM360.995 302.496L360.626 300.147L371.376 298.46L371.745 300.809L360.995 302.496ZM361.656 306.708L361.283 304.336L372.033 302.649L372.405 305.021L361.656 306.708ZM311.207 332.851L312.491 341.03L307.195 333.481L301.787 334.33L304.201 349.712L308.457 349.044L307.177 340.888L312.446 348.418L317.855 347.569L315.441 332.187L311.207 332.851ZM326.648 346.598C331.28 345.871 333.004 343.829 332.374 339.818L330.799 329.777L326.144 330.507L327.675 340.26C327.897 341.678 327.411 342.345 326.015 342.564C324.619 342.783 323.974 342.294 323.748 340.853L322.221 331.123L317.566 331.853L319.142 341.894C319.772 345.906 322.038 347.322 326.648 346.598ZM335.348 344.824L345.367 343.252L345.189 339.078L339.36 339.993L337.589 328.711L332.934 329.442L335.348 344.824ZM347.145 342.973L357.163 341.401L356.985 337.227L351.156 338.142L349.386 326.86L344.731 327.591L347.145 342.973Z" fill="#8C8C8C"/>
<path d="M278.155 252.006C269.02 264.557 251.501 267.642 251.501 267.642C251.501 267.642 248.773 250.01 257.907 237.458C267.041 224.906 284.561 221.821 284.561 221.821C284.561 221.821 287.289 239.454 278.155 252.006Z" fill="#8C8C8C"/>
<path d="M264.088 285.956C266.471 297.816 261.111 309.13 261.111 309.13C261.111 309.13 251.806 301.144 249.423 289.285C247.04 277.425 252.4 266.111 252.4 266.111C252.4 266.111 261.705 274.096 264.088 285.956Z" fill="#8C8C8C"/>
<path d="M272.859 265.384C283.589 268.49 290.379 277.499 290.379 277.499C290.379 277.499 279.677 281.505 268.948 278.399C258.218 275.293 251.428 266.284 251.428 266.284C251.428 266.284 262.129 262.278 272.859 265.384Z" fill="#8C8C8C"/>
<path d="M189.436 217.719C195.883 218.684 202.089 215.954 206.892 211.098C211.696 206.24 215.217 199.159 216.435 191.027C217.653 182.895 216.36 175.094 213.19 169.042C210.02 162.991 204.886 158.563 198.439 157.598C191.992 156.633 185.786 159.362 180.983 164.219C176.179 169.077 172.658 176.157 171.44 184.289C170.223 192.422 171.515 200.223 174.686 206.275C177.855 212.325 182.989 216.753 189.436 217.719Z" fill="white" stroke="#8C8C8C" stroke-width="3.93878"/>
<path d="M201.846 187.913C200.5 197.861 195.466 205.396 190.626 204.75C186.565 204.183 184.202 199.833 186.042 190.671C186.761 186.779 187.112 182.831 187.09 178.874C187.11 170.423 191.494 168.129 195.538 168.689C200.378 169.335 203.238 177.886 201.846 187.913Z" fill="#8C8C8C"/>
<path d="M184.384 173.024L196.628 182.61L175.67 187.01L184.384 173.024Z" fill="white"/>
</g>
<defs>
<clipPath id="clip0_3072_98692">
<rect width="480" height="480" fill="white" transform="translate(0.802734)"/>
</clipPath>
</defs>
</svg>
