<svg width="220" height="220" viewBox="0 0 220 220" fill="none" xmlns="http://www.w3.org/2000/svg">
<g clip-path="url(#clip0_3049_149182)">
<path d="M220 110C220 49.2487 170.751 0 110 0C49.2487 0 0 49.2487 0 110C0 170.751 49.2487 220 110 220C170.751 220 220 170.751 220 110Z" fill="#464561"/>
<path fill-rule="evenodd" clip-rule="evenodd" d="M119.825 86.2007L132.44 103.962L135.686 78.0696L129.807 90.4959L114.87 65.2248L110.269 89.1222L91.8964 65.2442L82.8475 95.7516L61.8668 71.5782C64.733 64.5731 69.2254 58.113 75.3027 52.7996C96.1638 34.5606 127.799 36.74 145.963 57.6672C164.126 78.5944 161.939 110.345 141.078 128.584C120.217 146.823 88.5809 144.644 70.4178 123.717C68.5301 121.542 66.8622 119.25 65.4122 116.868L89.8556 125.425L98.0541 91.3151L115.759 112.369L119.825 86.2007Z" fill="black"/>
<path d="M148.372 95.8726C174.158 177.833 93.7887 202.587 120.895 269" stroke="black" stroke-width="9.09754"/>
<path d="M178.376 176.461C166.293 186.655 149.992 181.254 143.351 177.279C150.758 173.42 167.166 164.282 173.544 158.599C179.922 152.916 185.719 144.175 187.821 140.514C189.707 148.249 190.459 166.267 178.376 176.461Z" fill="black"/>
<path d="M61.2551 184.293C40.1944 162.46 46.1254 130.386 51.7234 117.078C60.348 130.788 80.5115 161.081 92.1693 172.564C103.827 184.047 120.835 193.996 127.882 197.536C114.448 202.218 82.3158 206.126 61.2551 184.293Z" fill="black"/>
<circle cx="108.5" cy="48.3667" r="33.7744" fill="black"/>
<path d="M78.2681 75.1039L79.1424 74.0931L78.308 73.0493C77.5463 72.0964 76.7639 71.1006 76.0769 70.0605C64.8083 52.9988 69.5215 29.9494 86.5832 18.6807C103.645 7.41181 126.637 12.0327 138.058 29.1304C149.323 46.1917 144.609 69.2382 127.549 80.5059C116.676 87.687 103.302 88.3949 92.2147 83.5278L91.011 82.9994L90.2546 84.0744L41.7041 153.075C41.5875 153.207 41.3444 153.368 40.7438 153.382C40.0824 153.397 39.17 153.218 38.0374 152.799C35.786 151.965 33.0678 150.333 30.5287 148.348C27.9898 146.364 25.7509 144.122 24.3991 142.148C23.7187 141.154 23.3261 140.318 23.1815 139.682C23.0494 139.101 23.1508 138.846 23.2396 138.722L78.2681 75.1039ZM123.075 73.9322C136.548 65.0337 140.161 46.9427 131.328 33.5689C122.432 20.0993 104.435 16.4191 90.9651 25.3152C77.4955 34.2114 73.8153 52.2091 82.7115 65.6786C91.61 79.1517 109.701 82.7652 123.075 73.9322Z" fill="#FEE85B" stroke="black" stroke-width="3.21374"/>
<path d="M174.429 98.7379C167.278 108.564 153.564 110.979 153.564 110.979C153.564 110.979 151.428 97.1757 158.579 87.35C165.729 77.5242 179.443 75.1093 179.443 75.1093C179.443 75.1093 181.579 88.9121 174.429 98.7379Z" fill="black"/>
<path d="M163.416 125.315C165.281 134.599 161.085 143.456 161.085 143.456C161.085 143.456 153.801 137.205 151.936 127.921C150.071 118.637 154.267 109.78 154.267 109.78C154.267 109.78 161.551 116.032 163.416 125.315Z" fill="black"/>
<path d="M170.282 109.211C178.682 111.643 183.997 118.695 183.997 118.695C183.997 118.695 175.62 121.831 167.221 119.4C158.821 116.968 153.506 109.916 153.506 109.916C153.506 109.916 161.883 106.78 170.282 109.211Z" fill="black"/>
<path d="M104.967 71.9627C110.04 72.7222 114.917 70.5736 118.688 66.7611C122.46 62.9475 125.221 57.3916 126.177 51.0134C127.132 44.6351 126.118 38.514 123.629 33.7629C121.141 29.0131 117.106 25.5299 112.034 24.7704C106.962 24.0108 102.084 26.1594 98.3134 29.972C94.5419 33.7856 91.78 39.3414 90.8249 45.7197C89.8698 52.098 90.8831 58.2191 93.3722 62.9702C95.8606 67.72 99.895 71.2031 104.967 71.9627Z" fill="white" stroke="black" stroke-width="3.21374"/>
<path d="M114.693 48.5658C113.639 56.353 109.699 62.2514 105.91 61.7461C102.731 61.3024 100.881 57.897 102.321 50.7247C102.884 47.6784 103.159 44.5877 103.142 41.4902C103.158 34.8741 106.589 33.0782 109.755 33.5173C113.544 34.0225 115.783 40.7163 114.693 48.5658Z" fill="black"/>
<path d="M101.023 36.9107L110.609 44.4147L94.2018 47.8594L101.023 36.9107Z" fill="white"/>
</g>
<defs>
<clipPath id="clip0_3049_149182">
<path d="M220 110C220 49.2487 170.751 0 110 0C49.2487 0 0 49.2487 0 110C0 170.751 49.2487 220 110 220C170.751 220 220 170.751 220 110Z" fill="white"/>
</clipPath>
</defs>
</svg>
