<svg width="481" height="300" viewBox="0 0 481 300" fill="none" xmlns="http://www.w3.org/2000/svg">
<path d="M254.619 218.643L193.573 223.488L261.546 185.11H307.54L254.619 218.643Z" fill="#8D8D8D"/>
<path d="M307.348 190.155V185.146L254.566 218.665L258.033 223.096L307.348 190.155Z" fill="#7D7D7D"/>
<path d="M147.32 170.87L210.172 154.478L255.396 219.088L191.21 225.286L147.32 170.87Z" fill="#C4C4C4"/>
<path d="M193.933 229.068L191.028 225.085L254.896 218.383L258.273 223.096L193.933 229.068Z" fill="#8D8D8D"/>
<g clip-path="url(#clip0_3049_95793)">
<path d="M183.111 191.255C181.669 191.478 179.651 190.532 178.589 189.137C177.516 187.728 177.798 186.364 179.241 186.107C180.703 185.846 182.784 186.816 183.854 188.261C184.915 189.691 184.569 191.03 183.111 191.255Z" fill="#8D8D8D"/>
<path d="M183.413 188.334C184.301 189.53 184.017 190.648 182.797 190.839C181.59 191.028 179.903 190.237 179.013 189.067C178.116 187.886 178.355 186.751 179.565 186.537C180.786 186.321 182.517 187.129 183.413 188.334Z" fill="#8D8D8D"/>
<path d="M191.149 191.948C192.009 193.133 191.667 194.228 190.405 194.402C189.155 194.574 187.457 193.778 186.594 192.617C185.725 191.447 186.021 190.334 187.274 190.138C188.539 189.94 190.283 190.754 191.149 191.948Z" fill="#8D8D8D"/>
<path d="M198.94 195.587C199.771 196.761 199.371 197.834 198.065 197.99C196.773 198.144 195.063 197.343 194.228 196.193C193.387 195.033 193.741 193.943 195.038 193.764C196.347 193.584 198.103 194.404 198.94 195.587Z" fill="#8D8D8D"/>
<path d="M204.137 206.464C202.605 206.594 200.612 205.655 199.671 204.361C198.722 203.055 199.181 201.854 200.719 201.694C202.276 201.532 204.331 202.496 205.274 203.832C206.209 205.157 205.687 206.333 204.137 206.464Z" fill="#8D8D8D"/>
<path d="M204.805 203.877C205.588 204.984 205.157 205.966 203.861 206.078C202.577 206.189 200.911 205.404 200.124 204.319C199.33 203.224 199.717 202.225 201.005 202.093C202.307 201.959 204.015 202.761 204.805 203.877Z" fill="#8D8D8D"/>
<path d="M208.909 194.307C209.728 195.532 209.236 196.654 207.83 196.822C206.438 196.989 204.656 196.158 203.83 194.96C202.998 193.751 203.44 192.609 204.837 192.417C206.25 192.222 208.082 193.072 208.909 194.307Z" fill="#8D8D8D"/>
<path d="M189.684 196.777C190.521 197.904 190.202 198.931 188.987 199.076C187.783 199.22 186.14 198.446 185.3 197.34C184.453 196.226 184.731 195.183 185.936 195.017C187.155 194.849 188.84 195.64 189.684 196.777Z" fill="#8D8D8D"/>
<path d="M192.23 189.845C190.679 190.085 188.578 189.106 187.52 187.651C186.452 186.182 186.826 184.752 188.381 184.474C189.957 184.193 192.127 185.199 193.191 186.707C194.244 188.2 193.801 189.603 192.23 189.845Z" fill="#8D8D8D"/>
<path d="M192.715 186.787C193.597 188.034 193.232 189.206 191.919 189.411C190.619 189.615 188.862 188.796 187.977 187.575C187.083 186.344 187.4 185.154 188.703 184.924C190.02 184.691 191.825 185.529 192.715 186.787Z" fill="#8D8D8D"/>
<path d="M206.787 199.252C207.588 200.415 207.129 201.464 205.779 201.602C204.444 201.739 202.722 200.933 201.916 199.793C201.103 198.644 201.516 197.577 202.857 197.416C204.212 197.255 205.98 198.08 206.787 199.252Z" fill="#8D8D8D"/>
<path d="M213.777 205.579C212.131 205.719 210.057 204.747 209.127 203.401C208.189 202.042 208.75 200.787 210.405 200.614C212.081 200.439 214.223 201.439 215.152 202.831C216.072 204.21 215.444 205.438 213.777 205.579Z" fill="#8D8D8D"/>
<path d="M214.646 202.879C215.418 204.031 214.898 205.057 213.504 205.178C212.125 205.298 210.39 204.485 209.613 203.356C208.829 202.217 209.301 201.173 210.687 201.03C212.087 200.886 213.869 201.717 214.646 202.879Z" fill="#8D8D8D"/>
<path d="M202.06 188.326C200.386 188.585 198.194 187.569 197.145 186.05C196.085 184.515 196.566 183.013 198.247 182.713C199.951 182.408 202.218 183.453 203.271 185.03C204.312 186.591 203.756 188.064 202.06 188.326Z" fill="#8D8D8D"/>
<path d="M197.637 185.968C198.516 187.243 200.348 188.092 201.751 187.873C203.169 187.651 203.628 186.42 202.755 185.116C201.874 183.801 199.989 182.931 198.566 183.183C197.158 183.431 196.751 184.682 197.637 185.968Z" fill="#8D8D8D"/>
<path d="M195.875 191.254C196.731 192.464 198.5 193.289 199.846 193.103C201.205 192.916 201.633 191.769 200.783 190.533C199.924 189.286 198.106 188.443 196.742 188.656C195.391 188.868 195.013 190.034 195.875 191.254Z" fill="#8D8D8D"/>
<path d="M192.687 200.817C193.501 201.913 195.155 202.693 196.399 202.565C197.654 202.436 198.029 201.432 197.219 200.315C196.402 199.188 194.704 198.392 193.445 198.542C192.198 198.692 191.866 199.713 192.687 200.817Z" fill="#8D8D8D"/>
<path d="M195.07 207.17C193.64 207.292 191.723 206.384 190.773 205.137C189.815 203.879 190.184 202.726 191.618 202.577C193.069 202.425 195.044 203.356 195.997 204.643C196.942 205.918 196.516 207.047 195.07 207.17Z" fill="#8D8D8D"/>
<path d="M191.195 205.097C191.99 206.143 193.593 206.902 194.791 206.798C196 206.693 196.351 205.75 195.56 204.684C194.762 203.61 193.119 202.835 191.906 202.96C190.705 203.084 190.394 204.043 191.195 205.097Z" fill="#8D8D8D"/>
</g>
<path fill-rule="evenodd" clip-rule="evenodd" d="M243.186 93.521L261.194 104.359L254.061 80.2067L253.666 93.4662L230.706 76.8821L235.871 99.7935L210.413 85.7681L214.201 116.243L186.325 102.963C186.152 95.6618 187.626 88.2148 190.944 81.17C202.333 56.9856 231.13 46.7003 255.264 58.1971C279.397 69.6938 289.728 98.6192 278.339 122.804C266.95 146.988 238.153 157.273 214.02 145.777C211.51 144.581 209.15 143.197 206.948 141.65L231.855 139.781L225.924 106.449L249.702 118.234L243.186 93.521Z" fill="#8C8C8C"/>
<path fill-rule="evenodd" clip-rule="evenodd" d="M105.696 113.803L87.6887 124.641L94.8213 100.488L95.2166 113.748L118.177 97.1639L113.011 120.075L138.47 106.05L134.682 136.525L162.558 123.245C162.731 115.944 161.256 108.497 157.939 101.452C146.55 77.2674 117.753 66.9821 93.6193 78.4788C69.4859 89.9755 59.1543 118.901 70.5435 143.085C81.9326 167.27 110.73 177.555 134.863 166.058C137.372 164.863 139.733 163.479 141.935 161.931L117.028 160.063L122.958 126.73L99.181 138.516L105.696 113.803Z" fill="#8C8C8C"/>
<path d="M46.4234 236.63C27.357 241.78 11.7606 227.048 6.34566 219.037C16.7699 218.586 40.1743 216.917 50.3978 213.857C60.6214 210.796 71.8053 203.967 76.1193 200.935C74.165 210.687 65.4898 231.479 46.4234 236.63Z" fill="#8C8C8C"/>
<path d="M101.683 179.328C84.9297 189.787 85.1028 211.241 87.2835 220.661C94.7113 213.333 111.867 197.326 121.069 191.921C130.271 186.517 142.887 182.974 148.045 181.879C139.572 176.671 118.436 168.87 101.683 179.328Z" fill="#8C8C8C"/>
<path d="M321.494 204.581C303.982 221.758 278.131 215.294 267.394 209.915C278.406 203.084 302.734 187.038 311.942 177.504C321.15 167.97 329.105 153.771 331.932 147.863C335.749 159.612 339.005 187.403 321.494 204.581Z" fill="#8C8C8C"/>
<path d="M290.319 136.239C273.219 142.222 269.051 161.456 269.105 170.325C277.228 165.264 295.806 154.397 305.13 151.415C314.454 148.432 326.458 147.804 331.294 147.863C324.761 141.495 307.419 130.255 290.319 136.239Z" fill="#8C8C8C"/>
<path d="M296.647 68.1961C292.096 81.6911 277.606 89.2 277.606 89.2C277.606 89.2 270.378 74.513 274.93 61.018C279.481 47.523 293.971 40.014 293.971 40.014C293.971 40.014 301.199 54.7011 296.647 68.1961Z" fill="#8C8C8C"/>
<path d="M293.65 101.778C298.991 111.507 297.404 122.882 297.404 122.882C297.404 122.882 287.067 118.445 281.726 108.717C276.385 98.989 277.972 87.613 277.972 87.613C277.972 87.613 288.309 92.0501 293.65 101.778Z" fill="#8C8C8C"/>
<path d="M295.682 81.3619C305.927 81.1363 314.344 87.159 314.344 87.159C314.344 87.159 306.075 93.6033 295.83 93.8289C285.584 94.0545 277.168 88.0319 277.168 88.0319C277.168 88.0319 285.436 81.5875 295.682 81.3619Z" fill="#8C8C8C"/>
<path d="M50.0561 111.577C54.6075 125.072 69.0977 132.581 69.0977 132.581C69.0977 132.581 76.3251 117.894 71.7738 104.399C67.2225 90.9038 52.7323 83.3949 52.7323 83.3949C52.7323 83.3949 45.5048 98.0819 50.0561 111.577Z" fill="#8C8C8C"/>
<path d="M53.0526 145.16C47.7117 154.888 49.2988 166.264 49.2988 166.264C49.2988 166.264 59.6361 161.827 64.977 152.098C70.3179 142.37 68.7309 130.994 68.7309 130.994C68.7309 130.994 58.3936 135.431 53.0526 145.16Z" fill="#8C8C8C"/>
<path d="M51.021 124.743C40.7755 124.517 32.359 130.54 32.359 130.54C32.359 130.54 40.6275 136.984 50.873 137.21C61.1185 137.435 69.5351 131.413 69.5351 131.413C69.5351 131.413 61.2665 124.968 51.021 124.743Z" fill="#8C8C8C"/>
<path d="M197.102 299.713H332.316L336.694 261.314L306.538 286.589L310.453 271.341L285.624 285.617L265.196 275.41L262.277 293.394L212.18 275.41L218.017 292.422L184.456 280.757L197.102 299.713Z" fill="#8C8C8C"/>
<path d="M464.069 299.713H328.855L344.956 266.661L354.633 286.589L367.766 266.661L375.548 285.617L395.976 275.41L398.894 293.394L448.991 275.41L443.155 292.422L476.715 280.757L464.069 299.713Z" fill="#8C8C8C"/>
<path d="M36.8473 300H198.29L168.092 286.876L176.439 261.601L146.283 286.876L133.151 266.947L125.369 285.904L104.941 275.696L102.022 293.681L51.9252 275.696L57.7618 292.709L24.2014 281.043L36.8473 300Z" fill="#8C8C8C"/>
<path d="M71.6142 130.044C38.3089 217.861 136.39 225.616 101.38 296.774" stroke="#8C8C8C" stroke-width="10.3331"/>
<path d="M228.486 75.9635C232.062 75.0293 234.629 72.2367 235.995 68.7713C237.363 65.3044 237.597 61.0393 236.481 56.771C235.366 52.5028 233.076 48.8972 230.187 46.5421C227.3 44.1882 223.695 43.0082 220.12 43.9424C216.544 44.8765 213.977 47.6691 212.611 51.1345C211.243 54.6014 211.009 58.8665 212.125 63.1348C213.24 67.4031 215.53 71.0086 218.419 73.3637C221.306 75.7176 224.911 76.8976 228.486 75.9635Z" fill="white" stroke="#8C8C8C" stroke-width="3.65023"/>
<path d="M120.196 84.5188C123.49 83.6582 125.843 81.0885 127.091 77.9238C128.34 74.7576 128.551 70.8712 127.536 66.9882C126.522 63.1053 124.437 59.8187 121.799 57.668C119.162 55.5183 115.853 54.4278 112.559 55.2884C109.266 56.149 106.913 58.7188 105.665 61.8834C104.416 65.0496 104.205 68.9361 105.22 72.819C106.234 76.702 108.319 79.9885 110.957 82.1393C113.594 84.289 116.903 85.3794 120.196 84.5188Z" fill="white" stroke="#8C8C8C" stroke-width="3.65023"/>
<path d="M197.999 82.7232C200.247 82.1123 201.723 80.2804 202.447 78.2002C203.174 76.1101 203.229 73.5856 202.55 71.0899C201.872 68.5941 200.547 66.4444 198.862 65.0099C197.185 63.5823 194.984 62.7498 192.737 63.3606C190.489 63.9715 189.013 65.8034 188.289 67.8836C187.561 69.9737 187.507 72.4982 188.185 74.9939C188.864 77.4897 190.188 79.6394 191.874 81.0738C193.551 82.5015 195.752 83.334 197.999 82.7232Z" fill="white" stroke="#8C8C8C" stroke-width="3.65023"/>
<path d="M142.234 89.1082C144.524 89.5348 146.65 88.5265 148.205 86.9676C149.769 85.4013 150.915 83.1513 151.389 80.6087C151.862 78.0662 151.603 75.5544 150.709 73.5302C149.819 71.5155 148.199 69.8093 145.909 69.3827C143.619 68.9561 141.493 69.9643 139.938 71.5232C138.374 73.0896 137.228 75.3396 136.754 77.8821C136.281 80.4247 136.539 82.9364 137.434 84.9607C138.324 86.9753 139.944 88.6816 142.234 89.1082Z" fill="white" stroke="#8C8C8C" stroke-width="3.65023"/>
<path d="M222.57 54.2104C216.492 57.3112 211.721 57.2445 210.095 56.8235L217.283 44.0732L231.936 45.4186C231.347 47.0572 228.648 51.1095 222.57 54.2104Z" fill="#8C8C8C"/>
<path d="M266.334 81.147L271.185 83.3328C303.928 98.0886 327.673 127.572 335.111 162.707V162.707C345.203 210.373 323.509 259.124 281.343 283.536L266.334 292.225" stroke="#8C8C8C" stroke-width="10.3331"/>
<ellipse cx="225.619" cy="70.1483" rx="8.08589" ry="6.76988" fill="#8C8C8C"/>
<path d="M193.426 69.0759C190.057 70.2191 187.601 69.8261 186.794 69.4868L191.46 63.4487L198.919 65.2439C198.491 66.0449 196.795 67.9328 193.426 69.0759Z" fill="#8C8C8C"/>
<circle cx="197.239" cy="80.2345" r="4.66902" fill="#8C8C8C"/>
<path fill-rule="evenodd" clip-rule="evenodd" d="M119.357 82.3832C116.836 82.185 115.104 77.8229 115.502 72.6389C115.885 67.4095 118.261 63.3893 120.782 63.5876C122.565 63.7183 124.249 64.9085 124.18 67.8599L118.719 70.5188L123.446 72.6184C123.316 73.6572 123.236 74.7023 123.207 75.7503C123.144 80.5901 121.475 82.5368 119.357 82.3832Z" fill="#8C8C8C"/>
<path fill-rule="evenodd" clip-rule="evenodd" d="M143.412 87.0982C145.017 87.5419 147.069 85.2307 147.988 81.9322C148.926 78.609 148.358 75.5863 146.753 75.1426C145.62 74.823 144.31 75.1814 143.689 77.0244L146.472 79.8968L143.074 80.1344C142.922 80.8067 142.736 81.4717 142.519 82.1271C141.47 85.1372 142.066 86.7173 143.412 87.0982Z" fill="#8C8C8C"/>
<path d="M106.709 40.988C107.295 43.4487 109.803 48.6515 115.146 49.7764C120.489 50.9012 124.637 50.2451 126.044 49.7764" stroke="#8C8C8C" stroke-width="3.65023"/>
<path d="M140.551 59.9529C142.44 61.5834 147.127 64.4574 150.759 62.9099C154.391 61.3624 156.235 58.9831 156.703 57.9869" stroke="#8C8C8C" stroke-width="3.65023"/>
<path d="M361.99 190.753C349.437 174.549 352.351 151.178 368.499 138.553C384.647 125.928 407.914 128.829 420.467 145.033C433.02 161.237 430.106 184.608 413.958 197.233C397.81 209.859 374.543 206.957 361.99 190.753Z" fill="#8C8C8C"/>
<path d="M434.369 234.078C424.426 243.455 409.984 241.665 404.006 239.598C410.229 235.652 423.984 226.466 429.215 221.289C434.447 216.112 439.012 208.71 440.64 205.657C442.692 211.223 444.311 224.701 434.369 234.078Z" fill="#8C8C8C"/>
<path d="M385.327 239.57C375.707 233.544 375.727 221.228 376.94 215.822C381.215 220.039 391.085 229.25 396.368 232.365C401.651 235.479 408.879 237.529 411.833 238.164C407.006 241.143 394.947 245.595 385.327 239.57Z" fill="#8C8C8C"/>
<path d="M432.205 192.352C423.598 195.786 413.768 191.771 413.768 191.771C413.768 191.771 417.999 181.998 426.605 178.563C435.212 175.129 445.042 179.144 445.042 179.144C445.042 179.144 440.811 188.918 432.205 192.352Z" fill="#8C8C8C"/>
<path d="M414.299 205.026C411.73 211.774 405.423 215.784 405.423 215.784C405.423 215.784 403.264 208.79 405.833 202.042C408.402 195.294 414.708 191.284 414.708 191.284C414.708 191.284 416.868 198.277 414.299 205.026Z" fill="#8C8C8C"/>
<path d="M425.273 197.425C429.705 202.407 430.269 209.117 430.269 209.117C430.269 209.117 423.589 207.736 419.158 202.754C414.726 197.772 414.162 191.062 414.162 191.062C414.162 191.062 420.842 192.442 425.273 197.425Z" fill="#8C8C8C"/>
<path d="M413.44 191.98C431.776 248.724 376.069 250.795 395.344 296.775" stroke="#8C8C8C" stroke-width="8.61095"/>
<path d="M399.391 144.231C402.452 144.648 405.326 143.307 407.486 141.064C409.647 138.82 411.186 135.598 411.684 131.944C412.182 128.289 411.56 124.773 410.077 122.033C408.596 119.294 406.185 117.233 403.124 116.816C400.063 116.4 397.189 117.74 395.029 119.983C392.868 122.228 391.329 125.45 390.831 129.104C390.333 132.758 390.955 136.274 392.438 139.015C393.919 141.754 396.33 143.814 399.391 144.231Z" fill="white" stroke="#8C8C8C" stroke-width="3.05152"/>
<path fill-rule="evenodd" clip-rule="evenodd" d="M397.007 141.828C394.486 141.629 392.754 137.267 393.152 132.083C393.535 126.854 395.911 122.834 398.432 123.032C400.215 123.163 401.899 124.353 401.83 127.304L396.37 129.963L401.096 132.063C400.966 133.101 400.886 134.147 400.856 135.195C400.794 140.034 399.125 141.981 397.007 141.828Z" fill="#8C8C8C"/>
<path d="M375.421 140.498C377.736 140.248 379.482 138.671 380.524 136.731C381.571 134.781 382.022 132.297 381.744 129.725C381.467 127.154 380.497 124.823 379.058 123.141C377.626 121.468 375.584 120.299 373.268 120.549C370.953 120.799 369.206 122.376 368.164 124.316C367.118 126.266 366.667 128.751 366.944 131.322C367.222 133.893 368.192 136.225 369.631 137.906C371.062 139.58 373.105 140.748 375.421 140.498Z" fill="white" stroke="#8C8C8C" stroke-width="3.65023"/>
<path d="M415.403 115.499C415.403 115.499 411.763 107.979 406.603 106.392C401.442 104.806 394.061 109.068 394.061 109.068" stroke="#8C8C8C" stroke-width="3.65023"/>
<path d="M379.712 115.543C379.712 115.543 374.607 111.638 370.275 112.164C365.944 112.689 361.84 117.804 361.84 117.804" stroke="#8C8C8C" stroke-width="3.65023"/>
<path fill-rule="evenodd" clip-rule="evenodd" d="M371.833 138.892C370.134 138.759 368.966 135.818 369.234 132.323C369.492 128.797 371.094 126.087 372.794 126.22C373.996 126.309 375.131 127.111 375.085 129.101L371.403 130.893L374.59 132.309C374.502 133.009 374.448 133.714 374.428 134.42C374.386 137.683 373.261 138.996 371.833 138.892Z" fill="#8C8C8C"/>
<defs>
<clipPath id="clip0_3049_95793">
<rect width="30.0907" height="30.0907" fill="white" transform="translate(177.526 186.686) rotate(-19.6598)"/>
</clipPath>
</defs>
</svg>
