<svg width="480" height="480" viewBox="0 0 480 480" fill="none" xmlns="http://www.w3.org/2000/svg">
<g clip-path="url(#clip0_3072_99056)">
<path d="M280.688 430.266C280.688 430.266 280.688 429.178 280.65 427.136C280.627 425.048 280.622 422.018 280.67 418.212C280.67 414.394 280.837 409.782 280.954 404.485C281.166 399.195 281.358 393.225 281.742 386.732C282.126 380.24 282.522 373.202 283.2 365.783C283.525 362.075 283.783 358.257 284.185 354.369C284.586 350.482 285.024 346.51 285.464 342.469C285.68 340.449 285.9 338.416 286.123 336.368C286.398 334.321 286.673 332.263 286.95 330.196C287.502 326.05 288.061 321.863 288.628 317.635C289.947 309.211 291.308 300.661 292.845 292.139C293.698 287.894 294.542 283.655 295.377 279.422C295.8 277.308 296.221 275.2 296.638 273.096C297.06 270.995 297.616 268.92 298.094 266.847C299.086 262.701 300.069 258.597 301.043 254.535C301.555 252.508 301.971 250.478 302.534 248.495C303.097 246.512 303.665 244.546 304.222 242.594C306.524 234.814 308.415 227.206 310.998 220.219C312.192 216.703 313.36 213.291 314.505 209.983C315.622 206.671 316.699 203.475 318.001 200.496C320.454 194.495 322.707 188.998 324.702 184.117C325.621 181.653 326.874 179.511 327.828 177.438C328.833 175.391 329.754 173.517 330.588 171.821C333.913 165.044 335.819 161.175 335.819 161.175C335.961 160.886 336.211 160.665 336.516 160.561C336.82 160.457 337.154 160.478 337.443 160.619C337.722 160.756 337.938 160.995 338.046 161.286C338.155 161.578 338.147 161.899 338.026 162.186L337.988 162.273L333.345 173.093C332.607 174.812 331.793 176.71 330.902 178.787C330.064 180.878 328.938 183.045 328.153 185.538L322.365 202.047C321.232 205.043 320.331 208.26 319.395 211.59L316.456 221.87C314.264 228.872 312.788 236.495 310.911 244.27C310.457 246.217 310.001 248.179 309.542 250.156C309.092 252.137 308.775 254.166 308.381 256.188C307.626 260.233 306.864 264.323 306.097 268.459C305.731 270.529 305.291 272.589 304.982 274.683C304.672 276.776 304.366 278.877 304.059 280.978C303.445 285.186 302.828 289.401 302.209 293.626C301.127 302.089 300.219 310.58 299.345 318.925C299.004 323.109 298.662 327.254 298.321 331.363C298.151 333.41 297.98 335.446 297.81 337.471C297.694 339.498 297.581 341.51 297.47 343.508C297.25 347.497 297.034 351.415 296.823 355.262C296.621 359.101 296.567 362.868 296.429 366.523C296.137 373.842 296.119 380.764 296.053 387.152C295.986 393.539 296.117 399.392 296.173 404.569C296.324 409.744 296.393 414.263 296.582 417.959C296.725 421.682 296.879 424.551 296.999 426.483C297.127 428.469 297.194 429.529 297.194 429.529V429.636C297.483 434.197 280.977 435.246 280.686 430.685C280.696 430.557 280.691 430.399 280.688 430.266Z" fill="#D4D7DC"/>
<path d="M209.798 209.348C209.798 209.348 210.355 210.116 211.355 211.651C212.355 213.187 213.762 215.421 215.553 218.284C217.231 221.207 219.389 224.698 221.566 228.849C223.868 232.943 226.213 237.685 228.794 242.855C230.109 245.414 231.286 248.196 232.611 251.013C233.889 253.849 235.299 256.748 236.524 259.822L240.437 269.222C241.783 272.428 242.926 275.791 244.215 279.161C246.852 285.889 249.098 293.004 251.461 300.213C252.704 303.795 253.717 307.486 254.753 311.181C255.789 314.877 256.843 318.585 257.892 322.293C259.792 329.758 261.472 337.282 263.245 344.667C264.654 352.125 266.059 359.465 267.389 366.569C268.412 373.734 269.399 380.644 270.335 387.213C270.553 388.856 270.826 390.471 270.987 392.076C271.149 393.68 271.282 395.259 271.425 396.815C271.711 399.918 271.988 402.915 272.254 405.805C272.739 411.571 273.399 416.848 273.481 421.552C273.681 426.253 273.852 430.348 273.993 433.723C274.277 440.474 274.44 444.333 274.44 444.333C274.533 446.542 266.539 446.892 266.447 444.671V444.379C266.447 444.379 266.371 440.576 266.243 433.923C266.176 430.596 266.097 426.55 266.007 421.913C266.036 417.263 265.496 412.057 265.148 406.356L264.534 397.47C264.427 395.935 264.318 394.374 264.209 392.787C264.087 391.2 263.851 389.606 263.672 387.978C262.905 381.478 262.076 374.622 261.229 367.533L257.626 345.804C256.04 338.477 254.556 330.997 252.837 323.57C251.884 319.878 250.933 316.192 249.983 312.512C249.042 308.832 248.121 305.157 246.972 301.584C244.796 294.401 242.732 287.302 240.274 280.584C239.071 277.216 238.015 273.859 236.754 270.655C235.493 267.451 234.283 264.31 233.091 261.255C231.948 258.184 230.621 255.279 229.411 252.444C228.201 249.608 227.06 246.847 225.814 244.27C223.374 239.098 221.154 234.343 218.97 230.238C216.895 226.074 214.852 222.579 213.256 219.646C211.555 216.785 210.243 214.51 209.278 213.033C208.314 211.556 207.797 210.73 207.797 210.73C207.707 210.598 207.643 210.45 207.609 210.294C207.576 210.138 207.573 209.977 207.602 209.82C207.631 209.663 207.69 209.513 207.777 209.379C207.863 209.245 207.976 209.129 208.107 209.038C208.368 208.858 208.689 208.787 209.002 208.841C209.314 208.894 209.593 209.068 209.78 209.325L209.798 209.348Z" fill="#D4D7DC"/>
<path d="M214.944 263.699C214.944 263.699 215.455 264.318 216.425 265.49C217.394 266.663 218.757 268.421 220.479 270.657C222.152 272.927 224.221 275.658 226.438 278.898L229.976 284.054L233.726 289.889C236.409 293.915 238.941 298.498 241.816 303.235C243.149 305.666 244.513 308.158 245.908 310.71C247.325 313.254 248.74 315.872 250.049 318.595C251.359 321.318 252.768 324.056 254.157 326.843C255.546 329.63 256.746 332.55 258.065 335.437C259.326 338.354 260.754 341.231 261.902 344.235L265.462 353.236L267.253 357.742L268.828 362.316C269.872 365.364 270.909 368.398 271.939 371.416C273.028 374.41 273.867 377.458 274.722 380.46L277.279 389.35C278.175 392.257 278.837 395.165 279.471 398.021C280.106 400.877 280.75 403.651 281.387 406.374C282.753 411.784 283.528 416.999 284.352 421.798C284.758 424.196 285.15 426.496 285.521 428.684C285.891 430.872 286.272 432.945 286.436 434.918C286.866 438.854 287.239 442.284 287.549 445.109L288.505 453.981C288.802 456.722 278.881 457.8 278.581 455.056L278.566 454.897L278.543 454.573C278.543 454.573 278.315 451.425 277.919 445.912C277.722 443.151 277.481 439.804 277.208 435.96C277.121 434.03 276.827 432.001 276.54 429.859C276.254 427.717 270.22 429.08 269.908 426.729C269.276 422.025 269.908 391.175 269.908 391.175C269.195 388.288 268.471 385.358 267.736 382.384C267.007 379.411 266.301 376.391 265.337 373.427C264.437 370.437 263.53 367.425 262.616 364.393L261.232 359.843L259.646 355.355C258.585 352.357 257.527 349.365 256.472 346.377C255.449 343.378 254.149 340.491 253.011 337.584C251.814 334.69 250.724 331.78 249.474 328.978L245.724 320.699C244.53 317.961 243.233 315.325 241.928 312.765C240.624 310.206 239.371 307.683 238.156 305.236C235.488 300.459 233.15 295.829 230.648 291.757L227.152 285.853C225.986 284.016 224.882 282.274 223.842 280.628C221.77 277.342 219.824 274.573 218.256 272.27C216.64 270.002 215.368 268.218 214.465 267.054L213.071 265.242L213.048 265.212C212.951 265.085 212.88 264.941 212.839 264.787C212.797 264.633 212.786 264.473 212.807 264.314C212.828 264.156 212.879 264.004 212.959 263.866C213.039 263.728 213.145 263.607 213.271 263.51C213.52 263.319 213.834 263.232 214.145 263.267C214.457 263.303 214.743 263.457 214.944 263.699Z" fill="#D4D7DC"/>
<path d="M209.725 367.482L210.472 368.319C210.983 368.882 211.646 369.706 212.518 370.761C213.347 371.835 214.403 373.118 215.5 374.656C216.641 376.171 217.846 377.931 219.155 379.861C220.465 381.79 221.8 383.932 223.184 386.22C224.529 388.524 225.997 390.942 227.322 393.534C228.739 396.094 230.057 398.801 231.376 401.57C232.77 404.308 233.881 407.223 235.157 410.071C236.356 412.951 237.4 415.894 238.513 418.773C239.479 421.695 240.428 424.572 241.349 427.353C242.188 430.168 242.897 432.909 243.621 435.504C244.388 438.089 244.81 440.602 245.36 442.892C245.841 445.196 246.396 447.284 246.659 449.178C246.976 451.064 247.25 452.709 247.478 454.063C247.928 456.776 248.186 458.327 248.186 458.327C248.611 460.886 239.37 462.421 238.945 459.862C238.93 459.757 238.917 459.655 238.904 459.547L238.881 459.292C238.881 459.292 238.738 457.797 238.49 455.184C238.367 453.876 238.213 452.284 238.042 450.465C237.919 448.633 237.53 446.606 237.221 444.369C236.848 442.148 236.628 439.696 236.057 437.178C235.546 434.644 235.034 431.955 234.428 429.199C233.732 426.458 233.013 423.625 232.282 420.753C231.407 417.918 230.599 415 229.637 412.137C228.596 409.306 227.721 406.397 226.568 403.656C225.478 400.882 224.386 398.156 223.186 395.582C222.066 392.969 220.813 390.525 219.664 388.183C218.475 385.865 217.301 383.695 216.178 381.716C215.055 379.738 213.981 377.949 212.978 376.396C211.976 374.842 211.078 373.507 210.344 372.401C209.61 371.295 208.975 370.469 208.553 369.926L207.891 369.069L207.868 369.036C207.77 368.91 207.698 368.766 207.656 368.612C207.614 368.458 207.603 368.297 207.623 368.138C207.643 367.98 207.694 367.827 207.774 367.689C207.853 367.55 207.959 367.429 208.085 367.331C208.328 367.148 208.631 367.061 208.934 367.089C209.237 367.117 209.519 367.257 209.725 367.482V367.482Z" fill="#D4D7DC"/>
<path d="M111.451 10.8355C103.59 12.4068 234.886 282.708 240.498 280.298C246.11 277.887 273.363 243.402 274.164 203.308C274.964 163.214 254.123 127.921 254.123 127.921C254.123 127.921 229.275 153.587 226.863 152.771C224.451 151.954 244.511 118.289 245.302 115.077C246.092 111.865 223.658 78.1895 223.658 78.1895C223.658 78.1895 189.992 117.485 185.987 115.077C181.981 112.669 208.429 79.7916 208.429 79.7916C208.429 79.7916 185.987 30.871 169.154 28.4654C169.154 28.4654 151.518 57.3377 149.114 55.7331C146.71 54.1285 153.925 26.0598 153.122 22.8532C152.319 19.6466 119.467 9.23094 111.451 10.8355Z" fill="#D4D7DC"/>
<path d="M226.07 291.522C226.07 291.522 244.504 283.507 239.695 251.425C234.887 219.344 198.021 190.843 194.811 195.872C191.601 200.9 186.429 213.578 185.33 213.135C184.23 212.693 187.752 186.234 186.649 183.368C185.547 180.501 137.504 157.776 135.75 158.444C133.995 159.112 128.478 192.852 127.153 192.409C125.828 191.966 126.053 161.505 119.881 158.431C113.709 155.358 61.4742 161.533 60.8118 170.574C60.1493 179.616 163.43 217.97 226.07 291.522Z" fill="#D4D7DC"/>
<path d="M217.054 386.804C217.054 386.804 144.027 290.78 86.6609 256.339C82.3996 253.78 105.658 243.865 144.188 263.159C146.746 264.438 139.072 287.471 142.057 287.888C145.042 288.305 155.268 269.557 158.683 271.253C162.098 272.95 185.105 292.144 186.381 295.13C187.657 298.117 175.707 319.306 178.265 319.161C180.823 319.015 202.564 300.678 205.539 303.235C208.514 305.791 246.031 350.989 217.054 386.804Z" fill="#D4D7DC"/>
<path d="M316.333 217.97C317.433 218.622 386.889 55.7355 431.385 0.954573C436.925 -5.86554 349.569 25.2665 343.177 45.2969C336.785 65.3273 360.647 99.8679 360.647 99.8679C360.647 99.8679 330.393 68.3188 326.559 69.1582C322.725 69.9976 278.831 136.947 283.944 145.477C289.057 154.007 324.001 176.601 324.001 176.601C324.001 176.601 282.693 172.762 283.532 175.749C288.532 193.57 300.305 208.725 316.333 217.97Z" fill="#D4D7DC"/>
</g>
<ellipse cx="239.425" cy="450.926" rx="138.96" ry="19.5981" fill="#8C8C8C"/>
<path d="M213.688 438.162L358.303 442.352L378.387 392.856L342.807 422.677L327.313 399.164L318.131 421.53L294.029 409.487L290.586 430.706L231.478 409.487L238.364 429.559L198.768 415.795L213.688 438.162Z" fill="#8C8C8C"/>
<path d="M312.226 240.165C297.422 258.259 272.26 254.823 261.529 250.844C271.252 243.227 292.629 225.497 300.362 215.507C308.094 205.518 314.153 191.239 316.217 185.349C321.055 196.082 327.029 222.072 312.226 240.165Z" fill="#8C8C8C"/>
<path d="M219.666 268.816C199.486 277.14 194.151 299.998 194.006 310.386C203.645 303.832 225.671 289.672 236.668 285.461C247.664 281.25 261.746 279.593 267.413 279.29C259.905 272.33 239.845 260.492 219.666 268.816Z" fill="#8C8C8C"/>
<rect x="131.939" y="324.089" width="88.6247" height="123.346" fill="#8C8C8C"/>
<path d="M176.356 315.035H176.356C157.195 315.033 138.033 315.034 118.87 315.036L176.356 315.035ZM176.356 315.035H176.468H176.58H176.691H176.803H176.914H177.026H177.138H177.249H177.361H177.473H177.584H177.696H177.807H177.919H178.031H178.142H178.254H178.365H178.477H178.589H178.7H178.812H178.924H179.035H179.147H179.258H179.37H179.482H179.593H179.705H179.817H179.928H180.04H180.151H180.263H180.375H180.486H180.598H180.71H180.821H180.933H181.044H181.156H181.268H181.379H181.491H181.603H181.714H181.826H181.937H182.049H182.161H182.272H182.384H182.496H182.607H182.719H182.83H182.942H183.054H183.165H183.277H183.389H183.5H183.612H183.723H183.835H183.947H184.058H184.17H184.282H184.393H184.505H184.616H184.728H184.84H184.951H185.063H185.175H185.286H185.398H185.509H185.621H185.733H185.844H185.956H186.068H186.179H186.291H186.402H186.514H186.626H186.737H186.849H186.96H187.072H187.184H187.295H187.407H187.519H187.63H187.742H187.853H187.965H188.077H188.188H188.3H188.412H188.523H188.635H188.746H188.858H188.97H189.081H189.193H189.305H189.416H189.528H189.639H189.751H189.863H189.974H190.086H190.198H190.309H190.421H190.532H190.644H190.756H190.867H190.979H191.091H191.202H191.314H191.425H191.537H191.649H191.76H191.872H191.984H192.095H192.207H192.318H192.43H192.542H192.653H192.765H192.877H192.988H193.1H193.211H193.323H193.435H193.546H193.658H193.769H193.881H193.993H194.104H194.216H194.328H194.439H194.551H194.662H194.774H194.886H194.997H195.109H195.221H195.332H195.444H195.555H195.667H195.779H195.89H196.002H196.114H196.225H196.337H196.448H196.56H196.672H196.783H196.895H197.007H197.118H197.23H197.341H197.453H197.565H197.676H197.788H197.9H198.011H198.123H198.234H198.346H198.458H198.569H198.681H198.793H198.904H199.016H199.127H199.239H199.351H199.462H199.574H199.686H199.797H199.909H200.02H200.132H200.244H200.355H200.467H200.578H200.69H200.802H200.913H201.025H201.137H201.248H201.36H201.471H201.583H201.695H201.806H201.918H202.03H202.141H202.253H202.364H202.476H202.588H202.699H202.811H202.923H203.034H203.146H203.257H203.369H203.481H203.592H203.704H203.816H203.927H204.039H204.15H204.262H204.374H204.485H204.597H204.709H204.82H204.932H205.043H205.155H205.267H205.378H205.49H205.601H205.713H205.825H205.936H206.048H206.16H206.271H206.383H206.494H206.606H206.718H206.829H206.941H207.053H207.164H207.276H207.387H207.499H207.611H207.722H207.834H207.946H208.057H208.169H208.28H208.392H208.504H208.615H208.727H208.839H208.95H209.062H209.173H209.285H209.397H209.508H209.62H209.732H209.843H209.955H210.066H210.178H210.29H210.401H210.513H210.624H210.736H210.848H210.959H211.071H211.183H211.294H211.406H211.517H211.629H211.741H211.852H211.964H212.076H212.187H212.299H212.41H212.522H212.634H212.745H212.857H212.969H213.08H213.192H213.303H213.415H213.527H213.638H213.75H213.862H213.973H214.085H214.196H214.308H214.42H214.531H214.643H214.755H214.866H214.978H215.089H215.201H215.313H215.424H215.536H215.647H215.759H215.871H215.982H216.094H216.206H216.317H216.429H216.54H216.652H216.764H216.875H216.987H217.099H217.21H217.322H217.433H217.545H217.657H217.768H217.88H217.992H218.103H218.215H218.326H218.438H218.55H218.661H218.773H218.885H218.996H219.108H219.219H219.331H219.443H219.554H219.666H219.777H219.889H220.001H220.112H220.224H220.336H220.447H220.559H220.67H220.782H220.894H221.005H221.117H221.229H221.34H221.452H221.563H221.675H221.787H221.898H222.01H222.122H222.233H222.345H222.456H222.568H222.68H222.791H222.903H223.015H223.126H223.238H223.349H223.461H223.573H223.684H223.796H223.907H224.019H224.131H224.242H224.354H224.466H224.577H224.689H224.8H224.912H225.024H225.135H225.247H225.359H225.47H225.582H225.693H225.805H225.917H226.028H226.14H226.252H226.363H226.475H226.586H226.698H226.81H226.921H227.033H227.145H227.256H227.368H227.479H227.591H227.703H227.814H227.926H228.037H228.149H228.261H228.372H228.484H228.596H228.707H228.819H228.93H229.042H229.154H229.265H229.377H229.489H229.6H229.712H229.823H229.935H230.047H230.158H230.27H230.382H230.493H230.605H230.716H230.828H230.94H231.051H231.163H231.274H231.386H231.498H231.609H231.721H231.833H231.944H232.056H232.167H232.279H232.391H232.502H232.614H232.726H232.837H232.949H233.06H233.172H233.284H233.395H233.507C233.598 315.035 233.711 315.036 233.836 315.038C233.954 315.04 234.083 315.041 234.215 315.042M176.356 315.035L234.215 315.042M234.215 315.042C233.911 317.62 233.723 320.224 233.539 322.781C233.459 323.898 233.379 325.006 233.29 326.099C233.036 329.236 232.787 332.373 232.544 335.51C232.412 337.19 232.283 338.868 232.153 340.545C231.912 343.66 231.672 346.771 231.42 349.885L231.42 349.885C231.212 352.446 230.997 355.017 230.782 357.592C230.506 360.885 230.23 364.183 229.97 367.469C229.824 369.323 229.697 371.178 229.572 373.022L229.572 373.022C229.446 374.869 229.322 376.704 229.177 378.536C229.003 380.734 228.812 382.896 228.62 385.067C228.462 386.854 228.304 388.646 228.154 390.47L228.154 390.47C227.97 392.715 227.797 394.978 227.624 397.236C227.486 399.045 227.348 400.851 227.204 402.64C227.056 404.491 226.901 406.358 226.746 408.227C226.557 410.497 226.368 412.772 226.19 415.029L226.19 415.029C226.156 415.472 226.122 415.914 226.088 416.353C225.972 417.867 225.857 419.361 225.712 420.859M234.215 315.042L118.655 320.021C118.787 321.638 118.924 323.262 119.061 324.888C119.267 327.32 119.472 329.759 119.663 332.188L119.663 332.188C119.783 333.714 119.883 335.217 119.982 336.708C120.162 339.408 120.34 342.069 120.625 344.753C120.836 346.734 120.989 348.713 121.135 350.667C121.147 350.823 121.159 350.979 121.17 351.134C121.305 352.936 121.438 354.715 121.612 356.49C121.868 359.115 122.047 361.793 122.223 364.44C122.336 366.137 122.448 367.82 122.58 369.468C122.904 373.532 123.242 377.586 123.581 381.644C123.83 384.621 124.079 387.6 124.322 390.586C124.856 397.077 125.374 403.57 125.874 410.064L124.146 410.197L125.874 410.064C126.005 411.763 126.115 413.436 126.224 415.098C126.4 417.773 126.573 420.418 126.83 423.092C127.406 429.091 127.842 435.097 128.277 441.081C128.303 441.439 128.33 441.798 128.356 442.156C128.443 443.352 128.679 444.256 129.214 444.942C130.154 446.097 131.298 447.071 132.59 447.813L132.604 447.821L132.617 447.829C135.18 449.365 138.029 450.33 141.054 451.24C145.153 452.473 149.385 453.24 153.73 453.962C157.27 454.551 160.829 454.842 164.466 455.139C165.141 455.194 165.818 455.249 166.499 455.306C169.101 455.526 171.662 455.493 174.317 455.458C175.633 455.441 176.973 455.423 178.352 455.436M225.712 420.859C225.712 420.859 225.712 420.859 225.712 420.859L227.438 421.026L225.712 420.859ZM225.712 420.859C225.434 423.73 225.237 426.626 225.042 429.492C224.956 430.766 224.869 432.034 224.777 433.292C224.725 433.987 224.675 434.681 224.625 435.374C224.447 437.816 224.271 440.245 224.059 442.672M224.059 442.672C223.931 444.135 223.202 445.329 221.923 446.361C219.695 448.157 217.086 449.324 214.197 450.322C209.204 452.046 204.053 453.132 198.76 453.931L198.755 453.932C192.005 454.976 185.182 455.479 178.352 455.436M224.059 442.672L225.786 442.823L224.059 442.672C224.059 442.672 224.059 442.672 224.059 442.672ZM178.352 455.436C178.352 455.436 178.351 455.436 178.351 455.436L178.34 457.169L178.356 455.436C178.355 455.436 178.353 455.436 178.352 455.436ZM118.276 315.043C118.468 315.038 118.666 315.037 118.87 315.036L118.276 315.043ZM118.276 315.043C118.345 315.895 118.409 316.76 118.472 317.617C118.532 318.432 118.592 319.239 118.655 320.02L118.276 315.043ZM201.414 435.742L201.462 435.668C201.689 433.159 201.777 430.63 201.852 428.053C201.86 427.801 201.867 427.548 201.875 427.294C201.946 424.834 202.018 422.327 202.208 419.822L202.208 419.822C202.323 418.305 202.367 416.773 202.403 415.202C202.408 414.981 202.413 414.759 202.417 414.537C202.447 413.189 202.476 411.809 202.548 410.434L201.414 435.742ZM201.414 435.742V436.249M201.414 435.742V436.249M201.414 436.249C201.414 436.373 201.413 436.514 201.411 436.664C201.407 437.039 201.402 437.475 201.419 437.878L201.419 437.878M201.414 436.249L201.419 437.878M201.419 437.878C201.542 440.818 203.75 443.035 206.707 443.039C209.608 443.043 211.77 440.858 211.945 437.982C211.972 437.537 211.973 437.098 211.974 436.715L211.975 436.66C211.976 436.246 211.978 435.894 212.002 435.553C212.371 430.239 212.585 424.877 212.797 419.545C212.93 416.206 213.062 412.878 213.232 409.582L213.232 409.582M201.419 437.878L213.232 409.582M213.232 409.582C213.316 407.952 213.353 406.324 213.39 404.724L213.395 404.483C213.434 402.797 213.475 401.141 213.569 399.494C213.973 392.444 214.261 385.385 214.548 378.343C214.636 376.181 214.724 374.019 214.816 371.86L214.816 371.86L213.232 409.582ZM214.18 345.95C214.082 347.987 214.006 350.024 213.929 352.061C213.793 355.68 213.658 359.298 213.403 362.912C213.275 364.727 213.231 366.548 213.187 368.369C213.159 369.509 213.132 370.649 213.083 371.787C212.992 373.952 212.904 376.118 212.815 378.283C212.528 385.322 212.241 392.361 211.838 399.395C211.737 401.153 211.697 402.915 211.657 404.676C211.62 406.283 211.584 407.889 211.501 409.493L214.18 345.95ZM214.18 345.95C214.226 344.991 214.283 344.032 214.341 343.073C214.419 341.779 214.496 340.485 214.546 339.191C214.565 338.69 214.586 338.188 214.608 337.687C214.709 335.381 214.81 333.072 214.634 330.769L214.18 345.95ZM211.206 326.227L211.206 326.227C213.656 326.263 216.151 327.839 216.363 330.638C216.547 333.055 216.44 335.489 216.339 337.798C216.318 338.291 216.296 338.777 216.278 339.256C216.229 340.551 216.148 341.897 216.069 343.219C216.012 344.179 215.955 345.126 215.912 346.033C215.816 348.031 215.74 350.05 215.664 352.081C215.527 355.722 215.389 359.396 215.132 363.034L211.206 326.227ZM211.206 326.227C209.935 326.209 208.731 326.575 207.782 327.373M211.206 326.227L207.782 327.373M150.796 430.156L151.007 429.843V435.52C151.007 435.738 151.01 435.976 151.013 436.225C151.021 436.837 151.029 437.519 150.997 438.161M150.796 430.156L149.265 438.075M150.796 430.156C150.531 425.722 150.373 421.295 150.214 416.843C150.119 414.182 150.024 411.513 149.905 408.828L148.513 408.89L149.905 408.828C149.846 407.492 149.792 406.147 149.738 404.798C149.624 401.963 149.509 399.109 149.345 396.276C149.149 392.877 149.019 389.473 148.889 386.049L148.881 385.832C148.748 382.341 148.613 378.83 148.404 375.317L148.404 375.317C148.027 368.986 147.743 362.647 147.552 356.302L147.552 356.299C147.461 353.467 147.33 350.674 147.199 347.896C146.991 343.458 146.784 339.059 146.75 334.605C146.752 333.158 146.609 331.715 146.323 330.297L146.321 330.289L146.319 330.281C145.826 327.952 143.761 326.114 141.355 326.085L141.355 326.085C138.985 326.057 136.822 327.773 136.217 330.045L136.208 330.079L136.2 330.114C136.011 330.96 135.949 331.829 136.016 332.693C136.091 334.611 136.166 336.529 136.241 338.448C136.464 344.171 136.686 349.898 136.929 355.622C137.087 359.358 137.253 363.093 137.425 366.827C137.644 371.626 137.839 376.411 138.034 381.201C138.186 384.941 138.338 388.684 138.503 392.439L138.503 392.439C138.556 393.661 138.605 394.891 138.655 396.125C138.754 398.593 138.854 401.076 138.989 403.545L138.989 403.545C139.308 409.403 139.531 415.258 139.755 421.129C139.837 423.278 139.919 425.429 140.006 427.583L141.738 427.513L140.006 427.583C140.057 428.842 140.152 430.113 140.245 431.347C140.278 431.795 140.311 432.238 140.342 432.674C140.459 434.339 140.542 435.951 140.495 437.55M150.796 430.156L140.495 437.55M150.997 438.161L149.265 438.075M150.997 438.161C150.997 438.161 150.997 438.161 150.997 438.161L149.265 438.075M150.997 438.161C150.87 440.713 148.906 442.587 146.478 442.957L146.456 442.96L146.435 442.963C145.268 443.111 144.086 442.857 143.084 442.243C142.081 441.628 141.318 440.69 140.921 439.583L140.915 439.566L140.909 439.548C140.899 439.516 140.885 439.476 140.868 439.43C140.74 439.067 140.472 438.308 140.495 437.55M149.265 438.075C149.184 439.704 147.933 440.981 146.216 441.243C145.441 441.342 144.656 441.173 143.99 440.764C143.324 440.356 142.817 439.733 142.553 438.998C142.535 438.943 142.516 438.888 142.497 438.833C142.359 438.429 142.216 438.008 142.228 437.601L140.495 437.55C140.495 437.55 140.495 437.55 140.495 437.55M170.979 438.163L170.977 438.136C170.936 437.637 170.923 437.136 170.938 436.636C170.936 402.008 170.936 367.38 170.94 332.752L170.979 438.163ZM170.979 438.163L170.983 438.19M170.979 438.163L170.983 438.19M170.983 438.19C171.143 439.604 171.749 440.864 172.769 441.759C173.791 442.656 175.118 443.084 176.531 443.028C179.39 442.913 181.361 440.636 181.481 437.845C181.499 437.441 181.496 437.019 181.494 436.652C181.493 436.537 181.492 436.427 181.492 436.324L181.493 384.759V384.666M170.983 438.19L181.493 384.666M207.782 327.373C206.83 328.173 206.266 329.297 206.084 330.554M207.782 327.373L206.084 330.554M206.084 330.554C205.689 333.292 205.623 336.115 205.56 338.811M206.084 330.554L205.56 338.811M205.56 338.811C205.533 339.947 205.507 341.06 205.457 342.134M205.56 338.811L205.457 342.134M205.457 342.134C205.39 343.576 205.321 345.02 205.252 346.465M205.457 342.134L205.252 346.465M205.252 346.465C205.011 351.524 204.769 356.599 204.602 361.672M205.252 346.465L204.602 361.672M204.602 361.672C204.505 364.62 204.37 367.607 204.234 370.606M204.602 361.672L204.234 370.606M204.234 370.606C204.045 374.77 203.856 378.959 203.766 383.101M204.234 370.606L203.766 383.101M203.766 383.101C203.685 386.811 203.534 390.53 203.306 394.232M203.766 383.101L203.306 394.232M203.306 394.232C203.113 397.348 202.982 400.512 202.853 403.654M203.306 394.232L202.853 403.654M202.853 403.654C202.759 405.934 202.665 408.203 202.548 410.433L202.853 403.654ZM181.493 384.666V384.573M181.493 384.666V384.573M181.493 384.573V384.48M181.493 384.573V384.48M181.493 384.48V384.387M181.493 384.48V384.387M181.493 384.387V384.294M181.493 384.387V384.294M181.493 384.294V384.201M181.493 384.294V384.201M181.493 384.201V384.108M181.493 384.201V384.108M181.493 384.108V384.015M181.493 384.108V384.015M181.493 384.015V383.922M181.493 384.015V383.922M181.493 383.922V383.83M181.493 383.922V383.83M181.493 383.83V383.737M181.493 383.83V383.737M181.493 383.737V383.644M181.493 383.737V383.644M181.493 383.644V383.551M181.493 383.644V383.551M181.493 383.551V383.458M181.493 383.551V383.458M181.493 383.458V383.365M181.493 383.458V383.365M181.493 383.365V383.272M181.493 383.365V383.272M181.493 383.272V383.179M181.493 383.272V383.179M181.493 383.179V383.086M181.493 383.179V383.086M181.493 383.086V382.993M181.493 383.086V382.993M181.493 382.993V382.901M181.493 382.993V382.901M181.493 382.901V382.808M181.493 382.901V382.808M181.493 382.808V382.715M181.493 382.808V382.715M181.493 382.715V382.622M181.493 382.715V382.622M181.493 382.622V382.529M181.493 382.622V382.529M181.493 382.529V382.436M181.493 382.529V382.436M181.493 382.436V382.343M181.493 382.436V382.343M181.493 382.343V382.25M181.493 382.343V382.25M181.493 382.25V382.157M181.493 382.25V382.157M181.493 382.157V382.064M181.493 382.157V382.064M181.493 382.064V381.972M181.493 382.064V381.972M181.493 381.972V381.879M181.493 381.972V381.879M181.493 381.879V381.786M181.493 381.879V381.786M181.493 381.786V381.693M181.493 381.786V381.693M181.493 381.693V381.6M181.493 381.693V381.6M181.493 381.6V381.507M181.493 381.6V381.507M181.493 381.507V381.414M181.493 381.507V381.414M181.493 381.414V381.321M181.493 381.414V381.321M181.493 381.321V381.228M181.493 381.321V381.228M181.493 381.228V381.135M181.493 381.228V381.135M181.493 381.135V381.043M181.493 381.135V381.043M181.493 381.043V380.95M181.493 381.043V380.95M181.493 380.95V380.857M181.493 380.95V380.857M181.493 380.857V380.764M181.493 380.857V380.764M181.493 380.764V380.671M181.493 380.764V380.671M181.493 380.671V380.578M181.493 380.671V380.578M181.493 380.578V380.485M181.493 380.578V380.485M181.493 380.485V380.392M181.493 380.485V380.392M181.493 380.392V380.299M181.493 380.392V380.299M181.493 380.299V380.206M181.493 380.299V380.206M181.493 380.206V380.114M181.493 380.206V380.114M181.493 380.114V380.021M181.493 380.114V380.021M181.493 380.021V379.928M181.493 380.021V379.928M181.493 379.928V379.835M181.493 379.928V379.835M181.493 379.835V379.742M181.493 379.835V379.742M181.493 379.742V379.649M181.493 379.742V379.649M181.493 379.649V379.556M181.493 379.649V379.556M181.493 379.556V379.463M181.493 379.556V379.463M181.493 379.463V379.37M181.493 379.463V379.37M181.493 379.37V379.277M181.493 379.37V379.277M181.493 379.277V379.185M181.493 379.277V379.185M181.493 379.185V379.092M181.493 379.185V379.092M181.493 379.092V378.999M181.493 379.092V378.999M181.493 378.999V378.906M181.493 378.999V378.906M181.493 378.906V378.813M181.493 378.906V378.813M181.493 378.813V378.72M181.493 378.813V378.72M181.493 378.72V378.627M181.493 378.72V378.627M181.493 378.627V378.534M181.493 378.627V378.534M181.493 378.534V378.441M181.493 378.534V378.441M181.493 378.441V378.348M181.493 378.441V378.348M181.493 378.348V378.256M181.493 378.348V378.256M181.493 378.256V378.163M181.493 378.256V378.163M181.493 378.163V378.07M181.493 378.163V378.07M181.493 378.07V377.977M181.493 378.07V377.977M181.493 377.977V377.884M181.493 377.977V377.884M181.493 377.884V377.791M181.493 377.884V377.791M181.493 377.791V377.698M181.493 377.791V377.698M181.493 377.698V377.605M181.493 377.698V377.605M181.493 377.605V377.512M181.493 377.605V377.512M181.493 377.512V377.419M181.493 377.512V377.419M181.493 377.419V377.326M181.493 377.419V377.326M181.493 377.326V377.234M181.493 377.326V377.234M181.493 377.234V377.141M181.493 377.234V377.141M181.493 377.141V377.048M181.493 377.141V377.048M181.493 377.048V376.955M181.493 377.048V376.955M181.493 376.955V376.862M181.493 376.955V376.862M181.493 376.862V376.769M181.493 376.862V376.769M181.493 376.769V376.676M181.493 376.769V376.676M181.493 376.676V376.583M181.493 376.676V376.583M181.493 376.583V376.49M181.493 376.583V376.49M181.493 376.49V376.397M181.493 376.49V376.397M181.493 376.397V376.305M181.493 376.397V376.305M181.493 376.305V376.212M181.493 376.305V376.212M181.493 376.212V376.119M181.493 376.212V376.119M181.493 376.119V376.026M181.493 376.119V376.026M181.493 376.026V375.933M181.493 376.026V375.933M181.493 375.933V375.84M181.493 375.933V375.84M181.493 375.84V375.747M181.493 375.84V375.747M181.493 375.747V375.654M181.493 375.747V375.654M181.493 375.654V375.561M181.493 375.654V375.561M181.493 375.561V375.468M181.493 375.561V375.468M181.493 375.468V375.376M181.493 375.468V375.376M181.493 375.376V375.283M181.493 375.376V375.283M181.493 375.283V375.19M181.493 375.283V375.19M181.493 375.19V375.097M181.493 375.19V375.097M181.493 375.097V375.004M181.493 375.097V375.004M181.493 375.004V374.911M181.493 375.004V374.911M181.493 374.911V374.818M181.493 374.911V374.818M181.493 374.818V374.725M181.493 374.818V374.725M181.493 374.725V374.632M181.493 374.725V374.632M181.493 374.632V374.539M181.493 374.632V374.539M181.493 374.539V374.447M181.493 374.539V374.447M181.493 374.447V374.354M181.493 374.447V374.354M181.493 374.354V374.261M181.493 374.354V374.261M181.493 374.261V374.168M181.493 374.261V374.168M181.493 374.168V374.075M181.493 374.168V374.075M181.493 374.075V373.982M181.493 374.075V373.982M181.493 373.982V373.889M181.493 373.982V373.889M181.493 373.889V373.796M181.493 373.889V373.796M181.493 373.796V373.703M181.493 373.796V373.703M181.493 373.703V373.61M181.493 373.703V373.61M181.493 373.61V373.518M181.493 373.61V373.518M181.493 373.518V373.425M181.493 373.518V373.425M181.493 373.425V373.332M181.493 373.425V373.332M181.493 373.332V373.239M181.493 373.332V373.239M181.493 373.239V373.146M181.493 373.239V373.146M181.493 373.146V373.053M181.493 373.146V373.053M181.493 373.053V372.96M181.493 373.053V372.96M181.493 372.96V372.867M181.493 372.96V372.867M181.493 372.867V372.774M181.493 372.867V372.774M181.493 372.774V372.681M181.493 372.774V372.681M181.493 372.681V372.589M181.493 372.681V372.589M181.493 372.589V372.496M181.493 372.589V372.496M181.493 372.496V372.403M181.493 372.496V372.403M181.493 372.403V372.31M181.493 372.403V372.31M181.493 372.31V372.217M181.493 372.31V372.217M181.493 372.217V372.124M181.493 372.217V372.124M181.493 372.124V372.031M181.493 372.124V372.031M181.493 372.031V371.938M181.493 372.031V371.938M181.493 371.938V371.845M181.493 371.938V371.845M181.493 371.845V371.752M181.493 371.845V371.752M181.493 371.752V371.66M181.493 371.752V371.66M181.493 371.66V371.567M181.493 371.66V371.567M181.493 371.567V371.474M181.493 371.567V371.474M181.493 371.474V371.381M181.493 371.474V371.381M181.493 371.381V371.288M181.493 371.381V371.288M181.493 371.288V371.195M181.493 371.288V371.195M181.493 371.195V371.102M181.493 371.195V371.102M181.493 371.102V371.009M181.493 371.102V371.009M181.493 371.009V370.916M181.493 371.009V370.916M181.493 370.916V370.823M181.493 370.916V370.823M181.493 370.823V370.731M181.493 370.823V370.731M181.493 370.731V370.638M181.493 370.731V370.638M181.493 370.638V370.545M181.493 370.638V370.545M181.493 370.545V370.452M181.493 370.545V370.452M181.493 370.452V370.359M181.493 370.452V370.359M181.493 370.359V370.266M181.493 370.359V370.266M181.493 370.266V370.173M181.493 370.266V370.173M181.493 370.173V370.08M181.493 370.173V370.08M181.493 370.08V369.987M181.493 370.08V369.987M181.493 369.987V369.894M181.493 369.987V369.894M181.493 369.894V369.802M181.493 369.894V369.802M181.493 369.802V369.709M181.493 369.802V369.709M181.493 369.709V369.616M181.493 369.709V369.616M181.493 369.616V369.523M181.493 369.616V369.523M181.493 369.523V369.43M181.493 369.523V369.43M181.493 369.43V369.337M181.493 369.43V369.337M181.493 369.337V369.244M181.493 369.337V369.244M181.493 369.244V369.151M181.493 369.244V369.151M181.493 369.151V369.058M181.493 369.151V369.058M181.493 369.058V368.965M181.493 369.058V368.965M181.493 368.965V368.873M181.493 368.965V368.873M181.493 368.873V368.78M181.493 368.873V368.78M181.493 368.78V368.687M181.493 368.78V368.687M181.493 368.687V368.594M181.493 368.687V368.594M181.493 368.594V368.501M181.493 368.594V368.501M181.493 368.501V368.408M181.493 368.501V368.408M181.493 368.408V368.315M181.493 368.408V368.315M181.493 368.315V368.222M181.493 368.315V368.222M181.493 368.222V368.129M181.493 368.222V368.129M181.493 368.129V368.036M181.493 368.129V368.036M181.493 368.036V367.943M181.493 368.036V367.943M181.493 367.943V367.851M181.493 367.943V367.851M181.493 367.851V367.758M181.493 367.851V367.758M181.493 367.758V367.665M181.493 367.758V367.665M181.493 367.665V367.572M181.493 367.665V367.572M181.493 367.572V367.479M181.493 367.572V367.479M181.493 367.479V367.386M181.493 367.479V367.386M181.493 367.386V367.293M181.493 367.386V367.293M181.493 367.293V367.2M181.493 367.293V367.2M181.493 367.2V367.107M181.493 367.2V367.107M181.493 367.107V367.014M181.493 367.107V367.014M181.493 367.014V366.922M181.493 367.014V366.922M181.493 366.922V366.829M181.493 366.922V366.829M181.493 366.829V366.736M181.493 366.829V366.736M181.493 366.736V366.643M181.493 366.736V366.643M181.493 366.643V366.55M181.493 366.643V366.55M181.493 366.55V366.457M181.493 366.55V366.457M181.493 366.457V366.364M181.493 366.457V366.364M181.493 366.364V366.271M181.493 366.364V366.271M181.493 366.271V366.178M181.493 366.271V366.178M181.493 366.178V366.085M181.493 366.178V366.085M181.493 366.085V365.993M181.493 366.085V365.993M181.493 365.993V365.9M181.493 365.993V365.9M181.493 365.9V365.807M181.493 365.9V365.807M181.493 365.807V365.714M181.493 365.807V365.714M181.493 365.714V365.621M181.493 365.714V365.621M181.493 365.621V365.528M181.493 365.621V365.528M181.493 365.528V365.435M181.493 365.528V365.435M181.493 365.435V365.342M181.493 365.435V365.342M181.493 365.342V365.249M181.493 365.342V365.249M181.493 365.249V365.156M181.493 365.249V365.156M181.493 365.156V365.064M181.493 365.156V365.064M181.493 365.064V364.971M181.493 365.064V364.971M181.493 364.971V364.878M181.493 364.971V364.878M181.493 364.878V364.785M181.493 364.878V364.785M181.493 364.785V364.692M181.493 364.785V364.692M181.493 364.692V364.599M181.493 364.692V364.599M181.493 364.599V364.506M181.493 364.599V364.506M181.493 364.506V364.413M181.493 364.506V364.413M181.493 364.413V364.32M181.493 364.413V364.32M181.493 364.32V364.227M181.493 364.32V364.227M181.493 364.227V364.135M181.493 364.227V364.135M181.493 364.135V364.042M181.493 364.135V364.042M181.493 364.042V363.949M181.493 364.042V363.949M181.493 363.949V363.856M181.493 363.949V363.856M181.493 363.856V363.763M181.493 363.856V363.763M181.493 363.763V363.67M181.493 363.763V363.67M181.493 363.67V363.577M181.493 363.67V363.577M181.493 363.577V363.484M181.493 363.577V363.484M181.493 363.484V363.391M181.493 363.484V363.391M181.493 363.391V363.298M181.493 363.391V363.298M181.493 363.298V363.206M181.493 363.298V363.206M181.493 363.206V363.113M181.493 363.206V363.113M181.493 363.113V363.02M181.493 363.113V363.02M181.493 363.02V362.927M181.493 363.02V362.927M181.493 362.927V362.834M181.493 362.927V362.834M181.493 362.834V362.741M181.493 362.834V362.741M181.493 362.741V362.648M181.493 362.741V362.648M181.493 362.648V362.555M181.493 362.648V362.555M181.493 362.555V362.462M181.493 362.555V362.462M181.493 362.462V362.369M181.493 362.462V362.369M181.493 362.369V362.277M181.493 362.369V362.277M181.493 362.277V362.184M181.493 362.277V362.184M181.493 362.184V362.091M181.493 362.184V362.091M181.493 362.091V361.998M181.493 362.091V361.998M181.493 361.998V361.905M181.493 361.998V361.905M181.493 361.905V361.812M181.493 361.905V361.812M181.493 361.812V361.719M181.493 361.812V361.719M181.493 361.719V361.626M181.493 361.719V361.626M181.493 361.626V361.533M181.493 361.626V361.533M181.493 361.533V361.44M181.493 361.533V361.44M181.493 361.44V361.348M181.493 361.44V361.348M181.493 361.348V361.255M181.493 361.348V361.255M181.493 361.255V361.162M181.493 361.255V361.162M181.493 361.162V361.069M181.493 361.162V361.069M181.493 361.069V360.976M181.493 361.069V360.976M181.493 360.976V360.883M181.493 360.976V360.883M181.493 360.883V360.79M181.493 360.883V360.79M181.493 360.79V360.697M181.493 360.79V360.697M181.493 360.697V360.604M181.493 360.697V360.604M181.493 360.604V360.511M181.493 360.604V360.511M181.493 360.511V360.419M181.493 360.511V360.419M181.493 360.419V360.326M181.493 360.419V360.326M181.493 360.326V360.233M181.493 360.326V360.233M181.493 360.233V360.14M181.493 360.233V360.14M181.493 360.14V360.047M181.493 360.14V360.047M181.493 360.047V359.954M181.493 360.047V359.954M181.493 359.954V359.861M181.493 359.954V359.861M181.493 359.861V359.768M181.493 359.861V359.768M181.493 359.768V359.675M181.493 359.768V359.675M181.493 359.675V359.582M181.493 359.675V359.582M181.493 359.582V359.49M181.493 359.582V359.49M181.493 359.49V359.397M181.493 359.49V359.397M181.493 359.397V359.304M181.493 359.397V359.304M181.493 359.304V359.211M181.493 359.304V359.211M181.493 359.211V359.118M181.493 359.211V359.118M181.493 359.118V359.025M181.493 359.118V359.025M181.493 359.025V358.932M181.493 359.025V358.932M181.493 358.932V358.839M181.493 358.932V358.839M181.493 358.839V358.746M181.493 358.839V358.746M181.493 358.746V358.653M181.493 358.746V358.653M181.493 358.653V358.561M181.493 358.653V358.561M181.493 358.561V358.468M181.493 358.561V358.468M181.493 358.468V358.375M181.493 358.468V358.375M181.493 358.375V358.282M181.493 358.375V358.282M181.493 358.282V358.189M181.493 358.282V358.189M181.493 358.189V358.096M181.493 358.189V358.096M181.493 358.096V358.003M181.493 358.096V358.003M181.493 358.003V357.91M181.493 358.003V357.91M181.493 357.91V357.817M181.493 357.91V357.817M181.493 357.817V357.724M181.493 357.817V357.724M181.493 357.724V357.632M181.493 357.724V357.632M181.493 357.632V357.539M181.493 357.632V357.539M181.493 357.539V357.446M181.493 357.539V357.446M181.493 357.446V357.353M181.493 357.446V357.353M181.493 357.353V357.26M181.493 357.353V357.26M181.493 357.26V357.167M181.493 357.26V357.167M181.493 357.167V357.074M181.493 357.167V357.074M181.493 357.074V356.981M181.493 357.074V356.981M181.493 356.981V356.888M181.493 356.981V356.888M181.493 356.888V356.795M181.493 356.888V356.795M181.493 356.795V356.703M181.493 356.795V356.703M181.493 356.703V356.61M181.493 356.703V356.61M181.493 356.61V356.517M181.493 356.61V356.517M181.493 356.517V356.424M181.493 356.517V356.424M181.493 356.424V356.331M181.493 356.424V356.331M181.493 356.331V356.238M181.493 356.331V356.238M181.493 356.238V356.145M181.493 356.238V356.145M181.493 356.145V356.052M181.493 356.145V356.052M181.493 356.052V355.959M181.493 356.052V355.959M181.493 355.959V355.866M181.493 355.959V355.866M181.493 355.866V355.773M181.493 355.866V355.773M181.493 355.773V355.681M181.493 355.773V355.681M181.493 355.681V355.588M181.493 355.681V355.588M181.493 355.588V355.495M181.493 355.588V355.495M181.493 355.495V355.402M181.493 355.495V355.402M181.493 355.402V355.309M181.493 355.402V355.309M181.493 355.309V355.216M181.493 355.309V355.216M181.493 355.216V355.123M181.493 355.216V355.123M181.493 355.123V355.03M181.493 355.123V355.03M181.493 355.03V354.937M181.493 355.03V354.937M181.493 354.937V354.844M181.493 354.937V354.844M181.493 354.844V354.752M181.493 354.844V354.752M181.493 354.752V354.659M181.493 354.752V354.659M181.493 354.659V354.566M181.493 354.659V354.566M181.493 354.566V354.473M181.493 354.566V354.473M181.493 354.473V354.38M181.493 354.473V354.38M181.493 354.38V354.287M181.493 354.38V354.287M181.493 354.287V354.194M181.493 354.287V354.194M181.493 354.194V354.101M181.493 354.194V354.101M181.493 354.101V354.008M181.493 354.101V354.008M181.493 354.008V353.915M181.493 354.008V353.915M181.493 353.915V353.823M181.493 353.915V353.823M181.493 353.823V353.73M181.493 353.823V353.73M181.493 353.73V353.637M181.493 353.73V353.637M181.493 353.637V353.544M181.493 353.637V353.544M181.493 353.544V353.451M181.493 353.544V353.451M181.493 353.451V353.358M181.493 353.451V353.358M181.493 353.358V353.265M181.493 353.358V353.265M181.493 353.265V353.172M181.493 353.265V353.172M181.493 353.172V353.079M181.493 353.172V353.079M181.493 353.079V352.986M181.493 353.079V352.986M181.493 352.986V352.894M181.493 352.986V352.894M181.493 352.894V352.801M181.493 352.894V352.801M181.493 352.801V352.708M181.493 352.801V352.708M181.493 352.708V352.615M181.493 352.708V352.615M181.493 352.615V352.522M181.493 352.615V352.522M181.493 352.522V352.429M181.493 352.522V352.429M181.493 352.429V352.336M181.493 352.429V352.336M181.493 352.336V352.243M181.493 352.336V352.243M181.493 352.243V352.15M181.493 352.243V352.15M181.493 352.15V352.057M181.493 352.15V352.057M181.493 352.057V351.965M181.493 352.057V351.965M181.493 351.965V351.872M181.493 351.965V351.872M181.493 351.872V351.779M181.493 351.872V351.779M181.493 351.779V351.686M181.493 351.779V351.686M181.493 351.686V351.593M181.493 351.686V351.593M181.493 351.593V351.5M181.493 351.593V351.5M181.493 351.5V351.407M181.493 351.5V351.407M181.493 351.407V351.314M181.493 351.407V351.314M181.493 351.314V351.221M181.493 351.314V351.221M181.493 351.221V351.128M181.493 351.221V351.128M181.493 351.128V351.036M181.493 351.128V351.036M181.493 351.036V350.943M181.493 351.036V350.943M181.493 350.943V350.85M181.493 350.943V350.85M181.493 350.85V350.757M181.493 350.85V350.757M181.493 350.757V350.664M181.493 350.757V350.664M181.493 350.664V350.571M181.493 350.664V350.571M181.493 350.571V350.478M181.493 350.571V350.478M181.493 350.478V350.385M181.493 350.478V350.385M181.493 350.385V350.292M181.493 350.385V350.292M181.493 350.292V350.199M181.493 350.292V350.199M181.493 350.199V350.107M181.493 350.199V350.107M181.493 350.107V350.014M181.493 350.107V350.014M181.493 350.014V349.921M181.493 350.014V349.921M181.493 349.921V349.828M181.493 349.921V349.828M181.493 349.828V349.735M181.493 349.828V349.735M181.493 349.735V349.642M181.493 349.735V349.642M181.493 349.642V349.549M181.493 349.642V349.549M181.493 349.549V349.456M181.493 349.549V349.456M181.493 349.456V349.363M181.493 349.456V349.363M181.493 349.363V349.27M181.493 349.363V349.27M181.493 349.27V349.178M181.493 349.27V349.178M181.493 349.178V349.085M181.493 349.178V349.085M181.493 349.085V348.992M181.493 349.085V348.992M181.493 348.992V348.899M181.493 348.992V348.899M181.493 348.899V348.806M181.493 348.899V348.806M181.493 348.806V348.713M181.493 348.806V348.713M181.493 348.713V348.62M181.493 348.713V348.62M181.493 348.62V348.527M181.493 348.62V348.527M181.493 348.527V348.434M181.493 348.527V348.434M181.493 348.434V348.341M181.493 348.434V348.341M181.493 348.341V348.249M181.493 348.341V348.249M181.493 348.249V348.156M181.493 348.249V348.156M181.493 348.156V348.063M181.493 348.156V348.063M181.493 348.063V347.97M181.493 348.063V347.97M181.493 347.97V347.877M181.493 347.97V347.877M181.493 347.877V347.784M181.493 347.877V347.784M181.493 347.784V347.691M181.493 347.784V347.691M181.493 347.691V347.598M181.493 347.691V347.598M181.493 347.598V347.505M181.493 347.598V347.505M181.493 347.505V347.412M181.493 347.505V347.412M181.493 347.412V347.32M181.493 347.412V347.32M181.493 347.32V347.227M181.493 347.32V347.227M181.493 347.227V347.134M181.493 347.227V347.134M181.493 347.134V347.041M181.493 347.134V347.041M181.493 347.041V346.948M181.493 347.041V346.948M181.493 346.948V346.855M181.493 346.948V346.855M181.493 346.855V346.762M181.493 346.855V346.762M181.493 346.762V346.669M181.493 346.762V346.669M181.493 346.669V346.576M181.493 346.669V346.576M181.493 346.576V346.483M181.493 346.576V346.483M181.493 346.483V346.391M181.493 346.483V346.391M181.493 346.391V346.298M181.493 346.391V346.298M181.493 346.298V346.205M181.493 346.298V346.205M181.493 346.205V346.112M181.493 346.205V346.112M181.493 346.112V346.019M181.493 346.112V346.019M181.493 346.019V345.926M181.493 346.019V345.926M181.493 345.926V345.833M181.493 345.926V345.833M181.493 345.833V345.74M181.493 345.833V345.74M181.493 345.74V345.647M181.493 345.74V345.647M181.493 345.647V345.554M181.493 345.647V345.554M181.493 345.554V345.462M181.493 345.554V345.462M181.493 345.462V345.369M181.493 345.462V345.369M181.493 345.369V345.276M181.493 345.369V345.276M181.493 345.276V345.183M181.493 345.276V345.183M181.493 345.183V345.09M181.493 345.183V345.09M181.493 345.09V344.997M181.493 345.09V344.997M181.493 344.997V344.904M181.493 344.997V344.904M181.493 344.904V344.811M181.493 344.904V344.811M181.493 344.811V344.718M181.493 344.811V344.718M181.493 344.718V344.625M181.493 344.718V344.625M181.493 344.625V344.533M181.493 344.625V344.533M181.493 344.533V344.44M181.493 344.533V344.44M181.493 344.44V344.347M181.493 344.44V344.347M181.493 344.347V344.254M181.493 344.347V344.254M181.493 344.254V344.161M181.493 344.254V344.161M181.493 344.161V344.068M181.493 344.161V344.068M181.493 344.068V343.975M181.493 344.068V343.975M181.493 343.975V343.882M181.493 343.975V343.882M181.493 343.882V343.789M181.493 343.882V343.789M181.493 343.789V343.696M181.493 343.789V343.696M181.493 343.696V343.604M181.493 343.696V343.604M181.493 343.604V343.511M181.493 343.604V343.511M181.493 343.511V343.418M181.493 343.511V343.418M181.493 343.418V343.325M181.493 343.418V343.325M181.493 343.325V343.232M181.493 343.325V343.232M181.493 343.232V343.139M181.493 343.232V343.139M181.493 343.139V343.046M181.493 343.139V343.046M181.493 343.046V342.953M181.493 343.046V342.953M181.493 342.953V342.86M181.493 342.953V342.86M181.493 342.86V342.767M181.493 342.86V342.767M181.493 342.767V342.675M181.493 342.767V342.675M181.493 342.675V342.582M181.493 342.675V342.582M181.493 342.582V342.489M181.493 342.582V342.489M181.493 342.489V342.396M181.493 342.489V342.396M181.493 342.396V342.303M181.493 342.396V342.303M181.493 342.303V342.21M181.493 342.303V342.21M181.493 342.21V342.117M181.493 342.21V342.117M181.493 342.117V342.024M181.493 342.117V342.024M181.493 342.024V341.931M181.493 342.024V341.931M181.493 341.931V341.838M181.493 341.931V341.838M181.493 341.838V341.746M181.493 341.838V341.746M181.493 341.746V341.653M181.493 341.746V341.653M181.493 341.653V341.56M181.493 341.653V341.56M181.493 341.56V341.467M181.493 341.56V341.467M181.493 341.467V341.374M181.493 341.467V341.374M181.493 341.374V341.281M181.493 341.374V341.281M181.493 341.281V341.188M181.493 341.281V341.188M181.493 341.188V341.095M181.493 341.188V341.095M181.493 341.095V341.002M181.493 341.095V341.002M181.493 341.002V340.909M181.493 341.002V340.909M181.493 340.909V340.817M181.493 340.909V340.817M181.493 340.817V340.724M181.493 340.817V340.724M181.493 340.724V340.631M181.493 340.724V340.631M181.493 340.631V340.538M181.493 340.631V340.538M181.493 340.538V340.445M181.493 340.538V340.445M181.493 340.445V340.352M181.493 340.445V340.352M181.493 340.352V340.259M181.493 340.352V340.259M181.493 340.259V340.166M181.493 340.259V340.166M181.493 340.166V340.073M181.493 340.166V340.073M181.493 340.073V339.98M181.493 340.073V339.98M181.493 339.98V339.888M181.493 339.98V339.888M181.493 339.888V339.795M181.493 339.888V339.795M181.493 339.795V339.702M181.493 339.795V339.702M181.493 339.702V339.609M181.493 339.702V339.609M181.493 339.609V339.516M181.493 339.609V339.516M181.493 339.516V339.423M181.493 339.516V339.423M181.493 339.423V339.33M181.493 339.423V339.33M181.493 339.33V339.237M181.493 339.33V339.237M181.493 339.237V339.144M181.493 339.237V339.144M181.493 339.144V339.051M181.493 339.144V339.051M181.493 339.051V338.959M181.493 339.051V338.959M181.493 338.959V338.866M181.493 338.959V338.866M181.493 338.866V338.773M181.493 338.866V338.773M181.493 338.773V338.68M181.493 338.773V338.68M181.493 338.68V338.587M181.493 338.68V338.587M181.493 338.587V338.494M181.493 338.587V338.494M181.493 338.494V338.401M181.493 338.494V338.401M181.493 338.401V338.308M181.493 338.401V338.308M181.493 338.308V338.215M181.493 338.308V338.215M181.493 338.215V338.122M181.493 338.215V338.122M181.493 338.122V338.03M181.493 338.122V338.03M181.493 338.03V337.937M181.493 338.03V337.937M181.493 337.937V337.844M181.493 337.937V337.844M181.493 337.844V337.751M181.493 337.844V337.751M181.493 337.751V337.658M181.493 337.751V337.658M181.493 337.658V337.565M181.493 337.658V337.565M181.493 337.565V337.472M181.493 337.565V337.472M181.493 337.472V337.379M181.493 337.472V337.379M181.493 337.379V337.286M181.493 337.379V337.286M181.493 337.286V337.193M181.493 337.286V337.193M181.493 337.193C181.493 336.666 181.495 336.13 181.498 335.59M181.493 337.193L181.498 335.59M181.498 335.59C181.504 334.237 181.511 332.853 181.478 331.484M181.498 335.59L181.478 331.484M181.478 331.484C181.445 330.142 181.02 328.898 180.147 327.94M181.478 331.484L180.147 327.94M180.147 327.94C179.275 326.981 178.084 326.45 176.78 326.296L180.147 327.94ZM118.208 314.231C118.208 314.231 118.208 314.234 118.208 314.239C118.208 314.233 118.208 314.231 118.208 314.231ZM176.78 326.296C174.123 325.984 171.95 327.668 171.178 330.141C170.907 331.009 170.926 331.927 170.937 332.493C170.939 332.591 170.94 332.677 170.94 332.752L176.78 326.296Z" fill="white" stroke="#8C8C8C" stroke-width="3.46753"/>
<rect x="108.017" y="305.117" width="136.469" height="9.23092" fill="white" stroke="#8C8C8C" stroke-width="3.46753"/>
<path d="M338.739 201.761L338.738 201.759C338.278 201.311 337.552 200.728 336.547 200.701C335.546 200.675 334.783 201.216 334.283 201.651C331.115 204.406 327.368 205.448 323.072 205.178C322.315 205.129 321.552 204.969 320.703 204.754C320.474 204.696 320.23 204.632 319.977 204.564C319.459 204.427 318.902 204.28 318.348 204.155L312.905 200.322C312.713 200.065 312.534 199.833 312.365 199.613C311.956 199.082 311.606 198.628 311.28 198.087C307.828 192.345 307.98 185.157 312.297 179.908C312.789 179.309 313.255 178.488 313.143 177.478C313.037 176.527 312.457 175.854 312.034 175.437L338.739 201.761ZM338.739 201.761C339.326 202.333 339.908 202.904 340.488 203.473C342.803 205.745 345.081 207.981 347.478 210.093C351.829 213.927 356.213 217.497 361.208 220.251C365.801 222.784 370.379 224.883 375.33 225.897C382.016 227.266 388.328 226.845 394.151 223.391L338.739 201.761ZM290.916 118.997C287.662 123.166 286.595 128.058 286.825 133.417L286.825 133.417C287.201 142.184 290.804 149.868 295.852 157.183C299.349 162.174 303.309 166.824 307.679 171.073L307.688 171.081C308.423 171.806 309.149 172.539 309.865 173.263L309.876 173.275C310.599 174.005 311.312 174.726 312.034 175.437L290.916 118.997ZM290.916 118.997C291.558 119.632 292.192 120.256 292.825 120.877C293.723 121.76 294.617 122.639 295.524 123.54L290.916 118.997ZM324.317 187.534L324.317 187.534C323.886 187.107 323.481 186.724 323.093 186.356C322.461 185.757 321.87 185.197 321.277 184.557C320.866 184.113 319.982 183.288 318.744 183.524C318.157 183.636 317.734 183.954 317.46 184.228C317.191 184.498 316.984 184.807 316.825 185.074C316.825 185.074 316.825 185.074 316.825 185.074L318.315 185.96L324.317 187.534ZM324.317 187.534C325.027 188.237 325.723 188.934 326.416 189.627M324.317 187.534L326.416 189.627M326.416 189.627C327.527 190.738 328.627 191.84 329.756 192.938M326.416 189.627L329.756 192.938M329.756 192.938C330.136 193.306 330.916 194.161 330.648 195.36C330.528 195.897 330.234 196.277 330.011 196.51C329.789 196.744 329.538 196.934 329.335 197.077L329.756 192.938ZM291.308 118.541C291.308 118.541 291.307 118.542 291.305 118.543C291.307 118.542 291.308 118.541 291.308 118.541ZM329.334 197.077C327.01 198.723 322.694 199.51 319.387 196.815L329.334 197.077Z" fill="white" stroke="#8C8C8C" stroke-width="3.46753"/>
<path fill-rule="evenodd" clip-rule="evenodd" d="M191.893 212.746L209.886 221.402L201 199.19L201.801 211.766L178.615 198.115L185.531 219.327L160.209 208.317L166.492 236.805L138.949 226.714C138.139 219.824 138.874 212.65 141.387 205.693C150.017 181.81 176.342 169.531 200.186 178.267C224.03 187.002 236.365 213.445 227.736 237.327C219.106 261.21 192.781 273.49 168.937 264.754C166.457 263.846 164.102 262.746 161.882 261.477L185.275 257.504L176.712 226.503L200.245 235.543L191.893 212.746Z" fill="#8C8C8C"/>
<path d="M217.533 171.216C223.357 182.359 219.296 196.183 219.296 196.183C219.296 196.183 205.519 191.822 199.694 180.679C193.87 169.536 197.931 155.712 197.931 155.712C197.931 155.712 211.709 160.073 217.533 171.216Z" fill="#8C8C8C"/>
<path d="M237.113 193.635C246.577 196.171 252.861 204.129 252.861 204.129C252.861 204.129 243.719 208.01 234.255 205.475C224.791 202.939 218.508 194.98 218.508 194.98C218.508 194.98 227.65 191.099 237.113 193.635Z" fill="#8C8C8C"/>
<path d="M225.339 179.871C231.452 173.202 240.431 171.514 240.431 171.514C240.431 171.514 239.49 180.721 233.377 187.39C227.265 194.06 218.285 195.748 218.285 195.748C218.285 195.748 219.226 186.541 225.339 179.871Z" fill="#8C8C8C"/>
<path d="M166.755 188.97C168.631 186.948 169.102 184.187 168.59 181.543C168.077 178.898 166.57 176.232 164.266 174.094C161.962 171.955 159.191 170.651 156.515 170.337C153.84 170.023 151.122 170.698 149.246 172.72C147.37 174.741 146.899 177.502 147.411 180.146C147.924 182.791 149.431 185.457 151.735 187.596C154.039 189.734 156.81 191.038 159.486 191.353C162.161 191.667 164.879 190.991 166.755 188.97Z" fill="white" stroke="#8C8C8C" stroke-width="3.56577"/>
<path d="M149.593 200.828C151.037 199.272 151.375 197.172 150.997 195.222C150.618 193.269 149.513 191.328 147.846 189.781C146.179 188.234 144.161 187.276 142.186 187.044C140.212 186.812 138.143 187.306 136.7 188.862C135.256 190.417 134.918 192.517 135.296 194.468C135.674 196.42 136.78 198.362 138.447 199.909C140.114 201.456 142.132 202.413 144.107 202.645C146.081 202.877 148.149 202.383 149.593 200.828Z" fill="white" stroke="#8C8C8C" stroke-width="3.56577"/>
<path d="M152.422 175.004L155.978 185.103L163.565 183.551" stroke="#8C8C8C" stroke-width="3.46753"/>
<path d="M137.775 192.466L144.319 193.698L144.21 199.605" stroke="#8C8C8C" stroke-width="2.87044"/>
<path d="M217.51 191.98V191.98C236.929 178.029 263.988 191.908 263.988 215.819V444.19" stroke="#8C8C8C" stroke-width="10"/>
<defs>
<clipPath id="clip0_3072_99056">
<rect width="370.84" height="461.172" fill="white" transform="translate(60.7988)"/>
</clipPath>
</defs>
</svg>
