<svg width="433" height="332" viewBox="0 0 433 332" fill="none" xmlns="http://www.w3.org/2000/svg">
<g clip-path="url(#clip0_4313_193348)">
<circle cx="216.815" cy="183.551" r="179.815" fill="#FFE75C"/>
<mask id="mask0_4313_193348" style="mask-type:alpha" maskUnits="userSpaceOnUse" x="36" y="3" width="361" height="361">
<circle cx="216.814" cy="183.551" r="179.815" fill="#FFE75C"/>
</mask>
<g mask="url(#mask0_4313_193348)">
<path d="M3.30074 238.513C4.40203 237.646 5.56647 237.81 6.60519 238.887C6.70632 238.982 6.70017 238.982 6.58506 238.887C6.09001 236.047 10.6958 237.065 12.4519 237.637C11.8653 233.302 15.8949 234.474 18.5915 233.708C17.6315 231.443 19.034 230.102 21.3757 230.648C18.901 228.753 20.7175 226.438 23.3314 225.88C22.5307 224.793 22.8084 223.534 23.903 222.558C24.1907 222.589 24.4103 222.953 24.6897 223.065C23.9566 218.479 29.6547 220.84 30.8773 223.336C30.8879 222.936 30.927 222.457 30.9063 222.075C32.8374 222.299 34.5013 224.184 35.3942 225.928C37.5795 225.259 39.2898 227.667 39.529 229.754C42.7613 228.299 47.1006 230.047 49.5306 229.026C51.6337 228.145 51.5421 224.429 54.7801 225.998C54.6979 226.222 54.6024 227.229 54.585 227.316C55.0812 224.256 59.0159 223.884 61.4398 224.788C61.618 221.841 63.8541 220.462 66.7445 220.87C66.792 218.583 69.4869 216.569 70.6636 219.135C73.1484 218.433 74.4486 221.57 73.777 223.669C76.4813 223.389 77.6122 225.359 77.1245 227.852C80.8217 227.292 80.1685 231.566 78.8661 233.739C81.8437 232.507 81.4464 235.834 81.0095 237.845C84.619 236.834 85.3677 239.162 83.8032 241.82C84.6335 241.773 85.4604 241.959 86.1915 242.356C86.9226 242.753 87.529 243.346 87.943 244.068C90.2897 243.034 91.9157 245.03 90.4696 247.14C91.6793 246.581 92.8639 245.772 94.0272 245.166C94.4597 242.666 96.3443 240.49 98.4536 239.124C95.1168 238.108 97.4451 234.566 100.09 234.899C100.335 232.67 103.249 234.024 103.591 235.969C105.793 235.011 106.895 236.84 106.64 239.039C107.556 237.024 108.95 236.225 110.524 237.614C111.484 236.021 113.445 235.66 115.207 236.15C115.075 236.043 114.908 233.967 116.321 233.421C114.267 232.49 114.153 230.216 115.98 228.775C114.778 228.926 113.662 228.296 112.536 228.194C113.137 227.165 113.167 226.368 114.65 226.001C110.919 224.682 115.627 221.715 117.938 222.035C113.257 219.784 121.667 218.439 123.01 218.125C120.693 214.714 127.781 213.858 129.963 213.871C127.09 212.454 125.2 207.813 130.186 208.075C124.836 206.467 132.055 204.983 133.854 204.931C130.731 202.255 134.855 199.125 137.787 201.257C141.152 194.758 146.186 202.628 146.186 202.628C146.186 202.628 155.025 200.324 152.011 204.587C155.208 204.07 156.052 205.858 157.243 205.188C153.618 201.941 158.819 201.387 161.147 201.026C160.03 198.986 156.876 194.477 162.548 195.453C160.265 190.119 167.912 193.055 167.912 193.055C167.912 193.055 169.249 190.644 172.027 192.892C173.384 193.99 174.477 196.19 175.159 197.693C177.582 196.153 180.544 197.955 182.343 199.928C187.866 195.226 191.246 201.877 191.246 201.877C191.246 201.877 193.786 199.929 196.245 200.564C198.881 201.246 201.565 202.272 202.379 204.987C204.312 200.827 210.143 203.631 206.316 208.254C208.917 204.16 214.578 207.807 209.366 211.871C212.983 209.616 212.304 216.196 209.306 217.236C213.949 219.195 211.82 224.559 208.167 227.592C206.777 224.146 214.057 224.56 211 229.468C210.845 223.367 218.313 224.985 214.621 230.879C214.976 225.576 221.963 226.814 219.909 232.279C220.31 227.343 228.027 229.583 223.541 234.039C224.643 233.172 226.247 235.214 226.567 238.883C226.579 239.021 226.661 238.978 226.547 238.883C226.051 236.044 230.658 237.061 232.413 237.633C231.827 233.298 235.857 234.471 238.553 233.704C237.594 231.439 238.995 230.098 241.338 230.645C238.864 228.749 240.678 226.434 243.293 225.876C242.493 224.789 242.77 223.53 243.864 222.554C244.152 222.585 244.372 222.949 244.652 223.061C243.919 218.475 249.617 220.836 250.839 223.332C250.849 222.932 250.889 222.453 250.867 222.071C252.799 222.295 254.464 224.18 255.356 225.924C257.542 225.255 259.251 227.663 259.49 229.75C262.723 228.295 267.061 230.043 269.492 229.022C271.596 228.141 271.504 224.426 274.744 225.994C274.661 226.218 274.567 227.226 274.548 227.312C275.045 224.253 278.98 223.88 281.403 224.784C281.582 221.837 283.818 220.458 286.712 220.866C286.759 218.579 289.453 216.565 290.631 219.131C293.115 218.429 294.415 221.566 293.743 223.665C296.448 223.385 297.579 225.355 297.092 227.848C300.788 227.288 300.136 231.563 298.833 233.735C301.81 232.504 301.413 235.83 300.977 237.841C304.585 236.83 305.335 239.158 303.77 241.816C304.6 241.769 305.427 241.955 306.158 242.352C306.889 242.749 307.496 243.342 307.909 244.064C310.256 243.03 311.883 245.026 310.437 247.136C311.646 246.577 312.831 245.768 313.995 245.162C314.427 242.662 316.311 240.486 318.421 239.12C315.084 238.105 317.412 234.562 320.057 234.895C320.302 232.666 323.218 234.021 323.558 235.965C325.76 235.007 326.862 236.836 326.607 239.035C328.172 238.074 329.552 236.517 331.547 236.593C330.954 237.269 331.36 237.108 330.491 237.61C331.451 236.017 333.413 235.656 335.174 236.147C334.928 235.985 334.668 235.847 334.396 235.734C335.023 234.712 334.875 233.965 336.288 233.417C334.234 232.486 334.12 230.212 335.948 228.771C334.745 228.922 333.628 228.292 332.504 228.191C333.104 227.161 333.134 226.364 334.616 225.997C330.885 224.679 335.594 221.711 337.905 222.031C333.224 219.78 341.635 218.435 342.978 218.121C340.66 214.71 347.748 213.854 349.929 213.867C347.057 212.45 345.168 207.809 350.153 208.071C344.802 206.463 352.022 204.979 353.82 204.927C350.697 202.251 354.822 199.121 357.754 201.253C358.438 195.281 364.664 200.525 366.93 201.085C368.534 201.484 374.991 200.319 371.977 204.585C375.175 204.068 376.018 205.856 377.21 205.186C373.584 201.94 378.785 201.386 381.113 201.024C379.995 198.984 376.842 194.475 382.515 195.451C380.232 190.117 385.894 192.87 387.879 193.053C389.641 193.216 389.84 191.704 391.994 192.89C393.523 193.73 394.444 196.188 395.126 197.691C397.55 196.151 400.511 197.953 402.31 199.927C404.992 195.815 408.555 201.674 411.214 201.875C412.478 201.971 413.754 199.927 416.211 200.563C418.848 201.244 420.28 203.398 422.345 204.985V347.611H3.28955L3.30074 238.513Z" fill="#FFC619"/>
<path d="M96.659 177.941C96.659 177.941 97.9632 239.144 95.3555 261.16H103.178C103.178 261.16 102.619 199.026 97.9632 177.941H96.659Z" fill="#FFC619"/>
<path d="M119.232 165.207C101.017 166.027 99.1766 173.613 99.1766 173.613C96.5159 161.516 88.7392 161.926 88.7392 161.926C89.5578 165.618 91.4 171.153 91.4 171.153C71.7532 166.232 66.4316 177.509 66.4316 177.509C70.5353 176.594 74.728 176.14 78.932 176.157C80.7172 174.937 82.6238 173.905 84.6212 173.079C84.6663 173.052 84.7199 173.045 84.7704 173.058C84.8208 173.072 84.8639 173.104 84.8902 173.15C84.9165 173.195 84.9239 173.248 84.9106 173.299C84.8973 173.349 84.8646 173.393 84.8195 173.419C83.6015 174.342 82.3135 175.225 81.0832 176.162C85.9544 176.236 89.5578 176.687 89.5578 176.687C71.5481 187.963 74.6179 199.65 74.6179 199.65C78.0263 198.817 81.1335 195.816 83.6188 192.548C83.8272 190.477 84.0127 188.409 84.1256 186.313C84.1281 186.268 84.1479 186.225 84.1808 186.194C84.2136 186.163 84.2572 186.146 84.3024 186.146C84.3477 186.146 84.3912 186.163 84.4241 186.194C84.457 186.225 84.4767 186.268 84.4793 186.313C84.5161 187.867 84.6195 189.479 84.6687 191.101C84.9667 190.67 85.2541 190.241 85.5308 189.814C85.6191 188.361 85.6588 186.896 85.6063 185.391C85.6007 185.235 85.8225 185.246 85.8421 185.391C85.979 186.443 86.1371 187.54 86.2623 188.653C87.4912 186.649 88.5922 184.57 89.5589 182.427C84.4424 196.78 89.5589 210.312 89.5589 210.312C98.3592 201.085 98.1547 184.683 98.1547 184.683C98.8686 188.555 100.251 192.273 102.24 195.669C102.081 194.175 102.041 192.671 102.121 191.171C102.124 191.131 102.141 191.093 102.171 191.065C102.2 191.038 102.238 191.022 102.279 191.022C102.319 191.022 102.357 191.038 102.387 191.065C102.416 191.093 102.433 191.131 102.436 191.171C102.672 193.527 103.146 195.852 103.851 198.112C108.024 203.831 112.685 206.005 112.685 206.005C112.48 198.009 104.908 183.657 104.908 183.657C105.941 184.733 107.054 185.728 108.238 186.634C107.767 185.264 107.244 183.916 106.673 182.579C106.557 182.307 106.928 182.068 107.08 182.341C107.974 183.938 109.125 185.859 110.008 187.858C113.782 190.215 116.369 190.218 116.369 190.218C115.551 177.301 103.476 173.611 103.476 173.611C117.391 171.768 119.232 165.207 119.232 165.207Z" fill="#FFC619"/>
<path d="M167.318 136.599C167.318 136.599 183.107 186.118 174.493 223.997H184.931C184.931 223.997 185.032 167.333 168.752 136.599H167.318Z" fill="#FFC619"/>
<path d="M135.352 131.575C156.315 123.749 162.026 131.43 162.026 131.43C159.24 116.491 168.219 113.217 168.219 113.217C169.061 117.779 169.631 124.916 169.631 124.916C189.464 109.918 200.872 120.096 200.872 120.096C195.859 120.914 190.605 122.714 186.108 124.577C183.507 124.056 180.86 123.807 178.209 123.833C178.146 123.826 178.082 123.844 178.033 123.884C177.983 123.923 177.95 123.98 177.942 124.043C177.934 124.106 177.951 124.17 177.99 124.22C178.028 124.271 178.085 124.304 178.148 124.313C179.965 124.77 181.843 125.149 183.679 125.617C178.214 128.042 174.359 130.283 174.359 130.283C200.098 134.364 202.227 149.035 202.227 149.035C197.977 149.733 193.033 147.836 188.661 145.341C187.435 143.102 186.235 140.855 185.104 138.542C185.079 138.494 185.036 138.457 184.985 138.438C184.933 138.419 184.877 138.421 184.827 138.442C184.776 138.463 184.736 138.502 184.713 138.552C184.69 138.602 184.687 138.658 184.704 138.71C185.407 140.482 186.062 142.353 186.783 144.208C186.238 143.865 185.708 143.519 185.193 143.169C184.397 141.57 183.651 139.936 182.99 138.21C182.922 138.031 182.676 138.15 182.725 138.322C183.073 139.574 183.42 140.89 183.811 142.207C181.463 140.534 179.224 138.715 177.106 136.76C189.756 150.51 190.456 168.25 190.456 168.25C176.1 162.06 168.478 143.437 168.478 143.437C169.525 148.154 169.744 153.017 169.125 157.808C168.589 156.045 167.913 154.327 167.104 152.671C167.084 152.624 167.046 152.586 166.999 152.567C166.951 152.548 166.898 152.549 166.851 152.569C166.804 152.589 166.767 152.627 166.748 152.674C166.729 152.722 166.729 152.775 166.749 152.822C167.611 155.596 168.189 158.451 168.474 161.342C166.499 169.805 162.278 174.501 162.278 174.501C158.68 165.372 160.361 145.525 160.361 145.525C159.709 147.236 158.928 148.895 158.025 150.487C157.9 148.714 157.846 146.941 157.851 145.155C157.851 144.793 157.318 144.701 157.276 145.082C157.029 147.317 156.652 150.038 156.612 152.72C153.478 157.198 150.558 158.442 150.558 158.442C145.298 143.46 157.168 133.491 157.168 133.491C140.572 138.1 135.352 131.575 135.352 131.575Z" fill="#FFC619"/>
<path d="M371.691 163.766C371.691 163.766 363.438 197.52 360.271 228.681L366.738 229.34C366.738 229.34 367.205 192.607 373.387 163.939L371.691 163.766Z" fill="#FFC619"/>
<path d="M388.174 161.346C388.636 162.056 389.13 162.74 389.616 163.422C392.382 163.791 395.106 164.429 397.749 165.325C397.749 165.325 394.298 155.555 377.642 157.966C377.642 157.966 379.631 153.544 380.617 150.563C380.617 150.563 374.223 149.568 371.007 159.344C371.007 159.344 370.122 152.917 355.134 150.704C355.134 150.704 355.581 153.242 359.351 155.722C359.923 155.362 360.52 155.044 361.139 154.77C361.182 154.753 361.229 154.754 361.272 154.771C361.315 154.788 361.349 154.821 361.368 154.863C361.387 154.905 361.39 154.953 361.375 154.997C361.36 155.04 361.329 155.076 361.288 155.098C360.763 155.36 360.257 155.659 359.772 155.99C360.219 156.265 360.705 156.538 361.24 156.805C361.807 156.292 362.404 155.813 363.028 155.372C363.055 155.35 363.089 155.339 363.124 155.342C363.159 155.346 363.191 155.363 363.213 155.389C363.235 155.416 363.246 155.451 363.242 155.486C363.239 155.52 363.222 155.552 363.195 155.575C362.692 156.042 362.216 156.538 361.771 157.06C363.596 157.892 365.5 158.536 367.455 158.982C367.455 158.982 357.163 161.014 355.402 171.623C355.402 171.623 357.022 171.787 359.635 170.753C359.504 170.151 359.502 169.528 359.629 168.925C359.633 168.917 359.639 168.909 359.647 168.904C359.655 168.899 359.664 168.897 359.674 168.897C359.683 168.897 359.693 168.899 359.701 168.904C359.709 168.909 359.715 168.917 359.719 168.925C359.931 169.442 360.08 169.983 360.163 170.536C360.72 170.291 361.264 170.019 361.793 169.719C361.568 169.318 361.386 168.894 361.249 168.455C361.2 168.292 361.461 168.222 361.529 168.369C361.717 168.761 361.943 169.134 362.203 169.483C363.34 168.802 364.419 168.028 365.428 167.169C365.428 167.169 357.963 178.394 357.122 184.988C357.122 184.988 367.044 181.547 370.923 168.587C370.686 171.245 370.704 173.921 370.979 176.576C371.405 176.812 371.852 177.01 372.313 177.166C372.335 177.175 372.353 177.192 372.363 177.212C372.374 177.233 372.377 177.257 372.371 177.28C372.366 177.303 372.352 177.323 372.333 177.337C372.314 177.351 372.291 177.357 372.267 177.355C371.848 177.291 371.434 177.192 371.03 177.06C371.137 178.011 371.282 179.005 371.477 180.019C372.221 179.825 372.957 179.607 373.682 179.347C373.733 179.326 373.79 179.326 373.841 179.346C373.892 179.366 373.933 179.406 373.956 179.456C373.978 179.506 373.981 179.562 373.963 179.614C373.945 179.666 373.907 179.709 373.858 179.734C373.131 180.101 372.382 180.424 371.616 180.702C372.334 184.069 373.619 187.595 375.874 190.498C375.874 190.498 381.241 179.744 378.217 167.448C379.129 170.17 380.29 172.801 381.687 175.308C381.888 174.931 382.093 174.556 382.305 174.184C382.379 174.056 382.603 174.179 382.532 174.308C382.297 174.743 382.081 175.183 381.866 175.624C382.104 176.034 382.353 176.443 382.613 176.85C382.885 176.15 383.171 175.461 383.48 174.792C383.494 174.756 383.522 174.727 383.558 174.712C383.593 174.697 383.633 174.696 383.669 174.71C383.705 174.724 383.734 174.752 383.75 174.787C383.765 174.822 383.767 174.862 383.754 174.898C383.446 175.714 383.185 176.546 382.971 177.391C384.648 179.881 386.715 182.09 389.123 182.945C389.123 182.945 392.643 173.54 378.702 162.702C381.144 162.68 383.586 162.781 386.018 163.007C385.831 162.385 385.599 161.778 385.324 161.191C385.277 161.092 385.429 160.993 385.492 161.088C385.882 161.716 386.224 162.372 386.513 163.053C387.351 163.134 388.223 163.234 389.118 163.355C388.726 162.736 388.332 162.117 387.986 161.471C387.922 161.352 388.104 161.237 388.174 161.346Z" fill="#FFC619"/>
<path d="M293.936 175.149C293.936 175.149 304.755 219.405 308.906 260.256L300.428 261.121C300.428 261.121 299.817 212.958 291.714 175.376L293.936 175.149Z" fill="#FFC619"/>
<path d="M272.324 171.973C271.718 172.901 271.07 173.801 270.434 174.694C266.807 175.179 263.236 176.015 259.771 177.191C259.771 177.191 264.296 164.382 286.131 167.543C286.131 167.543 283.526 161.745 282.232 157.837C282.232 157.837 290.615 156.532 294.831 169.349C294.831 169.349 295.989 160.923 315.642 158.021C315.642 158.021 315.056 161.346 310.113 164.6C309.363 164.128 308.58 163.711 307.77 163.353C307.713 163.327 307.648 163.325 307.59 163.347C307.531 163.368 307.484 163.413 307.458 163.47C307.433 163.527 307.43 163.591 307.452 163.65C307.474 163.708 307.519 163.756 307.575 163.782C308.263 164.126 308.927 164.517 309.562 164.951C308.977 165.312 308.338 165.669 307.638 166.019C306.894 165.347 306.111 164.719 305.292 164.141C305.256 164.116 305.213 164.105 305.17 164.111C305.127 164.117 305.087 164.139 305.06 164.173C305.032 164.206 305.018 164.249 305.021 164.293C305.024 164.336 305.043 164.377 305.074 164.407C305.734 165.02 306.357 165.67 306.942 166.354C304.549 167.445 302.052 168.289 299.489 168.874C299.489 168.874 312.982 171.539 315.293 185.447C313.382 185.477 311.487 185.088 309.742 184.306C309.914 183.517 309.916 182.7 309.75 181.91C309.745 181.898 309.736 181.889 309.726 181.882C309.716 181.875 309.703 181.872 309.691 181.872C309.678 181.872 309.666 181.875 309.656 181.882C309.645 181.889 309.637 181.898 309.632 181.91C309.354 182.587 309.158 183.296 309.05 184.02C308.32 183.7 307.607 183.343 306.912 182.95C307.207 182.424 307.446 181.869 307.626 181.293C307.69 181.079 307.348 180.984 307.26 181.18C307.014 181.695 306.718 182.184 306.377 182.642C304.886 181.749 303.472 180.734 302.148 179.608C302.148 179.608 311.935 194.325 313.039 202.97C313.039 202.97 300.03 198.459 294.941 181.467C295.251 184.953 295.225 188.46 294.863 191.941C294.304 192.251 293.719 192.509 293.114 192.714C293.085 192.726 293.062 192.748 293.048 192.775C293.034 192.803 293.03 192.834 293.037 192.864C293.045 192.894 293.062 192.921 293.088 192.939C293.113 192.957 293.143 192.965 293.174 192.962C293.724 192.878 294.266 192.748 294.795 192.576C294.655 193.825 294.464 195.127 294.209 196.455C293.233 196.201 292.268 195.913 291.318 195.575C291.252 195.548 291.177 195.547 291.111 195.574C291.044 195.6 290.99 195.652 290.96 195.717C290.93 195.783 290.927 195.857 290.95 195.925C290.974 195.993 291.023 196.049 291.087 196.082C292.041 196.563 293.023 196.987 294.027 197.351C293.147 201.996 291.239 206.384 288.444 210.193C288.444 210.193 281.407 196.093 285.373 179.973C284.176 183.541 282.654 186.991 280.823 190.278C280.559 189.784 280.289 189.293 280.012 188.805C279.916 188.636 279.622 188.798 279.715 188.968C280.023 189.537 280.306 190.114 280.589 190.692C280.276 191.233 279.948 191.769 279.61 192.299C279.252 191.382 278.876 190.478 278.473 189.601C278.452 189.557 278.415 189.522 278.37 189.503C278.324 189.485 278.274 189.485 278.228 189.502C278.182 189.52 278.145 189.555 278.124 189.599C278.103 189.643 278.099 189.694 278.114 189.741C278.518 190.81 278.861 191.901 279.143 193.009C276.948 196.274 274.232 199.169 271.078 200.29C271.078 200.29 266.462 187.964 284.741 173.751C281.539 173.722 278.338 173.855 275.149 174.15C275.393 173.335 275.697 172.54 276.058 171.77C276.12 171.641 275.92 171.51 275.841 171.635C275.329 172.458 274.882 173.319 274.503 174.211C273.406 174.317 272.261 174.448 271.088 174.608C271.601 173.795 272.117 172.984 272.572 172.134C272.656 171.985 272.417 171.834 272.324 171.973Z" fill="#FFC619"/>
<path d="M55.4616 196.958C55.4616 196.958 50.0417 229.499 41.1576 257.868L35.27 256.017C35.27 256.017 48.5934 223.799 53.9188 196.474L55.4616 196.958Z" fill="#FFC619"/>
<path d="M41.9876 188.663C41.3171 189.111 40.632 189.52 39.9543 189.932C37.4031 189.217 34.7888 188.751 32.1479 188.542C32.1479 188.542 38.8105 181.314 52.4379 189.666C52.4379 189.666 52.3568 185.064 52.6105 182.093C52.6105 182.093 58.5595 183.624 57.7108 193.358C57.7108 193.358 60.885 188.084 74.7868 191.776C74.7868 191.776 73.4485 193.822 69.2328 194.572C68.8686 194.043 68.4665 193.541 68.0298 193.07C67.9986 193.04 67.957 193.022 67.9134 193.022C67.8698 193.021 67.8276 193.037 67.7953 193.066C67.7631 193.096 67.7432 193.136 67.7399 193.18C67.7365 193.223 67.7498 193.266 67.7772 193.3C68.137 193.726 68.4675 194.176 68.7662 194.647C68.2739 194.719 67.7476 194.774 67.181 194.807C66.8781 194.147 66.5357 193.505 66.1557 192.886C66.1392 192.86 66.1135 192.841 66.0838 192.833C66.0541 192.825 66.0225 192.828 65.995 192.842C65.9676 192.856 65.9463 192.88 65.9353 192.909C65.9243 192.937 65.9244 192.969 65.9356 192.998C66.1997 193.594 66.4291 194.205 66.6228 194.827C64.7198 194.869 62.8175 194.716 60.9454 194.371C60.9454 194.371 69.1629 200.006 66.7346 209.921C65.4546 209.394 64.3052 208.593 63.367 207.574C63.7062 207.098 63.9408 206.555 64.0554 205.981C64.0553 205.972 64.0527 205.963 64.0478 205.955C64.0429 205.948 64.036 205.942 64.0278 205.938C64.0197 205.935 64.0106 205.933 64.0017 205.935C63.9928 205.936 63.9845 205.94 63.9777 205.946C63.5996 206.317 63.2675 206.732 62.9887 207.183C62.5944 206.761 62.2214 206.319 61.8712 205.86C62.2183 205.594 62.5367 205.293 62.8211 204.961C62.9245 204.837 62.7239 204.678 62.6105 204.782C62.299 205.053 61.9622 205.293 61.6047 205.5C60.8677 204.479 60.2159 203.4 59.6558 202.272C59.6558 202.272 61.9713 214.867 60.2403 220.932C60.2403 220.932 52.8714 214.208 54.3309 201.446C53.5438 203.854 52.527 206.181 51.2947 208.394C50.8344 208.439 50.3711 208.444 49.9101 208.407C49.8881 208.408 49.8669 208.416 49.8502 208.43C49.8335 208.444 49.8223 208.464 49.8187 208.486C49.815 208.507 49.8191 208.53 49.8302 208.549C49.8412 208.568 49.8586 208.582 49.8793 208.59C50.2695 208.69 50.6671 208.759 51.0683 208.796C50.6213 209.587 50.1218 210.398 49.5732 211.209C48.996 210.761 48.4355 210.294 47.9008 209.796C47.8642 209.759 47.8148 209.738 47.7627 209.736C47.7107 209.735 47.6602 209.753 47.6217 209.789C47.5831 209.824 47.5596 209.872 47.556 209.924C47.5525 209.976 47.5691 210.028 47.6024 210.068C48.1003 210.661 48.6326 211.224 49.1965 211.754C47.2867 214.592 44.7665 216.965 41.821 218.7C41.821 218.7 41.1595 207.305 48.3942 197.715C46.5811 199.746 44.5844 201.606 42.4295 203.269C42.3938 202.864 42.3552 202.46 42.3099 202.057C42.2932 201.917 42.0518 201.94 42.0652 202.08C42.1071 202.547 42.1317 203.012 42.1552 203.479C41.7931 203.748 41.4221 204.012 41.0455 204.268C41.069 203.555 41.0762 202.846 41.0583 202.147C41.0596 202.11 41.0461 202.074 41.0208 202.047C40.9955 202.02 40.9605 202.004 40.9234 202.003C40.8864 202.002 40.8503 202.015 40.8232 202.04C40.7962 202.066 40.7802 202.101 40.779 202.138C40.7428 202.965 40.6602 203.789 40.5315 204.607C38.1406 206.151 35.5083 207.3 33.0894 207.143C33.0894 207.143 33.5337 197.621 49.7469 193.396C47.6252 192.46 45.4575 191.632 43.252 190.916C43.6472 190.444 44.0767 190.001 44.5371 189.592C44.6154 189.524 44.5198 189.38 44.431 189.441C43.8558 189.842 43.3127 190.286 42.8067 190.771C42.0462 190.528 41.2472 190.288 40.4214 190.058C40.9941 189.666 41.5685 189.275 42.1133 188.838C42.206 188.763 42.0898 188.595 41.9876 188.663Z" fill="#FFC619"/>
</g>
</g>
<path d="M116.967 318.905C116.967 318.905 111.175 267.566 108.574 261.025C105.973 254.484 101.549 246.003 98.1278 247.252C94.7065 248.501 98.1278 276.833 93.9041 273.708C89.6805 270.584 91.6924 242.253 89.8827 238.295C88.0729 234.337 81.6387 221.963 77.8165 222.942C73.9943 223.921 82.2406 251.018 77.8165 248.822C73.3924 246.625 65.5488 215.805 62.1304 211.009C58.7119 206.213 54.8909 200.764 51.2709 202.135C47.6509 203.505 56.8203 220.011 55.3528 223.112C53.8853 226.212 50.0236 205.343 47.2285 209.945C44.4335 214.546 45.3979 229.13 47.2285 234.753C49.0591 240.376 71.0621 256.373 69.8148 258.062C68.5674 259.751 54.49 251.034 52.0767 251.852C49.6633 252.669 51.2381 262.033 55.6797 269.433C60.1213 276.833 73.4026 274.302 74.4032 276.609C75.4037 278.916 62.6657 276.562 62.9361 281.023C63.2066 285.484 67.769 292.483 74.4032 301.207C81.0373 309.93 105.031 315.614 105.031 315.614L116.967 318.905Z" fill="#7E3FCC"/>
<path d="M121.348 322.237C121.348 322.237 66.0542 273.199 42.5786 289.089C40.2285 290.68 65.8232 301.243 62.5109 302.55C59.1987 303.856 41.744 290.008 36.9535 291.698C32.1629 293.387 23.3718 301.613 24.6592 302.681C25.9466 303.749 42.4684 309.483 39.155 310.79C35.8416 312.097 22.0341 305.27 18.7659 307.322C15.4976 309.375 -0.199242 326.683 0.693474 328.583C1.5862 330.483 23.9409 322.25 47.9795 314.253C72.018 306.255 109.798 315.872 121.348 322.237Z" fill="#7E3FCC"/>
<path d="M113.778 315.958C113.778 315.958 103.675 308.317 105.86 267.674C105.75 261.898 109.42 245.681 109.912 242.832C112.306 228.97 119.77 251.47 119.816 258.723C119.861 265.976 122.911 261.231 122.713 255.139C122.516 249.046 119.901 234.185 121.511 229.531C123.122 224.878 138.425 208.401 140.28 210.586C142.135 212.77 138.416 238.867 141.589 234.287C144.762 229.706 144.13 206.251 148.026 201.622C151.923 196.994 168.757 189.461 170.654 192.392C172.552 195.322 159.571 218.04 162.438 215.784C165.305 213.527 173.528 197.677 175.184 193.77C176.84 189.864 190.476 209.473 185.639 215.55C180.801 221.628 161.528 223.79 156.074 228.344C150.621 232.899 146.379 239.103 150.973 237.829C155.566 236.555 175.91 226.261 176.744 231.852C177.578 237.443 169.765 254.529 158.417 257.219C147.069 259.908 135.662 254.982 131.328 258.32C126.995 261.657 122.503 266.497 126.459 265.724C130.416 264.951 153.444 261.399 151.795 266.342C150.146 271.284 143.131 282.275 133.428 285.492C123.725 288.709 118.13 283.481 116.978 284.649C115.825 285.817 124.431 293.097 127.606 295.023C130.781 296.95 122.991 310.416 113.778 315.958Z" fill="#7E3FCC"/>
<path d="M155.433 222.094C142.5 236.376 129.823 252.189 121.56 269.943C118.006 277.581 116.528 285.894 116.227 294.316C115.954 301.971 118.6 310.191 117.422 317.687C117.107 319.697 114.829 320.024 113.848 318.349C109.941 311.667 110.308 301.416 110.459 293.828C110.627 285.119 112.908 277.376 116.803 269.713C121.419 260.631 128.233 252.484 134.435 244.531C140.764 236.411 147.885 228.967 155.181 221.786C155.367 221.603 155.602 221.908 155.433 222.094L155.433 222.094Z" fill="#7E3FCC"/>
<path d="M57.041 226.035C66.9146 241.258 77.3686 256.061 87.4438 271.137C92.3156 278.43 97.2123 285.706 102.242 292.884C107.143 299.881 112.716 307.619 115.876 315.652C115.945 315.84 115.954 316.048 115.9 316.242C115.847 316.436 115.733 316.608 115.578 316.73C115.423 316.852 115.233 316.919 115.038 316.92C114.843 316.922 114.652 316.858 114.495 316.738C108.128 312.013 103.188 305.014 98.2773 298.781C92.441 291.376 87.2857 283.228 82.2275 275.244C72.3782 259.69 64.1743 243.135 56.6367 226.27C56.619 226.216 56.6201 226.157 56.6399 226.104C56.6596 226.051 56.6968 226.007 56.7448 225.979C56.7929 225.951 56.8488 225.941 56.9029 225.952C56.957 225.962 57.0059 225.992 57.041 226.036V226.035Z" fill="#7E3FCC"/>
<path d="M349.675 206.878C353.207 201.159 356.145 195.825 358.585 190.878L350.665 185.172L359.78 188.404C361.37 185.035 362.728 181.854 363.881 178.865L355.552 173.259L364.999 175.856C372.547 154.668 369.606 143.935 369.606 143.935C287.128 157.375 264.218 250.544 264.218 250.544V301.252C304.728 266.205 329.9 236.899 345.467 213.448L321.951 192.503L349.675 206.878Z" fill="#B175FB"/>
<path d="M369.606 143.935C293.392 156.355 268.046 236.841 264.634 249.001C264.664 248.919 296.023 163.476 369.606 143.935Z" fill="#7E3FCC"/>
<path d="M264.218 284.145C264.218 284.145 327.756 185.17 417.87 212.362C417.87 212.362 416.037 233.601 406.568 245.891L399.847 238.939L391.6 245.891L379.076 231.912L388.851 252.074C388.851 252.074 378.769 259.095 372.66 260.932L357.081 235.272C357.081 235.272 360.441 256.961 365.023 262.765C365.023 262.765 309.734 293.925 264.218 301.255V284.145Z" fill="#B175FB"/>
<path d="M264.218 284.145C264.218 284.145 320.73 196.78 417.87 212.362C327.756 185.17 264.218 284.145 264.218 284.145Z" fill="#7E3FCC"/>
<path d="M396.942 274.789C397.096 274.845 397.249 274.896 397.404 274.953C397.404 274.953 394.601 292.308 364.531 306.071L353.721 288.699L359.283 308.321C351.996 311.195 344.508 313.527 336.878 315.298L330.809 293.711L331.766 316.443C329.678 316.884 327.524 317.307 325.304 317.71L322.863 307.944L319.327 318.716C313.686 319.597 307.629 320.343 301.156 320.956L298.424 311.304L296.385 321.367C286.628 322.138 275.935 322.579 264.214 322.606V285.339C264.214 285.339 321.414 247.316 396.942 274.789Z" fill="#7E3FCC"/>
<path d="M314.008 270.676C294.238 275.617 277.022 283.95 264.22 291.485V285.339C264.22 285.339 321.416 247.317 396.944 274.789C392.347 273.193 354.132 260.648 314.008 270.676Z" fill="#7E3FCC"/>
<path d="M115.853 108.17C115.853 108.17 151.665 220.287 132.126 306.047H155.801C155.801 306.047 156.032 177.754 119.104 108.17H115.853Z" fill="#7E3FCC"/>
<path d="M43.3481 96.7948C90.8967 79.0759 103.85 96.4678 103.85 96.4678C97.5312 62.6434 117.896 55.2319 117.896 55.2319C119.808 65.5596 121.1 81.7196 121.1 81.7196C166.084 47.7622 191.96 70.8052 191.96 70.8052C180.589 72.6568 168.673 76.7326 158.472 80.9503C152.574 79.7712 146.57 79.2072 140.555 79.2673C140.412 79.2513 140.269 79.2921 140.156 79.381C140.043 79.4699 139.969 79.5997 139.951 79.7423C139.933 79.8849 139.972 80.029 140.059 80.1433C140.146 80.2577 140.275 80.3331 140.417 80.3534C144.54 81.3876 148.798 82.2456 152.964 83.3063C140.567 88.7965 131.825 93.8697 131.825 93.8697C190.205 103.109 195.033 136.326 195.033 136.326C185.393 137.905 174.18 133.61 164.264 127.962C161.483 122.892 158.76 117.806 156.194 112.57C156.137 112.46 156.041 112.375 155.925 112.333C155.808 112.291 155.68 112.294 155.566 112.342C155.452 112.39 155.36 112.479 155.309 112.592C155.257 112.704 155.25 112.832 155.288 112.95C156.881 116.961 158.368 121.198 160.003 125.398C158.768 124.621 157.566 123.837 156.397 123.044C154.593 119.425 152.899 115.724 151.401 111.818C151.245 111.412 150.688 111.682 150.798 112.071C151.588 114.907 152.375 117.885 153.262 120.866C147.938 117.08 142.858 112.961 138.054 108.534C166.747 139.666 168.335 179.831 168.335 179.831C135.772 165.815 118.484 123.653 118.484 123.653C120.86 134.331 121.356 145.341 119.951 156.189C118.736 152.196 117.203 148.306 115.368 144.558C115.323 144.451 115.237 144.366 115.129 144.323C115.022 144.28 114.901 144.281 114.794 144.326C114.688 144.372 114.603 144.458 114.56 144.565C114.517 144.673 114.518 144.793 114.563 144.9C116.517 151.18 117.828 157.643 118.476 164.189C113.995 183.351 104.421 193.982 104.421 193.982C96.2601 173.314 100.072 128.378 100.072 128.378C98.5944 132.253 96.8234 136.009 94.7748 139.614C94.4922 135.599 94.368 131.585 94.3794 127.542C94.3794 126.721 93.1716 126.513 93.0765 127.376C92.5151 132.435 91.6596 138.596 91.5709 144.669C84.4611 154.808 77.8379 157.624 77.8379 157.624C65.9083 123.704 92.8307 101.133 92.8307 101.133C55.189 111.567 43.3481 96.7948 43.3481 96.7948Z" fill="#7E3FCC"/>
<path d="M287.092 50.3896C287.092 50.3896 256.141 176.758 244.265 293.404L268.516 295.874C268.516 295.874 270.266 158.36 293.446 51.0358L287.092 50.3896Z" fill="#7E3FCC"/>
<path d="M348.903 41.3297C350.639 43.989 352.492 46.5485 354.313 49.1007C364.687 50.4843 374.901 52.8715 384.814 56.2285C384.814 56.2285 371.871 19.6524 309.406 28.6775C309.406 28.6775 316.862 12.1281 320.566 0.964998C320.566 0.964998 296.585 -2.76046 284.523 33.8362C284.523 33.8362 281.206 9.78009 224.993 1.4907C224.993 1.4907 226.668 10.9915 240.808 20.278C242.952 18.9283 245.192 17.7371 247.51 16.7141C247.671 16.6476 247.852 16.6462 248.014 16.7104C248.177 16.7746 248.308 16.8992 248.38 17.0581C248.452 17.2169 248.46 17.3976 248.402 17.5622C248.344 17.7267 248.224 17.8622 248.068 17.9402C246.099 18.9231 244.2 20.0382 242.382 21.278C244.056 22.3059 245.883 23.3338 247.887 24.328C250.015 22.4077 252.257 20.6173 254.601 18.9667C254.702 18.8916 254.828 18.8583 254.953 18.8738C255.078 18.8892 255.193 18.9522 255.272 19.0496C255.352 19.147 255.392 19.2714 255.382 19.3971C255.373 19.5227 255.316 19.6399 255.222 19.7244C253.335 21.4725 251.551 23.3288 249.88 25.2839C256.724 28.3984 263.867 30.8093 271.199 32.4793C271.199 32.4793 232.599 40.0873 225.993 79.8044C225.993 79.8044 232.078 80.4168 241.868 76.5445C241.377 74.2912 241.369 71.9594 241.846 69.703C241.86 69.67 241.883 69.6417 241.912 69.6214C241.942 69.6012 241.977 69.5899 242.012 69.5888C242.048 69.5877 242.083 69.5969 242.114 69.6153C242.145 69.6338 242.169 69.6606 242.185 69.6927C242.98 71.6285 243.538 73.6529 243.849 75.7221C245.937 74.8069 247.978 73.787 249.964 72.6663C249.12 71.1637 248.436 69.577 247.922 67.932C247.739 67.3212 248.717 67.0583 248.967 67.6104C249.674 69.0781 250.52 70.4742 251.495 71.7794C255.759 69.2288 259.805 66.3311 263.592 63.1155C263.592 63.1155 235.593 105.141 232.439 129.823C232.439 129.823 269.651 116.943 284.209 68.4225C283.32 78.3759 283.391 88.3919 284.421 98.3318C286.021 99.2133 287.696 99.9505 289.427 100.535C289.508 100.568 289.575 100.63 289.615 100.708C289.654 100.787 289.665 100.877 289.644 100.963C289.623 101.048 289.572 101.124 289.5 101.175C289.429 101.226 289.341 101.25 289.253 101.242C287.68 101.001 286.129 100.631 284.616 100.137C285.015 103.702 285.56 107.419 286.291 111.213C289.082 110.479 291.842 109.67 294.562 108.698C294.753 108.613 294.971 108.608 295.166 108.683C295.362 108.758 295.52 108.907 295.606 109.097C295.693 109.288 295.701 109.505 295.628 109.702C295.556 109.898 295.409 110.058 295.22 110.147C292.491 111.521 289.683 112.731 286.81 113.771C289.506 126.376 294.325 139.573 302.781 150.441C302.781 150.441 322.91 110.179 311.568 64.1493C314.989 74.3376 319.345 84.1878 324.58 93.5741C325.339 92.1629 326.107 90.759 326.901 89.3669C327.177 88.8882 328.019 89.3479 327.753 89.8324C326.872 91.4595 326.06 93.1071 325.257 94.7576C326.15 96.2966 327.088 97.8311 328.057 99.3465C329.085 96.7268 330.155 94.1453 331.31 91.6416C331.362 91.5053 331.467 91.3955 331.601 91.3364C331.735 91.2774 331.886 91.2738 332.023 91.3266C332.159 91.3794 332.269 91.4841 332.328 91.6178C332.387 91.7515 332.39 91.9032 332.338 92.0395C331.186 95.0937 330.205 98.2097 329.401 101.373C335.68 110.696 343.449 118.963 352.471 122.163C352.471 122.163 365.676 86.966 313.389 46.3826C322.548 46.2992 331.706 46.6795 340.827 47.5221C340.127 45.1957 339.258 42.9237 338.226 40.7246C338.048 40.3561 338.62 39.9904 338.846 40.3414C340.31 42.6897 341.59 45.1484 342.672 47.6954C345.812 47.9979 349.088 48.3723 352.442 48.829C350.974 46.5103 349.505 44.1931 348.198 41.7717C347.954 41.3532 348.639 40.9229 348.903 41.3297Z" fill="#7E3FCC"/>
<path d="M309.192 322.605H196.806L217.828 313.47L212.018 295.875L233.01 313.47L242.152 299.597L247.569 312.793L261.79 305.687L263.821 318.207L298.696 305.687L294.633 317.53L317.995 309.409L309.192 322.605Z" fill="black"/>
<path d="M181.007 293.805L176.083 322.392H169.297L166.873 292.747L181.007 293.805Z" fill="#FBD23A"/>
<path d="M117.598 251.585C119.788 251.384 122.055 251.117 123.91 250.106C127.415 248.194 128.428 243.96 127.002 240.633C125.577 237.306 122.223 234.817 118.587 233.091C114.478 231.165 110.043 230.03 105.513 229.748C101.764 229.507 97.792 229.891 94.6921 231.699C93.3275 232.499 92.1455 233.575 91.2225 234.86C90.2995 236.144 89.6559 237.607 89.3331 239.156C88.5193 243.089 89.21 249.912 94.3586 251.602C97.5421 252.646 101.329 252.355 104.656 252.294C108.98 252.216 113.294 251.979 117.598 251.585Z" fill="#7231C1"/>
<path d="M115.458 214.245C132.326 212.748 149.228 211.893 166.166 211.682C168.856 211.649 171.61 211.642 174.151 212.596C180.955 215.145 184.074 223.469 185.88 230.977C189.44 245.812 191.082 261.043 190.767 276.297C190.711 279.006 190.549 281.867 189.157 284.125C186.973 287.668 182.581 288.565 178.662 289.074C167.388 290.54 156.038 291.346 144.671 291.489C143.372 291.505 141.923 291.45 141.007 290.459C140.438 289.843 140.187 288.975 139.976 288.137C137.917 279.959 137.804 271.375 136.541 263.013C135.014 252.898 131.69 242.909 125.688 234.955C119.687 227.002 110.792 221.273 101.284 220.825C100.949 220.809 103.139 217.963 103.468 217.749C104.45 217.112 102.169 217.042 103.183 216.655C106.313 215.463 112.006 214.552 115.458 214.245Z" fill="#5D20A7"/>
<path d="M284.093 185.758C283.756 183.759 283.216 181.729 281.968 180.099C279.888 177.384 276.266 176.274 272.845 175.555C261.355 173.143 249.464 173.346 237.715 173.815C223.517 174.38 209.341 175.315 195.188 176.618C186.891 177.382 177.913 178.584 172.044 184.288C167.428 188.776 165.642 195.218 164.069 201.355C159.269 220.081 154.772 238.997 153.648 258.255C153.441 261.801 153.357 265.419 154.349 268.839C156.815 277.344 165.628 283.001 174.626 284.65C183.623 286.299 192.88 284.697 201.887 283.096L210.503 281.565C226.239 278.769 242.593 275.719 255.409 266.483C267.007 258.124 274.718 244.93 276.124 231.034C277.678 215.675 286.759 201.572 284.093 185.758Z" fill="#B175FB"/>
<path d="M188.405 283.314L196.838 281.76C212.236 278.922 228.241 275.827 240.784 266.453C252.134 257.97 259.679 244.58 261.055 230.478C262.577 214.891 271.462 200.578 268.854 184.528C268.524 182.499 267.995 180.439 266.774 178.785C264.738 176.029 260.166 176.09 256.818 175.361C251.865 174.317 240.589 173.754 240.589 173.754C253.492 171.287 263.713 171.96 273.881 174.174C277.228 174.905 280.773 176.028 282.808 178.785C284.03 180.439 284.559 182.499 284.889 184.528C287.497 200.578 278.611 214.891 277.089 230.478C275.713 244.581 268.168 257.97 256.818 266.453C244.275 275.827 228.271 278.922 212.872 281.76L204.439 283.314C195.8 284.906 186.925 286.498 178.284 284.984C181.675 284.548 185.058 283.931 188.405 283.314Z" fill="#5D20A7"/>
<path d="M90.6433 250.65C86.2031 248.051 83.2873 242.253 83.9085 236.632C84.2197 233.815 85.3364 231.179 86.752 228.836C93.2671 218.062 106.236 213.613 117.439 216.671C120.236 217.411 122.888 218.615 125.284 220.235C131.208 224.305 135.273 231.246 137.577 238.651C139.881 246.057 140.583 253.967 141.037 261.802C141.64 272.22 141.834 282.656 141.619 293.108C136.4 293.443 131.161 293.29 125.97 292.653C126.443 279.396 126.911 266.049 125.231 252.919C124.62 248.138 123.655 243.228 121.072 239.386C116.895 233.176 105.481 231.493 107.469 241.909C109.354 251.788 96.7052 254.198 90.6433 250.65Z" fill="#B175FB"/>
<path d="M126.298 278.166H213.232V297.763H126.298V278.166Z" fill="#9D5AEF"/>
<path d="M130.439 265.587C133.724 261.675 139.676 260.293 145.214 259.786C151.994 259.168 158.214 257.837 165.524 260.655C166.966 261.211 169.102 262.305 169.102 262.305C169.102 262.305 170.141 261.738 173.07 260.655C180.457 257.922 185.625 258.628 192.504 260.331C193.79 260.652 195.078 261.043 196.164 261.724C199.695 263.939 200.015 268.328 200.001 272.115C199.996 273.479 199.98 274.894 199.309 276.129C198.638 277.363 197.114 278.357 195.573 278.101L199.176 278.751C200.483 279.792 200.087 281.791 198.819 282.868C197.552 283.945 195.726 284.329 193.986 284.626C185.966 285.991 177.779 286.419 169.619 286.811C157.675 287.385 145.379 287.85 134.077 284.438C132.264 283.891 130.4 283.188 129.25 281.853C128.105 280.524 127.851 278.784 127.722 277.128C127.416 273.125 127.721 268.824 130.439 265.587Z" fill="#9D5AEF"/>
<path d="M128.32 265.883C128.408 267.317 128.346 268.757 128.133 270.18C129.282 266.174 129.994 262.068 130.259 257.925C130.71 251.366 130.113 244.61 127.299 238.6C124.484 232.59 119.231 227.396 112.571 225.524C105.912 223.652 97.9318 225.642 93.9439 231.024C92.7305 232.662 91.8934 234.598 91.863 236.598C91.8325 238.598 92.6822 240.654 94.338 241.896C94.8851 242.341 95.5625 242.616 96.2796 242.686C97.4631 242.752 98.551 242.009 99.2491 241.103C99.9472 240.196 100.355 239.124 100.904 238.129C101.957 236.218 103.602 234.552 105.685 233.676C108.477 232.502 111.821 232.868 114.525 234.215C117.229 235.562 119.346 237.795 120.951 240.255C124.28 245.356 125.559 251.438 125.89 257.425C126.222 263.411 125.667 269.407 125.627 275.402C126.422 274.74 127.036 273.905 127.416 272.969C127.796 272.033 127.93 271.024 127.807 270.029L128.32 265.883Z" fill="#9D5AEF"/>
<path d="M125.705 291.154H211.104V298.321H125.705V291.154Z" fill="#5D20A7"/>
<path d="M127.626 275.402H211.104V292.746H127.626V275.402Z" fill="#5D20A7"/>
<path d="M95.1448 237.41C96.6322 235.133 99.2535 231.127 101.83 230.216C108.335 227.917 116.104 228.226 120.855 230.807C125.959 233.582 127.519 239.18 129.036 244.756C130.554 250.332 130.45 256.197 130.337 261.972C129.941 282.094 129.544 302.215 129.147 322.337C127.572 322.515 122.182 322.184 120.607 322.362C122.815 300.672 125.138 279.242 124.953 257.563C124.906 251.976 124.233 244.931 120.393 240.846C114.623 234.708 111.766 239.183 107.098 242.881C101.739 247.129 91.0606 243.664 95.1448 237.41Z" fill="black"/>
<path d="M95.0411 234.892C96.7211 232.751 98.609 231.002 101.265 230.354C106.001 229.198 111.191 229.153 115.567 231.29C120.789 233.839 124.175 239.185 125.692 244.761C127.209 250.336 127.106 256.202 126.993 261.976C126.596 282.096 126.2 302.217 125.802 322.337C124.228 322.514 118.838 322.184 117.263 322.362C119.471 300.673 121.793 279.245 121.609 257.567C121.561 251.981 120.889 244.937 117.048 240.852C111.279 234.714 105.724 238.757 101.056 242.456C95.6969 246.703 91.4269 239.498 95.0411 234.892Z" fill="#FBD23A"/>
<path d="M199.413 227.859C185.721 224.248 178.846 210.926 177.12 204.716C184.065 207.984 199.809 214.963 207.219 216.735C214.629 218.508 223.529 218.542 227.052 218.337C223.544 223.015 213.104 231.469 199.413 227.859Z" fill="black"/>
<path d="M208.729 166.4C208.729 166.4 244.593 180.643 238.491 226.055C235.833 245.837 200.672 261.783 200.672 261.783C200.672 261.783 186.232 247.371 168.353 250.809C150.475 254.247 139.61 268.687 140.161 282.44C140.711 296.192 144.738 315.116 146.113 320.388" stroke="black" stroke-width="7.218"/>
<path d="M271.536 293.804L266.612 322.392H259.825L257.401 292.746L271.536 293.804Z" fill="#FBD23A"/>
<path d="M196.853 288.616C198.49 275.477 201.555 259.953 205.783 247.683C210.012 235.413 216.328 223.968 225.04 215.83L228.87 213.65C240.63 214.286 259.187 213.92 270.94 213.129C274.209 212.907 277.508 212.635 280.74 213.267C287.969 214.679 294.416 220.921 297.122 229.124C299.827 237.328 296.051 244.708 291.834 248.986C289.2 251.66 283.502 252.95 280.737 255.611C277.092 259.118 276.174 273.832 275.945 279.447C275.843 281.956 275.894 292.065 274.386 293.8C273.801 294.473 251.752 295.07 241.162 296.177C232.822 297.049 224.463 297.567 216.085 297.733C219.854 298.648 212.241 297.808 216.085 297.733L211.365 288.616H196.853Z" fill="#9D5AEF"/>
<path d="M227.881 235.959C228.471 235.19 229.293 234.631 230.225 234.366C231.921 233.923 233.669 234.67 235.309 235.289C240.667 237.302 249.023 245.179 254.715 244.583C256.413 244.403 258.222 244.043 259.407 242.813C261.518 240.621 260.898 236.472 263.458 234.827C264.314 234.277 265.368 234.143 266.384 234.084C270.972 233.818 275.529 234.794 280.099 235.289C284.669 235.785 289.504 235.75 293.586 233.637C295.473 232.652 297.119 231.261 298.405 229.565C300.493 237.359 296.859 244.311 292.818 248.412C290.183 251.085 284.484 252.375 281.72 255.036C281.528 255.224 281.352 255.428 281.194 255.645C278.518 255.854 275.832 255.927 273.148 255.862L244.898 255.644C240.896 255.613 236.656 255.515 233.278 253.369C229.9 251.224 225.398 239.097 227.881 235.959Z" fill="#5D20A7"/>
<path d="M253.378 248.524C258.411 245.924 261.716 240.127 261.012 234.506C260.659 231.689 259.394 229.052 257.789 226.71C250.404 215.936 235.703 211.487 223.004 214.544C219.874 215.268 216.875 216.47 214.112 218.109C207.396 222.178 202.79 229.12 200.177 236.525C197.565 243.93 196.77 251.84 196.256 259.676C195.573 270.094 195.354 280.529 195.597 290.981C201.512 291.316 207.445 291.164 213.335 290.526C212.799 277.269 212.267 263.922 214.172 250.792C214.866 246.012 215.959 241.101 218.887 237.26C223.621 231.049 236.559 229.367 234.306 239.782C232.169 249.661 246.507 252.072 253.378 248.524Z" fill="#C495FF"/>
<path d="M259.368 283.649C261.541 282.825 263.751 281.896 265.398 280.255C267.732 277.93 268.592 274.519 269.001 271.249C269.41 267.98 269.479 264.615 270.631 261.528C272.934 255.358 279.913 251.465 286.375 252.278C284.255 253.278 282.111 254.272 280.715 255.615C277.07 259.123 276.152 273.836 275.924 279.45C275.821 281.96 275.872 292.068 274.365 293.804C273.78 294.477 251.731 295.073 241.14 296.18C232.799 297.052 224.44 297.571 216.063 297.736C215.489 297.747 214.914 297.756 214.339 297.761C214.161 295.645 214.137 293.518 214.269 291.398C229.66 291.736 244.972 289.105 259.368 283.649Z" fill="#5D20A7"/>
<path d="M246.198 234.217C244.711 231.922 241.893 230.335 239.237 229.682C234.501 228.518 228.104 227.954 223.728 230.107C218.506 232.676 217.064 238.543 215.547 244.162C214.03 249.78 214.133 255.691 214.246 261.51C214.642 281.786 215.039 302.061 215.435 322.337C217.009 322.516 222.4 322.183 223.975 322.362C221.767 300.505 219.443 278.912 219.628 257.067C219.676 251.438 220.348 244.339 224.189 240.222C229.958 234.037 232.816 238.546 237.483 242.273C242.844 246.553 250.282 240.519 246.198 234.217Z" fill="black"/>
<path d="M242.387 234.217C240.707 232.06 238.819 230.297 236.163 229.644C231.427 228.48 226.237 228.435 221.861 230.588C216.639 233.157 213.253 238.544 211.736 244.162C210.219 249.781 210.322 255.692 210.435 261.51C210.831 281.786 211.228 302.062 211.625 322.337C213.2 322.516 218.59 322.183 220.165 322.362C217.957 300.506 215.634 278.913 215.819 257.068C215.866 251.438 216.539 244.339 220.379 240.223C226.148 234.038 231.704 238.113 236.372 241.839C241.731 246.119 246.001 238.858 242.387 234.217Z" fill="#FBD23A"/>
<path d="M263.559 202.527C253.072 197.916 242.17 203.388 238.029 206.7C244.053 208.068 257.497 211.457 263.083 214.076C268.67 216.694 274.354 221.257 276.498 223.211C276.554 218.238 274.046 207.139 263.559 202.527Z" fill="black"/>
<path d="M192.518 211.033L191.572 212.442L192.518 211.033L200.066 216.099C201.667 217.173 201.459 219.59 199.698 220.375L178.954 229.622C178.048 230.026 176.987 229.844 176.267 229.16L167.089 220.446M192.518 211.033L167.089 220.446M192.518 211.033C191.942 210.646 191.229 210.521 190.556 210.69M192.518 211.033L190.556 210.69M167.089 220.446C165.686 219.114 166.306 216.758 168.182 216.288L190.556 210.69M167.089 220.446L190.556 210.69" fill="white" stroke="black" stroke-width="3.39566"/>
<path d="M178.293 221.938L174.254 218.148C173.824 217.744 174.003 217.025 174.573 216.87L180.061 215.379C180.286 215.318 180.528 215.364 180.714 215.506L184.803 218.603C185.272 218.959 185.172 219.691 184.624 219.907L179.086 222.09C178.815 222.197 178.506 222.138 178.293 221.938Z" fill="#00D95A"/>
<path d="M175.618 233.718L176.786 232.486L175.618 233.718C176.383 234.444 177.528 234.599 178.459 234.103L200.68 222.262C201.48 221.836 201.979 221.004 201.979 220.098V219.451C201.979 217.687 200.173 216.5 198.554 217.2L199.228 218.758L198.554 217.2L178.247 225.976L169.755 218.206C168.181 216.767 165.647 217.883 165.647 220.016V223.206C165.647 223.879 165.923 224.522 166.412 224.985L175.618 233.718Z" fill="white" stroke="black" stroke-width="3.39566"/>
<path d="M94.7002 322.605H207.086L186.064 313.47L191.874 295.875L170.882 313.47L161.74 299.597L156.323 312.793L142.102 305.687L140.071 318.207L105.196 305.687L109.259 317.53L85.897 309.409L94.7002 322.605Z" fill="black"/>
<path fill-rule="evenodd" clip-rule="evenodd" d="M197.634 151.439L205.835 161.68L206.874 145.988L203.781 153.671L193.921 138.995L191.998 153.534L180.123 139.816L175.762 158.488L162.311 144.686C163.786 140.371 166.257 136.327 169.719 132.917C181.607 121.209 200.685 121.405 212.33 133.355C223.975 145.305 223.778 164.483 211.89 176.192C200.002 187.9 180.925 187.704 169.28 175.754C168.068 174.511 166.985 173.189 166.029 171.806L181.014 176.093L184.739 155.283L196.113 167.325L197.634 151.439Z" fill="black"/>
<path d="M198.097 136.473C200.59 135.98 202.468 134.17 203.55 131.849C204.633 129.526 204.971 126.609 204.383 123.633C203.796 120.657 202.374 118.087 200.489 116.35C198.606 114.614 196.18 113.655 193.688 114.147C191.195 114.639 189.317 116.449 188.234 118.771C187.152 121.093 186.814 124.011 187.401 126.987C187.989 129.963 189.411 132.533 191.296 134.269C193.179 136.005 195.604 136.965 198.097 136.473Z" fill="white" stroke="black" stroke-width="2.50991"/>
<path fill-rule="evenodd" clip-rule="evenodd" d="M194.853 130.908C196.553 130.544 197.337 127.413 196.594 123.916C195.858 120.387 193.873 117.863 192.173 118.227C190.97 118.479 189.93 119.443 190.245 121.449L194.209 122.765L191.178 124.625C191.361 125.321 191.511 126.026 191.626 126.737C192.108 130.03 193.423 131.206 194.853 130.908Z" fill="black"/>
<path d="M194.483 113.107C190.736 113.218 187.744 119.604 186.93 123.768C192.861 119.771 196.824 117.387 201.102 117.138C199.656 113.528 197.694 113.012 194.483 113.107Z" fill="black"/>
<path d="M179.401 131.616C180.877 131.324 181.946 130.26 182.542 128.982C183.139 127.702 183.313 126.125 183 124.54C182.687 122.955 181.926 121.563 180.888 120.606C179.851 119.65 178.458 119.072 176.981 119.364C175.505 119.655 174.436 120.72 173.84 121.998C173.244 123.278 173.069 124.855 173.382 126.44C173.695 128.025 174.456 129.417 175.494 130.374C176.532 131.329 177.925 131.907 179.401 131.616Z" fill="white" stroke="black" stroke-width="2.50991"/>
<path fill-rule="evenodd" clip-rule="evenodd" d="M177.503 128.873C178.538 128.651 179.015 126.746 178.563 124.618C178.115 122.47 176.907 120.934 175.872 121.155C175.14 121.308 174.507 121.895 174.699 123.116L177.111 123.917L175.267 125.049C175.378 125.473 175.469 125.902 175.54 126.335C175.833 128.339 176.633 129.054 177.503 128.873Z" fill="black"/>
<path d="M177.496 119.475C175.65 119.53 174.265 119.871 173.864 121.924C176.758 121.598 178.951 121.635 181.455 122.868C180.743 121.089 179.079 119.429 177.496 119.475Z" fill="black"/>
<path d="M231.443 162.541C225.345 167.833 216.106 167.345 216.106 167.345C216.106 167.345 216.788 158.09 222.886 152.799C228.984 147.508 238.223 147.995 238.223 147.995C238.223 147.995 237.541 157.25 231.443 162.541Z" fill="black"/>
<path d="M220.34 178.099C220.159 184.388 216.119 189.494 216.119 189.494C216.119 189.494 212.338 184.358 212.519 178.069C212.7 171.78 216.74 166.674 216.74 166.674C216.74 166.674 220.521 171.81 220.34 178.099Z" fill="black"/>
<path d="M227.193 168.7C232.266 171.53 234.653 176.89 234.653 176.89C234.653 176.89 228.761 177.668 223.687 174.837C218.614 172.007 216.227 166.648 216.227 166.648C216.227 166.648 222.119 165.87 227.193 168.7Z" fill="black"/>
<defs>
<clipPath id="clip0_4313_193348">
<rect width="359.376" height="316.994" fill="white" transform="translate(37.1826 3.83154)"/>
</clipPath>
</defs>
</svg>
