<svg width="426" height="278" viewBox="0 0 426 278" fill="none" xmlns="http://www.w3.org/2000/svg">
<g clip-path="url(#clip0_4313_193718)">
<circle cx="215.328" cy="157.679" r="157.013" fill="#F0F2F5"/>
</g>
<path d="M181.449 222.128L181.937 223.725L225.559 220.263L225.77 220.246L225.949 220.133L263.765 196.171L266.255 194.594H263.307H230.441H230.217L230.021 194.704L181.449 222.128Z" fill="#F0F2F5" stroke="#828892" stroke-width="1.71045"/>
<mask id="path-3-outside-1_4313_193718" maskUnits="userSpaceOnUse" x="224.562" y="191.475" width="41" height="33" fill="black">
<rect fill="white" x="224.562" y="191.475" width="41" height="33"/>
<path d="M263.169 199.054V195.475L226.562 218.653L229.282 221.713L263.169 199.054Z"/>
</mask>
<path d="M263.169 199.054V195.475L226.562 218.653L229.282 221.713L263.169 199.054Z" fill="#F0F2F5"/>
<path d="M263.169 195.475H264.879V192.368L262.254 194.03L263.169 195.475ZM263.169 199.054L264.12 200.476L264.879 199.968V199.054H263.169ZM229.282 221.713L228.004 222.849L228.994 223.963L230.233 223.135L229.282 221.713ZM226.562 218.653L225.647 217.208C225.223 217.476 224.938 217.918 224.868 218.415C224.798 218.912 224.95 219.414 225.284 219.789L226.562 218.653ZM261.458 195.475V199.054H264.879V195.475H261.458ZM262.218 197.632L228.331 220.291L230.233 223.135L264.12 200.476L262.218 197.632ZM230.56 220.577L227.84 217.517L225.284 219.789L228.004 222.849L230.56 220.577ZM227.477 220.098L264.084 196.92L262.254 194.03L225.647 217.208L227.477 220.098Z" fill="#828892" mask="url(#path-3-outside-1_4313_193718)"/>
<path d="M148.603 184.445L147.322 184.779L148.153 185.81L179.515 224.694L179.804 225.053L180.263 225.009L226.128 220.58L227.587 220.439L226.747 219.238L194.431 173.07L194.09 172.583L193.515 172.733L148.603 184.445Z" fill="#F0F2F5" stroke="#828892" stroke-width="1.71045"/>
<path d="M179.962 223.163C179.658 223.195 179.394 223.387 179.27 223.666C179.146 223.946 179.18 224.27 179.36 224.517L181.436 227.363C181.614 227.607 181.906 227.739 182.206 227.711L228.181 223.444C228.487 223.416 228.753 223.226 228.88 222.948C229.008 222.669 228.976 222.344 228.798 222.094L226.385 218.727C226.206 218.477 225.906 218.342 225.6 218.374L179.962 223.163Z" fill="#F0F2F5" stroke="#828892" stroke-width="1.71045" stroke-linejoin="round"/>
<g clip-path="url(#clip1_4313_193718)">
<path d="M174.394 199.84C173.364 199.999 171.922 199.324 171.163 198.326C170.396 197.32 170.598 196.345 171.629 196.161C172.674 195.975 174.161 196.668 174.926 197.7C175.683 198.722 175.437 199.679 174.394 199.84Z" fill="#828892"/>
<path d="M174.61 197.753C175.245 198.607 175.042 199.406 174.17 199.543C173.307 199.678 172.102 199.113 171.467 198.276C170.826 197.433 170.996 196.621 171.861 196.469C172.733 196.315 173.97 196.892 174.61 197.753Z" fill="#828892"/>
<path d="M180.138 200.335C180.752 201.182 180.508 201.964 179.606 202.088C178.713 202.211 177.5 201.643 176.883 200.813C176.262 199.977 176.474 199.182 177.369 199.042C178.273 198.9 179.519 199.482 180.138 200.335Z" fill="#828892"/>
<path d="M185.706 202.936C186.299 203.775 186.013 204.541 185.08 204.653C184.157 204.763 182.935 204.191 182.338 203.369C181.737 202.54 181.991 201.761 182.917 201.633C183.853 201.505 185.107 202.09 185.706 202.936Z" fill="#828892"/>
<path d="M189.419 210.708C188.324 210.801 186.9 210.13 186.228 209.205C185.549 208.272 185.877 207.414 186.977 207.299C188.089 207.183 189.558 207.872 190.231 208.827C190.899 209.773 190.527 210.614 189.419 210.708Z" fill="#828892"/>
<path d="M189.896 208.859C190.455 209.65 190.148 210.352 189.221 210.432C188.304 210.511 187.114 209.95 186.551 209.175C185.984 208.393 186.26 207.679 187.181 207.584C188.111 207.489 189.332 208.062 189.896 208.859Z" fill="#828892"/>
<path d="M192.828 202.021C193.414 202.896 193.063 203.698 192.058 203.818C191.063 203.937 189.79 203.344 189.2 202.487C188.605 201.624 188.921 200.808 189.919 200.67C190.929 200.531 192.238 201.139 192.828 202.021Z" fill="#828892"/>
<path d="M179.091 203.786C179.689 204.591 179.461 205.325 178.593 205.428C177.733 205.531 176.559 204.978 175.958 204.188C175.353 203.392 175.552 202.646 176.413 202.528C177.284 202.408 178.488 202.973 179.091 203.786Z" fill="#828892"/>
<path d="M180.911 198.833C179.802 199.004 178.301 198.304 177.545 197.265C176.782 196.215 177.049 195.193 178.161 194.995C179.287 194.794 180.837 195.513 181.598 196.59C182.35 197.657 182.033 198.659 180.911 198.833Z" fill="#828892"/>
<path d="M181.257 196.647C181.888 197.539 181.627 198.376 180.688 198.523C179.759 198.668 178.504 198.083 177.871 197.211C177.233 196.331 177.46 195.48 178.391 195.316C179.332 195.15 180.621 195.748 181.257 196.647Z" fill="#828892"/>
<path d="M191.313 205.555C191.885 206.386 191.557 207.135 190.593 207.234C189.638 207.332 188.408 206.755 187.832 205.941C187.251 205.12 187.546 204.358 188.505 204.243C189.472 204.127 190.736 204.717 191.313 205.555Z" fill="#828892"/>
<path d="M196.307 210.075C195.131 210.176 193.649 209.481 192.985 208.519C192.314 207.548 192.715 206.651 193.898 206.528C195.095 206.403 196.626 207.117 197.29 208.112C197.947 209.097 197.498 209.974 196.307 210.075Z" fill="#828892"/>
<path d="M196.928 208.146C197.48 208.969 197.108 209.702 196.112 209.788C195.126 209.874 193.887 209.293 193.332 208.486C192.771 207.673 193.109 206.926 194.099 206.824C195.1 206.721 196.373 207.315 196.928 208.146Z" fill="#828892"/>
<path d="M187.934 197.747C186.738 197.932 185.172 197.206 184.422 196.12C183.665 195.024 184.009 193.95 185.21 193.736C186.427 193.518 188.047 194.265 188.799 195.392C189.544 196.507 189.146 197.56 187.934 197.747Z" fill="#828892"/>
<path d="M184.775 196.062C185.402 196.973 186.712 197.58 187.714 197.423C188.728 197.264 189.056 196.385 188.432 195.453C187.802 194.513 186.456 193.892 185.438 194.072C184.432 194.249 184.142 195.143 184.775 196.062Z" fill="#828892"/>
<path d="M183.515 199.839C184.127 200.704 185.391 201.293 186.353 201.161C187.324 201.027 187.63 200.207 187.022 199.324C186.408 198.433 185.109 197.83 184.134 197.983C183.17 198.134 182.899 198.967 183.515 199.839Z" fill="#828892"/>
<path d="M181.237 206.673C181.819 207.456 183.001 208.013 183.89 207.922C184.787 207.83 185.055 207.112 184.475 206.313C183.892 205.509 182.679 204.94 181.779 205.047C180.888 205.154 180.651 205.884 181.237 206.673Z" fill="#828892"/>
<path d="M182.94 211.212C181.918 211.299 180.548 210.65 179.87 209.759C179.185 208.86 179.448 208.037 180.473 207.93C181.51 207.821 182.921 208.487 183.603 209.406C184.278 210.317 183.973 211.124 182.94 211.212Z" fill="#828892"/>
<path d="M180.171 209.731C180.739 210.479 181.884 211.021 182.741 210.947C183.605 210.872 183.856 210.198 183.29 209.436C182.72 208.669 181.546 208.115 180.68 208.204C179.821 208.292 179.599 208.978 180.171 209.731Z" fill="#828892"/>
</g>
<path fill-rule="evenodd" clip-rule="evenodd" d="M217.321 130.002L230.189 137.747L225.092 120.488L224.81 129.963L208.403 118.112L212.094 134.484L193.902 124.462L196.609 146.238L176.69 136.749C176.566 131.532 177.62 126.21 179.991 121.176C188.129 103.895 208.706 96.5453 225.951 104.76C243.196 112.976 250.579 133.645 242.44 150.926C234.302 168.208 213.725 175.557 196.48 167.342C194.687 166.488 193 165.499 191.426 164.393L209.224 163.058L204.986 139.24L221.977 147.661L217.321 130.002Z" fill="#828892"/>
<path fill-rule="evenodd" clip-rule="evenodd" d="M119.076 144.496L106.208 152.24L111.305 134.981L111.587 144.456L127.994 132.606L124.303 148.978L142.495 138.956L139.788 160.732L159.707 151.243C159.831 146.025 158.777 140.704 156.406 135.67C148.268 118.388 127.691 111.039 110.446 119.254C93.2008 127.469 85.8182 148.138 93.9565 165.42C102.095 182.701 122.672 190.051 139.917 181.836C141.71 180.981 143.397 179.992 144.97 178.887L127.173 177.552L131.411 153.733L114.42 162.155L119.076 144.496Z" fill="#828892"/>
<path d="M302.215 199.481C293.245 187.903 295.327 171.202 306.866 162.181C318.405 153.159 335.031 155.232 344.001 166.811C352.971 178.39 350.889 195.09 339.35 204.112C327.811 213.134 311.185 211.06 302.215 199.481Z" fill="#828892"/>
<path d="M76.721 232.264C63.0968 235.944 51.9521 225.417 48.0827 219.693C55.5316 219.37 72.2556 218.178 79.561 215.991C86.8665 213.804 94.8581 208.924 97.9407 206.757C96.5443 213.726 90.3453 228.583 76.721 232.264Z" fill="#828892"/>
<path d="M353.935 230.44C346.83 237.14 336.51 235.862 332.238 234.385C336.685 231.565 346.514 225.001 350.252 221.301C353.991 217.602 357.252 212.313 358.416 210.131C359.882 214.109 361.039 223.74 353.935 230.44Z" fill="#828892"/>
<path d="M318.891 234.364C312.017 230.058 312.031 221.257 312.897 217.395C315.952 220.408 323.006 226.99 326.78 229.215C330.555 231.441 335.72 232.906 337.831 233.36C334.382 235.489 325.765 238.67 318.891 234.364Z" fill="#828892"/>
<path d="M116.208 191.318C104.237 198.792 104.36 214.122 105.918 220.853C111.226 215.617 123.485 204.179 130.061 200.317C136.636 196.455 145.651 193.923 149.337 193.141C143.282 189.419 128.179 183.845 116.208 191.318Z" fill="#828892"/>
<path d="M273.277 209.363C260.764 221.637 242.291 217.018 234.619 213.174C242.489 208.293 259.872 196.827 266.452 190.014C273.032 183.202 278.716 173.055 280.736 168.834C283.464 177.229 285.791 197.088 273.277 209.363Z" fill="#828892"/>
<path d="M251.001 160.527C238.782 164.803 235.804 178.547 235.842 184.884C241.647 181.268 254.922 173.503 261.584 171.372C268.247 169.24 276.825 168.792 280.28 168.834C275.612 164.283 263.22 156.252 251.001 160.527Z" fill="#828892"/>
<path d="M255.523 111.907C252.271 121.55 241.916 126.915 241.916 126.915C241.916 126.915 236.752 116.42 240.004 106.777C243.256 97.1343 253.611 91.7686 253.611 91.7686C253.611 91.7686 258.775 102.263 255.523 111.907Z" fill="#828892"/>
<path d="M253.381 135.903C257.197 142.855 256.063 150.984 256.063 150.984C256.063 150.984 248.676 147.813 244.86 140.862C241.043 133.91 242.177 125.781 242.177 125.781C242.177 125.781 249.564 128.952 253.381 135.903Z" fill="#828892"/>
<path d="M254.833 121.314C262.154 121.153 268.168 125.457 268.168 125.457C268.168 125.457 262.26 130.062 254.939 130.223C247.617 130.384 241.603 126.08 241.603 126.08C241.603 126.08 247.512 121.475 254.833 121.314Z" fill="#828892"/>
<path d="M352.388 200.624C346.238 203.078 339.214 200.209 339.214 200.209C339.214 200.209 342.237 193.225 348.387 190.771C354.537 188.317 361.561 191.186 361.561 191.186C361.561 191.186 358.538 198.17 352.388 200.624Z" fill="#828892"/>
<path d="M339.593 209.68C337.757 214.502 333.251 217.367 333.251 217.367C333.251 217.367 331.708 212.37 333.543 207.548C335.379 202.726 339.886 199.861 339.886 199.861C339.886 199.861 341.429 204.858 339.593 209.68Z" fill="#828892"/>
<path d="M347.435 204.249C350.601 207.809 351.005 212.603 351.005 212.603C351.005 212.603 346.231 211.617 343.065 208.057C339.898 204.497 339.495 199.702 339.495 199.702C339.495 199.702 344.268 200.689 347.435 204.249Z" fill="#828892"/>
<path d="M79.3165 142.905C82.5687 152.548 92.923 157.914 92.923 157.914C92.923 157.914 98.0875 147.419 94.8352 137.776C91.583 128.133 81.2287 122.767 81.2287 122.767C81.2287 122.767 76.0643 133.262 79.3165 142.905Z" fill="#828892"/>
<path d="M81.4587 166.902C77.6423 173.853 78.7763 181.982 78.7763 181.982C78.7763 181.982 86.163 178.812 89.9795 171.86C93.7959 164.909 92.6619 156.78 92.6619 156.78C92.6619 156.78 85.2752 159.95 81.4587 166.902Z" fill="#828892"/>
<path d="M80.0065 152.313C72.6854 152.152 66.6712 156.455 66.6712 156.455C66.6712 156.455 72.5797 161.06 79.9008 161.221C87.2219 161.382 93.2361 157.079 93.2361 157.079C93.2361 157.079 87.3276 152.474 80.0065 152.313Z" fill="#828892"/>
<path d="M184.391 277.341H281.011L284.139 249.902L262.591 267.963L265.388 257.067L247.646 267.269L233.049 259.975L230.963 272.826L195.165 259.975L199.336 272.131L175.355 263.795L184.391 277.341Z" fill="#828892"/>
<path d="M375.157 277.341H278.538L290.043 253.723L296.958 267.963L306.342 253.723L311.903 267.268L326.5 259.975L328.585 272.826L364.383 259.975L360.213 272.131L384.194 263.795L375.157 277.341Z" fill="#828892"/>
<path d="M69.8782 277.546H185.24L163.661 268.168L169.626 250.107L148.078 268.168L138.694 253.928L133.133 267.473L118.536 260.179L116.45 273.03L80.6523 260.179L84.8229 272.336L60.8418 264L69.8782 277.546Z" fill="#828892"/>
<path d="M338.98 200.358C352.082 240.906 312.276 242.386 326.049 275.241" stroke="#828892" stroke-width="6.15311"/>
<path d="M94.7213 156.101C70.9224 218.852 141.008 224.393 115.991 275.241" stroke="#828892" stroke-width="7.38373"/>
<path d="M206.817 117.457C209.372 116.789 211.206 114.794 212.183 112.317C213.16 109.84 213.327 106.792 212.53 103.742C211.733 100.692 210.097 98.116 208.033 96.4332C205.97 94.7511 203.394 93.9079 200.839 94.5754C198.284 95.243 196.45 97.2384 195.473 99.7147C194.496 102.192 194.329 105.24 195.126 108.29C195.923 111.34 197.559 113.916 199.623 115.599C201.686 117.281 204.262 118.124 206.817 117.457Z" fill="#F0F2F5" stroke="#828892" stroke-width="2.60833"/>
<path d="M129.436 123.57C131.79 122.955 133.471 121.119 134.363 118.857C135.255 116.595 135.406 113.818 134.681 111.043C133.956 108.269 132.466 105.92 130.581 104.383C128.697 102.847 126.333 102.068 123.979 102.683C121.625 103.298 119.944 105.134 119.052 107.395C118.16 109.658 118.009 112.435 118.734 115.21C119.459 117.984 120.949 120.333 122.834 121.87C124.718 123.406 127.083 124.185 129.436 123.57Z" fill="#F0F2F5" stroke="#828892" stroke-width="2.60833"/>
<path d="M185.032 122.287C186.638 121.85 187.693 120.541 188.211 119.055C188.73 117.561 188.769 115.757 188.284 113.974C187.8 112.191 186.853 110.654 185.649 109.629C184.451 108.609 182.878 108.014 181.272 108.451C179.666 108.887 178.611 110.196 178.094 111.683C177.574 113.176 177.535 114.98 178.02 116.764C178.505 118.547 179.451 120.083 180.655 121.108C181.854 122.128 183.426 122.723 185.032 122.287Z" fill="#F0F2F5" stroke="#828892" stroke-width="2.60833"/>
<path d="M145.184 126.85C146.82 127.154 148.339 126.434 149.451 125.32C150.568 124.201 151.387 122.593 151.726 120.776C152.064 118.959 151.879 117.165 151.24 115.718C150.604 114.278 149.446 113.059 147.81 112.754C146.174 112.45 144.655 113.17 143.543 114.284C142.426 115.403 141.607 117.011 141.269 118.828C140.93 120.645 141.115 122.44 141.754 123.886C142.39 125.326 143.548 126.545 145.184 126.85Z" fill="#F0F2F5" stroke="#828892" stroke-width="2.60833"/>
<path d="M202.589 101.913C198.247 104.128 194.837 104.081 193.675 103.78L198.811 94.6689L209.282 95.6303C208.861 96.8012 206.932 99.6968 202.589 101.913Z" fill="#828892"/>
<path d="M233.863 121.161L237.329 122.723C260.726 133.267 277.693 154.334 283.009 179.441V179.441C290.22 213.501 274.718 248.337 244.588 265.781L233.863 271.99" stroke="#828892" stroke-width="7.38373"/>
<ellipse cx="204.768" cy="113.301" rx="5.77792" ry="4.83753" fill="#828892"/>
<path d="M181.764 112.535C179.357 113.352 177.601 113.071 177.025 112.828L180.359 108.514L185.689 109.797C185.384 110.369 184.171 111.718 181.764 112.535Z" fill="#828892"/>
<circle cx="184.489" cy="120.508" r="3.33633" fill="#828892"/>
<path fill-rule="evenodd" clip-rule="evenodd" d="M128.837 122.044C127.035 121.902 125.798 118.785 126.082 115.081C126.355 111.344 128.053 108.472 129.855 108.613C131.129 108.707 132.332 109.557 132.283 111.666L128.381 113.566L131.759 115.066C131.666 115.809 131.609 116.555 131.587 117.304C131.543 120.763 130.35 122.154 128.837 122.044Z" fill="#828892"/>
<path d="M328.941 169.047C331.128 169.345 333.182 168.387 334.725 166.784C336.269 165.18 337.369 162.878 337.725 160.267C338.081 157.655 337.636 155.143 336.577 153.185C335.518 151.227 333.796 149.755 331.609 149.457C329.421 149.159 327.368 150.117 325.824 151.72C324.28 153.324 323.18 155.626 322.824 158.237C322.469 160.849 322.913 163.361 323.972 165.319C325.031 167.277 326.753 168.749 328.941 169.047Z" fill="#F0F2F5" stroke="#828892" stroke-width="2.18052"/>
<path fill-rule="evenodd" clip-rule="evenodd" d="M327.238 167.329C325.437 167.188 324.199 164.071 324.483 160.366C324.757 156.629 326.455 153.757 328.256 153.898C329.53 153.992 330.734 154.842 330.684 156.952L326.783 158.851L330.16 160.352C330.067 161.094 330.01 161.841 329.989 162.59C329.944 166.048 328.752 167.439 327.238 167.329Z" fill="#828892"/>
<path fill-rule="evenodd" clip-rule="evenodd" d="M146.026 125.413C147.173 125.73 148.639 124.079 149.296 121.722C149.966 119.347 149.56 117.187 148.413 116.87C147.604 116.642 146.667 116.898 146.224 118.214L148.213 120.267L145.785 120.437C145.675 120.917 145.543 121.393 145.388 121.861C144.638 124.012 145.064 125.141 146.026 125.413Z" fill="#828892"/>
<path d="M119.8 92.4643C120.218 94.2227 122.01 97.9404 125.829 98.7442C129.647 99.548 132.611 99.0791 133.616 98.7442" stroke="#828892" stroke-width="2.60833"/>
<path d="M143.982 106.016C145.332 107.181 148.681 109.235 151.276 108.129C153.871 107.023 155.189 105.323 155.523 104.611" stroke="#828892" stroke-width="2.60833"/>
<path d="M340.382 148.897C340.382 148.897 337.781 143.524 334.094 142.39C330.406 141.257 325.132 144.302 325.132 144.302" stroke="#828892" stroke-width="2.60833"/>
<path d="M314.879 148.929C314.879 148.929 311.231 146.139 308.135 146.514C305.04 146.89 302.108 150.545 302.108 150.545" stroke="#828892" stroke-width="2.60833"/>
<path d="M311.812 165.727C313.467 165.549 314.715 164.422 315.459 163.035C316.207 161.642 316.529 159.866 316.331 158.029C316.133 156.192 315.439 154.526 314.411 153.324C313.388 152.128 311.929 151.293 310.274 151.472C308.619 151.651 307.372 152.777 306.627 154.164C305.879 155.557 305.557 157.333 305.755 159.17C305.953 161.007 306.647 162.673 307.675 163.875C308.698 165.071 310.157 165.906 311.812 165.727Z" fill="#F0F2F5" stroke="#828892" stroke-width="2.60833"/>
<path fill-rule="evenodd" clip-rule="evenodd" d="M309.248 164.579C308.034 164.483 307.199 162.382 307.391 159.885C307.575 157.365 308.72 155.429 309.935 155.524C310.793 155.587 311.605 156.161 311.572 157.583L308.941 158.863L311.218 159.875C311.156 160.375 311.117 160.879 311.103 161.384C311.073 163.715 310.269 164.653 309.248 164.579Z" fill="#828892"/>
<defs>
<clipPath id="clip0_4313_193718">
<rect width="313.803" height="276.796" fill="white" transform="translate(58.4756 0.75)"/>
</clipPath>
<clipPath id="clip1_4313_193718">
<rect width="21.5019" height="21.5019" fill="white" transform="translate(170.403 196.575) rotate(-19.6598)"/>
</clipPath>
</defs>
</svg>
