<svg width="426" height="343" viewBox="0 0 426 343" fill="none" xmlns="http://www.w3.org/2000/svg">
<g clip-path="url(#clip0_4313_192541)">
<circle cx="215.822" cy="191.704" r="179.815" fill="#FFE75C"/>
<mask id="mask0_4313_192541" style="mask-type:alpha" maskUnits="userSpaceOnUse" x="36" y="11" width="360" height="361">
<circle cx="215.821" cy="191.705" r="179.815" fill="#FFE75C"/>
</mask>
<g mask="url(#mask0_4313_192541)">
<path d="M-68.3913 209.851C-66.9184 208.692 -65.361 208.912 -63.9718 210.352C-63.8365 210.48 -63.8448 210.48 -63.9987 210.352C-64.6608 206.554 -58.5008 207.915 -56.1521 208.68C-56.9368 202.883 -51.5473 204.451 -47.9408 203.425C-49.2247 200.396 -47.3489 198.602 -44.217 199.334C-47.5268 196.798 -45.0973 193.702 -41.6015 192.957C-42.6724 191.503 -42.301 189.819 -40.837 188.512C-40.4522 188.554 -40.1585 189.042 -39.7848 189.191C-40.7653 183.058 -33.1444 186.215 -31.5093 189.554C-31.4951 189.019 -31.4428 188.378 -31.4704 187.867C-28.8878 188.167 -26.6623 190.687 -25.4681 193.02C-22.5455 192.126 -20.258 195.346 -19.9381 198.137C-15.615 196.191 -9.81157 198.529 -6.56158 197.164C-3.74876 195.985 -3.87131 191.016 0.459274 193.114C0.349419 193.413 0.221634 194.761 0.198471 194.877C0.862068 190.785 6.12452 190.287 9.36629 191.496C9.60468 187.554 12.5953 185.71 16.4611 186.255C16.5246 183.196 20.1288 180.503 21.7026 183.934C25.0259 182.996 26.7648 187.191 25.8665 189.999C29.4835 189.624 30.996 192.26 30.3436 195.593C35.2885 194.845 34.4149 200.561 32.6729 203.467C36.6553 201.82 36.1239 206.269 35.5396 208.959C40.3671 207.606 41.3685 210.72 39.276 214.274C40.3865 214.212 41.4925 214.46 42.4702 214.991C43.448 215.522 44.2591 216.315 44.8127 217.282C47.9514 215.898 50.126 218.568 48.192 221.39C49.8099 220.642 51.3941 219.561 52.95 218.75C53.5284 215.406 56.0491 212.496 58.8701 210.669C54.4072 209.311 57.5212 204.573 61.0589 205.018C61.387 202.038 65.2841 203.849 65.7415 206.449C68.6858 205.169 70.1595 207.614 69.8195 210.556C71.0443 207.861 72.9088 206.792 75.0132 208.65C76.2971 206.519 78.9208 206.036 81.2763 206.692C81.0999 206.548 80.8772 203.772 82.7664 203.042C80.0201 201.796 79.8676 198.755 82.3105 196.828C80.7031 197.029 79.21 196.188 77.705 196.051C78.5083 194.675 78.5479 193.609 80.5312 193.118C75.5415 191.354 81.839 187.385 84.9298 187.814C78.6682 184.803 89.9173 183.004 91.713 182.584C88.614 178.022 98.0942 176.877 101.012 176.894C97.169 175 94.6417 168.792 101.311 169.143C94.1544 166.992 103.81 165.007 106.216 164.938C102.039 161.359 107.554 157.172 111.477 160.024C115.976 151.332 122.709 161.857 122.709 161.857C122.709 161.857 134.531 158.776 130.501 164.478C134.776 163.787 135.904 166.178 137.498 165.282C132.649 160.939 139.605 160.198 142.719 159.715C141.224 156.987 137.007 150.956 144.593 152.261C141.539 145.128 151.767 149.055 151.767 149.055C151.767 149.055 153.555 145.83 157.27 148.837C159.085 150.305 160.547 153.247 161.459 155.257C164.7 153.198 168.66 155.608 171.067 158.247C178.454 151.959 182.974 160.853 182.974 160.853C182.974 160.853 186.372 158.248 189.66 159.098C193.186 160.01 196.775 161.382 197.865 165.012C200.45 159.45 208.248 163.2 203.13 169.383C206.609 163.907 214.18 168.784 207.209 174.22C212.046 171.204 211.138 180.004 207.128 181.395C213.339 184.015 210.491 191.19 205.605 195.245C203.747 190.637 213.483 191.19 209.394 197.755C209.186 189.595 219.175 191.759 214.237 199.642C214.713 192.549 224.056 194.205 221.31 201.514C221.846 194.913 232.166 197.908 226.167 203.868C227.641 202.709 229.786 205.44 230.214 210.347C230.231 210.532 230.34 210.474 230.187 210.347C229.524 206.549 235.685 207.91 238.033 208.675C237.25 202.878 242.639 204.445 246.245 203.42C244.962 200.391 246.836 198.597 249.969 199.328C246.66 196.793 249.087 193.697 252.585 192.951C251.514 191.497 251.885 189.814 253.348 188.507C253.733 188.549 254.027 189.037 254.401 189.186C253.421 183.053 261.043 186.21 262.677 189.549C262.69 189.013 262.743 188.373 262.714 187.862C265.298 188.161 267.525 190.682 268.717 193.015C271.641 192.12 273.928 195.341 274.247 198.132C278.57 196.185 284.373 198.524 287.624 197.159C290.438 195.98 290.314 191.011 294.649 193.108C294.537 193.408 294.411 194.756 294.386 194.872C295.051 190.779 300.313 190.282 303.555 191.491C303.794 187.549 306.785 185.705 310.654 186.25C310.717 183.191 314.321 180.497 315.896 183.929C319.218 182.991 320.957 187.186 320.059 189.993C323.676 189.619 325.188 192.254 324.537 195.588C329.48 194.839 328.608 200.556 326.865 203.462C330.847 201.815 330.316 206.264 329.733 208.954C334.559 207.601 335.561 210.715 333.469 214.269C334.579 214.207 335.685 214.455 336.663 214.986C337.641 215.517 338.452 216.31 339.005 217.277C342.144 215.893 344.319 218.563 342.386 221.385C344.003 220.637 345.588 219.556 347.144 218.745C347.722 215.4 350.242 212.491 353.063 210.664C348.6 209.306 351.714 204.567 355.252 205.013C355.579 202.032 359.479 203.843 359.934 206.444C362.879 205.163 364.353 207.609 364.012 210.551C366.105 209.264 367.951 207.182 370.619 207.284C369.826 208.188 370.369 207.972 369.206 208.645C370.49 206.514 373.114 206.03 375.47 206.687C375.141 206.471 374.793 206.286 374.43 206.135C375.267 204.769 375.07 203.769 376.96 203.036C374.212 201.791 374.061 198.75 376.504 196.823C374.896 197.024 373.402 196.182 371.899 196.046C372.701 194.669 372.741 193.603 374.723 193.113C369.734 191.349 376.032 187.38 379.122 187.809C372.862 184.798 384.111 182.999 385.907 182.579C382.807 178.017 392.287 176.872 395.204 176.889C391.362 174.995 388.836 168.787 395.503 169.137C388.347 166.986 398.002 165.002 400.408 164.933C396.231 161.354 401.747 157.167 405.669 160.019C406.584 152.031 414.911 159.045 417.941 159.794C420.087 160.328 428.723 158.77 424.692 164.475C428.969 163.784 430.097 166.176 431.691 165.279C426.841 160.937 433.797 160.196 436.91 159.713C435.416 156.984 431.199 150.954 438.786 152.259C435.732 145.126 443.304 148.807 445.96 149.052C448.316 149.27 448.582 147.247 451.463 148.834C453.508 149.957 454.74 153.245 455.652 155.255C458.894 153.195 462.854 155.605 465.26 158.245C468.848 152.745 473.613 160.582 477.169 160.851C478.86 160.979 480.566 158.246 483.852 159.096C487.378 160.007 489.294 162.887 492.056 165.01V355.765H-68.4062L-68.3913 209.851Z" fill="#FFC619"/>
<path d="M56.47 128.841C56.47 128.841 58.2142 210.696 54.7266 240.143H65.1887C65.1887 240.143 64.4414 157.042 58.2142 128.841H56.47Z" fill="#FFC619"/>
<path d="M86.6609 111.81C62.2991 112.907 59.8375 123.053 59.8375 123.053C56.2789 106.874 45.878 107.423 45.878 107.423C46.9728 112.359 49.4366 119.763 49.4366 119.763C23.1602 113.181 16.043 128.263 16.043 128.263C21.5313 127.039 27.1389 126.433 32.7615 126.456C35.149 124.824 37.699 123.444 40.3704 122.338C40.4307 122.303 40.5025 122.293 40.5699 122.311C40.6374 122.329 40.6951 122.372 40.7303 122.433C40.7654 122.493 40.7752 122.565 40.7575 122.633C40.7398 122.7 40.696 122.758 40.6357 122.793C39.0066 124.027 37.2841 125.209 35.6385 126.462C42.1535 126.561 46.9728 127.164 46.9728 127.164C22.886 142.246 26.9916 157.876 26.9916 157.876C31.5501 156.761 35.7058 152.748 39.0298 148.377C39.3085 145.607 39.5566 142.842 39.7076 140.039C39.711 139.978 39.7374 139.921 39.7814 139.879C39.8254 139.838 39.8836 139.815 39.9441 139.815C40.0046 139.815 40.0629 139.838 40.1069 139.879C40.1508 139.921 40.1772 139.978 40.1806 140.039C40.2299 142.116 40.3682 144.273 40.434 146.442C40.8325 145.865 41.2169 145.291 41.587 144.72C41.7051 142.777 41.7582 140.818 41.6879 138.806C41.6804 138.597 41.9771 138.611 42.0033 138.806C42.1864 140.212 42.3979 141.679 42.5653 143.167C44.2088 140.488 45.6814 137.707 46.9743 134.841C40.1313 154.037 46.9743 172.135 46.9743 172.135C58.7442 159.795 58.4707 137.858 58.4707 137.858C59.4255 143.037 61.2743 148.009 63.9341 152.552C63.7218 150.554 63.6688 148.542 63.7757 146.535C63.7789 146.482 63.8025 146.431 63.8416 146.394C63.8807 146.357 63.9324 146.337 63.9861 146.337C64.0398 146.337 64.0915 146.357 64.1306 146.394C64.1697 146.431 64.1933 146.482 64.1965 146.535C64.5122 149.686 65.1464 152.796 66.0894 155.819C71.6709 163.468 77.9041 166.375 77.9041 166.375C77.6299 155.681 67.5032 136.486 67.5032 136.486C68.8845 137.925 70.3731 139.256 71.9564 140.468C71.3271 138.636 70.6277 136.833 69.8639 135.044C69.7085 134.68 70.204 134.361 70.408 134.725C71.6037 136.861 73.1431 139.431 74.3238 142.105C79.3718 145.257 82.831 145.26 82.831 145.26C81.737 127.985 65.5872 123.05 65.5872 123.05C84.1986 120.585 86.6609 111.81 86.6609 111.81Z" fill="#FFC619"/>
<path d="M150.973 73.5479C150.973 73.5479 172.089 139.778 160.568 190.438H174.528C174.528 190.438 174.664 114.653 152.889 73.5479H150.973Z" fill="#FFC619"/>
<path d="M108.22 66.829C136.257 56.3621 143.895 66.6359 143.895 66.6359C140.169 46.655 152.177 42.2769 152.177 42.2769C153.304 48.3777 154.066 57.9238 154.066 57.9238C180.591 37.8643 195.849 51.4763 195.849 51.4763C189.144 52.5701 182.117 54.9778 176.103 57.4693C172.625 56.7728 169.084 56.4396 165.538 56.4751C165.454 56.4657 165.369 56.4898 165.303 56.5423C165.236 56.5948 165.192 56.6715 165.182 56.7557C165.171 56.84 165.194 56.9251 165.245 56.9926C165.297 57.0602 165.373 57.1047 165.457 57.1167C167.888 57.7276 170.398 58.2345 172.855 58.8611C165.545 62.1043 160.39 65.1011 160.39 65.1011C194.814 70.5588 197.66 90.1811 197.66 90.1811C191.977 91.1139 185.364 88.5767 179.518 85.24C177.878 82.2454 176.272 79.241 174.76 76.1476C174.726 76.0827 174.669 76.0329 174.601 76.008C174.532 75.9831 174.456 75.985 174.389 76.0133C174.322 76.0416 174.268 76.0942 174.237 76.1607C174.207 76.2271 174.203 76.3026 174.225 76.3721C175.165 78.7416 176.041 81.2444 177.005 83.7255C176.277 83.2668 175.568 82.8034 174.879 82.3352C173.815 80.197 172.817 78.011 171.933 75.7036C171.841 75.464 171.513 75.6235 171.578 75.8533C172.043 77.5281 172.507 79.2874 173.03 81.0483C169.891 78.8117 166.896 76.3787 164.063 73.7638C180.982 92.1538 181.918 115.88 181.918 115.88C162.718 107.601 152.524 82.6946 152.524 82.6946C153.925 89.0023 154.217 95.5064 153.388 101.915C152.672 99.5559 151.768 97.2582 150.686 95.0436C150.659 94.9806 150.609 94.9308 150.545 94.9052C150.482 94.8795 150.411 94.8802 150.348 94.907C150.285 94.9338 150.235 94.9846 150.21 95.0481C150.184 95.1116 150.185 95.1827 150.212 95.2458C151.364 98.9559 152.137 102.774 152.519 106.64C149.877 117.96 144.231 124.24 144.231 124.24C139.419 112.031 141.667 85.4863 141.667 85.4863C140.796 87.7748 139.751 89.9935 138.543 92.1231C138.377 89.7514 138.304 87.3804 138.31 84.9922C138.31 84.507 137.598 84.3843 137.542 84.8941C137.211 87.8827 136.707 91.522 136.654 95.1095C132.462 101.099 128.557 102.762 128.557 102.762C121.522 82.7252 137.397 69.3917 137.397 69.3917C115.202 75.5554 108.22 66.829 108.22 66.829Z" fill="#FFC619"/>
<path d="M320.315 125.107C320.315 125.107 334.785 184.297 340.337 238.932L328.999 240.089C328.999 240.089 328.182 175.674 317.344 125.41L320.315 125.107Z" fill="#FFC619"/>
<path d="M291.412 120.86C290.601 122.1 289.735 123.304 288.883 124.499C284.033 125.147 279.257 126.265 274.622 127.838C274.622 127.838 280.674 110.706 309.878 114.934C309.878 114.934 306.394 107.179 304.663 101.953C304.663 101.953 315.874 100.208 321.513 117.35C321.513 117.35 323.062 106.08 349.346 102.2C349.346 102.2 348.563 106.646 341.953 110.999C340.95 110.367 339.902 109.809 338.818 109.33C338.742 109.295 338.656 109.293 338.578 109.322C338.5 109.351 338.436 109.411 338.402 109.487C338.367 109.563 338.364 109.649 338.394 109.728C338.423 109.806 338.482 109.869 338.558 109.904C339.478 110.365 340.366 110.887 341.216 111.468C340.433 111.95 339.579 112.428 338.642 112.896C337.647 111.997 336.599 111.158 335.504 110.385C335.457 110.351 335.398 110.337 335.341 110.345C335.283 110.352 335.231 110.382 335.194 110.427C335.157 110.472 335.138 110.529 335.142 110.587C335.146 110.646 335.171 110.7 335.213 110.74C336.095 111.56 336.929 112.429 337.711 113.345C334.511 114.803 331.171 115.932 327.743 116.714C327.743 116.714 345.789 120.279 348.88 138.88C346.324 138.92 343.79 138.399 341.456 137.354C341.686 136.299 341.689 135.206 341.467 134.149C341.46 134.134 341.449 134.121 341.435 134.112C341.421 134.103 341.404 134.098 341.388 134.098C341.371 134.098 341.355 134.103 341.341 134.112C341.327 134.121 341.316 134.134 341.309 134.149C340.937 135.055 340.675 136.003 340.53 136.972C339.554 136.543 338.6 136.066 337.672 135.541C338.066 134.837 338.386 134.094 338.626 133.324C338.712 133.039 338.255 132.91 338.137 133.173C337.807 133.862 337.412 134.516 336.955 135.128C334.962 133.934 333.07 132.577 331.3 131.071C331.3 131.071 344.389 150.754 345.865 162.316C345.865 162.316 328.467 156.283 321.66 133.557C322.075 138.219 322.04 142.91 321.557 147.566C320.809 147.979 320.026 148.325 319.217 148.6C319.179 148.615 319.147 148.644 319.129 148.681C319.11 148.718 319.105 148.76 319.115 148.8C319.124 148.841 319.148 148.876 319.182 148.9C319.215 148.924 319.256 148.935 319.298 148.932C320.033 148.818 320.758 148.645 321.465 148.415C321.278 150.085 321.023 151.827 320.682 153.602C319.376 153.263 318.086 152.878 316.815 152.425C316.726 152.389 316.627 152.389 316.538 152.424C316.448 152.46 316.376 152.528 316.336 152.616C316.296 152.703 316.292 152.803 316.323 152.894C316.355 152.985 316.42 153.06 316.506 153.104C317.782 153.747 319.095 154.314 320.438 154.801C319.261 161.013 316.709 166.882 312.971 171.976C312.971 171.976 303.559 153.118 308.863 131.559C307.264 136.331 305.227 140.944 302.779 145.341C302.426 144.68 302.064 144.024 301.694 143.371C301.565 143.146 301.172 143.362 301.296 143.589C301.709 144.35 302.087 145.121 302.465 145.895C302.046 146.619 301.609 147.335 301.156 148.044C300.677 146.817 300.174 145.608 299.636 144.436C299.608 144.376 299.559 144.329 299.498 144.305C299.437 144.28 299.369 144.28 299.308 144.304C299.247 144.328 299.197 144.374 299.169 144.433C299.14 144.493 299.136 144.56 299.156 144.623C299.695 146.053 300.155 147.512 300.531 148.994C297.596 153.361 293.963 157.232 289.745 158.731C289.745 158.731 283.572 142.246 308.018 123.238C303.736 123.198 299.454 123.376 295.19 123.771C295.516 122.681 295.923 121.617 296.406 120.588C296.489 120.415 296.221 120.24 296.115 120.408C295.431 121.508 294.833 122.659 294.326 123.852C292.859 123.995 291.327 124.169 289.759 124.383C290.445 123.297 291.134 122.212 291.743 121.075C291.856 120.875 291.536 120.674 291.412 120.86Z" fill="#FFC619"/>
</g>
</g>
<g clip-path="url(#clip1_4313_192541)">
<path d="M197.823 323.226C197.823 323.226 207.673 239.089 212.096 228.37C216.519 217.651 224.043 203.75 229.861 205.798C235.679 207.845 229.861 254.276 237.043 249.156C244.226 244.035 240.805 197.606 243.882 191.119C246.96 184.632 257.902 164.353 264.402 165.958C270.902 167.563 256.878 211.97 264.402 208.371C271.925 204.771 285.264 154.261 291.078 146.402C296.891 138.542 303.389 129.612 309.545 131.858C315.701 134.104 300.108 161.154 302.603 166.236C305.099 171.317 311.666 137.116 316.419 144.657C321.173 152.198 319.533 176.099 316.419 185.314C313.306 194.529 275.888 220.745 278.009 223.513C280.131 226.282 304.071 211.996 308.175 213.336C312.279 214.676 309.601 230.022 302.047 242.149C294.494 254.276 271.908 250.129 270.207 253.909C268.505 257.69 290.167 253.832 289.707 261.143C289.247 268.454 281.489 279.924 270.207 294.221C258.925 308.517 218.122 317.832 218.122 317.832L197.823 323.226Z" fill="#B175FB"/>
<path d="M190.373 328.688C190.373 328.688 284.405 248.321 324.328 274.363C328.324 276.971 284.798 294.281 290.431 296.422C296.064 298.564 325.747 275.868 333.894 278.638C342.041 281.407 356.991 294.887 354.801 296.637C352.612 298.388 324.515 307.785 330.15 309.927C335.785 312.069 359.266 300.881 364.823 304.244C370.381 307.608 397.075 335.974 395.557 339.087C394.039 342.201 356.023 328.709 315.143 315.602C274.263 302.495 210.016 318.255 190.373 328.688Z" fill="#7E3FCC"/>
<path d="M203.246 318.397C203.246 318.397 220.426 305.874 216.712 239.267C216.898 229.801 210.658 203.224 209.82 198.555C205.75 175.837 193.056 212.712 192.979 224.598C192.901 236.485 187.714 228.709 188.05 218.724C188.387 208.739 192.833 184.383 190.095 176.757C187.356 169.13 161.332 142.128 158.177 145.708C155.023 149.289 161.346 192.057 155.95 184.55C150.555 177.044 151.629 138.604 145.003 131.019C138.378 123.434 109.749 111.089 106.522 115.891C103.296 120.694 125.371 157.925 120.495 154.227C115.619 150.529 101.636 124.553 98.8194 118.151C96.003 111.748 72.8139 143.884 81.0404 153.845C89.2668 163.805 122.043 167.347 131.317 174.812C140.591 182.277 147.805 192.444 139.993 190.356C132.181 188.269 97.5854 171.398 96.1671 180.561C94.7489 189.723 108.035 217.725 127.333 222.133C146.631 226.54 166.031 218.467 173.4 223.937C180.769 229.406 188.409 237.339 181.68 236.072C174.952 234.804 135.791 228.984 138.595 237.084C141.399 245.184 153.328 263.196 169.829 268.468C186.33 273.74 195.845 265.172 197.805 267.087C199.765 269.001 185.129 280.932 179.73 284.088C174.33 287.245 187.578 309.314 203.246 318.397Z" fill="#B175FB"/>
<path d="M132.408 164.567C154.401 187.973 175.96 213.888 190.012 242.985C196.056 255.502 198.569 269.126 199.081 282.928C199.545 295.472 195.046 308.944 197.049 321.23C197.586 324.523 201.458 325.058 203.128 322.314C209.772 311.364 209.147 294.563 208.891 282.128C208.605 267.856 204.726 255.165 198.102 242.607C190.252 227.723 178.664 214.372 168.117 201.338C157.353 188.03 145.244 175.832 132.837 164.063C132.521 163.763 132.121 164.263 132.408 164.568L132.408 164.567Z" fill="#7E3FCC"/>
<path d="M299.732 171.028C282.941 195.976 265.163 220.235 248.029 244.942C239.744 256.894 231.417 268.819 222.864 280.583C214.528 292.049 205.052 304.73 199.678 317.895C199.56 318.204 199.545 318.544 199.636 318.863C199.728 319.181 199.92 319.462 200.184 319.662C200.449 319.862 200.771 319.972 201.103 319.974C201.435 319.977 201.758 319.872 202.026 319.675C212.853 311.932 221.255 300.461 229.606 290.246C239.531 278.111 248.298 264.757 256.9 251.673C273.65 226.183 287.601 199.052 300.419 171.413C300.449 171.324 300.448 171.228 300.414 171.141C300.38 171.054 300.317 170.981 300.235 170.936C300.154 170.89 300.059 170.874 299.967 170.892C299.875 170.909 299.792 170.958 299.732 171.029V171.028Z" fill="#7E3FCC"/>
</g>
<path d="M135.716 328.997H214.95L217.515 302.771L200.763 319.37L192.242 302.771L187.589 319.37L175.618 312.398L173.908 324.681L166.826 302.771L159.455 325.878L128.306 316.05L135.716 328.997Z" fill="black"/>
<path d="M85.3088 328.979H164.543L166.826 302.771L149.437 320.016L141.742 306.405L137.182 319.352L125.211 312.381L123.501 324.664L94.1443 312.381L97.5645 324L77.8984 316.032L85.3088 328.979Z" fill="black"/>
<path d="M284.807 328.997H205.573L213.545 316.05L232.935 302.771V319.37L244.905 312.398L246.615 324.681L253.697 302.771L261.068 325.878L292.218 316.05L284.807 328.997Z" fill="black"/>
<path d="M335.215 328.979H255.98L253.698 302.771L271.086 320.016L278.782 306.405L283.342 319.352L295.312 312.381L297.023 324.664L326.379 312.381L322.959 324L342.625 316.032L335.215 328.979Z" fill="black"/>
<path fill-rule="evenodd" clip-rule="evenodd" d="M174.783 199.071L183.562 211.431L185.821 193.413L181.73 202.06L171.336 184.475L168.135 201.104L155.349 184.489L149.053 205.718L134.453 188.896C136.448 184.022 139.574 179.527 143.803 175.829C158.319 163.137 180.333 164.654 192.972 179.216C205.611 193.779 204.089 215.873 189.573 228.564C175.056 241.256 153.042 239.74 140.403 225.177C139.09 223.664 137.929 222.069 136.92 220.412L153.929 226.366L159.634 202.63L171.955 217.281L174.783 199.071Z" fill="black"/>
<path d="M194.647 205.802C212.591 262.835 156.665 280.06 175.527 326.274" stroke="black" stroke-width="6.07372"/>
<path d="M215.527 261.88C207.119 268.974 195.775 265.216 191.154 262.45C196.309 259.764 207.726 253.405 212.164 249.451C216.602 245.496 220.637 239.414 222.099 236.867C223.411 242.249 223.935 254.786 215.527 261.88Z" fill="black"/>
<path d="M134.028 267.33C119.372 252.138 123.5 229.818 127.395 220.558C133.396 230.099 147.427 251.178 155.54 259.168C163.652 267.159 175.487 274.082 180.391 276.545C171.043 279.804 148.683 282.523 134.028 267.33Z" fill="black"/>
<circle cx="166.904" cy="172.744" r="23.5022" fill="black"/>
<path d="M145.832 191.32L146.416 190.646L145.859 189.949C145.329 189.286 144.783 188.591 144.304 187.866C136.449 175.972 139.734 159.905 151.627 152.05C163.521 144.195 179.547 147.416 187.509 159.333C195.362 171.226 192.077 187.292 180.184 195.147C172.605 200.153 163.282 200.646 155.553 197.253L154.749 196.901L154.244 197.618L120.459 245.635C120.368 245.739 120.185 245.856 119.756 245.866C119.288 245.877 118.647 245.75 117.856 245.457C116.283 244.875 114.388 243.736 112.619 242.354C110.85 240.971 109.288 239.408 108.344 238.029C107.869 237.335 107.592 236.748 107.49 236.297C107.395 235.882 107.467 235.691 107.539 235.591L145.832 191.32ZM177.02 190.497C186.375 184.319 188.884 171.758 182.751 162.473C176.574 153.121 164.079 150.565 154.727 156.742C145.375 162.919 142.82 175.414 148.996 184.766C155.174 194.121 167.735 196.63 177.02 190.497Z" fill="#FEE85B" stroke="black" stroke-width="2.14557"/>
<rect x="214.946" y="228.226" width="55.5687" height="68.228" transform="rotate(-8.65735 214.946 228.226)" fill="white" stroke="black" stroke-width="1.59836"/>
<path d="M229.213 244.978L231.946 244.264L229.818 241.74C230.499 241.114 230.735 240.248 230.549 239.065C230.236 237.073 229.001 236.141 227.082 236.442L223.206 237.05L224.521 245.429L227.056 245.032L226.734 242.979L227.397 242.788L229.213 244.978ZM226.092 238.886L226.973 238.748C227.517 238.663 227.88 238.927 227.965 239.47C228.045 239.978 227.833 240.283 227.287 240.431L226.374 240.685L226.092 238.886ZM237.241 239.438C236.998 237.892 235.942 237.229 234.155 237.509C232.042 237.841 231.18 239.127 231.542 241.433C231.881 243.594 232.946 244.231 235.665 243.903L237.122 243.724L237.059 241.829L235.208 241.934C234.498 241.983 234.194 241.858 234.063 241.421L237.299 240.913C237.33 240.401 237.309 239.872 237.241 239.438ZM234.29 239.158C234.64 239.103 234.851 239.268 234.91 239.642L234.963 239.981L233.852 240.155L233.828 239.998C233.75 239.503 233.903 239.219 234.29 239.158ZM238.252 243.522L240.117 243.106C242.171 242.635 242.96 241.831 242.742 240.442C242.6 239.537 242.122 239.092 241.168 239.007L240.516 238.948C240.239 238.918 240.173 238.891 240.158 238.794C240.143 238.698 240.209 238.65 240.439 238.614L242.117 238.351L241.831 236.527L240.08 236.802C238.197 237.098 237.315 237.941 237.523 239.269C237.671 240.211 238.253 240.689 239.326 240.743L239.912 240.775C240.247 240.784 240.3 240.801 240.315 240.897C240.33 240.994 240.251 241.043 240.013 241.105L237.743 241.697L238.252 243.522ZM246.539 242.197C248.652 241.865 249.419 240.916 249.117 238.996L248.564 235.471L246.077 235.861L246.626 239.363C246.721 239.966 246.622 240.204 246.236 240.265C245.85 240.326 245.683 240.129 245.588 239.526L245.038 236.024L242.551 236.414L243.105 239.94C243.406 241.86 244.426 242.528 246.539 242.197ZM250.183 241.402L252.671 241.012L251.316 232.379L248.868 233.023L250.183 241.402ZM256.389 238.635C255.802 238.677 255.525 238.486 255.449 238.003L255.189 236.349L257.097 236.049L256.803 234.178L254.908 234.475L254.669 232.954L252.224 233.61L252.983 238.452C253.277 240.323 254.172 240.9 256.433 240.644L257.722 240.504L257.652 238.56L256.389 238.635ZM257.907 235.316L257.706 234.036L263.562 233.117L263.763 234.397L257.907 235.316ZM258.267 237.61L258.064 236.318L263.92 235.399L264.123 236.691L258.267 237.61ZM230.818 252.052L231.517 256.507L228.633 252.395L225.687 252.857L227.002 261.236L229.32 260.872L228.622 256.429L231.493 260.531L234.439 260.069L233.124 251.69L230.818 252.052ZM239.229 259.54C241.752 259.144 242.691 258.032 242.348 255.846L241.49 250.377L238.955 250.775L239.788 256.087C239.909 256.86 239.645 257.223 238.884 257.342C238.124 257.462 237.772 257.195 237.649 256.41L236.817 251.11L234.282 251.508L235.14 256.977C235.483 259.163 236.718 259.934 239.229 259.54ZM243.968 258.573L249.426 257.717L249.329 255.444L246.153 255.942L245.189 249.796L242.653 250.194L243.968 258.573ZM250.394 257.565L255.852 256.709L255.755 254.435L252.579 254.933L251.615 248.788L249.079 249.186L250.394 257.565Z" fill="black"/>
<path d="M212.779 207.795C207.804 214.633 198.26 216.313 198.26 216.313C198.26 216.313 196.774 206.708 201.75 199.871C206.726 193.034 216.269 191.353 216.269 191.353C216.269 191.353 217.755 200.958 212.779 207.795Z" fill="black"/>
<path d="M205.116 226.29C206.414 232.75 203.495 238.913 203.495 238.913C203.495 238.913 198.426 234.563 197.128 228.103C195.83 221.643 198.75 215.479 198.75 215.479C198.75 215.479 203.818 219.829 205.116 226.29Z" fill="black"/>
<path d="M209.894 215.083C215.739 216.775 219.437 221.682 219.437 221.682C219.437 221.682 213.608 223.865 207.763 222.173C201.919 220.48 198.22 215.573 198.22 215.573C198.22 215.573 204.049 213.391 209.894 215.083Z" fill="black"/>
<path d="M164.452 189.12C167.964 189.645 171.344 188.158 173.96 185.513C176.577 182.867 178.495 179.01 179.159 174.58C179.822 170.15 179.118 165.901 177.391 162.604C175.664 159.308 172.868 156.896 169.356 156.37C165.844 155.844 162.463 157.331 159.847 159.977C157.23 162.623 155.312 166.48 154.649 170.91C153.986 175.34 154.69 179.589 156.417 182.886C158.143 186.182 160.94 188.594 164.452 189.12Z" fill="white" stroke="black" stroke-width="2.14557"/>
<path d="M171.21 172.883C170.477 178.302 167.734 182.407 165.098 182.055C162.886 181.746 161.598 179.376 162.601 174.386C162.992 172.266 163.184 170.115 163.172 167.96C163.183 163.356 165.571 162.106 167.774 162.412C170.41 162.763 171.968 167.421 171.21 172.883Z" fill="black"/>
<path d="M161.696 164.773L168.366 169.995L156.949 172.392L161.696 164.773Z" fill="white"/>
<defs>
<clipPath id="clip0_4313_192541">
<rect width="359.376" height="316.994" fill="white" transform="translate(36.1895 11.9849)"/>
</clipPath>
<clipPath id="clip1_4313_192541">
<rect width="316.34" height="222.197" fill="white" transform="translate(79.2979 114.607)"/>
</clipPath>
</defs>
</svg>
