<svg width="420" height="329" viewBox="0 0 420 329" fill="none" xmlns="http://www.w3.org/2000/svg">
<g clip-path="url(#clip0_4313_192977)">
<g clip-path="url(#clip1_4313_192977)">
<circle cx="209.88" cy="190.897" r="179.621" fill="#FFE75C"/>
<mask id="mask0_4313_192977" style="mask-type:alpha" maskUnits="userSpaceOnUse" x="30" y="11" width="360" height="360">
<circle cx="209.879" cy="190.897" r="179.621" fill="#FFE75C"/>
</mask>
<g mask="url(#mask0_4313_192977)">
<path d="M-3.40387 245.799C-2.30376 244.933 -1.14058 245.097 -0.102986 246.173C-0.00196123 246.268 -0.00810695 246.268 -0.123085 246.173C-0.617603 243.336 3.9832 244.353 5.73745 244.924C5.1514 240.594 9.17674 241.765 11.8704 240.999C10.9115 238.737 12.3124 237.397 14.6516 237.943C12.1796 236.049 13.9941 233.737 16.6051 233.18C15.8053 232.094 16.0827 230.837 17.1761 229.861C17.4636 229.892 17.6829 230.256 17.962 230.368C17.2297 225.787 22.9217 228.145 24.1429 230.639C24.1535 230.239 24.1926 229.761 24.1719 229.379C26.1009 229.603 27.763 231.485 28.6549 233.228C30.8379 232.559 32.5464 234.965 32.7852 237.05C36.0141 235.596 40.3487 237.342 42.7761 236.323C44.8769 235.442 44.7854 231.731 48.0198 233.298C47.9378 233.521 47.8424 234.528 47.8251 234.614C48.3207 231.558 52.2512 231.186 54.6724 232.089C54.8505 229.145 57.0841 227.768 59.9714 228.175C60.0189 225.89 62.7108 223.878 63.8863 226.442C66.3684 225.741 67.6671 228.874 66.9963 230.971C69.6977 230.691 70.8274 232.66 70.3401 235.15C74.0334 234.59 73.3809 238.86 72.0799 241.03C75.0542 239.8 74.6574 243.123 74.2209 245.132C77.8265 244.122 78.5745 246.447 77.0117 249.102C77.8411 249.056 78.6671 249.241 79.3974 249.638C80.1277 250.034 80.7334 250.627 81.147 251.348C83.4912 250.315 85.1154 252.309 83.6709 254.417C84.8793 253.858 86.0625 253.051 87.2246 252.445C87.6566 249.947 89.5392 247.774 91.6462 246.409C88.313 245.395 90.6388 241.856 93.2811 242.189C93.5261 239.963 96.4368 241.315 96.7784 243.257C98.9775 242.301 100.078 244.128 99.8242 246.325C100.739 244.312 102.132 243.513 103.703 244.901C104.662 243.31 106.622 242.949 108.381 243.439C108.249 243.332 108.083 241.258 109.494 240.713C107.443 239.782 107.329 237.511 109.154 236.072C107.953 236.222 106.838 235.593 105.714 235.492C106.314 234.463 106.343 233.667 107.825 233.301C104.098 231.984 108.801 229.019 111.11 229.339C106.433 227.09 114.835 225.747 116.176 225.433C113.862 222.026 120.942 221.17 123.121 221.183C120.251 219.769 118.364 215.132 123.345 215.394C118 213.787 125.212 212.305 127.008 212.253C123.889 209.58 128.008 206.453 130.938 208.583C134.298 202.091 139.327 209.953 139.327 209.953C139.327 209.953 148.156 207.651 145.146 211.91C148.339 211.393 149.182 213.179 150.372 212.51C146.751 209.267 151.946 208.713 154.272 208.353C153.156 206.315 150.005 201.811 155.672 202.785C153.391 197.457 161.03 200.39 161.03 200.39C161.03 200.39 162.366 197.982 165.14 200.228C166.495 201.324 167.588 203.522 168.269 205.023C170.689 203.485 173.647 205.285 175.445 207.256C180.962 202.559 184.338 209.203 184.338 209.203C184.338 209.203 186.876 207.257 189.332 207.891C191.965 208.573 194.646 209.597 195.46 212.309C197.39 208.154 203.215 210.955 199.392 215.573C201.991 211.484 207.645 215.126 202.439 219.186C206.052 216.933 205.374 223.506 202.379 224.545C207.017 226.502 204.89 231.861 201.241 234.89C199.853 231.448 207.125 231.861 204.071 236.764C203.916 230.67 211.376 232.285 207.688 238.173C208.043 232.876 215.022 234.113 212.971 239.571C213.371 234.641 221.079 236.878 216.599 241.33C217.699 240.464 219.302 242.504 219.621 246.169C219.634 246.307 219.715 246.264 219.601 246.169C219.106 243.332 223.708 244.349 225.461 244.92C224.876 240.59 228.901 241.761 231.594 240.995C230.636 238.733 232.036 237.393 234.376 237.939C231.905 236.045 233.717 233.733 236.33 233.176C235.53 232.09 235.807 230.833 236.899 229.857C237.187 229.888 237.407 230.252 237.686 230.364C236.954 225.783 242.647 228.141 243.867 230.635C243.877 230.235 243.917 229.757 243.895 229.375C245.825 229.599 247.488 231.481 248.379 233.224C250.562 232.556 252.27 234.961 252.509 237.046C255.738 235.592 260.072 237.338 262.5 236.319C264.601 235.438 264.509 231.727 267.747 233.294C267.663 233.517 267.569 234.524 267.551 234.61C268.047 231.554 271.977 231.182 274.398 232.085C274.577 229.141 276.811 227.764 279.701 228.171C279.748 225.886 282.44 223.875 283.616 226.438C286.097 225.737 287.396 228.87 286.725 230.967C289.427 230.687 290.556 232.656 290.07 235.146C293.762 234.586 293.11 238.856 291.809 241.026C294.783 239.796 294.386 243.119 293.95 245.128C297.555 244.118 298.304 246.443 296.741 249.098C297.57 249.052 298.396 249.237 299.127 249.634C299.857 250.03 300.462 250.623 300.876 251.345C303.22 250.311 304.845 252.305 303.401 254.413C304.609 253.854 305.793 253.047 306.955 252.441C307.387 249.943 309.269 247.77 311.376 246.405C308.043 245.391 310.368 241.852 313.011 242.185C313.255 239.959 316.167 241.311 316.508 243.253C318.707 242.297 319.808 244.124 319.554 246.321C321.116 245.36 322.495 243.805 324.488 243.881C323.895 244.556 324.301 244.395 323.433 244.897C324.392 243.306 326.351 242.945 328.111 243.435C327.865 243.274 327.605 243.136 327.334 243.023C327.96 242.003 327.813 241.256 329.224 240.709C327.172 239.778 327.059 237.507 328.884 236.068C327.682 236.218 326.567 235.59 325.444 235.488C326.043 234.46 326.073 233.663 327.554 233.297C323.827 231.98 328.531 229.015 330.839 229.335C326.163 227.086 334.565 225.743 335.907 225.429C333.591 222.022 340.672 221.167 342.85 221.179C339.981 219.765 338.094 215.128 343.073 215.39C337.729 213.783 344.94 212.301 346.737 212.25C343.617 209.576 347.737 206.449 350.666 208.579C351.35 202.614 357.57 207.852 359.832 208.411C361.435 208.81 367.885 207.647 364.875 211.908C368.069 211.392 368.911 213.178 370.102 212.508C366.48 209.265 371.675 208.712 374 208.351C372.884 206.313 369.734 201.809 375.401 202.783C373.12 197.456 378.776 200.205 380.759 200.389C382.519 200.551 382.717 199.04 384.87 200.226C386.397 201.065 387.317 203.52 387.998 205.021C390.419 203.483 393.377 205.283 395.175 207.255C397.854 203.147 401.413 209 404.069 209.201C405.332 209.297 406.606 207.255 409.061 207.89C411.694 208.571 413.125 210.722 415.188 212.307V354.78H-3.41504L-3.40387 245.799Z" fill="#FFC619"/>
<path d="M89.8539 185.293C89.8539 185.293 91.1566 246.43 88.5518 268.423H96.3658C96.3658 268.423 95.8077 206.356 91.1566 185.293H89.8539Z" fill="#FFC619"/>
<path d="M112.403 172.573C94.2073 173.393 92.3688 180.97 92.3688 180.97C89.7109 168.886 81.9426 169.296 81.9426 169.296C82.7603 172.983 84.6005 178.513 84.6005 178.513C64.975 173.597 59.6592 184.861 59.6592 184.861C63.7584 183.947 67.9466 183.495 72.146 183.512C73.9293 182.293 75.8338 181.262 77.8291 180.436C77.8741 180.41 77.9277 180.403 77.9781 180.416C78.0285 180.429 78.0716 180.462 78.0978 180.507C78.1241 180.552 78.1314 180.606 78.1182 180.656C78.1049 180.707 78.0722 180.75 78.0272 180.776C76.8105 181.698 75.5239 182.581 74.2949 183.516C79.1608 183.591 82.7603 184.041 82.7603 184.041C64.7702 195.305 67.8366 206.979 67.8366 206.979C71.2413 206.147 74.3451 203.149 76.8278 199.885C77.036 197.816 77.2213 195.75 77.334 193.657C77.3365 193.611 77.3563 193.569 77.3891 193.538C77.422 193.507 77.4655 193.489 77.5107 193.489C77.5559 193.489 77.5994 193.507 77.6322 193.538C77.6651 193.569 77.6848 193.611 77.6873 193.657C77.7241 195.208 77.8274 196.819 77.8766 198.439C78.1742 198.009 78.4613 197.58 78.7378 197.153C78.8259 195.702 78.8656 194.239 78.8131 192.736C78.8075 192.58 79.0291 192.59 79.0486 192.736C79.1854 193.786 79.3434 194.882 79.4684 195.993C80.6959 193.992 81.7958 191.915 82.7614 189.775C77.6505 204.112 82.7614 217.629 82.7614 217.629C91.5522 208.412 91.348 192.028 91.348 192.028C92.0611 195.896 93.442 199.61 95.4286 203.002C95.2699 201.51 95.2304 200.008 95.3103 198.509C95.3126 198.469 95.3302 198.431 95.3594 198.404C95.3887 198.376 95.4272 198.361 95.4674 198.361C95.5075 198.361 95.5461 198.376 95.5753 198.404C95.6045 198.431 95.6221 198.469 95.6245 198.509C95.8603 200.862 96.334 203.185 97.0383 205.443C101.207 211.156 105.863 213.327 105.863 213.327C105.658 205.34 98.0943 191.003 98.0943 191.003C99.1259 192.078 100.238 193.072 101.42 193.977C100.95 192.609 100.428 191.262 99.8575 189.926C99.7414 189.655 100.111 189.416 100.264 189.688C101.157 191.283 102.307 193.203 103.188 195.2C106.959 197.554 109.542 197.557 109.542 197.557C108.725 184.654 96.6632 180.968 96.6632 180.968C110.564 179.127 112.403 172.573 112.403 172.573Z" fill="#FFC619"/>
<path d="M160.437 143.996C160.437 143.996 176.209 193.462 167.604 231.3H178.03C178.03 231.3 178.132 174.696 161.869 143.996H160.437Z" fill="#FFC619"/>
<path d="M128.505 138.977C149.445 131.159 155.15 138.833 155.15 138.833C152.367 123.909 161.336 120.639 161.336 120.639C162.178 125.196 162.747 132.326 162.747 132.326C182.558 117.343 193.954 127.51 193.954 127.51C188.946 128.327 183.698 130.125 179.206 131.986C176.608 131.466 173.964 131.217 171.315 131.244C171.252 131.237 171.189 131.255 171.139 131.294C171.09 131.333 171.057 131.39 171.049 131.453C171.041 131.516 171.058 131.58 171.097 131.63C171.135 131.681 171.192 131.714 171.254 131.723C173.07 132.179 174.945 132.558 176.78 133.026C171.32 135.448 167.47 137.686 167.47 137.686C193.181 141.763 195.307 156.418 195.307 156.418C191.062 157.115 186.123 155.22 181.757 152.728C180.532 150.491 179.332 148.247 178.203 145.937C178.178 145.888 178.135 145.851 178.084 145.833C178.033 145.814 177.976 145.815 177.926 145.837C177.876 145.858 177.835 145.897 177.813 145.947C177.79 145.996 177.787 146.053 177.804 146.105C178.505 147.874 179.16 149.744 179.88 151.597C179.336 151.254 178.807 150.908 178.292 150.558C177.497 148.961 176.752 147.329 176.092 145.605C176.023 145.426 175.778 145.545 175.826 145.717C176.174 146.968 176.521 148.282 176.911 149.597C174.567 147.927 172.329 146.109 170.213 144.156C182.85 157.892 183.549 175.613 183.549 175.613C169.209 169.429 161.595 150.827 161.595 150.827C162.641 155.538 162.86 160.396 162.241 165.182C161.706 163.42 161.031 161.704 160.223 160.05C160.203 160.003 160.165 159.966 160.117 159.947C160.07 159.928 160.017 159.928 159.97 159.948C159.923 159.968 159.886 160.006 159.867 160.053C159.848 160.101 159.848 160.154 159.868 160.201C160.729 162.972 161.306 165.824 161.591 168.712C159.618 177.166 155.401 181.856 155.401 181.856C151.807 172.737 153.486 152.912 153.486 152.912C152.836 154.621 152.056 156.278 151.153 157.869C151.029 156.097 150.974 154.326 150.979 152.543C150.979 152.18 150.447 152.089 150.405 152.47C150.158 154.702 149.781 157.42 149.742 160.099C146.611 164.573 143.694 165.815 143.694 165.815C138.44 150.85 150.297 140.891 150.297 140.891C133.72 145.495 128.505 138.977 128.505 138.977Z" fill="#FFC619"/>
<path d="M364.589 171.133C364.589 171.133 356.345 204.851 353.181 235.978L359.641 236.636C359.641 236.636 360.107 199.943 366.283 171.306L364.589 171.133Z" fill="#FFC619"/>
<path d="M381.054 168.717C381.516 169.426 382.009 170.108 382.494 170.79C385.257 171.159 387.978 171.796 390.619 172.691C390.619 172.691 387.171 162.932 370.533 165.34C370.533 165.34 372.52 160.922 373.505 157.945C373.505 157.945 367.118 156.951 363.905 166.716C363.905 166.716 363.022 160.297 348.049 158.085C348.049 158.085 348.496 160.621 352.262 163.098C352.833 162.738 353.43 162.421 354.048 162.148C354.091 162.131 354.138 162.131 354.181 162.148C354.223 162.166 354.258 162.199 354.277 162.24C354.296 162.282 354.298 162.33 354.283 162.374C354.268 162.417 354.237 162.453 354.197 162.475C353.672 162.737 353.167 163.035 352.682 163.366C353.129 163.641 353.615 163.913 354.149 164.18C354.715 163.667 355.311 163.189 355.935 162.749C355.962 162.726 355.996 162.716 356.031 162.719C356.065 162.722 356.097 162.739 356.12 162.766C356.142 162.793 356.152 162.827 356.149 162.862C356.146 162.897 356.129 162.929 356.102 162.951C355.6 163.418 355.124 163.913 354.679 164.435C356.502 165.265 358.405 165.909 360.358 166.355C360.358 166.355 350.077 168.384 348.317 178.982C348.317 178.982 349.936 179.146 352.545 178.113C352.414 177.511 352.413 176.889 352.54 176.287C352.544 176.279 352.55 176.271 352.558 176.266C352.566 176.261 352.575 176.259 352.585 176.259C352.594 176.259 352.603 176.261 352.611 176.266C352.619 176.271 352.625 176.279 352.629 176.287C352.841 176.804 352.99 177.344 353.073 177.896C353.629 177.652 354.173 177.38 354.701 177.081C354.477 176.68 354.295 176.256 354.158 175.817C354.109 175.654 354.369 175.584 354.437 175.732C354.625 176.124 354.851 176.496 355.111 176.844C356.246 176.164 357.324 175.391 358.333 174.533C358.333 174.533 350.875 185.746 350.035 192.332C350.035 192.332 359.946 188.896 363.821 175.949C363.584 178.605 363.603 181.277 363.877 183.93C364.303 184.166 364.749 184.363 365.21 184.519C365.232 184.528 365.249 184.545 365.26 184.565C365.271 184.586 365.273 184.61 365.268 184.633C365.262 184.656 365.249 184.676 365.23 184.69C365.211 184.704 365.188 184.71 365.164 184.708C364.745 184.644 364.332 184.545 363.929 184.413C364.035 185.363 364.18 186.356 364.375 187.369C365.119 187.175 365.854 186.957 366.578 186.698C366.628 186.677 366.685 186.677 366.736 186.697C366.787 186.717 366.828 186.756 366.851 186.806C366.874 186.856 366.876 186.913 366.858 186.965C366.84 187.017 366.802 187.059 366.753 187.084C366.027 187.451 365.279 187.774 364.514 188.051C365.231 191.415 366.515 194.936 368.767 197.837C368.767 197.837 374.129 187.094 371.107 174.812C372.018 177.53 373.179 180.159 374.574 182.663C374.775 182.286 374.98 181.912 375.191 181.54C375.265 181.412 375.489 181.535 375.418 181.665C375.184 182.099 374.968 182.539 374.752 182.979C374.99 183.389 375.239 183.797 375.498 184.204C375.77 183.504 376.057 182.816 376.365 182.147C376.379 182.112 376.407 182.083 376.443 182.068C376.478 182.053 376.518 182.052 376.554 182.066C376.59 182.08 376.618 182.108 376.634 182.143C376.65 182.178 376.651 182.218 376.638 182.254C376.331 183.069 376.07 183.9 375.857 184.744C377.531 187.232 379.596 189.438 382.001 190.291C382.001 190.291 385.518 180.897 371.592 170.071C374.031 170.049 376.471 170.15 378.9 170.375C378.714 169.754 378.482 169.148 378.207 168.561C378.16 168.463 378.312 168.364 378.375 168.459C378.765 169.085 379.106 169.741 379.394 170.421C380.231 170.502 381.103 170.602 381.996 170.723C381.606 170.105 381.212 169.487 380.866 168.841C380.802 168.722 380.984 168.608 381.054 168.717Z" fill="#FFC619"/>
<path d="M286.917 182.504C286.917 182.504 297.724 226.713 301.872 267.519L293.403 268.383C293.403 268.383 292.792 220.272 284.698 182.731L286.917 182.504Z" fill="#FFC619"/>
<path d="M265.329 179.331C264.723 180.258 264.077 181.157 263.441 182.05C259.818 182.534 256.251 183.369 252.789 184.543C252.789 184.543 257.309 171.748 279.121 174.906C279.121 174.906 276.519 169.114 275.226 165.21C275.226 165.21 283.6 163.907 287.812 176.71C287.812 176.71 288.968 168.293 308.6 165.395C308.6 165.395 308.015 168.715 303.078 171.967C302.328 171.495 301.546 171.078 300.736 170.72C300.68 170.694 300.615 170.692 300.557 170.714C300.498 170.736 300.451 170.78 300.425 170.837C300.4 170.894 300.398 170.959 300.419 171.017C300.441 171.076 300.486 171.123 300.542 171.149C301.229 171.493 301.892 171.883 302.527 172.317C301.943 172.677 301.305 173.034 300.605 173.384C299.862 172.712 299.079 172.086 298.261 171.508C298.226 171.483 298.182 171.472 298.139 171.478C298.096 171.484 298.057 171.506 298.029 171.539C298.002 171.573 297.988 171.616 297.991 171.659C297.993 171.703 298.012 171.743 298.044 171.773C298.703 172.385 299.325 173.035 299.909 173.719C297.519 174.808 295.025 175.651 292.465 176.236C292.465 176.236 305.943 178.897 308.251 192.791C306.342 192.821 304.45 192.432 302.707 191.651C302.878 190.863 302.881 190.047 302.714 189.257C302.709 189.246 302.701 189.236 302.691 189.229C302.68 189.223 302.668 189.219 302.655 189.219C302.643 189.219 302.631 189.223 302.62 189.229C302.61 189.236 302.602 189.246 302.597 189.257C302.319 189.934 302.123 190.642 302.015 191.365C301.286 191.045 300.573 190.689 299.88 190.297C300.174 189.771 300.413 189.216 300.593 188.641C300.657 188.428 300.316 188.332 300.228 188.528C299.982 189.042 299.686 189.532 299.345 189.989C297.856 189.096 296.443 188.083 295.121 186.958C295.121 186.958 304.898 201.66 306 210.295C306 210.295 293.005 205.789 287.921 188.815C288.231 192.297 288.205 195.801 287.844 199.278C287.286 199.587 286.701 199.845 286.097 200.05C286.068 200.062 286.045 200.083 286.03 200.111C286.016 200.138 286.013 200.17 286.02 200.2C286.027 200.23 286.045 200.257 286.07 200.274C286.095 200.292 286.126 200.301 286.157 200.298C286.706 200.213 287.247 200.084 287.775 199.912C287.636 201.16 287.446 202.46 287.19 203.786C286.215 203.533 285.252 203.246 284.303 202.907C284.236 202.88 284.162 202.88 284.095 202.907C284.029 202.933 283.975 202.984 283.945 203.05C283.915 203.115 283.912 203.19 283.935 203.257C283.959 203.325 284.008 203.381 284.072 203.414C285.025 203.895 286.005 204.318 287.009 204.682C286.129 209.322 284.223 213.705 281.431 217.51C281.431 217.51 274.402 203.425 278.363 187.323C277.169 190.887 275.647 194.333 273.819 197.616C273.555 197.123 273.285 196.632 273.009 196.145C272.913 195.977 272.619 196.138 272.712 196.308C273.02 196.876 273.302 197.452 273.585 198.03C273.272 198.571 272.945 199.106 272.607 199.635C272.249 198.719 271.874 197.816 271.471 196.94C271.451 196.896 271.414 196.861 271.368 196.843C271.323 196.824 271.272 196.824 271.227 196.842C271.181 196.86 271.144 196.894 271.123 196.938C271.102 196.983 271.098 197.033 271.113 197.08C271.516 198.148 271.859 199.238 272.14 200.344C269.948 203.606 267.235 206.498 264.084 207.617C264.084 207.617 259.474 195.305 277.732 181.108C274.534 181.078 271.336 181.211 268.151 181.506C268.395 180.692 268.698 179.897 269.059 179.128C269.121 178.999 268.921 178.869 268.842 178.994C268.331 179.816 267.884 180.676 267.506 181.566C266.41 181.673 265.266 181.803 264.094 181.963C264.607 181.152 265.122 180.342 265.577 179.492C265.661 179.343 265.422 179.192 265.329 179.331Z" fill="#FFC619"/>
<path d="M48.701 204.289C48.701 204.289 43.287 236.796 34.4124 265.134L28.5312 263.284C28.5312 263.284 41.8402 231.102 47.1599 203.806L48.701 204.289Z" fill="#FFC619"/>
<path d="M35.2416 196.003C34.5718 196.451 33.8875 196.859 33.2105 197.271C30.6621 196.557 28.0506 196.092 25.4126 195.882C25.4126 195.882 32.068 188.663 45.6806 197.006C45.6806 197.006 45.5997 192.408 45.8531 189.441C45.8531 189.441 51.7956 190.97 50.9478 200.694C50.9478 200.694 54.1187 195.425 68.0053 199.113C68.0053 199.113 66.6686 201.157 62.4574 201.906C62.0936 201.377 61.692 200.876 61.2557 200.406C61.2245 200.376 61.1829 200.358 61.1394 200.357C61.0959 200.357 61.0537 200.373 61.0215 200.402C60.9892 200.431 60.9694 200.472 60.9661 200.515C60.9627 200.559 60.976 200.602 61.0034 200.636C61.3628 201.061 61.6929 201.511 61.9913 201.981C61.4996 202.053 60.9738 202.108 60.4079 202.141C60.1053 201.481 59.7633 200.841 59.3836 200.222C59.3671 200.196 59.3415 200.177 59.3118 200.169C59.2822 200.161 59.2505 200.164 59.2231 200.178C59.1957 200.192 59.1744 200.216 59.1634 200.245C59.1525 200.273 59.1526 200.305 59.1637 200.334C59.4275 200.929 59.6568 201.539 59.8503 202.161C57.9493 202.203 56.049 202.05 54.1789 201.706C54.1789 201.706 62.3876 207.334 59.9619 217.239C58.6833 216.712 57.5351 215.912 56.598 214.894C56.9368 214.418 57.1711 213.876 57.2856 213.303C57.2855 213.294 57.2829 213.285 57.278 213.277C57.2731 213.27 57.2662 213.264 57.2581 213.26C57.2499 213.256 57.2408 213.255 57.232 213.256C57.2231 213.258 57.2148 213.262 57.208 213.267C56.8302 213.638 56.4985 214.053 56.2201 214.504C55.8261 214.082 55.4536 213.641 55.1038 213.182C55.4505 212.917 55.7685 212.616 56.0526 212.284C56.1559 212.16 55.9555 212.001 55.8422 212.105C55.5311 212.376 55.1946 212.616 54.8375 212.822C54.1013 211.803 53.4502 210.724 52.8907 209.598C52.8907 209.598 55.2037 222.179 53.4746 228.237C53.4746 228.237 46.1137 221.521 47.5716 208.772C46.7853 211.178 45.7697 213.502 44.5386 215.713C44.0789 215.758 43.6161 215.763 43.1555 215.727C43.1336 215.727 43.1124 215.735 43.0957 215.749C43.079 215.763 43.0679 215.783 43.0642 215.805C43.0606 215.827 43.0646 215.849 43.0757 215.868C43.0868 215.887 43.1042 215.901 43.1248 215.909C43.5146 216.009 43.9118 216.078 44.3126 216.115C43.866 216.905 43.3671 217.715 42.819 218.525C42.2424 218.078 41.6826 217.612 41.1484 217.114C41.1119 217.077 41.0625 217.055 41.0105 217.054C40.9586 217.052 40.9081 217.071 40.8696 217.106C40.8311 217.141 40.8076 217.19 40.804 217.242C40.8005 217.294 40.8171 217.345 40.8504 217.385C41.3477 217.977 41.8794 218.54 42.4428 219.069C40.535 221.904 38.0175 224.275 35.0752 226.008C35.0752 226.008 34.4144 214.626 41.6413 205.045C39.8302 207.075 37.8356 208.932 35.6831 210.593C35.6473 210.189 35.6088 209.786 35.5636 209.383C35.5469 209.244 35.3058 209.266 35.3192 209.406C35.361 209.872 35.3856 210.337 35.409 210.804C35.0473 211.073 34.6767 211.336 34.3005 211.592C34.324 210.879 34.3312 210.171 34.3134 209.473C34.3146 209.436 34.3011 209.4 34.2759 209.373C34.2506 209.346 34.2156 209.33 34.1786 209.329C34.1416 209.328 34.1056 209.341 34.0785 209.367C34.0515 209.392 34.0356 209.427 34.0343 209.464C33.9982 210.29 33.9157 211.113 33.787 211.93C31.3987 213.473 28.7693 214.621 26.3531 214.463C26.3531 214.463 26.7968 204.952 42.9925 200.731C40.8732 199.796 38.7078 198.969 36.5047 198.254C36.8994 197.782 37.3285 197.34 37.7884 196.932C37.8665 196.864 37.7711 196.72 37.6824 196.781C37.1078 197.181 36.5653 197.625 36.0598 198.11C35.3002 197.867 34.502 197.627 33.6771 197.397C34.2492 197.006 34.823 196.614 35.3672 196.179C35.4598 196.104 35.3437 195.936 35.2416 196.003Z" fill="#FFC619"/>
</g>
</g>
<g clip-path="url(#clip2_4313_192977)">
<g clip-path="url(#clip3_4313_192977)">
<path d="M326.625 195.856L315.789 191.084L325.207 207.624L322.563 229.536L315.007 226.213L321.568 237.734L312.812 310.362L270.492 347.428L255.453 339.935L225.348 324.932C228.268 304.678 244.416 258.396 258.66 220.065L261.292 221.266L271.72 208.361L262.106 210.85C266.622 198.842 270.801 187.978 274.13 179.436L284.192 179.18L276.364 173.68C279.596 165.418 281.585 160.454 281.585 160.454L318.708 139.551L328.39 181.237L326.625 195.856Z" fill="#B175FB"/>
<path d="M326.625 195.856L315.788 191.084L325.205 207.624L322.566 229.536L315.01 226.213L321.571 237.734L312.812 310.362L270.491 347.428L255.452 339.935L318.707 139.551L328.39 181.237L326.625 195.856Z" fill="#914CE5"/>
<path d="M372.597 270.023L357.349 262.85L361.96 275.401L342.858 295.273L329.088 290.143L333.544 300.708L311.422 326.099L298.989 320.085L301.945 332.954L264.101 379.702L260.24 348.218L255.452 309.16C255.452 309.16 311.259 256.942 369.294 234.434C371.536 233.565 373.78 232.741 376.027 231.961L414.627 241.975L372.597 270.023Z" fill="#914CE6"/>
<path d="M369.294 234.434C319.83 265.338 271.725 331.752 260.24 348.218L255.452 309.159C255.452 309.159 311.259 256.942 369.294 234.434Z" fill="#B175FB"/>
<path d="M406.716 330.297H291.921L308.702 305.593L320.919 321.38L331.215 307.839L337.316 320.719L353.332 313.784L355.619 326.004L394.895 313.784L390.319 325.343L416.63 317.417L406.716 330.297Z" fill="#1F1F2E"/>
</g>
<g clip-path="url(#clip4_4313_192977)">
<path d="M133.533 213.63L143.099 209.418L134.784 224.019L137.118 243.361L143.788 240.428L137.997 250.597L145.726 314.708L183.083 347.428L196.359 340.813L222.933 327.57C220.355 309.691 206.101 268.837 193.527 235.001L191.205 236.061L182 224.669L190.486 226.867C186.5 216.266 182.811 206.676 179.872 199.136L170.989 198.91L177.9 194.055C175.047 186.762 173.291 182.38 173.291 182.38L140.521 163.929L131.975 200.726L133.533 213.63Z" fill="#B175FB"/>
<path d="M133.532 213.63L143.098 209.418L134.786 224.019L137.115 243.361L143.785 240.428L137.993 250.597L145.725 314.708L183.083 347.428L196.359 340.813L140.521 163.929L131.974 200.726L133.532 213.63Z" fill="#914CE5"/>
<path d="M80.8038 264.908L96.0516 257.735L91.4405 270.286L110.543 290.158L124.312 285.027L119.857 295.592L141.979 320.984L154.412 314.97L151.456 327.839L189.299 374.586L193.161 343.103L197.949 304.044C197.949 304.044 142.142 251.827 84.1065 229.319C81.8646 228.45 79.6204 227.625 77.3737 226.846L38.7733 236.859L80.8038 264.908Z" fill="#914CE5"/>
<path d="M84.1065 229.319C133.57 260.222 181.675 326.637 193.161 343.103L197.949 304.044C197.949 304.044 142.142 251.827 84.1065 229.319Z" fill="#B175FB"/>
</g>
<path fill-rule="evenodd" clip-rule="evenodd" d="M221.927 113.908L223.032 125.826L231.705 114.405L225.489 118.697L225.349 102.569L216.582 112.669L214.425 96.258L201.723 108.279L198.409 91.0105C201.701 88.467 205.615 86.6302 209.967 85.7749C224.904 82.8391 239.339 92.5788 242.208 107.529C245.078 122.479 235.295 136.979 220.357 139.915C205.42 142.851 190.985 133.111 188.115 118.161C187.817 116.607 187.656 115.058 187.622 113.526L196.882 124.32L210.172 110.352L212.789 125.236L221.927 113.908Z" fill="#1F1F2E"/>
<path d="M157.339 90.6174L157.192 91.2947L157.87 91.4416L232.42 107.606L233.098 107.753L233.244 107.076L233.26 107.005C233.624 105.327 232.889 103.435 231.222 103.073L160.839 87.8122C159.17 87.4502 157.718 88.8687 157.355 90.5466L157.339 90.6174Z" fill="white" stroke="#1F1F2E" stroke-width="1.38624"/>
<mask id="path-25-outside-1_4313_192977" maskUnits="userSpaceOnUse" x="148.598" y="90.5581" width="85.5999" height="51.1576" fill="black">
<rect fill="white" x="148.598" y="90.5581" width="85.5999" height="51.1576"/>
<path d="M151.464 120.983C151.193 122.234 151.906 123.451 153.057 123.7L223.44 138.961C224.59 139.211 225.743 138.398 226.014 137.148L232.096 109.101L157.546 92.9366L151.464 120.983ZM165.936 122.783L161.729 121.87L162.678 117.494L166.885 118.407L165.936 122.783ZM166.744 115.568L167.693 111.192L171.901 112.104L170.952 116.48L166.744 115.568ZM172.233 124.148L168.024 123.235L168.973 118.859L173.182 119.772L172.233 124.148ZM172.941 116.911L173.889 112.535L178.097 113.448L177.148 117.824L172.941 116.911ZM203.712 130.974L173.918 124.513L174.867 120.137L204.661 126.597L203.712 130.974ZM179.134 118.254L180.083 113.878L184.292 114.791L183.343 119.167L179.134 118.254ZM185.331 119.598L186.28 115.222L190.489 116.134L189.54 120.511L185.331 119.598ZM191.525 120.941L192.474 116.565L196.684 117.478L195.735 121.854L191.525 120.941ZM197.722 122.285L198.671 117.909L202.879 118.821L201.931 123.197L197.722 122.285ZM203.918 123.628L204.867 119.252L209.076 120.165L208.127 124.541L203.918 123.628ZM210.009 132.339L205.799 131.426L206.748 127.05L210.958 127.963L210.009 132.339ZM210.112 124.971L211.061 120.595L215.271 121.508L214.322 125.884L210.112 124.971ZM216.304 133.704L212.096 132.792L213.045 128.415L217.253 129.328L216.304 133.704ZM215.722 126.188L216.671 121.812L225.071 123.633L224.123 128.009L215.722 126.188ZM222.601 135.069L218.392 134.157L219.341 129.781L223.55 130.693L222.601 135.069ZM223.932 108.607L228.141 109.519L227.192 113.896L222.984 112.983L223.932 108.607ZM222.402 115.665L226.61 116.578L225.662 120.952L221.453 120.04L222.402 115.665ZM217.636 107.242L221.844 108.154L220.896 112.53L216.687 111.618L217.636 107.242ZM216.106 114.3L220.314 115.213L219.365 119.587L215.157 118.675L216.106 114.3ZM211.339 105.876L215.549 106.789L214.6 111.165L210.391 110.253L211.339 105.876ZM209.809 112.935L214.018 113.847L213.07 118.222L208.86 117.309L209.809 112.935ZM205.044 104.511L209.251 105.424L208.303 109.8L204.096 108.888L205.044 104.511ZM203.514 111.57L207.721 112.482L206.772 116.857L202.566 115.944L203.514 111.57ZM198.747 103.146L202.956 104.059L202.007 108.435L197.798 107.522L198.747 103.146ZM197.217 110.204L201.425 111.117L200.477 115.491L196.268 114.579L197.217 110.204ZM192.452 101.781L196.66 102.694L195.712 107.07L191.503 106.157L192.452 101.781ZM190.921 108.839L195.13 109.752L194.181 114.126L189.973 113.214L190.921 108.839ZM186.156 100.416L190.363 101.328L189.414 105.704L185.208 104.792L186.156 100.416ZM184.626 107.474L188.833 108.386L187.884 112.761L183.677 111.849L184.626 107.474ZM179.859 99.0505L184.068 99.9631L183.119 104.339L178.91 103.427L179.859 99.0505ZM178.328 106.109L182.537 107.021L181.589 111.396L177.38 110.483L178.328 106.109ZM173.564 97.6856L177.772 98.5981L176.824 102.974L172.615 102.062L173.564 97.6856ZM172.034 104.744L176.242 105.656L175.294 110.031L171.085 109.118L172.034 104.744ZM167.268 96.3204L171.475 97.2327L170.526 101.609L166.32 100.697L167.268 96.3204ZM165.737 103.379L169.945 104.291L168.996 108.665L164.79 107.753L165.737 103.379ZM160.971 94.955L165.18 95.8678L164.231 100.244L160.022 99.3313L160.971 94.955ZM159.44 102.013L163.65 102.926L162.701 107.301L158.492 106.388L159.44 102.013ZM157.91 109.07L166.311 110.892L165.362 115.268L156.962 113.446L157.91 109.07ZM156.38 116.129L160.589 117.041L159.64 121.417L155.431 120.505L156.38 116.129Z"/>
</mask>
<path d="M151.464 120.983C151.193 122.234 151.906 123.451 153.057 123.7L223.44 138.961C224.59 139.211 225.743 138.398 226.014 137.148L232.096 109.101L157.546 92.9366L151.464 120.983ZM165.936 122.783L161.729 121.87L162.678 117.494L166.885 118.407L165.936 122.783ZM166.744 115.568L167.693 111.192L171.901 112.104L170.952 116.48L166.744 115.568ZM172.233 124.148L168.024 123.235L168.973 118.859L173.182 119.772L172.233 124.148ZM172.941 116.911L173.889 112.535L178.097 113.448L177.148 117.824L172.941 116.911ZM203.712 130.974L173.918 124.513L174.867 120.137L204.661 126.597L203.712 130.974ZM179.134 118.254L180.083 113.878L184.292 114.791L183.343 119.167L179.134 118.254ZM185.331 119.598L186.28 115.222L190.489 116.134L189.54 120.511L185.331 119.598ZM191.525 120.941L192.474 116.565L196.684 117.478L195.735 121.854L191.525 120.941ZM197.722 122.285L198.671 117.909L202.879 118.821L201.931 123.197L197.722 122.285ZM203.918 123.628L204.867 119.252L209.076 120.165L208.127 124.541L203.918 123.628ZM210.009 132.339L205.799 131.426L206.748 127.05L210.958 127.963L210.009 132.339ZM210.112 124.971L211.061 120.595L215.271 121.508L214.322 125.884L210.112 124.971ZM216.304 133.704L212.096 132.792L213.045 128.415L217.253 129.328L216.304 133.704ZM215.722 126.188L216.671 121.812L225.071 123.633L224.123 128.009L215.722 126.188ZM222.601 135.069L218.392 134.157L219.341 129.781L223.55 130.693L222.601 135.069ZM223.932 108.607L228.141 109.519L227.192 113.896L222.984 112.983L223.932 108.607ZM222.402 115.665L226.61 116.578L225.662 120.952L221.453 120.04L222.402 115.665ZM217.636 107.242L221.844 108.154L220.896 112.53L216.687 111.618L217.636 107.242ZM216.106 114.3L220.314 115.213L219.365 119.587L215.157 118.675L216.106 114.3ZM211.339 105.876L215.549 106.789L214.6 111.165L210.391 110.253L211.339 105.876ZM209.809 112.935L214.018 113.847L213.07 118.222L208.86 117.309L209.809 112.935ZM205.044 104.511L209.251 105.424L208.303 109.8L204.096 108.888L205.044 104.511ZM203.514 111.57L207.721 112.482L206.772 116.857L202.566 115.944L203.514 111.57ZM198.747 103.146L202.956 104.059L202.007 108.435L197.798 107.522L198.747 103.146ZM197.217 110.204L201.425 111.117L200.477 115.491L196.268 114.579L197.217 110.204ZM192.452 101.781L196.66 102.694L195.712 107.07L191.503 106.157L192.452 101.781ZM190.921 108.839L195.13 109.752L194.181 114.126L189.973 113.214L190.921 108.839ZM186.156 100.416L190.363 101.328L189.414 105.704L185.208 104.792L186.156 100.416ZM184.626 107.474L188.833 108.386L187.884 112.761L183.677 111.849L184.626 107.474ZM179.859 99.0505L184.068 99.9631L183.119 104.339L178.91 103.427L179.859 99.0505ZM178.328 106.109L182.537 107.021L181.589 111.396L177.38 110.483L178.328 106.109ZM173.564 97.6856L177.772 98.5981L176.824 102.974L172.615 102.062L173.564 97.6856ZM172.034 104.744L176.242 105.656L175.294 110.031L171.085 109.118L172.034 104.744ZM167.268 96.3204L171.475 97.2327L170.526 101.609L166.32 100.697L167.268 96.3204ZM165.737 103.379L169.945 104.291L168.996 108.665L164.79 107.753L165.737 103.379ZM160.971 94.955L165.18 95.8678L164.231 100.244L160.022 99.3313L160.971 94.955ZM159.44 102.013L163.65 102.926L162.701 107.301L158.492 106.388L159.44 102.013ZM157.91 109.07L166.311 110.892L165.362 115.268L156.962 113.446L157.91 109.07ZM156.38 116.129L160.589 117.041L159.64 121.417L155.431 120.505L156.38 116.129Z" fill="white"/>
<path d="M151.464 120.983C151.193 122.234 151.906 123.451 153.057 123.7L223.44 138.961C224.59 139.211 225.743 138.398 226.014 137.148L232.096 109.101L157.546 92.9366L151.464 120.983ZM165.936 122.783L161.729 121.87L162.678 117.494L166.885 118.407L165.936 122.783ZM166.744 115.568L167.693 111.192L171.901 112.104L170.952 116.48L166.744 115.568ZM172.233 124.148L168.024 123.235L168.973 118.859L173.182 119.772L172.233 124.148ZM172.941 116.911L173.889 112.535L178.097 113.448L177.148 117.824L172.941 116.911ZM203.712 130.974L173.918 124.513L174.867 120.137L204.661 126.597L203.712 130.974ZM179.134 118.254L180.083 113.878L184.292 114.791L183.343 119.167L179.134 118.254ZM185.331 119.598L186.28 115.222L190.489 116.134L189.54 120.511L185.331 119.598ZM191.525 120.941L192.474 116.565L196.684 117.478L195.735 121.854L191.525 120.941ZM197.722 122.285L198.671 117.909L202.879 118.821L201.931 123.197L197.722 122.285ZM203.918 123.628L204.867 119.252L209.076 120.165L208.127 124.541L203.918 123.628ZM210.009 132.339L205.799 131.426L206.748 127.05L210.958 127.963L210.009 132.339ZM210.112 124.971L211.061 120.595L215.271 121.508L214.322 125.884L210.112 124.971ZM216.304 133.704L212.096 132.792L213.045 128.415L217.253 129.328L216.304 133.704ZM215.722 126.188L216.671 121.812L225.071 123.633L224.123 128.009L215.722 126.188ZM222.601 135.069L218.392 134.157L219.341 129.781L223.55 130.693L222.601 135.069ZM223.932 108.607L228.141 109.519L227.192 113.896L222.984 112.983L223.932 108.607ZM222.402 115.665L226.61 116.578L225.662 120.952L221.453 120.04L222.402 115.665ZM217.636 107.242L221.844 108.154L220.896 112.53L216.687 111.618L217.636 107.242ZM216.106 114.3L220.314 115.213L219.365 119.587L215.157 118.675L216.106 114.3ZM211.339 105.876L215.549 106.789L214.6 111.165L210.391 110.253L211.339 105.876ZM209.809 112.935L214.018 113.847L213.07 118.222L208.86 117.309L209.809 112.935ZM205.044 104.511L209.251 105.424L208.303 109.8L204.096 108.888L205.044 104.511ZM203.514 111.57L207.721 112.482L206.772 116.857L202.566 115.944L203.514 111.57ZM198.747 103.146L202.956 104.059L202.007 108.435L197.798 107.522L198.747 103.146ZM197.217 110.204L201.425 111.117L200.477 115.491L196.268 114.579L197.217 110.204ZM192.452 101.781L196.66 102.694L195.712 107.07L191.503 106.157L192.452 101.781ZM190.921 108.839L195.13 109.752L194.181 114.126L189.973 113.214L190.921 108.839ZM186.156 100.416L190.363 101.328L189.414 105.704L185.208 104.792L186.156 100.416ZM184.626 107.474L188.833 108.386L187.884 112.761L183.677 111.849L184.626 107.474ZM179.859 99.0505L184.068 99.9631L183.119 104.339L178.91 103.427L179.859 99.0505ZM178.328 106.109L182.537 107.021L181.589 111.396L177.38 110.483L178.328 106.109ZM173.564 97.6856L177.772 98.5981L176.824 102.974L172.615 102.062L173.564 97.6856ZM172.034 104.744L176.242 105.656L175.294 110.031L171.085 109.118L172.034 104.744ZM167.268 96.3204L171.475 97.2327L170.526 101.609L166.32 100.697L167.268 96.3204ZM165.737 103.379L169.945 104.291L168.996 108.665L164.79 107.753L165.737 103.379ZM160.971 94.955L165.18 95.8678L164.231 100.244L160.022 99.3313L160.971 94.955ZM159.44 102.013L163.65 102.926L162.701 107.301L158.492 106.388L159.44 102.013ZM157.91 109.07L166.311 110.892L165.362 115.268L156.962 113.446L157.91 109.07ZM156.38 116.129L160.589 117.041L159.64 121.417L155.431 120.505L156.38 116.129Z" stroke="#1F1F2E" stroke-width="2.77247" mask="url(#path-25-outside-1_4313_192977)"/>
<path d="M165.86 96.0152L166.007 95.3378L165.329 95.191L161.12 94.2782L160.442 94.1313L160.295 94.8087L159.346 99.1849L159.2 99.8623L159.877 100.009L164.087 100.922L164.764 101.069L164.911 100.391L165.86 96.0152Z" fill="white" stroke="#1F1F2E" stroke-width="1.38624"/>
<path d="M172.154 97.3799L172.301 96.7026L171.623 96.5557L167.416 95.6434L166.739 95.4965L166.592 96.1739L165.643 100.55L165.496 101.228L166.173 101.374L170.381 102.287L171.058 102.434L171.205 101.756L172.154 97.3799Z" fill="white" stroke="#1F1F2E" stroke-width="1.38624"/>
<path d="M178.45 98.7454L178.597 98.068L177.92 97.9211L173.712 97.0087L173.034 96.8618L172.888 97.5392L171.939 101.915L171.792 102.593L172.469 102.74L176.677 103.652L177.355 103.799L177.502 103.122L178.45 98.7454Z" fill="white" stroke="#1F1F2E" stroke-width="1.38624"/>
<path d="M184.748 100.111L184.895 99.4334L184.217 99.2865L180.008 98.3739L179.331 98.227L179.184 98.9044L178.235 103.281L178.088 103.958L178.766 104.105L182.974 105.017L183.652 105.164L183.799 104.487L184.748 100.111Z" fill="#FFE75C" stroke="#1F1F2E" stroke-width="1.38624"/>
<path d="M191.041 101.476L191.188 100.798L190.511 100.651L186.304 99.7391L185.626 99.5923L185.479 100.27L184.53 104.646L184.384 105.323L185.061 105.47L189.268 106.382L189.946 106.529L190.092 105.852L191.041 101.476Z" fill="white" stroke="#1F1F2E" stroke-width="1.38624"/>
<path d="M197.339 102.841L197.486 102.163L196.808 102.016L192.6 101.104L191.922 100.957L191.775 101.634L190.826 106.011L190.679 106.688L191.357 106.835L195.566 107.747L196.243 107.894L196.39 107.217L197.339 102.841Z" fill="white" stroke="#1F1F2E" stroke-width="1.38624"/>
<path d="M203.635 104.206L203.782 103.529L203.105 103.382L198.896 102.469L198.219 102.322L198.072 103L197.123 107.376L196.976 108.053L197.653 108.2L201.862 109.113L202.539 109.26L202.686 108.582L203.635 104.206Z" fill="white" stroke="#1F1F2E" stroke-width="1.38624"/>
<path d="M209.93 105.571L210.076 104.893L209.399 104.747L205.192 103.834L204.514 103.687L204.368 104.365L203.419 108.741L203.272 109.418L203.949 109.565L208.156 110.478L208.834 110.624L208.981 109.947L209.93 105.571Z" fill="white" stroke="#1F1F2E" stroke-width="1.38624"/>
<path d="M216.227 106.937L216.374 106.259L215.697 106.112L211.487 105.2L210.81 105.053L210.663 105.73L209.714 110.106L209.567 110.784L210.245 110.931L214.454 111.843L215.131 111.99L215.278 111.313L216.227 106.937Z" fill="white" stroke="#1F1F2E" stroke-width="1.38624"/>
<path d="M222.523 108.301L222.67 107.624L221.993 107.477L217.785 106.564L217.107 106.417L216.96 107.095L216.011 111.471L215.865 112.148L216.542 112.295L220.75 113.208L221.427 113.355L221.574 112.677L222.523 108.301Z" fill="white" stroke="#1F1F2E" stroke-width="1.38624"/>
<path d="M228.819 109.667L228.966 108.989L228.289 108.842L224.08 107.93L223.403 107.783L223.256 108.461L222.307 112.837L222.16 113.514L222.838 113.661L227.046 114.573L227.723 114.72L227.87 114.043L228.819 109.667Z" fill="white" stroke="#1F1F2E" stroke-width="1.38624"/>
<path d="M164.329 103.073L164.476 102.396L163.798 102.249L159.589 101.336L158.911 101.189L158.765 101.867L157.816 106.241L157.669 106.919L158.346 107.066L162.556 107.978L163.233 108.125L163.38 107.448L164.329 103.073Z" fill="white" stroke="#1F1F2E" stroke-width="1.38624"/>
<path d="M170.622 104.439L170.769 103.761L170.092 103.614L165.884 102.702L165.207 102.555L165.06 103.233L164.111 107.607L163.965 108.285L164.642 108.431L168.849 109.344L169.527 109.491L169.673 108.813L170.622 104.439Z" fill="white" stroke="#1F1F2E" stroke-width="1.38624"/>
<path d="M176.921 105.804L177.068 105.127L176.391 104.98L172.183 104.067L171.505 103.92L171.358 104.598L170.41 108.972L170.263 109.65L170.94 109.797L175.148 110.709L175.826 110.856L175.973 110.179L176.921 105.804Z" fill="#FFE75C" stroke="#1F1F2E" stroke-width="1.38624"/>
<path d="M183.217 107.169L183.364 106.492L182.686 106.345L178.477 105.432L177.8 105.286L177.653 105.963L176.705 110.338L176.558 111.015L177.235 111.162L181.444 112.074L182.121 112.221L182.268 111.544L183.217 107.169Z" fill="white" stroke="#1F1F2E" stroke-width="1.38624"/>
<path d="M189.511 108.534L189.657 107.857L188.98 107.71L184.773 106.798L184.095 106.651L183.949 107.328L183 111.703L182.853 112.38L183.531 112.527L187.738 113.439L188.415 113.586L188.562 112.909L189.511 108.534Z" fill="#FFE75C" stroke="#1F1F2E" stroke-width="1.38624"/>
<path d="M195.808 109.899L195.955 109.222L195.278 109.075L191.069 108.162L190.391 108.016L190.244 108.693L189.296 113.068L189.149 113.745L189.826 113.892L194.035 114.804L194.713 114.951L194.86 114.274L195.808 109.899Z" fill="white" stroke="#1F1F2E" stroke-width="1.38624"/>
<path d="M202.103 111.264L202.25 110.587L201.573 110.44L197.364 109.527L196.687 109.38L196.54 110.058L195.591 114.432L195.444 115.11L196.122 115.257L200.331 116.169L201.008 116.316L201.155 115.639L202.103 111.264Z" fill="white" stroke="#1F1F2E" stroke-width="1.38624"/>
<path d="M208.399 112.629L208.546 111.952L207.869 111.805L203.662 110.893L202.984 110.746L202.837 111.423L201.889 115.798L201.742 116.475L202.419 116.622L206.627 117.535L207.304 117.681L207.451 117.004L208.399 112.629Z" fill="#FFE75C" stroke="#1F1F2E" stroke-width="1.38624"/>
<path d="M214.696 113.995L214.843 113.318L214.166 113.171L209.956 112.258L209.279 112.111L209.132 112.789L208.184 117.163L208.037 117.841L208.714 117.988L212.924 118.9L213.601 119.047L213.748 118.37L214.696 113.995Z" fill="white" stroke="#1F1F2E" stroke-width="1.38624"/>
<path d="M220.991 115.36L221.138 114.683L220.461 114.536L216.253 113.623L215.575 113.477L215.429 114.154L214.48 118.529L214.333 119.206L215.011 119.353L219.219 120.265L219.896 120.412L220.043 119.735L220.991 115.36Z" fill="white" stroke="#1F1F2E" stroke-width="1.38624"/>
<path d="M227.288 116.725L227.435 116.048L226.758 115.901L222.55 114.989L221.872 114.842L221.725 115.519L220.777 119.894L220.63 120.571L221.307 120.718L225.515 121.63L226.193 121.777L226.34 121.1L227.288 116.725Z" fill="white" stroke="#1F1F2E" stroke-width="1.38624"/>
<path d="M166.989 111.039L167.136 110.362L166.459 110.215L158.058 108.393L157.381 108.247L157.234 108.924L156.285 113.3L156.138 113.977L156.816 114.124L165.216 115.946L165.894 116.093L166.041 115.415L166.989 111.039Z" fill="white" stroke="#1F1F2E" stroke-width="1.38624"/>
<path d="M225.749 123.78L225.896 123.103L225.219 122.956L216.818 121.135L216.141 120.988L215.994 121.665L215.045 126.041L214.898 126.719L215.576 126.866L223.976 128.687L224.653 128.834L224.8 128.156L225.749 123.78Z" fill="white" stroke="#1F1F2E" stroke-width="1.38624"/>
<path d="M172.578 112.251L172.724 111.574L172.047 111.427L167.84 110.515L167.162 110.368L167.015 111.045L166.067 115.421L165.92 116.099L166.597 116.245L170.804 117.158L171.482 117.305L171.629 116.627L172.578 112.251Z" fill="white" stroke="#1F1F2E" stroke-width="1.38624"/>
<path d="M178.774 113.595L178.921 112.917L178.243 112.771L174.036 111.858L173.359 111.711L173.212 112.389L172.263 116.765L172.116 117.442L172.793 117.589L177.001 118.501L177.678 118.648L177.825 117.971L178.774 113.595Z" fill="white" stroke="#1F1F2E" stroke-width="1.38624"/>
<path d="M184.969 114.938L185.116 114.26L184.439 114.113L180.231 113.201L179.553 113.054L179.407 113.732L178.458 118.108L178.311 118.785L178.988 118.932L183.196 119.844L183.874 119.991L184.021 119.314L184.969 114.938Z" fill="white" stroke="#1F1F2E" stroke-width="1.38624"/>
<path d="M191.167 116.281L191.314 115.604L190.637 115.457L186.429 114.545L185.751 114.398L185.604 115.075L184.655 119.451L184.509 120.129L185.186 120.276L189.394 121.188L190.071 121.335L190.218 120.658L191.167 116.281Z" fill="#FFE75C" stroke="#1F1F2E" stroke-width="1.38624"/>
<path d="M197.362 117.625L197.508 116.948L196.831 116.801L192.621 115.888L191.944 115.741L191.797 116.419L190.848 120.795L190.701 121.472L191.379 121.619L195.588 122.532L196.266 122.679L196.413 122.001L197.362 117.625Z" fill="white" stroke="#1F1F2E" stroke-width="1.38624"/>
<path d="M203.558 118.968L203.705 118.291L203.027 118.144L198.819 117.232L198.142 117.085L197.995 117.762L197.046 122.138L196.899 122.816L197.577 122.963L201.785 123.875L202.462 124.022L202.609 123.345L203.558 118.968Z" fill="white" stroke="#1F1F2E" stroke-width="1.38624"/>
<path d="M209.753 120.312L209.9 119.635L209.223 119.488L205.015 118.576L204.337 118.429L204.19 119.106L203.241 123.482L203.095 124.16L203.772 124.306L207.98 125.219L208.657 125.366L208.804 124.688L209.753 120.312Z" fill="white" stroke="#1F1F2E" stroke-width="1.38624"/>
<path d="M215.949 121.655L216.096 120.978L215.419 120.831L211.209 119.918L210.532 119.771L210.385 120.449L209.436 124.825L209.289 125.502L209.966 125.649L214.176 126.562L214.853 126.709L215 126.032L215.949 121.655Z" fill="white" stroke="#1F1F2E" stroke-width="1.38624"/>
<path d="M161.269 117.189L161.416 116.511L160.738 116.364L156.529 115.452L155.851 115.305L155.704 115.982L154.756 120.358L154.609 121.036L155.286 121.183L159.496 122.095L160.173 122.242L160.32 121.565L161.269 117.189Z" fill="white" stroke="#1F1F2E" stroke-width="1.38624"/>
<path d="M167.561 118.553L167.708 117.876L167.031 117.729L162.824 116.817L162.146 116.67L161.999 117.347L161.05 121.723L160.904 122.401L161.581 122.548L165.788 123.46L166.466 123.607L166.613 122.93L167.561 118.553Z" fill="white" stroke="#1F1F2E" stroke-width="1.38624"/>
<path d="M173.86 119.919L174.006 119.242L173.329 119.095L169.121 118.182L168.444 118.036L168.297 118.713L167.348 123.089L167.201 123.767L167.878 123.913L172.086 124.826L172.764 124.973L172.911 124.295L173.86 119.919Z" fill="white" stroke="#1F1F2E" stroke-width="1.38624"/>
<path d="M175.014 119.46L174.337 119.313L174.19 119.99L173.241 124.366L173.094 125.044L173.771 125.191L186.765 128.008L190.974 128.921L193.061 129.373L197.27 130.286L203.565 131.651L204.243 131.798L204.39 131.12L205.339 126.744L205.485 126.067L204.808 125.92L198.512 124.555L194.304 123.642L192.217 123.19L188.008 122.277L175.014 119.46Z" fill="white" stroke="#1F1F2E" stroke-width="1.38624"/>
<path d="M211.637 128.11L211.784 127.433L211.107 127.286L206.897 126.373L206.22 126.227L206.073 126.904L205.124 131.28L204.977 131.958L205.655 132.104L209.864 133.017L210.542 133.164L210.689 132.487L211.637 128.11Z" fill="#FFE75C" stroke="#1F1F2E" stroke-width="1.38624"/>
<path d="M217.932 129.475L218.079 128.797L217.401 128.651L213.193 127.738L212.516 127.591L212.369 128.269L211.42 132.645L211.273 133.322L211.951 133.469L216.159 134.382L216.836 134.528L216.983 133.851L217.932 129.475Z" fill="white" stroke="#1F1F2E" stroke-width="1.38624"/>
<path d="M224.228 130.841L224.375 130.163L223.698 130.016L219.49 129.104L218.812 128.957L218.665 129.634L217.717 134.011L217.57 134.688L218.247 134.835L222.455 135.747L223.132 135.894L223.279 135.217L224.228 130.841Z" fill="white" stroke="#1F1F2E" stroke-width="1.38624"/>
<path fill-rule="evenodd" clip-rule="evenodd" d="M231.705 134.413L228.627 122.704L231.705 114.405L225.489 118.698L225.349 102.57L212.789 112.983L211.67 100.533L201.723 108.279L199.802 99.3142L193.291 102.57L194.838 94.3099C198.7 90.0578 203.909 86.9661 209.966 85.7756C224.903 82.8398 239.338 92.5795 242.208 107.53C244.353 118.709 239.424 129.637 230.555 135.666L231.705 134.413Z" fill="#1F1F2E"/>
<path d="M230.308 88.0408V88.0318L230.308 88.0227C230.213 83.8564 227.71 80.2267 224.113 80.2267C222.31 80.2267 220.746 81.2384 219.641 82.7166C218.534 84.1967 217.836 86.1993 217.74 88.3654C217.643 90.5454 218.221 92.5717 219.295 94.0621C220.373 95.5589 221.977 96.5384 223.866 96.4845C225.74 96.4309 227.366 95.3878 228.498 93.8566C229.631 92.325 230.308 90.2663 230.308 88.0408Z" fill="white" stroke="#1F1F2E" stroke-width="1.59147"/>
<path d="M225.528 89.6538C225.059 91.8824 223.796 93.5042 222.711 93.2782C221.802 93.0829 221.339 92.0595 221.906 90.0168C222.133 89.1482 222.278 88.2606 222.338 87.3649C222.483 85.4529 223.512 85.0062 224.418 85.1999C225.503 85.4259 226.009 87.4079 225.528 89.6538Z" fill="#1F1F2E"/>
<path d="M221.823 85.9969L224.436 88.3682L219.621 89.0177L221.823 85.9969Z" fill="white"/>
<path d="M224.168 80.6748C226.979 80.6748 229.288 83.2109 229.991 86.6602C225.573 86.2544 221.758 86.0516 218.545 85.9501C219.549 82.9067 221.758 80.6748 224.168 80.6748Z" fill="#1F1F2E"/>
<path d="M231.546 82.4941C230.782 79.5061 228.462 75.6146 224.359 77.3054" stroke="#1F1F2E" stroke-width="2.69937" stroke-linecap="round" stroke-linejoin="round"/>
<path d="M210.247 87.9865C210.807 86.3814 210.915 84.8623 210.568 83.6964C210.392 83.1076 210.093 82.5854 209.65 82.2068C209.201 81.8219 208.639 81.6168 208.01 81.6168C206.78 81.6168 205.528 82.4287 204.488 83.519C203.422 84.6356 202.462 86.1603 201.824 87.8359C201.185 89.5127 201.012 91.1105 201.336 92.3308C201.5 92.9472 201.8 93.4972 202.265 93.8891C202.739 94.2884 203.334 94.4823 204 94.4576C205.287 94.41 206.585 93.5764 207.654 92.4376C208.741 91.28 209.684 89.7114 210.247 87.9865Z" fill="white" stroke="#1F1F2E" stroke-width="1.34643"/>
<path d="M206.667 88.0863C206.336 89.7194 205.506 90.9676 204.817 90.8755C204.238 90.794 203.958 90.088 204.349 88.5822C204.507 87.9428 204.612 87.2951 204.663 86.647C204.783 85.2626 205.447 84.8746 206.023 84.9552C206.712 85.0474 207.007 86.44 206.667 88.0863Z" fill="#1F1F2E"/>
<path d="M204.354 85.6968L205.988 87.2327L202.903 88.0121L204.354 85.6968Z" fill="white"/>
<path d="M208.071 81.2729C209.747 81.2729 210.585 83.0288 210.333 85.4536C207.586 85.7261 204.867 86.2295 202.204 86.9586C203.629 83.7813 206.143 81.2729 208.071 81.2729Z" fill="#1F1F2E"/>
<path d="M209.78 78.9394C208.053 78.6583 206.285 78.7623 204.604 79.2439" stroke="#1F1F2E" stroke-width="2.28374" stroke-linecap="round" stroke-linejoin="round"/>
<path d="M215.386 145.21C207.874 142.025 200.659 147.174 197.99 150.147C202.231 150.921 211.716 152.925 215.727 154.755C219.738 156.585 223.93 160.011 225.525 161.496C225.275 157.394 222.899 148.395 215.386 145.21Z" fill="#1F1F2E"/>
<path d="M256.234 157.154C263.386 153.225 263.808 144.371 263.125 140.435C259.892 143.287 252.447 149.495 248.527 151.513C244.607 153.531 239.321 154.702 237.168 155.035C240.544 157.378 249.083 161.083 256.234 157.154Z" fill="#1F1F2E"/>
<path d="M211.983 188.569C211.178 184.701 210.66 175.611 215.028 170.193C220.489 163.42 225.897 163.472 234.402 159.009C242.908 154.547 246.005 146.094 246.005 146.094C246.005 146.094 250.048 135.541 242.225 128.4C235.967 122.688 233.941 122.765 232.243 123.78" stroke="#1F1F2E" stroke-width="5.24838"/>
<path d="M204.412 311.837C201.863 313.896 198.699 315.108 195.665 315.783C190.876 316.85 188.388 320.474 192.889 322.428C200.305 325.647 213.467 327.783 228.216 327.783C244.396 327.783 258.394 325.196 265.104 321.436C268.582 319.486 266.48 315.943 262.572 315.149C258.992 314.421 255.037 313.433 251.208 311.837C244.266 308.945 242.823 302.37 242.823 299.124H209.822C210.363 301.468 210.038 307.293 204.412 311.837Z" fill="white" stroke="#1F1F2E" stroke-width="2.07391"/>
<path d="M260.021 175.555L260.06 174.601L260.998 174.772L260.85 175.588C260.998 174.772 260.999 174.772 260.999 174.772L261 174.772L261.002 174.772L261.009 174.774L261.033 174.778C261.054 174.782 261.084 174.788 261.123 174.796C261.201 174.811 261.315 174.834 261.462 174.866C261.756 174.929 262.183 175.026 262.721 175.163C263.797 175.435 265.32 175.866 267.119 176.5C270.713 177.767 275.433 179.853 279.902 183.132C282.667 185.161 284.523 188.085 285.769 191.164L299.013 223.907C299.081 224.076 299.204 224.219 299.362 224.311L315.642 233.841C316.405 234.287 316.873 235.105 316.873 235.988V267.116C316.873 268.002 316.406 268.807 315.667 269.264C311.798 271.655 303.313 277.683 294.752 286.244C285.498 295.498 281.242 301.185 280.297 302.805L280.149 303.059L279.874 303.163L267.434 307.882L267.292 307.936H267.14H255.557H254.694L254.729 307.073L260.021 175.555Z" fill="#FEE85B" stroke="#1F1F2E" stroke-width="1.65879"/>
<path d="M258.254 175.005L259.33 174.733L259.287 175.841L254.177 307.009L254.141 307.934L253.225 307.797L171.354 295.487L170.619 295.376L170.648 294.634L174.509 196.825L174.534 196.206L175.134 196.054L258.254 175.005Z" fill="white" stroke="#1F1F2E" stroke-width="1.65879"/>
<path d="M245.317 188.269L180.398 203.146L177.152 271.311L241.857 276.018L245.317 188.269Z" fill="#1F1F2E"/>
<path d="M180.592 291.873C179.186 291.873 178.041 291.015 177.296 289.893C176.545 288.763 176.115 287.262 176.115 285.656C176.115 284.049 176.545 282.548 177.296 281.418C178.041 280.296 179.186 279.438 180.592 279.438C181.999 279.438 183.144 280.296 183.889 281.418C184.64 282.548 185.07 284.049 185.07 285.656C185.07 287.262 184.64 288.763 183.889 289.893C183.144 291.015 181.999 291.873 180.592 291.873Z" fill="#FEE85B" stroke="#1F1F2E" stroke-width="2.07391"/>
<path d="M297.543 234.422L311.141 243.291" stroke="#1F1F2E" stroke-width="2.07391"/>
<path d="M297.543 243.291L311.141 252.16" stroke="#1F1F2E" stroke-width="2.07391"/>
<path d="M297.543 252.16L311.141 261.028" stroke="#1F1F2E" stroke-width="2.07391"/>
<path d="M241.729 329.36L313.693 329.36L308.439 321.271L298.359 312.99L286.343 321.271L277.978 298.453L260.029 315.931L250.445 310.82L240.224 317.741L241.729 329.36Z" fill="#1F1F2E"/>
<path fill-rule="evenodd" clip-rule="evenodd" d="M103.934 259.647L100.568 269.422L95.6313 258.057L99.9664 262.935L103.385 249.429L108.671 259.705L113.839 246.375L122.033 259.071L128.347 245.259C126.108 242.45 123.201 240.106 119.727 238.495C107.799 232.965 93.697 238.175 88.23 250.132C82.763 262.089 88.0007 276.266 99.9287 281.796C111.857 287.327 125.958 282.117 131.425 270.159C131.994 268.915 132.447 267.647 132.789 266.367L122.81 273.526L114.522 259.076L109.28 271.03L103.934 259.647Z" fill="#1F1F2E"/>
<path d="M136.852 306.025C136.852 306.025 140.59 290.824 132.539 287.008C120.069 281.098 114.816 294.162 103.554 296.793C92.4683 299.384 83.2919 283.942 78.1706 281.226C74.6546 279.361 68.065 278.089 65.4744 285.969C63.4019 292.272 64.6109 301.966 65.4744 306.025" stroke="white" stroke-width="2.07391"/>
<rect x="134.637" y="305.592" width="4.67127" height="3.5458" transform="rotate(14.1398 134.637 305.592)" fill="#1F1F2E" stroke="white" stroke-width="1.65879"/>
<path d="M91.0667 262.982C79.8037 300.395 115.139 295.864 103.299 326.18" stroke="#1F1F2E" stroke-width="5.24838"/>
<path d="M79.659 294.892C85.6277 299.928 93.6807 297.26 96.9611 295.297C93.3021 293.39 85.1966 288.876 82.046 286.069C78.8955 283.261 76.0316 278.943 74.9935 277.135C74.0617 280.956 73.6902 289.856 79.659 294.892Z" fill="#1F1F2E"/>
<path d="M114.291 300.808C121.006 297.353 123.01 289.605 123.173 286.164C119.937 288.667 112.55 294.117 108.895 295.892C105.239 297.667 100.598 298.705 98.7351 299.002C101.122 301.044 107.575 304.263 114.291 300.808Z" fill="#1F1F2E"/>
<path d="M80.3295 270.913C84.847 273.211 90.4015 271.513 90.4015 271.513C90.4015 271.513 88.5824 265.978 84.0649 263.68C79.5474 261.381 73.993 263.08 73.993 263.08C73.993 263.08 75.812 268.614 80.3295 270.913Z" fill="#1F1F2E"/>
<path d="M89.4554 278.706C90.5194 282.509 93.7555 285.007 93.7555 285.007C93.7555 285.007 95.2794 281.305 94.2154 277.501C93.1513 273.697 89.9152 271.2 89.9152 271.2C89.9152 271.2 88.3913 274.902 89.4554 278.706Z" fill="#1F1F2E"/>
<path d="M83.8547 274.02C81.1932 276.513 80.5525 280.141 80.5525 280.141C80.5525 280.141 84.2597 279.72 86.9212 277.227C89.5828 274.733 90.2235 271.106 90.2235 271.106C90.2235 271.106 86.5162 271.526 83.8547 274.02Z" fill="#1F1F2E"/>
<path d="M249.058 125.215C244.54 127.514 238.986 125.815 238.986 125.815C238.986 125.815 240.805 120.281 245.322 117.983C249.84 115.684 255.394 117.383 255.394 117.383C255.394 117.383 253.575 122.917 249.058 125.215Z" fill="#1F1F2E"/>
<path d="M239.932 133.009C238.868 136.813 235.632 139.31 235.632 139.31C235.632 139.31 234.108 135.608 235.172 131.804C236.236 128.001 239.472 125.503 239.472 125.503C239.472 125.503 240.996 129.205 239.932 133.009Z" fill="#1F1F2E"/>
<path d="M245.532 128.323C248.194 130.817 248.835 134.444 248.835 134.444C248.835 134.444 245.128 134.024 242.466 131.53C239.804 129.036 239.164 125.409 239.164 125.409C239.164 125.409 242.871 125.829 245.532 128.323Z" fill="#1F1F2E"/>
<path d="M123.968 329.38H250.086L238.969 300.377L220.587 319.468L212.582 304.416L207.838 318.734L195.386 311.024L193.607 324.607L163.069 311.024L166.627 323.873L146.169 315.062L123.968 329.38Z" fill="#1F1F2E"/>
<path d="M18.9753 330.297H133.771L116.989 305.592L104.772 321.379L94.4764 307.838L88.3753 320.719L72.3599 313.783L70.072 326.003L30.7962 313.783L35.372 325.343L9.06104 317.416L18.9753 330.297Z" fill="#1F1F2E"/>
<ellipse cx="66.4004" cy="307.51" rx="6.3602" ry="8.28803" transform="rotate(-13.5326 66.4004 307.51)" fill="#1F1F2E" stroke="white" stroke-width="1.65879"/>
<path d="M64.2661 300.31L65.6784 306.285" stroke="white" stroke-width="1.65879"/>
<path d="M59.3477 306.306H60.9234C64.012 306.306 67.0393 305.444 69.6643 303.816L71.0801 302.938" stroke="white" stroke-width="1.65879"/>
<path d="M100.043 246.668C98.2587 246.935 96.5704 246.175 95.2917 244.882C94.0124 243.588 93.0885 241.719 92.7696 239.589C92.4507 237.459 92.7864 235.401 93.6307 233.79C94.4746 232.179 95.8661 230.957 97.6503 230.69C99.4344 230.423 101.123 231.183 102.401 232.476C103.681 233.77 104.605 235.639 104.924 237.769C105.242 239.899 104.907 241.957 104.062 243.569C103.219 245.179 101.827 246.401 100.043 246.668Z" fill="white" stroke="#1F1F2E" stroke-width="1.78194"/>
<path d="M96.8456 238.743C97.1859 241.259 98.4587 243.164 99.6824 243C100.709 242.857 101.307 241.757 100.842 239.441C100.66 238.457 100.571 237.458 100.577 236.458C100.571 234.321 99.4629 233.741 98.4404 233.883C97.2168 234.046 96.4935 236.208 96.8456 238.743Z" fill="#1F1F2E"/>
<path d="M101.261 234.979L98.165 237.403L103.464 238.515L101.261 234.979Z" fill="white"/>
<path d="M96.8694 230.185C99.4006 229.363 102.147 230.742 103.687 233.331C99.6032 234.294 96.1147 235.246 93.1953 236.103C93.2984 233.344 94.6999 230.89 96.8694 230.185Z" fill="#1F1F2E"/>
<path d="M111.379 238.95C110.322 239.108 109.353 238.653 108.649 237.941C107.944 237.228 107.45 236.216 107.28 235.081C107.11 233.947 107.286 232.834 107.751 231.946C108.216 231.059 109.009 230.34 110.066 230.182C111.122 230.023 112.091 230.479 112.795 231.191C113.5 231.904 113.994 232.916 114.164 234.05C114.334 235.185 114.158 236.297 113.693 237.185C113.228 238.072 112.435 238.792 111.379 238.95Z" fill="white" stroke="#1F1F2E" stroke-width="1.78194"/>
<path d="M109.737 234.598C109.904 235.837 110.532 236.776 111.135 236.696C111.641 236.625 111.935 236.083 111.706 234.941C111.616 234.456 111.573 233.964 111.575 233.471C111.573 232.418 111.027 232.132 110.523 232.202C109.92 232.283 109.563 233.348 109.737 234.598Z" fill="#1F1F2E"/>
<path d="M111.912 232.742L110.387 233.937L112.998 234.485L111.912 232.742Z" fill="white"/>
<path d="M109.747 230.379C110.995 229.973 112.348 230.653 113.108 231.929C111.095 232.404 109.375 232.873 107.937 233.295C107.987 231.935 108.678 230.726 109.747 230.379Z" fill="#1F1F2E"/>
</g>
</g>
<defs>
<clipPath id="clip0_4313_192977">
<rect width="419.87" height="328.024" fill="white"/>
</clipPath>
<clipPath id="clip1_4313_192977">
<rect width="358.987" height="316.652" fill="white" transform="translate(30.4414 11.3716)"/>
</clipPath>
<clipPath id="clip2_4313_192977">
<rect width="435.061" height="252.706" fill="white" transform="translate(1.15137 75.3184)"/>
</clipPath>
<clipPath id="clip3_4313_192977">
<rect width="184.308" height="194.612" fill="white" transform="translate(240.289 134.655)"/>
</clipPath>
<clipPath id="clip4_4313_192977">
<rect width="184.308" height="165.45" fill="white" transform="matrix(-1 0 0 1 223.004 163.801)"/>
</clipPath>
</defs>
</svg>
