<svg width="353" height="276" viewBox="0 0 353 276" fill="none" xmlns="http://www.w3.org/2000/svg">
<g clip-path="url(#clip0_4313_192596)">
<circle cx="178.406" cy="150.088" r="149.222" fill="#F0F2F5"/>
</g>
<g clip-path="url(#clip1_4313_192596)">
<path d="M163.467 259.233C163.467 259.233 171.641 189.411 175.311 180.516C178.982 171.62 185.225 160.085 190.054 161.784C194.882 163.483 190.054 202.015 196.014 197.765C201.975 193.516 199.136 154.986 201.69 149.603C204.244 144.219 213.324 127.391 218.718 128.722C224.112 130.054 212.475 166.906 218.718 163.919C224.962 160.932 236.031 119.016 240.855 112.493C245.68 105.971 251.072 98.5602 256.181 100.424C261.29 102.288 248.349 124.736 250.42 128.953C252.491 133.17 257.941 104.787 261.886 111.046C265.83 117.304 264.469 137.138 261.886 144.785C259.302 152.432 228.25 174.188 230.011 176.486C231.771 178.783 251.638 166.928 255.044 168.04C258.449 169.152 256.227 181.887 249.959 191.951C243.691 202.015 224.947 198.573 223.535 201.71C222.123 204.848 240.1 201.646 239.718 207.713C239.336 213.78 232.898 223.299 223.535 235.163C214.173 247.027 180.312 254.757 180.312 254.757L163.467 259.233Z" fill="#D0D5DC"/>
<path d="M157.285 263.766C157.285 263.766 235.319 197.073 268.449 218.684C271.766 220.848 235.645 235.213 240.32 236.99C244.994 238.767 269.627 219.933 276.388 222.231C283.149 224.529 295.555 235.716 293.738 237.168C291.922 238.621 268.605 246.419 273.281 248.197C277.957 249.975 297.443 240.69 302.055 243.481C306.668 246.273 328.82 269.812 327.56 272.396C326.3 274.98 294.752 263.783 260.827 252.906C226.903 242.029 173.586 255.108 157.285 263.766Z" fill="white"/>
<path d="M167.968 255.226C167.968 255.226 182.225 244.834 179.142 189.558C179.297 181.704 174.118 159.648 173.423 155.773C170.045 136.92 159.511 167.521 159.447 177.386C159.382 187.25 155.078 180.797 155.357 172.511C155.636 164.225 159.326 144.013 157.054 137.684C154.781 131.355 133.184 108.946 130.566 111.918C127.948 114.889 133.196 150.381 128.718 144.151C124.241 137.922 125.132 106.022 119.634 99.7274C114.135 93.4326 90.3773 83.1882 87.6998 87.1736C85.0223 91.1591 103.342 122.056 99.2952 118.987C95.2486 115.918 83.6445 94.3618 81.3073 89.0486C78.97 83.7355 59.7262 110.404 66.5531 118.67C73.3799 126.936 100.58 129.875 108.276 136.07C115.972 142.264 121.958 150.702 115.476 148.97C108.993 147.237 80.2833 133.237 79.1063 140.84C77.9293 148.444 88.9549 171.682 104.97 175.34C120.985 178.997 137.084 172.298 143.199 176.837C149.314 181.376 155.654 187.959 150.071 186.907C144.487 185.855 111.989 181.025 114.316 187.747C116.642 194.469 126.542 209.416 140.235 213.792C153.929 218.167 161.825 211.057 163.452 212.645C165.078 214.234 152.933 224.135 148.452 226.754C143.971 229.374 154.965 247.689 167.968 255.226Z" fill="#D0D5DC"/>
<path d="M109.181 127.568C127.432 146.992 145.323 168.498 156.984 192.644C162 203.032 164.086 214.338 164.511 225.792C164.895 236.202 161.162 247.381 162.824 257.577C163.269 260.31 166.483 260.754 167.869 258.476C173.382 249.39 172.864 235.447 172.651 225.128C172.414 213.284 169.195 202.753 163.698 192.331C157.183 179.979 147.567 168.899 138.815 158.084C129.882 147.04 119.833 136.916 109.537 127.15C109.274 126.901 108.943 127.316 109.181 127.569L109.181 127.568Z" fill="white"/>
<path d="M248.037 132.93C234.103 153.633 219.349 173.764 205.13 194.268C198.255 204.187 191.345 214.083 184.247 223.845C177.329 233.361 169.465 243.884 165.005 254.809C164.907 255.066 164.895 255.348 164.971 255.612C165.047 255.876 165.206 256.109 165.426 256.276C165.645 256.442 165.912 256.533 166.188 256.535C166.463 256.537 166.732 256.449 166.954 256.286C175.939 249.861 182.912 240.341 189.842 231.864C198.078 221.793 205.354 210.712 212.492 199.854C226.392 178.7 237.97 156.185 248.607 133.249C248.632 133.175 248.631 133.096 248.603 133.023C248.575 132.951 248.522 132.89 248.455 132.853C248.387 132.815 248.308 132.802 248.232 132.816C248.155 132.83 248.086 132.871 248.037 132.931V132.93Z" fill="white"/>
</g>
<path d="M111.925 264.023H177.679L179.807 242.259L165.905 256.033L158.834 242.259L154.972 256.033L145.038 250.248L143.619 260.441L137.742 242.259L131.626 261.434L105.775 253.279L111.925 264.023Z" fill="#828892"/>
<path d="M70.0949 264.008H135.849L137.743 242.259L123.313 256.57L116.927 245.275L113.142 256.019L103.208 250.234L101.789 260.427L77.4272 250.234L80.2655 259.876L63.9453 253.264L70.0949 264.008Z" fill="#828892"/>
<path d="M235.653 264.023H169.899L176.515 253.279L192.606 242.259V256.033L202.54 250.248L203.959 260.441L209.836 242.259L215.953 261.434L241.803 253.279L235.653 264.023Z" fill="#828892"/>
<path d="M277.483 264.008H211.729L209.835 242.259L224.265 256.57L230.651 245.275L234.436 256.019L244.37 250.234L245.789 260.427L270.151 250.234L267.313 259.876L283.633 253.264L277.483 264.008Z" fill="#828892"/>
<path fill-rule="evenodd" clip-rule="evenodd" d="M144.348 156.202L151.633 166.459L153.507 151.507L150.113 158.683L141.487 144.089L138.83 157.889L128.221 144.1L122.995 161.718L110.879 147.758C112.535 143.713 115.129 139.983 118.638 136.914C130.685 126.382 148.953 127.64 159.442 139.725C169.931 151.81 168.668 170.145 156.621 180.677C144.575 191.21 126.306 189.951 115.817 177.866C114.727 176.61 113.764 175.287 112.927 173.912L127.042 178.853L131.776 159.156L142.001 171.313L144.348 156.202Z" fill="#828892"/>
<path d="M160.832 161.788C175.723 209.117 129.312 223.412 144.965 261.763" stroke="#828892" stroke-width="6.04"/>
<path d="M178.16 208.325C171.183 214.212 161.769 211.093 157.934 208.797C162.211 206.569 171.687 201.292 175.37 198.01C179.052 194.728 182.4 189.681 183.614 187.567C184.703 192.033 185.137 202.438 178.16 208.325Z" fill="#828892"/>
<path d="M110.525 212.848C98.3631 200.24 101.788 181.718 105.021 174.033C110.001 181.95 121.645 199.443 128.377 206.074C135.109 212.705 144.931 218.451 149 220.495C141.242 223.199 122.687 225.455 110.525 212.848Z" fill="#828892"/>
<circle cx="137.81" cy="134.354" r="19.5036" fill="#828892"/>
<path d="M120.406 149.842L120.95 149.213L120.431 148.563C119.991 148.013 119.541 147.44 119.146 146.842C112.661 137.023 115.373 123.757 125.193 117.272C135.012 110.787 148.244 113.446 154.818 123.285C161.301 133.105 158.589 146.369 148.77 152.854C142.512 156.987 134.815 157.394 128.434 154.593L127.685 154.264L127.214 154.933L99.1802 194.775C99.1281 194.833 99.0075 194.918 98.6807 194.926C98.3114 194.934 97.7942 194.834 97.1445 194.593C95.8537 194.115 94.2905 193.177 92.8278 192.034C91.3653 190.891 90.0783 189.602 89.3032 188.469C88.9129 187.899 88.6917 187.425 88.6109 187.07C88.5393 186.755 88.5944 186.629 88.631 186.576L120.406 149.842ZM146.266 149.178C154.079 144.017 156.175 133.526 151.052 125.77C145.893 117.958 135.455 115.824 127.644 120.983C119.832 126.142 117.698 136.58 122.857 144.392C128.018 152.205 138.51 154.301 146.266 149.178Z" fill="white" stroke="#828892" stroke-width="2"/>
<rect x="177.676" y="180.396" width="46.1145" height="56.62" transform="rotate(-8.65735 177.676 180.396)" fill="white" stroke="#828892" stroke-width="1.32642"/>
<path d="M189.521 194.339L191.789 193.747L190.023 191.652C190.588 191.132 190.783 190.414 190.629 189.432C190.37 187.779 189.345 187.005 187.752 187.255L184.536 187.76L185.627 194.714L187.731 194.384L187.464 192.68L188.014 192.522L189.521 194.339ZM186.931 189.284L187.662 189.169C188.113 189.098 188.414 189.318 188.485 189.769C188.551 190.189 188.375 190.443 187.922 190.565L187.165 190.777L186.931 189.284ZM196.183 189.741C195.981 188.459 195.105 187.909 193.622 188.141C191.868 188.416 191.153 189.483 191.453 191.397C191.735 193.191 192.618 193.719 194.875 193.447L196.084 193.299L196.032 191.726L194.496 191.813C193.907 191.854 193.654 191.75 193.546 191.387L196.231 190.966C196.257 190.541 196.239 190.102 196.183 189.741ZM193.734 189.51C194.024 189.464 194.2 189.601 194.249 189.911L194.293 190.192L193.371 190.337L193.35 190.206C193.286 189.795 193.413 189.56 193.734 189.51ZM197.022 193.131L198.569 192.785C200.274 192.395 200.929 191.727 200.748 190.575C200.63 189.824 200.233 189.455 199.442 189.384L198.901 189.335C198.671 189.31 198.616 189.288 198.603 189.207C198.591 189.127 198.646 189.088 198.837 189.058L200.229 188.839L199.992 187.326L198.539 187.554C196.976 187.8 196.244 188.5 196.417 189.602C196.54 190.383 197.023 190.78 197.913 190.825L198.399 190.851C198.678 190.859 198.721 190.873 198.734 190.953C198.746 191.033 198.681 191.074 198.484 191.125L196.6 191.616L197.022 193.131ZM203.899 192.031C205.652 191.756 206.289 190.968 206.039 189.375L205.579 186.449L203.515 186.773L203.971 189.679C204.05 190.18 203.968 190.378 203.647 190.428C203.327 190.478 203.188 190.315 203.11 189.814L202.654 186.909L200.59 187.233L201.049 190.158C201.299 191.751 202.146 192.306 203.899 192.031ZM206.923 191.372L208.987 191.048L207.863 183.884L205.832 184.418L206.923 191.372ZM212.073 189.075C211.586 189.11 211.356 188.951 211.293 188.551L211.078 187.178L212.661 186.929L212.417 185.376L210.844 185.623L210.646 184.361L208.616 184.905L209.247 188.923C209.491 190.476 210.233 190.955 212.109 190.743L213.179 190.626L213.121 189.013L212.073 189.075ZM213.333 186.321L213.166 185.259L218.026 184.496L218.192 185.558L213.333 186.321ZM213.632 188.225L213.464 187.153L218.323 186.39L218.491 187.462L213.632 188.225ZM190.809 199.935L191.39 203.632L188.996 200.219L186.551 200.603L187.642 207.557L189.566 207.255L188.988 203.568L191.37 206.972L193.814 206.588L192.723 199.634L190.809 199.935ZM197.79 206.149C199.884 205.82 200.663 204.897 200.378 203.084L199.666 198.545L197.562 198.875L198.254 203.284C198.354 203.925 198.135 204.226 197.503 204.325C196.872 204.424 196.581 204.203 196.479 203.552L195.788 199.153L193.684 199.484L194.397 204.022C194.681 205.836 195.706 206.476 197.79 206.149ZM201.723 205.347L206.251 204.636L206.171 202.75L203.536 203.163L202.735 198.063L200.631 198.393L201.723 205.347ZM207.055 204.51L211.584 203.799L211.504 201.913L208.868 202.326L208.068 197.226L205.964 197.557L207.055 204.51Z" fill="#828892"/>
<path d="M174.23 162.553C171.473 169.006 164.064 172.134 164.064 172.134C164.064 172.134 161.082 164.64 163.84 158.187C166.598 151.734 174.006 148.607 174.006 148.607C174.006 148.607 176.988 156.101 174.23 162.553Z" fill="#828892"/>
<path d="M171.457 178.934C173.704 183.919 172.484 189.446 172.484 189.446C172.484 189.446 167.578 186.866 165.331 181.881C163.084 176.896 164.303 171.369 164.303 171.369C164.303 171.369 169.21 173.949 171.457 178.934Z" fill="#828892"/>
<path d="M173.247 168.983C178.288 169.269 182.19 172.553 182.19 172.553C182.19 172.553 177.879 175.398 172.837 175.113C167.796 174.827 163.894 171.543 163.894 171.543C163.894 171.543 168.205 168.697 173.247 168.983Z" fill="#828892"/>
<path d="M135.772 147.943C138.686 148.379 141.491 147.145 143.663 144.95C145.834 142.754 147.426 139.553 147.976 135.877C148.527 132.201 147.943 128.674 146.509 125.939C145.076 123.203 142.756 121.202 139.841 120.765C136.927 120.329 134.122 121.563 131.95 123.758C129.779 125.954 128.187 129.155 127.636 132.831C127.086 136.508 127.67 140.034 129.104 142.77C130.536 145.505 132.857 147.507 135.772 147.943Z" fill="white" stroke="#828892" stroke-width="1.78053"/>
<path d="M141.425 135.405C140.817 139.902 138.541 143.308 136.353 143.016C134.517 142.76 133.449 140.793 134.281 136.652C134.606 134.892 134.764 133.108 134.755 131.319C134.764 127.498 136.745 126.461 138.574 126.715C140.761 127.007 142.054 130.872 141.425 135.405Z" fill="#828892"/>
<path d="M133.53 128.675L139.065 133.008L129.591 134.997L133.53 128.675Z" fill="white"/>
<defs>
<clipPath id="clip0_4313_192596">
<rect width="298.233" height="263.062" fill="white" transform="translate(29.334 0.945801)"/>
</clipPath>
<clipPath id="clip1_4313_192596">
<rect width="262.519" height="184.393" fill="white" transform="translate(65.1074 86.1084)"/>
</clipPath>
</defs>
</svg>
