<svg width="426" height="318" viewBox="0 0 426 318" fill="none" xmlns="http://www.w3.org/2000/svg">
<g clip-path="url(#clip0_4313_193592)">
<circle cx="215.322" cy="179.771" r="179.815" fill="#FFE75C"/>
<mask id="mask0_4313_193592" style="mask-type:alpha" maskUnits="userSpaceOnUse" x="35" y="-1" width="361" height="361">
<circle cx="215.32" cy="179.772" r="179.815" fill="#FFE75C"/>
</mask>
<g mask="url(#mask0_4313_193592)">
<path d="M-68.8923 197.919C-67.4193 196.759 -65.862 196.979 -64.4728 198.42C-64.3375 198.547 -64.3457 198.547 -64.4997 198.42C-65.1618 194.622 -59.0018 195.983 -56.6531 196.747C-57.4377 190.95 -52.0483 192.518 -48.4418 191.492C-49.7257 188.463 -47.8499 186.67 -44.718 187.401C-48.0278 184.865 -45.5983 181.77 -42.1025 181.024C-43.1733 179.57 -42.8019 177.886 -41.338 176.58C-40.9531 176.622 -40.6595 177.109 -40.2858 177.258C-41.2663 171.125 -33.6453 174.282 -32.0102 177.621C-31.996 177.086 -31.9437 176.446 -31.9714 175.935C-29.3887 176.234 -27.1633 178.755 -25.9691 181.088C-23.0465 180.193 -20.759 183.414 -20.4391 186.205C-16.116 184.258 -10.3125 186.596 -7.06256 185.231C-4.24974 184.052 -4.37228 179.083 -0.0417023 181.181C-0.151558 181.481 -0.279343 182.828 -0.302505 182.944C0.361092 178.852 5.62354 178.354 8.86531 179.563C9.1037 175.622 12.0943 173.778 15.9601 174.323C16.0236 171.264 19.6279 168.57 21.2017 172.002C24.5249 171.064 26.2638 175.259 25.3656 178.066C28.9825 177.692 30.495 180.327 29.8426 183.661C34.7875 182.912 33.9139 188.629 32.172 191.534C36.1543 189.887 35.623 194.336 35.0386 197.026C39.8661 195.674 40.8675 198.787 38.775 202.342C39.8855 202.279 40.9915 202.528 41.9693 203.059C42.947 203.59 43.7581 204.383 44.3118 205.349C47.4504 203.966 49.625 206.635 47.691 209.458C49.3089 208.709 50.8932 207.628 52.449 206.817C53.0274 203.473 55.5481 200.564 58.3691 198.736C53.9063 197.378 57.0203 192.64 60.558 193.086C60.886 190.105 64.7832 191.916 65.2405 194.516C68.1848 193.236 69.6585 195.682 69.3185 198.623C70.5433 195.928 72.4079 194.859 74.5122 196.717C75.7961 194.587 78.4198 194.103 80.7753 194.759C80.5989 194.616 80.3763 191.84 82.2654 191.109C79.5191 189.863 79.3666 186.822 81.8095 184.895C80.2021 185.097 78.709 184.255 77.204 184.119C78.0073 182.742 78.0469 181.676 80.0302 181.186C75.0405 179.422 81.338 175.452 84.4288 175.881C78.1672 172.87 89.4163 171.071 91.212 170.651C88.113 166.09 97.5932 164.944 100.511 164.961C96.668 163.067 94.1407 156.86 100.81 157.21C93.6535 155.059 103.309 153.074 105.715 153.005C101.538 149.426 107.053 145.24 110.976 148.091C115.475 139.399 122.208 149.925 122.208 149.925C122.208 149.925 134.03 146.843 130 152.545C134.275 151.854 135.403 154.245 136.997 153.349C132.148 149.007 139.104 148.266 142.218 147.783C140.723 145.054 136.506 139.024 144.092 140.328C141.038 133.195 151.266 137.122 151.266 137.122C151.266 137.122 153.054 133.898 156.769 136.904C158.584 138.372 160.046 141.314 160.958 143.325C164.199 141.265 168.16 143.675 170.566 146.315C177.953 140.026 182.473 148.921 182.473 148.921C182.473 148.921 185.871 146.315 189.159 147.165C192.685 148.077 196.274 149.449 197.364 153.08C199.949 147.517 207.747 151.267 202.629 157.45C206.108 151.975 213.679 156.851 206.708 162.287C211.545 159.271 210.637 168.071 206.627 169.462C212.838 172.083 209.99 179.257 205.104 183.313C203.246 178.705 212.982 179.258 208.893 185.823C208.685 177.662 218.674 179.826 213.736 187.709C214.212 180.617 223.555 182.273 220.809 189.581C221.345 182.98 231.665 185.976 225.666 191.936C227.14 190.776 229.285 193.508 229.714 198.414C229.73 198.599 229.839 198.542 229.686 198.414C229.023 194.616 235.184 195.978 237.532 196.742C236.749 190.945 242.138 192.513 245.744 191.487C244.461 188.458 246.335 186.664 249.468 187.396C246.159 184.86 248.586 181.764 252.084 181.019C251.013 179.565 251.384 177.881 252.847 176.575C253.232 176.617 253.526 177.104 253.9 177.253C252.92 171.12 260.542 174.277 262.176 177.616C262.189 177.081 262.242 176.441 262.213 175.929C264.797 176.229 267.024 178.749 268.216 181.082C271.14 180.188 273.427 183.408 273.746 186.199C278.07 184.253 283.872 186.591 287.123 185.226C289.937 184.047 289.813 179.078 294.148 181.176C294.036 181.475 293.91 182.823 293.885 182.939C294.55 178.847 299.812 178.349 303.054 179.558C303.293 175.616 306.284 173.772 310.153 174.317C310.216 171.258 313.82 168.565 315.395 171.997C318.717 171.059 320.456 175.253 319.558 178.061C323.175 177.686 324.687 180.322 324.036 183.655C328.979 182.907 328.107 188.624 326.364 191.529C330.346 189.882 329.815 194.331 329.232 197.021C334.058 195.668 335.06 198.782 332.968 202.337C334.078 202.274 335.184 202.522 336.162 203.053C337.14 203.585 337.951 204.378 338.504 205.344C341.643 203.96 343.818 206.63 341.885 209.453C343.502 208.704 345.087 207.623 346.643 206.812C347.221 203.468 349.741 200.559 352.562 198.731C348.099 197.373 351.213 192.635 354.751 193.08C355.078 190.1 358.978 191.911 359.434 194.511C362.378 193.231 363.852 195.677 363.512 198.618C365.604 197.332 367.45 195.249 370.118 195.351C369.325 196.255 369.868 196.04 368.705 196.712C369.989 194.581 372.613 194.098 374.969 194.754C374.64 194.539 374.292 194.354 373.929 194.202C374.766 192.836 374.569 191.836 376.459 191.104C373.711 189.858 373.56 186.817 376.003 184.89C374.395 185.091 372.901 184.25 371.398 184.114C372.2 182.737 372.24 181.671 374.223 181.18C369.233 179.417 375.531 175.447 378.621 175.876C372.361 172.865 383.61 171.066 385.406 170.646C382.306 166.084 391.786 164.939 394.703 164.956C390.861 163.062 388.335 156.854 395.002 157.205C387.846 155.054 397.501 153.069 399.907 153C395.73 149.421 401.246 145.234 405.168 148.086C406.083 140.099 414.411 147.113 417.44 147.861C419.586 148.395 428.222 146.837 424.191 152.543C428.468 151.852 429.596 154.243 431.19 153.347C426.34 149.005 433.296 148.263 436.409 147.781C434.915 145.052 430.698 139.021 438.285 140.326C435.231 133.193 442.803 136.874 445.459 137.12C447.815 137.338 448.081 135.315 450.962 136.902C453.007 138.025 454.239 141.312 455.151 143.322C458.393 141.263 462.353 143.673 464.76 146.312C468.347 140.813 473.112 148.649 476.668 148.919C478.359 149.047 480.065 146.313 483.352 147.163C486.877 148.075 488.793 150.955 491.555 153.077V343.832H-68.9072L-68.8923 197.919Z" fill="#FFC619"/>
<path d="M55.969 116.908C55.969 116.908 57.7132 198.763 54.2256 228.209H64.6877C64.6877 228.209 63.9404 145.109 57.7132 116.908H55.969Z" fill="#FFC619"/>
<path d="M86.1594 99.8774C61.7976 100.974 59.336 111.12 59.336 111.12C55.7774 94.9407 45.3765 95.4895 45.3765 95.4895C46.4713 100.426 48.9352 107.83 48.9352 107.83C22.6588 101.248 15.5415 116.33 15.5415 116.33C21.0298 115.106 26.6374 114.5 32.26 114.523C34.6476 112.89 37.1975 111.511 39.869 110.405C39.9292 110.37 40.001 110.36 40.0685 110.378C40.136 110.395 40.1936 110.439 40.2288 110.5C40.264 110.56 40.2738 110.632 40.256 110.7C40.2383 110.767 40.1945 110.825 40.1342 110.86C38.5051 112.094 36.7826 113.276 35.1371 114.529C41.652 114.628 46.4713 115.231 46.4713 115.231C22.3845 130.312 26.4901 145.943 26.4901 145.943C31.0486 144.828 35.2043 140.815 38.5283 136.444C38.8071 133.674 39.0552 130.908 39.2061 128.105C39.2095 128.045 39.2359 127.988 39.2799 127.946C39.3239 127.905 39.3821 127.881 39.4426 127.881C39.5032 127.881 39.5614 127.905 39.6054 127.946C39.6494 127.988 39.6757 128.045 39.6791 128.105C39.7285 130.183 39.8667 132.34 39.9325 134.509C40.3311 133.932 40.7154 133.358 41.0856 132.787C41.2036 130.844 41.2567 128.885 41.1865 126.872C41.179 126.664 41.4757 126.678 41.5018 126.872C41.6849 128.278 41.8964 129.746 42.0638 131.234C43.7074 128.555 45.18 125.774 46.4728 122.908C39.6298 142.104 46.4728 160.202 46.4728 160.202C58.2427 147.862 57.9692 125.925 57.9692 125.925C58.924 131.103 60.7729 136.076 63.4327 140.619C63.2203 138.621 63.1673 136.609 63.2743 134.602C63.2775 134.549 63.301 134.498 63.3401 134.461C63.3792 134.424 63.4309 134.404 63.4846 134.404C63.5384 134.404 63.59 134.424 63.6291 134.461C63.6682 134.498 63.6918 134.549 63.695 134.602C64.0107 137.753 64.645 140.863 65.5879 143.886C71.1695 151.535 77.4026 154.442 77.4026 154.442C77.1284 143.748 67.0018 124.553 67.0018 124.553C68.383 125.992 69.8717 127.323 71.4549 128.534C70.8257 126.702 70.1262 124.9 69.3625 123.111C69.207 122.747 69.7025 122.428 69.9065 122.792C71.1022 124.928 72.6416 127.498 73.8223 130.172C78.8703 133.324 82.3295 133.327 82.3295 133.327C81.2355 116.052 65.0857 111.117 65.0857 111.117C83.6971 108.652 86.1594 99.8774 86.1594 99.8774Z" fill="#FFC619"/>
<path d="M150.472 61.6147C150.472 61.6147 171.588 127.845 160.067 178.505H174.027C174.027 178.505 174.163 102.72 152.388 61.6147H150.472Z" fill="#FFC619"/>
<path d="M107.718 54.8959C135.755 44.429 143.393 54.7028 143.393 54.7028C139.667 34.7219 151.676 30.3438 151.676 30.3438C152.803 36.4445 153.565 45.9907 153.565 45.9907C180.089 25.9312 195.348 39.5432 195.348 39.5432C188.642 40.637 181.616 43.0447 175.601 45.5362C172.123 44.8397 168.583 44.5065 165.037 44.542C164.952 44.5326 164.868 44.5567 164.801 44.6092C164.734 44.6617 164.691 44.7383 164.68 44.8226C164.67 44.9069 164.692 44.992 164.744 45.0595C164.795 45.1271 164.871 45.1716 164.955 45.1836C167.386 45.7945 169.897 46.3014 172.353 46.928C165.043 50.1712 159.888 53.168 159.888 53.168C194.313 58.6257 197.159 78.248 197.159 78.248C191.475 79.1808 184.863 76.6436 179.016 73.3069C177.377 70.3123 175.771 67.3079 174.258 64.2145C174.224 64.1496 174.168 64.0998 174.099 64.0749C174.03 64.05 173.955 64.0519 173.888 64.0802C173.82 64.1085 173.766 64.1611 173.736 64.2276C173.706 64.294 173.701 64.3695 173.724 64.439C174.663 66.8085 175.54 69.3113 176.504 71.7923C175.775 71.3337 175.067 70.8702 174.378 70.4021C173.314 68.2639 172.315 66.0779 171.432 63.7705C171.34 63.5309 171.011 63.6904 171.076 63.9202C171.542 65.595 172.006 67.3543 172.529 69.1152C169.39 66.8786 166.394 64.4456 163.561 61.8307C180.48 80.2207 181.417 103.947 181.417 103.947C162.216 95.6677 152.022 70.7614 152.022 70.7614C153.423 77.0692 153.716 83.5733 152.887 89.9817C152.171 87.6228 151.267 85.3251 150.185 83.1105C150.158 83.0475 150.107 82.9977 150.044 82.972C149.981 82.9464 149.91 82.9471 149.847 82.9739C149.784 83.0007 149.734 83.0514 149.708 83.115C149.683 83.1785 149.683 83.2496 149.71 83.3127C150.862 87.0228 151.635 90.8406 152.017 94.7072C149.375 106.027 143.73 112.307 143.73 112.307C138.918 100.098 141.166 73.5532 141.166 73.5532C140.294 75.8417 139.25 78.0604 138.042 80.19C137.875 77.8183 137.802 75.4473 137.809 73.0591C137.809 72.5739 137.097 72.4512 137.041 72.961C136.71 75.9496 136.205 79.5888 136.153 83.1764C131.961 89.1657 128.055 90.8292 128.055 90.8292C121.021 70.7921 136.896 57.4586 136.896 57.4586C114.7 63.6223 107.718 54.8959 107.718 54.8959Z" fill="#FFC619"/>
<path d="M319.814 113.174C319.814 113.174 334.284 172.364 339.837 226.999L328.498 228.156C328.498 228.156 327.681 163.741 316.843 113.477L319.814 113.174Z" fill="#FFC619"/>
<path d="M290.91 108.927C290.099 110.167 289.233 111.371 288.382 112.566C283.531 113.214 278.755 114.332 274.121 115.905C274.121 115.905 280.173 98.7731 309.376 103.001C309.376 103.001 305.892 95.2462 304.161 90.0196C304.161 90.0196 315.373 88.2753 321.012 105.417C321.012 105.417 322.56 94.1472 348.845 90.2667C348.845 90.2667 348.062 94.7127 341.451 99.0657C340.448 98.4338 339.401 97.8761 338.317 97.3969C338.241 97.3623 338.154 97.3594 338.076 97.3888C337.998 97.4182 337.935 97.4774 337.9 97.5535C337.866 97.6296 337.863 97.7163 337.892 97.7946C337.922 97.8728 337.981 97.9362 338.057 97.9707C338.977 98.4317 339.865 98.9543 340.714 99.5351C339.932 100.017 339.077 100.495 338.14 100.963C337.146 100.064 336.098 99.225 335.003 98.4515C334.955 98.418 334.897 98.4037 334.839 98.4115C334.782 98.4194 334.729 98.4488 334.692 98.4938C334.655 98.5389 334.637 98.5962 334.641 98.6544C334.644 98.7125 334.67 98.7671 334.712 98.8072C335.594 99.6264 336.428 100.496 337.209 101.412C334.009 102.87 330.669 103.999 327.242 104.781C327.242 104.781 345.287 108.345 348.379 126.947C345.822 126.987 343.289 126.466 340.955 125.421C341.184 124.366 341.188 123.273 340.965 122.216C340.958 122.201 340.947 122.188 340.933 122.179C340.919 122.17 340.903 122.165 340.886 122.165C340.869 122.165 340.853 122.17 340.839 122.179C340.825 122.188 340.814 122.201 340.807 122.216C340.435 123.122 340.174 124.07 340.029 125.039C339.053 124.61 338.099 124.132 337.17 123.608C337.564 122.904 337.884 122.161 338.125 121.391C338.21 121.105 337.753 120.977 337.636 121.24C337.306 121.928 336.91 122.583 336.454 123.195C334.461 122.001 332.569 120.644 330.798 119.138C330.798 119.138 343.888 138.821 345.364 150.383C345.364 150.383 327.965 144.35 321.159 121.623C321.573 126.286 321.539 130.977 321.055 135.633C320.308 136.046 319.525 136.392 318.716 136.667C318.677 136.682 318.646 136.711 318.627 136.748C318.608 136.785 318.603 136.827 318.613 136.867C318.623 136.907 318.647 136.943 318.68 136.967C318.714 136.991 318.755 137.002 318.796 136.998C319.531 136.885 320.256 136.712 320.963 136.481C320.777 138.152 320.522 139.893 320.18 141.669C318.875 141.33 317.584 140.945 316.314 140.492C316.225 140.456 316.125 140.455 316.036 140.491C315.947 140.526 315.875 140.595 315.835 140.683C315.795 140.77 315.79 140.87 315.822 140.961C315.853 141.052 315.919 141.127 316.004 141.17C317.28 141.814 318.593 142.381 319.937 142.868C318.759 149.08 316.208 154.949 312.469 160.043C312.469 160.043 303.058 141.185 308.362 119.626C306.762 124.398 304.725 129.011 302.278 133.407C301.924 132.747 301.563 132.091 301.193 131.438C301.064 131.212 300.671 131.428 300.795 131.656C301.207 132.417 301.585 133.188 301.964 133.962C301.545 134.685 301.107 135.402 300.654 136.111C300.175 134.884 299.673 133.675 299.134 132.503C299.106 132.443 299.057 132.396 298.996 132.372C298.935 132.347 298.868 132.347 298.806 132.371C298.745 132.395 298.696 132.441 298.667 132.5C298.639 132.559 298.634 132.627 298.654 132.69C299.194 134.12 299.653 135.579 300.03 137.06C297.095 141.428 293.462 145.299 289.244 146.798C289.244 146.798 283.071 130.313 307.517 111.305C303.234 111.265 298.953 111.443 294.689 111.838C295.015 110.748 295.421 109.684 295.905 108.655C295.987 108.482 295.72 108.307 295.614 108.475C294.93 109.575 294.332 110.726 293.825 111.919C292.357 112.061 290.826 112.236 289.257 112.45C289.943 111.364 290.633 110.279 291.242 109.142C291.354 108.942 291.034 108.74 290.91 108.927Z" fill="#FFC619"/>
</g>
</g>
<path d="M225.559 259.763L225.77 259.746L225.949 259.633L263.765 235.671L266.255 234.094H263.307H230.441H230.217L230.021 234.204L181.449 261.628L181.937 263.225L225.559 259.763Z" fill="white" stroke="black" stroke-width="1.71045"/>
<mask id="path-11-outside-1_4313_193592" maskUnits="userSpaceOnUse" x="224.562" y="230.975" width="41" height="33" fill="black">
<rect fill="white" x="224.562" y="230.975" width="41" height="33"/>
<path d="M263.169 238.554V234.975L226.562 258.153L229.282 261.213L263.169 238.554Z"/>
</mask>
<path d="M263.169 238.554V234.975L226.562 258.153L229.282 261.213L263.169 238.554Z" fill="white"/>
<path d="M263.169 234.975H264.879V231.868L262.254 233.53L263.169 234.975ZM263.169 238.554L264.12 239.976L264.879 239.468V238.554H263.169ZM229.282 261.213L228.004 262.349L228.994 263.463L230.233 262.635L229.282 261.213ZM226.562 258.153L225.647 256.708C225.223 256.976 224.938 257.418 224.868 257.915C224.798 258.412 224.95 258.914 225.284 259.289L226.562 258.153ZM261.458 234.975V238.554H264.879V234.975H261.458ZM262.218 237.132L228.331 259.791L230.233 262.635L264.12 239.976L262.218 237.132ZM230.56 260.077L227.84 257.017L225.284 259.289L228.004 262.349L230.56 260.077ZM227.477 259.598L264.084 236.42L262.254 233.53L225.647 256.708L227.477 259.598Z" fill="black" mask="url(#path-11-outside-1_4313_193592)"/>
<path d="M148.603 223.945L147.322 224.279L148.153 225.31L179.515 264.194L179.804 264.553L180.263 264.509L226.128 260.08L227.587 259.939L226.747 258.738L194.431 212.57L194.09 212.083L193.515 212.233L148.603 223.945Z" fill="#FFE75C" stroke="black" stroke-width="1.71045"/>
<path d="M181.436 266.863C181.614 267.107 181.906 267.239 182.206 267.211L228.181 262.944C228.487 262.916 228.753 262.726 228.88 262.448C229.008 262.169 228.976 261.844 228.798 261.594L226.385 258.227C226.206 257.977 225.906 257.842 225.6 257.874L179.962 262.663C179.658 262.695 179.394 262.887 179.27 263.166C179.146 263.446 179.18 263.77 179.36 264.017L181.436 266.863Z" fill="white" stroke="black" stroke-width="1.71045" stroke-linejoin="round"/>
<g clip-path="url(#clip1_4313_193592)">
<path d="M174.394 239.34C173.364 239.499 171.922 238.824 171.163 237.826C170.396 236.82 170.598 235.845 171.629 235.661C172.674 235.475 174.161 236.168 174.926 237.2C175.683 238.222 175.437 239.179 174.394 239.34Z" fill="#FD3C0B"/>
<path d="M174.61 237.253C175.245 238.107 175.042 238.906 174.17 239.043C173.307 239.178 172.102 238.613 171.467 237.776C170.826 236.933 170.996 236.121 171.861 235.969C172.733 235.815 173.97 236.392 174.61 237.253Z" fill="#FD3C0B"/>
<path d="M180.138 239.835C180.752 240.682 180.508 241.464 179.606 241.588C178.713 241.711 177.5 241.143 176.883 240.313C176.262 239.477 176.474 238.682 177.369 238.542C178.273 238.4 179.519 238.982 180.138 239.835Z" fill="#FD3C0B"/>
<path d="M185.706 242.436C186.299 243.275 186.013 244.041 185.08 244.153C184.157 244.263 182.935 243.691 182.338 242.869C181.737 242.04 181.991 241.261 182.917 241.133C183.853 241.005 185.107 241.59 185.706 242.436Z" fill="#FD3C0B"/>
<path d="M189.419 250.208C188.324 250.301 186.9 249.63 186.228 248.705C185.549 247.772 185.877 246.914 186.977 246.799C188.089 246.683 189.558 247.372 190.231 248.327C190.899 249.273 190.527 250.114 189.419 250.208Z" fill="#FD3C0B"/>
<path d="M189.896 248.359C190.455 249.15 190.148 249.852 189.221 249.932C188.304 250.011 187.114 249.45 186.551 248.675C185.984 247.893 186.26 247.179 187.181 247.084C188.111 246.989 189.332 247.562 189.896 248.359Z" fill="#FD3C0B"/>
<path d="M192.828 241.521C193.414 242.396 193.063 243.198 192.058 243.318C191.063 243.437 189.79 242.844 189.2 241.987C188.605 241.124 188.921 240.308 189.919 240.17C190.929 240.031 192.238 240.639 192.828 241.521Z" fill="#FD3C0B"/>
<path d="M179.091 243.286C179.689 244.091 179.461 244.825 178.593 244.928C177.733 245.031 176.559 244.478 175.958 243.688C175.353 242.892 175.552 242.146 176.413 242.028C177.284 241.908 178.488 242.473 179.091 243.286Z" fill="#FD3C0B"/>
<path d="M180.911 238.333C179.802 238.504 178.301 237.804 177.545 236.765C176.782 235.715 177.049 234.693 178.161 234.495C179.287 234.294 180.837 235.013 181.598 236.09C182.35 237.157 182.033 238.159 180.911 238.333Z" fill="#FD3C0B"/>
<path d="M181.257 236.147C181.888 237.039 181.627 237.876 180.688 238.023C179.759 238.168 178.504 237.583 177.871 236.711C177.233 235.831 177.46 234.98 178.391 234.816C179.332 234.65 180.621 235.248 181.257 236.147Z" fill="#FD3C0B"/>
<path d="M191.313 245.055C191.885 245.886 191.557 246.635 190.593 246.734C189.638 246.832 188.408 246.255 187.832 245.441C187.251 244.62 187.546 243.858 188.505 243.743C189.472 243.627 190.736 244.217 191.313 245.055Z" fill="#FD3C0B"/>
<path d="M196.307 249.575C195.131 249.676 193.649 248.981 192.985 248.019C192.314 247.048 192.715 246.151 193.898 246.028C195.095 245.903 196.626 246.617 197.29 247.612C197.947 248.597 197.498 249.474 196.307 249.575Z" fill="#FD3C0B"/>
<path d="M196.928 247.646C197.48 248.469 197.108 249.202 196.112 249.288C195.126 249.374 193.887 248.793 193.332 247.986C192.771 247.173 193.109 246.426 194.099 246.324C195.1 246.221 196.373 246.815 196.928 247.646Z" fill="#FD3C0B"/>
<path d="M187.934 237.247C186.738 237.432 185.172 236.706 184.422 235.62C183.665 234.524 184.009 233.45 185.21 233.236C186.427 233.018 188.047 233.765 188.799 234.892C189.544 236.007 189.146 237.06 187.934 237.247Z" fill="#FD3C0B"/>
<path d="M184.775 235.562C185.402 236.473 186.712 237.08 187.714 236.923C188.728 236.764 189.056 235.885 188.432 234.953C187.802 234.013 186.456 233.392 185.438 233.572C184.432 233.749 184.142 234.643 184.775 235.562Z" fill="#FD3C0B"/>
<path d="M183.515 239.339C184.127 240.204 185.391 240.793 186.353 240.661C187.324 240.527 187.63 239.707 187.022 238.824C186.408 237.933 185.109 237.33 184.134 237.483C183.17 237.634 182.899 238.467 183.515 239.339Z" fill="#FD3C0B"/>
<path d="M181.237 246.173C181.819 246.956 183.001 247.513 183.89 247.422C184.787 247.33 185.055 246.612 184.475 245.813C183.892 245.009 182.679 244.44 181.779 244.547C180.888 244.654 180.651 245.384 181.237 246.173Z" fill="#FD3C0B"/>
<path d="M182.94 250.712C181.918 250.799 180.548 250.15 179.87 249.259C179.185 248.36 179.448 247.537 180.473 247.43C181.51 247.321 182.921 247.987 183.603 248.906C184.278 249.817 183.973 250.624 182.94 250.712Z" fill="#FD3C0B"/>
<path d="M180.171 249.231C180.739 249.979 181.884 250.521 182.741 250.447C183.605 250.372 183.856 249.698 183.29 248.936C182.72 248.169 181.546 247.615 180.68 247.704C179.821 247.792 179.599 248.478 180.171 249.231Z" fill="#FD3C0B"/>
</g>
<path fill-rule="evenodd" clip-rule="evenodd" d="M217.321 169.502L230.189 177.247L225.092 159.988L224.81 169.463L208.403 157.612L212.094 173.984L193.902 163.962L196.609 185.738L176.69 176.249C176.566 171.032 177.62 165.71 179.991 160.676C188.129 143.395 208.706 136.045 225.951 144.26C243.196 152.476 250.579 173.145 242.44 190.426C234.302 207.708 213.725 215.057 196.48 206.842C194.687 205.988 193 204.999 191.426 203.893L209.224 202.558L204.986 178.74L221.977 187.161L217.321 169.502Z" fill="black"/>
<path fill-rule="evenodd" clip-rule="evenodd" d="M119.076 183.996L106.208 191.74L111.305 174.481L111.587 183.956L127.994 172.106L124.303 188.478L142.495 178.456L139.788 200.232L159.707 190.743C159.831 185.525 158.777 180.204 156.406 175.17C148.268 157.888 127.691 150.539 110.446 158.754C93.2008 166.969 85.8182 187.638 93.9565 204.92C102.095 222.201 122.672 229.551 139.917 221.336C141.71 220.481 143.397 219.492 144.97 218.387L127.173 217.052L131.411 193.233L114.42 201.655L119.076 183.996Z" fill="black"/>
<path d="M302.215 238.981C293.245 227.402 295.327 210.702 306.866 201.681C318.405 192.659 335.031 194.732 344.001 206.311C352.971 217.89 350.889 234.59 339.35 243.612C327.811 252.633 311.185 250.56 302.215 238.981Z" fill="black"/>
<path d="M76.721 271.764C63.0968 275.444 51.9521 264.917 48.0827 259.193C55.5316 258.87 72.2556 257.678 79.561 255.491C86.8665 253.304 94.8581 248.424 97.9407 246.257C96.5443 253.226 90.3453 268.083 76.721 271.764Z" fill="black"/>
<path d="M353.935 269.94C346.83 276.64 336.51 275.362 332.238 273.885C336.685 271.065 346.514 264.501 350.252 260.801C353.991 257.102 357.252 251.813 358.416 249.631C359.882 253.609 361.039 263.24 353.935 269.94Z" fill="black"/>
<path d="M318.891 273.864C312.017 269.558 312.031 260.757 312.897 256.895C315.952 259.908 323.006 266.49 326.78 268.715C330.555 270.941 335.72 272.406 337.831 272.86C334.382 274.989 325.765 278.17 318.891 273.864Z" fill="black"/>
<path d="M116.208 230.818C104.237 238.292 104.36 253.622 105.918 260.353C111.226 255.117 123.485 243.679 130.061 239.817C136.636 235.955 145.651 233.423 149.337 232.641C143.282 228.919 128.179 223.345 116.208 230.818Z" fill="black"/>
<path d="M273.277 248.863C260.764 261.137 242.291 256.518 234.619 252.674C242.489 247.793 259.872 236.327 266.452 229.514C273.032 222.702 278.716 212.555 280.736 208.334C283.464 216.729 285.791 236.588 273.277 248.863Z" fill="black"/>
<path d="M251.001 200.027C238.782 204.303 235.804 218.047 235.842 224.384C241.647 220.768 254.922 213.003 261.584 210.872C268.247 208.74 276.825 208.292 280.28 208.334C275.612 203.783 263.22 195.752 251.001 200.027Z" fill="black"/>
<path d="M255.523 151.407C252.271 161.05 241.916 166.415 241.916 166.415C241.916 166.415 236.752 155.92 240.004 146.277C243.256 136.634 253.611 131.269 253.611 131.269C253.611 131.269 258.775 141.763 255.523 151.407Z" fill="black"/>
<path d="M253.381 175.403C257.197 182.355 256.063 190.484 256.063 190.484C256.063 190.484 248.676 187.313 244.86 180.362C241.043 173.41 242.177 165.281 242.177 165.281C242.177 165.281 249.564 168.452 253.381 175.403Z" fill="black"/>
<path d="M254.833 160.814C262.154 160.653 268.168 164.957 268.168 164.957C268.168 164.957 262.26 169.562 254.939 169.723C247.617 169.884 241.603 165.58 241.603 165.58C241.603 165.58 247.512 160.975 254.833 160.814Z" fill="black"/>
<path d="M352.388 240.124C346.238 242.578 339.214 239.709 339.214 239.709C339.214 239.709 342.237 232.725 348.387 230.271C354.537 227.817 361.561 230.686 361.561 230.686C361.561 230.686 358.538 237.67 352.388 240.124Z" fill="black"/>
<path d="M339.593 249.18C337.757 254.002 333.251 256.867 333.251 256.867C333.251 256.867 331.708 251.87 333.543 247.048C335.379 242.226 339.886 239.361 339.886 239.361C339.886 239.361 341.429 244.358 339.593 249.18Z" fill="black"/>
<path d="M347.435 243.749C350.601 247.309 351.005 252.103 351.005 252.103C351.005 252.103 346.231 251.117 343.065 247.557C339.898 243.997 339.495 239.202 339.495 239.202C339.495 239.202 344.268 240.189 347.435 243.749Z" fill="black"/>
<path d="M79.3165 182.405C82.5687 192.048 92.923 197.414 92.923 197.414C92.923 197.414 98.0875 186.919 94.8352 177.276C91.583 167.633 81.2287 162.267 81.2287 162.267C81.2287 162.267 76.0643 172.762 79.3165 182.405Z" fill="black"/>
<path d="M81.4587 206.402C77.6423 213.353 78.7763 221.482 78.7763 221.482C78.7763 221.482 86.163 218.312 89.9795 211.36C93.7959 204.409 92.6619 196.28 92.6619 196.28C92.6619 196.28 85.2752 199.45 81.4587 206.402Z" fill="black"/>
<path d="M80.0065 191.813C72.6854 191.652 66.6712 195.955 66.6712 195.955C66.6712 195.955 72.5797 200.56 79.9008 200.721C87.2219 200.882 93.2361 196.579 93.2361 196.579C93.2361 196.579 87.3276 191.974 80.0065 191.813Z" fill="black"/>
<path d="M184.391 316.841H281.011L284.139 289.402L262.591 307.463L265.388 296.567L247.646 306.769L233.049 299.475L230.963 312.326L195.165 299.475L199.336 311.631L175.355 303.295L184.391 316.841Z" fill="black"/>
<path d="M375.157 316.841H278.538L290.043 293.223L296.958 307.463L306.342 293.223L311.903 306.768L326.5 299.475L328.585 312.326L364.383 299.475L360.213 311.631L384.194 303.295L375.157 316.841Z" fill="black"/>
<path d="M69.8782 317.046H185.24L163.661 307.668L169.626 289.607L148.078 307.668L138.694 293.428L133.133 306.973L118.536 299.679L116.45 312.53L80.6523 299.679L84.8229 311.836L60.8418 303.5L69.8782 317.046Z" fill="black"/>
<path d="M338.98 239.858C352.082 280.406 312.276 281.886 326.049 314.741" stroke="black" stroke-width="6.15311"/>
<path d="M94.7213 195.601C70.9224 258.352 141.008 263.893 115.991 314.741" stroke="black" stroke-width="7.38373"/>
<path d="M206.817 156.957C209.372 156.289 211.206 154.294 212.183 151.817C213.16 149.34 213.327 146.292 212.53 143.242C211.733 140.192 210.097 137.616 208.033 135.933C205.97 134.251 203.394 133.408 200.839 134.075C198.284 134.743 196.45 136.738 195.473 139.215C194.496 141.692 194.329 144.74 195.126 147.79C195.923 150.84 197.559 153.416 199.623 155.099C201.686 156.781 204.262 157.624 206.817 156.957Z" fill="white" stroke="black" stroke-width="2.60833"/>
<path d="M129.436 163.07C131.79 162.455 133.471 160.619 134.363 158.357C135.255 156.095 135.406 153.318 134.681 150.543C133.956 147.769 132.466 145.42 130.581 143.883C128.697 142.347 126.333 141.568 123.979 142.183C121.625 142.798 119.944 144.634 119.052 146.895C118.16 149.158 118.009 151.935 118.734 154.71C119.459 157.484 120.949 159.833 122.834 161.37C124.718 162.906 127.083 163.685 129.436 163.07Z" fill="white" stroke="black" stroke-width="2.60833"/>
<path d="M185.032 161.787C186.638 161.35 187.693 160.041 188.211 158.555C188.73 157.061 188.769 155.257 188.284 153.474C187.8 151.691 186.853 150.154 185.649 149.129C184.451 148.109 182.878 147.514 181.272 147.951C179.666 148.387 178.611 149.696 178.094 151.183C177.574 152.676 177.535 154.48 178.02 156.264C178.505 158.047 179.451 159.583 180.655 160.608C181.854 161.628 183.426 162.223 185.032 161.787Z" fill="white" stroke="black" stroke-width="2.60833"/>
<path d="M145.184 166.35C146.82 166.654 148.339 165.934 149.451 164.82C150.568 163.701 151.387 162.093 151.726 160.276C152.064 158.459 151.879 156.665 151.24 155.218C150.604 153.778 149.446 152.559 147.81 152.254C146.174 151.95 144.655 152.67 143.543 153.784C142.426 154.903 141.607 156.511 141.269 158.328C140.93 160.145 141.115 161.94 141.754 163.386C142.39 164.826 143.548 166.045 145.184 166.35Z" fill="white" stroke="black" stroke-width="2.60833"/>
<path d="M202.589 141.413C198.247 143.628 194.837 143.581 193.675 143.28L198.811 134.169L209.282 135.13C208.861 136.301 206.932 139.197 202.589 141.413Z" fill="black"/>
<path d="M233.863 160.661L237.329 162.223C260.726 172.767 277.693 193.834 283.009 218.941V218.941C290.22 253.001 274.718 287.837 244.588 305.281L233.863 311.49" stroke="black" stroke-width="7.38373"/>
<ellipse cx="204.768" cy="152.801" rx="5.77792" ry="4.83753" fill="black"/>
<path d="M181.764 152.035C179.357 152.852 177.601 152.571 177.025 152.328L180.359 148.014L185.689 149.297C185.384 149.869 184.171 151.218 181.764 152.035Z" fill="black"/>
<circle cx="184.489" cy="160.008" r="3.33633" fill="black"/>
<path fill-rule="evenodd" clip-rule="evenodd" d="M128.837 161.544C127.035 161.402 125.798 158.285 126.082 154.581C126.355 150.844 128.053 147.971 129.855 148.113C131.129 148.207 132.332 149.057 132.283 151.166L128.381 153.066L131.759 154.566C131.666 155.309 131.609 156.055 131.587 156.804C131.543 160.263 130.35 161.654 128.837 161.544Z" fill="black"/>
<path d="M328.941 208.547C331.128 208.845 333.182 207.887 334.725 206.284C336.269 204.68 337.369 202.378 337.725 199.767C338.081 197.155 337.636 194.643 336.577 192.685C335.518 190.727 333.796 189.255 331.609 188.957C329.421 188.659 327.368 189.617 325.824 191.22C324.28 192.824 323.18 195.126 322.824 197.737C322.469 200.349 322.913 202.861 323.972 204.819C325.031 206.777 326.753 208.249 328.941 208.547Z" fill="white" stroke="black" stroke-width="2.18052"/>
<path fill-rule="evenodd" clip-rule="evenodd" d="M327.238 206.829C325.437 206.687 324.199 203.57 324.483 199.866C324.757 196.129 326.455 193.257 328.256 193.398C329.53 193.492 330.734 194.342 330.684 196.451L326.783 198.351L330.16 199.852C330.067 200.594 330.01 201.341 329.989 202.089C329.944 205.548 328.752 206.939 327.238 206.829Z" fill="black"/>
<path fill-rule="evenodd" clip-rule="evenodd" d="M146.026 164.913C147.173 165.23 148.639 163.579 149.296 161.222C149.966 158.847 149.56 156.687 148.413 156.37C147.604 156.142 146.668 156.398 146.224 157.714L148.213 159.767L145.785 159.937C145.676 160.417 145.543 160.893 145.388 161.361C144.639 163.512 145.064 164.641 146.026 164.913Z" fill="black"/>
<path d="M119.8 131.964C120.218 133.723 122.01 137.44 125.829 138.244C129.647 139.048 132.611 138.579 133.616 138.244" stroke="black" stroke-width="2.60833"/>
<path d="M143.982 145.516C145.332 146.681 148.681 148.735 151.276 147.629C153.871 146.523 155.189 144.823 155.523 144.111" stroke="black" stroke-width="2.60833"/>
<path d="M340.382 188.397C340.382 188.397 337.781 183.024 334.094 181.89C330.406 180.757 325.132 183.802 325.132 183.802" stroke="black" stroke-width="2.60833"/>
<path d="M314.879 188.429C314.879 188.429 311.231 185.639 308.135 186.014C305.04 186.39 302.108 190.045 302.108 190.045" stroke="black" stroke-width="2.60833"/>
<path d="M311.812 205.227C313.467 205.049 314.715 203.922 315.459 202.535C316.207 201.142 316.529 199.366 316.331 197.529C316.133 195.692 315.439 194.026 314.411 192.824C313.388 191.628 311.929 190.793 310.274 190.972C308.619 191.151 307.372 192.277 306.627 193.664C305.879 195.057 305.557 196.833 305.755 198.67C305.953 200.507 306.647 202.173 307.675 203.375C308.698 204.571 310.157 205.406 311.812 205.227Z" fill="white" stroke="black" stroke-width="2.60833"/>
<path fill-rule="evenodd" clip-rule="evenodd" d="M309.248 204.079C308.034 203.983 307.199 201.882 307.391 199.385C307.575 196.865 308.72 194.929 309.935 195.024C310.793 195.087 311.605 195.661 311.571 197.083L308.941 198.363L311.218 199.375C311.155 199.875 311.117 200.379 311.103 200.884C311.073 203.215 310.269 204.153 309.248 204.079Z" fill="black"/>
<defs>
<clipPath id="clip0_4313_193592">
<rect width="359.376" height="316.994" fill="white" transform="translate(35.6895 0.0517578)"/>
</clipPath>
<clipPath id="clip1_4313_193592">
<rect width="21.5019" height="21.5019" fill="white" transform="translate(170.403 236.075) rotate(-19.6598)"/>
</clipPath>
</defs>
</svg>
