<svg width="337" height="269" viewBox="0 0 337 269" fill="none" xmlns="http://www.w3.org/2000/svg">
<circle cx="168.87" cy="134.67" r="109.339" fill="#F0F2F5"/>
<path d="M92.9576 126.218L96.835 126.525L107.018 95.2391L289.214 75.0275L291.384 74.7868L290.954 72.6463L279.004 13.0833L278.617 11.1514L276.679 11.5101L82.5189 47.4654L80.6044 47.8199L80.9074 49.7433L92.9576 126.218Z" fill="white" stroke="#AEB7C6" stroke-width="4"/>
<path d="M106.157 77.6209C103.929 77.9573 102.134 77.5944 100.774 76.5322C99.4267 75.4681 98.5809 73.7956 98.2365 71.5148C98.0653 70.381 98.0911 69.3455 98.3137 68.4085C98.5343 67.4582 98.9087 66.6331 99.4367 65.9331C99.9628 65.2199 100.63 64.6404 101.44 64.1946C102.249 63.7488 103.154 63.4503 104.156 63.299C104.737 63.2115 105.271 63.178 105.759 63.1986C106.246 63.2061 106.676 63.2423 107.05 63.3072C107.422 63.3589 107.735 63.4262 107.991 63.509C108.246 63.5918 108.431 63.6583 108.547 63.7082L108.033 66.3344C107.577 66.1739 107.054 66.0574 106.463 65.9848C105.886 65.9102 105.241 65.9266 104.529 66.0341C104.054 66.1057 103.598 66.2555 103.161 66.4834C102.736 66.7092 102.373 67.027 102.071 67.4367C101.78 67.8313 101.57 68.3213 101.443 68.9069C101.316 69.4925 101.312 70.1808 101.431 70.9718C101.527 71.6046 101.682 72.188 101.898 72.7218C102.124 73.2404 102.419 73.6746 102.782 74.0244C103.158 74.3721 103.615 74.6268 104.151 74.7885C104.686 74.937 105.31 74.9575 106.022 74.85C106.47 74.7824 106.868 74.6953 107.216 74.5888C107.564 74.4823 107.871 74.3752 108.138 74.2675C108.403 74.1466 108.634 74.0241 108.831 73.9C109.028 73.7758 109.207 73.6613 109.366 73.5563L110.59 75.8999C110.194 76.2293 109.617 76.5591 108.858 76.8895C108.099 77.2199 107.198 77.4637 106.157 77.6209ZM117.584 67.6433C117.31 67.6171 116.991 67.598 116.625 67.5858C116.257 67.5605 115.869 67.5786 115.46 67.6403C115.275 67.6682 115.054 67.7218 114.796 67.8012C114.55 67.8653 114.364 67.9272 114.238 67.9866L115.438 75.9365L112.491 76.3814L111.005 66.533C111.504 66.2688 112.098 66.0039 112.786 65.7382C113.485 65.4573 114.276 65.2502 115.16 65.1168C115.318 65.093 115.511 65.0773 115.739 65.0698C115.965 65.0492 116.194 65.0417 116.424 65.0474C116.652 65.0399 116.882 65.0457 117.114 65.0646C117.344 65.0703 117.543 65.0941 117.711 65.1362L117.584 67.6433ZM124.306 72.4942C124.596 72.4504 124.872 72.402 125.133 72.349C125.395 72.2961 125.603 72.2444 125.757 72.1942L125.42 69.9595C125.297 69.951 125.115 69.9515 124.874 69.961C124.633 69.9705 124.413 69.9901 124.215 70.02C123.939 70.0618 123.678 70.1214 123.433 70.1987C123.2 70.2609 122.998 70.3521 122.827 70.4723C122.657 70.5924 122.531 70.7395 122.449 70.9137C122.367 71.0878 122.345 71.2935 122.38 71.5308C122.45 71.9923 122.65 72.2924 122.982 72.4312C123.324 72.5548 123.765 72.5758 124.306 72.4942ZM122.767 63.9077C123.637 63.7764 124.377 63.7658 124.987 63.876C125.597 63.9862 126.101 64.1999 126.5 64.5173C126.911 64.8328 127.229 65.2432 127.454 65.7487C127.679 66.2541 127.84 66.8299 127.937 67.4759L128.863 73.6064C128.455 73.7624 127.884 73.9564 127.151 74.1885C126.419 74.4338 125.519 74.6371 124.451 74.7983C123.779 74.8998 123.157 74.933 122.585 74.898C122.027 74.8609 121.53 74.7404 121.095 74.5364C120.657 74.3193 120.3 74.0091 120.024 73.6059C119.747 73.2027 119.561 72.6846 119.465 72.0518C119.374 71.4453 119.415 70.9133 119.589 70.4555C119.775 69.9958 120.054 69.6099 120.425 69.2977C120.796 68.9855 121.237 68.7369 121.749 68.5518C122.258 68.3535 122.796 68.2116 123.363 68.126C123.745 68.0683 124.085 68.0373 124.381 68.033C124.688 68.0136 124.938 68.0164 125.13 68.0412L125.088 67.7644C125.013 67.2634 124.801 66.8842 124.452 66.6267C124.102 66.3693 123.552 66.2973 122.801 66.4107C122.3 66.4863 121.811 66.6005 121.335 66.7533C120.858 66.8928 120.451 67.0554 120.115 67.241L119.381 64.9246C119.544 64.846 119.747 64.7614 119.99 64.6709C120.243 64.5651 120.519 64.4696 120.816 64.3843C121.111 64.2858 121.422 64.1984 121.747 64.1223C122.084 64.031 122.424 63.9595 122.767 63.9077ZM134.239 70.9339C134.779 70.8523 135.154 70.7419 135.362 70.6026C135.57 70.4633 135.651 70.242 135.606 69.9388C135.57 69.7015 135.394 69.519 135.078 69.3914C134.76 69.2506 134.288 69.1129 133.66 68.9784C133.173 68.8766 132.724 68.7624 132.314 68.6355C131.917 68.5067 131.568 68.3369 131.266 68.1262C130.963 67.9023 130.712 67.6234 130.513 67.2893C130.314 66.9552 130.177 66.5377 130.101 66.0367C129.954 65.0611 130.2 64.2351 130.84 63.5587C131.479 62.8823 132.432 62.4486 133.698 62.2575C134.33 62.162 134.946 62.1298 135.544 62.1608C136.14 62.1787 136.619 62.2277 136.982 62.3078L136.814 64.6794C136.453 64.6125 136.062 64.5638 135.639 64.5332C135.23 64.5006 134.774 64.5222 134.273 64.5978C133.35 64.7371 132.928 65.0639 133.005 65.578C133.023 65.6967 133.059 65.7992 133.113 65.8855C133.166 65.9718 133.259 66.0522 133.392 66.1265C133.522 66.1877 133.694 66.2561 133.908 66.3317C134.133 66.3922 134.413 66.4579 134.747 66.5287C135.429 66.6685 135.999 66.8252 136.456 66.9988C136.912 67.1593 137.279 67.36 137.558 67.601C137.849 67.8269 138.065 68.0977 138.207 68.4133C138.362 68.727 138.473 69.1014 138.538 69.5365C138.694 70.5648 138.422 71.4014 137.724 72.0462C137.039 72.689 135.991 73.1168 134.58 73.3298C133.657 73.4691 132.874 73.5065 132.231 73.4418C131.6 73.3752 131.159 73.307 130.905 73.2374L131.038 70.7698C131.569 70.892 132.107 70.9726 132.653 71.0116C133.196 71.0375 133.725 71.0116 134.239 70.9339ZM141.17 72.0517L138.925 57.1803L141.8 56.2608L142.553 61.2443C142.74 61.1485 142.982 61.0514 143.277 60.9529C143.584 60.8392 143.882 60.7605 144.172 60.7167C145.016 60.5893 145.732 60.6024 146.322 60.7562C146.923 60.8947 147.42 61.15 147.813 61.5222C148.219 61.8923 148.532 62.3575 148.752 62.9177C148.984 63.4759 149.154 64.1109 149.262 64.8229L150.149 70.6963L147.202 71.1411L146.369 65.6237C146.226 64.6744 145.999 64.021 145.689 63.6632C145.392 63.3036 144.914 63.1735 144.254 63.273C143.991 63.3128 143.744 63.377 143.515 63.4655C143.297 63.5389 143.099 63.6159 142.923 63.6965L144.117 71.6069L141.17 72.0517ZM155.15 66.8667C155.225 67.1792 155.272 67.4013 155.291 67.5331C155.325 67.663 155.348 67.7741 155.362 67.8664C155.422 68.2619 155.446 68.6897 155.434 69.1499C155.434 69.5949 155.402 70.0515 155.338 70.5197C155.274 70.9879 155.176 71.461 155.046 71.9391C154.916 72.4172 154.757 72.8795 154.568 73.326L152.168 73.1018C152.34 72.1859 152.427 71.3367 152.43 70.5541C152.434 69.7715 152.397 69.1297 152.322 68.6287C152.31 68.5496 152.288 68.4518 152.257 68.3351C152.237 68.2032 152.211 68.0724 152.178 67.9426C152.158 67.8107 152.132 67.6865 152.101 67.5698C152.083 67.4511 152.071 67.372 152.065 67.3325L155.15 66.8667ZM168.301 62.5554C168.014 60.6569 167.172 59.8131 165.775 60.0241C165.471 60.0699 165.174 60.1552 164.883 60.2801C164.605 60.403 164.382 60.5377 164.216 60.6842L165.025 66.0435C165.174 66.048 165.362 66.0465 165.59 66.039C165.816 66.0184 166.061 65.9881 166.325 65.9483C167.129 65.8269 167.694 65.4585 168.019 64.8431C168.344 64.2276 168.438 63.4651 168.301 62.5554ZM171.319 62.1807C171.444 63.0113 171.432 63.7817 171.283 64.4919C171.147 65.2001 170.885 65.8263 170.495 66.3706C170.105 66.9149 169.594 67.3696 168.961 67.7348C168.327 68.0868 167.581 68.3275 166.724 68.4569C166.368 68.5106 165.989 68.5476 165.588 68.5677C165.201 68.5991 164.813 68.6172 164.423 68.6222C164.046 68.6252 163.681 68.6196 163.328 68.6055C162.973 68.5781 162.658 68.5448 162.383 68.5055L160.188 53.9702L163.063 53.0507L163.845 58.232C164.153 58.0372 164.479 57.8734 164.823 57.7406C165.167 57.6077 165.543 57.5105 165.952 57.4488C166.69 57.3373 167.363 57.3706 167.97 57.5487C168.574 57.7136 169.104 58.0045 169.558 58.4214C170.012 58.8383 170.388 59.368 170.688 60.0106C170.985 60.6399 171.195 61.3633 171.319 62.1807ZM183.31 60.3501C183.433 61.1675 183.428 61.9369 183.294 62.6583C183.159 63.3665 182.903 63.9984 182.529 64.5538C182.152 65.0961 181.667 65.5469 181.074 65.9061C180.494 66.2633 179.816 66.5007 179.038 66.6181C178.273 66.7335 177.554 66.7072 176.882 66.539C176.222 66.3689 175.633 66.0804 175.113 65.6734C174.591 65.2533 174.154 64.7259 173.802 64.0914C173.448 63.4436 173.209 62.7111 173.086 61.8936C172.962 61.0762 172.975 60.3124 173.124 59.6022C173.286 58.8901 173.556 58.2628 173.932 57.7205C174.322 57.1762 174.807 56.7255 175.387 56.3683C175.98 56.009 176.645 55.7737 177.384 55.6622C178.135 55.5488 178.841 55.5771 179.5 55.7473C180.173 55.9154 180.769 56.2029 181.289 56.6099C181.809 57.0168 182.245 57.5376 182.597 58.1722C182.949 58.8067 183.187 59.5327 183.31 60.3501ZM180.304 60.8039C180.167 59.8942 179.875 59.2102 179.428 58.7517C178.992 58.2781 178.438 58.092 177.766 58.1936C177.094 58.2951 176.613 58.6374 176.323 59.2205C176.032 59.7904 175.954 60.5302 176.092 61.4398C176.229 62.3495 176.523 63.0468 176.974 63.5316C177.423 64.0032 177.983 64.1883 178.656 64.0868C179.328 63.9853 179.802 63.644 180.079 63.0629C180.366 62.4666 180.441 61.7136 180.304 60.8039ZM195.322 58.5366C195.446 59.354 195.44 60.1234 195.307 60.8448C195.171 61.553 194.916 62.1849 194.541 62.7403C194.164 63.2826 193.68 63.7334 193.087 64.0926C192.507 64.4498 191.828 64.6872 191.05 64.8046C190.285 64.92 189.567 64.8937 188.894 64.7255C188.235 64.5554 187.645 64.2669 187.125 63.8599C186.603 63.4398 186.166 62.9124 185.814 62.2779C185.46 61.6301 185.222 60.8976 185.098 60.0802C184.975 59.2628 184.988 58.499 185.137 57.7888C185.299 57.0766 185.568 56.4493 185.945 55.907C186.334 55.3627 186.819 54.912 187.399 54.5548C187.992 54.1955 188.658 53.9602 189.396 53.8487C190.148 53.7353 190.853 53.7636 191.513 53.9338C192.185 54.1019 192.781 54.3895 193.301 54.7964C193.821 55.2033 194.257 55.7241 194.609 56.3587C194.961 56.9932 195.199 57.7192 195.322 58.5366ZM192.316 58.9904C192.179 58.0807 191.887 57.3967 191.44 56.9382C191.005 56.4646 190.451 56.2786 189.778 56.3801C189.106 56.4816 188.625 56.8239 188.335 57.407C188.044 57.9769 187.967 58.7167 188.104 59.6264C188.241 60.536 188.535 61.2333 188.986 61.7181C189.435 62.1897 189.996 62.3748 190.668 62.2733C191.34 62.1718 191.815 61.8305 192.091 61.2494C192.379 60.6531 192.454 59.9001 192.316 58.9904ZM203.275 57.0326C203.132 56.0833 202.905 55.4298 202.595 55.0721C202.298 54.7124 201.853 54.5774 201.26 54.667C201.075 54.6948 200.886 54.7369 200.692 54.7931C200.496 54.8361 200.308 54.8848 200.128 54.939L201.34 62.968L198.393 63.4129L196.876 53.3667C197.117 53.263 197.397 53.1533 197.717 53.0376C198.048 52.9067 198.394 52.7871 198.755 52.6786C199.127 52.555 199.509 52.4501 199.901 52.364C200.29 52.2648 200.676 52.1863 201.058 52.1285C201.81 52.0151 202.431 52.0224 202.923 52.1505C203.425 52.2634 203.848 52.4288 204.191 52.6467C204.567 52.2798 205.012 51.9699 205.527 51.7169C206.055 51.4619 206.55 51.2996 207.011 51.2299C207.842 51.1045 208.538 51.1206 209.102 51.2783C209.676 51.4209 210.153 51.6792 210.533 52.0533C210.913 52.4274 211.207 52.8956 211.413 53.4577C211.619 54.0199 211.776 54.657 211.883 55.3689L212.77 61.2424L209.824 61.6872L208.991 56.1697C208.847 55.2205 208.62 54.567 208.31 54.2093C208.013 53.8496 207.568 53.7146 206.975 53.8041C206.817 53.828 206.598 53.9014 206.32 54.0243C206.055 54.1452 205.84 54.2789 205.673 54.4254C205.811 54.7147 205.919 55.0288 205.997 55.3676C206.073 55.6932 206.14 56.0472 206.198 56.4295L207.055 62.1052L204.108 62.55L203.275 57.0326ZM217.781 57.4115C217.855 57.7239 217.902 57.9461 217.922 58.0779C217.955 58.2078 217.978 58.3188 217.992 58.4111C218.052 58.8066 218.076 59.2345 218.065 59.6947C218.064 60.1397 218.032 60.5963 217.968 61.0645C217.904 61.5326 217.807 62.0057 217.677 62.4839C217.546 62.962 217.387 63.4243 217.198 63.8708L214.798 63.6466C214.97 62.7307 215.057 61.8814 215.06 61.0989C215.064 60.3163 215.027 59.6745 214.952 59.1735C214.94 59.0944 214.918 58.9965 214.887 58.8798C214.867 58.748 214.841 58.6172 214.808 58.4873C214.788 58.3555 214.762 58.2312 214.731 58.1146C214.713 57.9959 214.701 57.9168 214.695 57.8772L217.781 57.4115ZM230.931 53.1001C230.644 51.2017 229.802 50.3579 228.405 50.5689C228.101 50.6147 227.804 50.7 227.513 50.8249C227.235 50.9478 227.012 51.0825 226.846 51.229L227.655 56.5883C227.804 56.5927 227.992 56.5912 228.22 56.5838C228.447 56.5631 228.692 56.5329 228.955 56.4931C229.759 56.3717 230.324 56.0032 230.649 55.3878C230.974 54.7724 231.068 54.0098 230.931 53.1001ZM233.949 52.7254C234.074 53.556 234.062 54.3264 233.913 55.0366C233.778 55.7448 233.515 56.3711 233.125 56.9154C232.735 57.4596 232.224 57.9144 231.591 58.2796C230.957 58.6316 230.211 58.8723 229.354 59.0016C228.998 59.0554 228.619 59.0923 228.218 59.1125C227.832 59.1438 227.443 59.162 227.053 59.167C226.676 59.17 226.311 59.1644 225.958 59.1502C225.604 59.1229 225.288 59.0895 225.013 59.0502L222.818 44.515L225.693 43.5955L226.476 48.7768C226.783 48.582 227.109 48.4182 227.453 48.2853C227.797 48.1525 228.174 48.0552 228.582 47.9935C229.321 47.8821 229.993 47.9154 230.6 48.0935C231.204 48.2584 231.734 48.5493 232.188 48.9662C232.642 49.3831 233.018 49.9128 233.318 50.5553C233.615 51.1847 233.825 51.908 233.949 52.7254ZM240.663 54.9278C240.953 54.884 241.229 54.8356 241.491 54.7826C241.752 54.7297 241.96 54.678 242.114 54.6278L241.777 52.3931C241.654 52.3847 241.473 52.3852 241.231 52.3946C240.99 52.4041 240.77 52.4237 240.573 52.4536C240.296 52.4954 240.035 52.555 239.791 52.6323C239.557 52.6945 239.355 52.7857 239.185 52.9059C239.014 53.026 238.888 53.1731 238.806 53.3473C238.725 53.5214 238.702 53.7271 238.738 53.9644C238.807 54.4259 239.008 54.726 239.339 54.8648C239.681 54.9884 240.122 55.0094 240.663 54.9278ZM239.124 46.3413C239.994 46.21 240.734 46.1994 241.344 46.3096C241.954 46.4198 242.458 46.6336 242.857 46.951C243.269 47.2664 243.587 47.6768 243.811 48.1823C244.036 48.6877 244.197 49.2635 244.295 49.9095L245.22 56.04C244.812 56.196 244.241 56.39 243.508 56.6221C242.776 56.8674 241.876 57.0707 240.809 57.2319C240.136 57.3334 239.514 57.3666 238.943 57.3316C238.384 57.2945 237.887 57.174 237.452 56.97C237.015 56.7529 236.658 56.4427 236.381 56.0395C236.104 55.6363 235.918 55.1182 235.823 54.4854C235.731 53.8789 235.772 53.3469 235.946 52.8891C236.133 52.4294 236.411 52.0435 236.782 51.7313C237.153 51.4191 237.594 51.1705 238.106 50.9854C238.615 50.7871 239.153 50.6452 239.72 50.5596C240.103 50.5019 240.442 50.4709 240.738 50.4667C241.045 50.4472 241.295 50.45 241.488 50.4748L241.446 50.198C241.37 49.697 241.158 49.3178 240.809 49.0603C240.46 48.8029 239.91 48.7309 239.158 48.8443C238.657 48.92 238.169 49.0341 237.693 49.1869C237.215 49.3265 236.808 49.489 236.472 49.6746L235.738 47.3582C235.901 47.2796 236.104 47.195 236.347 47.1045C236.601 46.9987 236.876 46.9032 237.173 46.8179C237.469 46.7194 237.779 46.6321 238.105 46.5559C238.441 46.4646 238.781 46.3931 239.124 46.3413ZM246.413 45.8882C246.892 45.6676 247.518 45.4382 248.291 45.2001C249.062 44.9489 249.883 44.7575 250.753 44.6262C251.636 44.4928 252.386 44.501 253.002 44.6508C253.629 44.7853 254.146 45.0377 254.552 45.4078C254.959 45.7779 255.278 46.2421 255.511 46.8003C255.743 47.3585 255.913 47.9936 256.021 48.7055L256.908 54.5789L253.961 55.0238L253.128 49.5063C252.985 48.5571 252.758 47.9036 252.448 47.5459C252.138 47.1882 251.64 47.0611 250.954 47.1646C250.743 47.1964 250.521 47.2435 250.288 47.3057C250.052 47.3547 249.844 47.4063 249.664 47.4605L250.876 55.4895L247.929 55.9344L246.413 45.8882ZM261.25 48.2599C261.499 49.9079 262.289 50.6313 263.621 50.4303C263.924 50.3845 264.202 50.3022 264.453 50.1833C264.705 50.0644 264.915 49.9382 265.084 49.8049L264.373 45.0982C264.224 45.0938 264.05 45.0999 263.85 45.1165C263.649 45.12 263.416 45.1417 263.152 45.1815C262.374 45.2989 261.833 45.6436 261.528 46.2155C261.224 46.7874 261.131 47.4688 261.25 48.2599ZM268.356 51.5156C268.613 53.2164 268.368 54.5411 267.621 55.4899C266.889 56.4498 265.621 57.0662 263.814 57.3388C263.182 57.4344 262.54 57.4706 261.889 57.4475C261.24 57.4375 260.632 57.3811 260.063 57.2781L260.204 54.7285C260.694 54.8434 261.197 54.9158 261.714 54.9456C262.244 54.9735 262.832 54.9386 263.478 54.8411C264.322 54.7137 264.887 54.4396 265.174 54.0187C265.474 53.5958 265.581 53.0943 265.493 52.5142L265.436 52.1385C265.142 52.3313 264.829 52.4931 264.498 52.6239C264.179 52.7396 263.821 52.8273 263.425 52.887C261.988 53.104 260.824 52.8483 259.932 52.12C259.038 51.3784 258.475 50.243 258.244 48.7137C258.129 47.949 258.143 47.2389 258.287 46.5835C258.429 45.9148 258.69 45.3225 259.07 44.8066C259.464 44.2887 259.973 43.8613 260.596 43.5245C261.218 43.1745 261.943 42.9368 262.774 42.8114C263.13 42.7576 263.496 42.7227 263.871 42.7065C264.257 42.6751 264.639 42.658 265.016 42.655C265.393 42.652 265.752 42.6651 266.094 42.6945C266.447 42.7087 266.761 42.7354 267.036 42.7747L268.356 51.5156Z" fill="#AEB7C6"/>
<path d="M144.252 143.829L145.134 143.42C145.691 143.162 146.355 142.579 146.999 141.941C147.689 141.256 148.5 140.36 149.372 139.318C151.117 137.233 153.146 134.517 154.994 131.648C156.837 128.787 158.528 125.729 159.567 122.966C160.087 121.585 160.459 120.236 160.591 118.997C160.723 117.767 160.628 116.545 160.106 115.5C158.638 112.561 155.324 109.83 152.037 109.2L152.037 109.2C150.101 108.83 148.558 109.445 147.363 110.486C146.227 111.475 145.397 112.853 144.738 114.062L144.252 143.829ZM144.252 143.829L143.655 143.061M144.252 143.829L143.655 143.061M143.655 143.061C140.571 139.09 139.863 133.664 140.37 128.437M143.655 143.061L140.37 128.437M140.37 128.437C140.88 123.185 142.634 117.921 144.738 114.062L140.37 128.437Z" fill="white" stroke="black" stroke-width="2.44397"/>
<path d="M141.735 147.769L142.581 148.249C143.114 148.553 143.975 148.754 144.868 148.907C145.826 149.071 147.027 149.211 148.382 149.315C151.093 149.524 154.482 149.597 157.89 149.435C161.29 149.272 164.761 148.872 167.614 148.112C169.04 147.732 170.354 147.252 171.44 146.639C172.517 146.031 173.456 145.245 174.003 144.213C175.543 141.311 175.84 137.026 174.443 133.986L174.443 133.986C173.62 132.194 172.222 131.295 170.681 130.927C169.215 130.578 167.611 130.703 166.244 130.869L141.735 147.769ZM141.735 147.769L142.014 146.837M141.735 147.769L142.014 146.837M142.014 146.837C143.454 142.02 147.458 138.29 152.008 135.666M142.014 146.837L152.008 135.666M152.008 135.666C156.578 133.03 161.882 131.399 166.244 130.869L152.008 135.666Z" fill="white" stroke="black" stroke-width="2.44397"/>
<path d="M139.3 145.569C137.21 146.909 136.011 149.134 136.099 152.106C136.185 155.005 137.486 158.592 140.236 162.881C142.992 167.181 146.228 170.665 149.273 172.804C150.793 173.872 152.315 174.64 153.744 174.978C155.179 175.317 156.62 175.242 157.825 174.469C159.03 173.696 159.7 172.418 159.991 170.973C160.281 169.533 160.218 167.83 159.883 166.003C159.211 162.343 157.398 157.949 154.641 153.648C151.891 149.358 149.176 146.678 146.577 145.39C143.914 144.069 141.391 144.229 139.3 145.569Z" fill="black" stroke="black" stroke-width="2.30615"/>
<circle r="8.58436" transform="matrix(-0.753807 -0.657096 -0.657096 0.753807 137.938 143.889)" fill="black"/>
<mask id="mask0_5283_202863" style="mask-type:alpha" maskUnits="userSpaceOnUse" x="137" y="145" width="23" height="30">
<path d="M141.208 162.259C135.816 153.846 136.483 148.745 139.925 146.54C143.366 144.334 148.28 145.857 153.672 154.27C159.065 162.684 160.645 171.291 157.204 173.498C153.764 175.706 146.6 170.671 141.208 162.259Z" fill="black"/>
</mask>
<g mask="url(#mask0_5283_202863)">
<circle r="2.98741" transform="matrix(-0.753807 -0.657096 -0.657096 0.753807 157.977 165.025)" fill="#FFB016"/>
<circle r="3.94557" transform="matrix(-0.753807 -0.657096 -0.657096 0.753807 152.613 156.042)" fill="#FFB016"/>
<ellipse rx="12.5033" ry="5.5468" transform="matrix(-0.520709 -0.853734 -0.853734 0.520709 141.481 163.483)" fill="#FFB016"/>
</g>
<path d="M114.836 141.75C116.417 141.971 117.844 141.215 118.867 140.093C119.894 138.966 120.613 137.38 120.861 135.611C121.108 133.843 120.85 132.12 120.171 130.755C119.496 129.396 118.33 128.277 116.749 128.056C115.168 127.835 113.74 128.591 112.718 129.713C111.691 130.84 110.971 132.426 110.724 134.195C110.477 135.964 110.734 137.686 111.413 139.052C112.089 140.411 113.254 141.529 114.836 141.75Z" fill="white" stroke="black" stroke-width="2.44397"/>
<path fill-rule="evenodd" clip-rule="evenodd" d="M115.465 137.855C114.642 137.749 114.146 136.292 114.361 134.601C114.571 132.895 115.415 131.617 116.237 131.723C116.82 131.795 117.353 132.214 117.28 133.184L115.467 134.24L116.972 134.671C116.908 135.026 116.861 135.385 116.833 135.745C116.734 137.329 116.156 137.94 115.465 137.855Z" fill="black"/>
<path d="M98.829 152.563L120.482 146.271L119.317 138.959L98.829 152.563Z" fill="black"/>
<path d="M117.289 150.714L118.624 146.762L113.705 148.202L108.129 149.834L102.718 151.419L105.974 154.026L108.129 149.834L111.385 152.442L113.705 148.202L117.289 150.714Z" fill="black"/>
<path d="M125.628 150.501C128.075 150.867 130.39 149.824 132.144 148.051C133.899 146.277 135.166 143.713 135.603 140.792C136.041 137.87 135.58 135.048 134.422 132.837C133.265 130.628 131.356 128.953 128.909 128.586C126.462 128.22 124.147 129.263 122.393 131.036C120.638 132.81 119.371 135.374 118.934 138.295C118.496 141.217 118.957 144.039 120.115 146.25C121.272 148.459 123.181 150.134 125.628 150.501Z" fill="white" stroke="black" stroke-width="2.44397"/>
<path d="M124.264 139.247C123.728 142.686 124.657 145.688 126.329 145.952C127.735 146.165 128.951 144.953 129.245 141.725C129.391 140.361 129.664 139.014 130.062 137.701C130.891 134.889 129.66 133.694 128.261 133.48C126.588 133.217 124.792 135.776 124.264 139.247Z" fill="black"/>
<path d="M131.541 136.023L126.523 137.999L133.055 141.533L131.541 136.023Z" fill="white"/>
<path d="M137.765 150.484L136.698 152.168C134.96 154.914 135.318 158.491 137.567 160.838V160.838" stroke="black" stroke-width="2.88269"/>
<path d="M133.735 150.042L132.136 151.232C129.529 153.172 128.582 156.641 129.841 159.637V159.637" stroke="black" stroke-width="2.88269"/>
<mask id="path-21-outside-1_5283_202863" maskUnits="userSpaceOnUse" x="82.4639" y="178.874" width="66" height="66" fill="black">
<rect fill="white" x="82.4639" y="178.874" width="66" height="66"/>
<path fill-rule="evenodd" clip-rule="evenodd" d="M116.066 241.855C109.113 241.981 102.332 239.698 96.8777 235.394C91.4233 231.09 87.633 225.032 86.1528 218.252C84.6726 211.472 85.5939 204.389 88.7599 198.211C91.9258 192.033 97.1405 187.141 103.515 184.37C109.89 181.598 117.031 181.118 123.721 183.012C130.41 184.905 136.235 189.055 140.203 194.753C144.17 200.452 146.035 207.347 145.48 214.264C144.924 221.181 141.982 227.692 137.155 232.687C134.422 235.53 131.151 237.805 127.531 239.379C123.911 240.953 120.014 241.794 116.066 241.855ZM119.47 211.796C119.484 212.576 119.266 213.343 118.844 213.999C118.421 214.655 117.813 215.172 117.097 215.484C116.38 215.795 115.587 215.888 114.817 215.75C114.048 215.611 113.337 215.248 112.774 214.707C112.212 214.165 111.822 213.47 111.656 212.707C111.49 211.945 111.553 211.151 111.839 210.425C112.125 209.699 112.621 209.074 113.263 208.628C113.905 208.183 114.665 207.938 115.446 207.924C116.494 207.905 117.507 208.302 118.262 209.028C119.016 209.755 119.451 210.75 119.47 211.796ZM89.7268 212.335C89.4688 198.143 100.829 186.386 115.051 186.128C129.273 185.87 141.054 197.207 141.312 211.399C141.571 225.592 130.209 237.348 115.988 237.606C101.767 237.863 89.9848 226.527 89.7268 212.335Z"/>
</mask>
<path fill-rule="evenodd" clip-rule="evenodd" d="M116.066 241.855C109.113 241.981 102.332 239.698 96.8777 235.394C91.4233 231.09 87.633 225.032 86.1528 218.252C84.6726 211.472 85.5939 204.389 88.7599 198.211C91.9258 192.033 97.1405 187.141 103.515 184.37C109.89 181.598 117.031 181.118 123.721 183.012C130.41 184.905 136.235 189.055 140.203 194.753C144.17 200.452 146.035 207.347 145.48 214.264C144.924 221.181 141.982 227.692 137.155 232.687C134.422 235.53 131.151 237.805 127.531 239.379C123.911 240.953 120.014 241.794 116.066 241.855ZM119.47 211.796C119.484 212.576 119.266 213.343 118.844 213.999C118.421 214.655 117.813 215.172 117.097 215.484C116.38 215.795 115.587 215.888 114.817 215.75C114.048 215.611 113.337 215.248 112.774 214.707C112.212 214.165 111.822 213.47 111.656 212.707C111.49 211.945 111.553 211.151 111.839 210.425C112.125 209.699 112.621 209.074 113.263 208.628C113.905 208.183 114.665 207.938 115.446 207.924C116.494 207.905 117.507 208.302 118.262 209.028C119.016 209.755 119.451 210.75 119.47 211.796ZM89.7268 212.335C89.4688 198.143 100.829 186.386 115.051 186.128C129.273 185.87 141.054 197.207 141.312 211.399C141.571 225.592 130.209 237.348 115.988 237.606C101.767 237.863 89.9848 226.527 89.7268 212.335Z" fill="white"/>
<path d="M96.8777 235.394L98.3063 233.583H98.3063L96.8777 235.394ZM116.066 241.855L116.03 239.549L116.024 239.549L116.066 241.855ZM86.1528 218.252L83.8997 218.744L86.1528 218.252ZM88.7599 198.211L86.7075 197.159H86.7075L88.7599 198.211ZM103.515 184.37L102.596 182.255L103.515 184.37ZM123.721 183.012L124.349 180.793L123.721 183.012ZM145.48 214.264L143.181 214.079V214.079L145.48 214.264ZM137.155 232.687L135.497 231.084L135.492 231.089L137.155 232.687ZM127.531 239.379L128.45 241.494V241.494L127.531 239.379ZM118.844 213.999L120.783 215.247L120.783 215.247L118.844 213.999ZM119.47 211.796L121.776 211.754V211.754L119.47 211.796ZM114.817 215.75L114.41 218.019L114.817 215.75ZM111.656 212.707L113.909 212.215V212.215L111.656 212.707ZM115.446 207.924L115.404 205.618L115.446 207.924ZM115.051 186.128L115.009 183.822L115.009 183.822L115.051 186.128ZM89.7268 212.335L92.0326 212.293L89.7268 212.335ZM141.312 211.399L143.618 211.357V211.357L141.312 211.399ZM115.988 237.606L116.03 239.912L115.988 237.606ZM95.4492 237.204C101.322 241.838 108.623 244.297 116.108 244.161L116.024 239.549C109.604 239.666 103.342 237.557 98.3063 233.583L95.4492 237.204ZM83.8997 218.744C85.494 226.046 89.5761 232.57 95.4492 237.204L98.3063 233.583C93.2705 229.61 89.7721 224.017 88.4059 217.76L83.8997 218.744ZM86.7075 197.159C83.2979 203.813 82.3054 211.441 83.8997 218.744L88.4059 217.76C87.0397 211.502 87.89 204.965 90.8122 199.263L86.7075 197.159ZM102.596 182.255C95.7325 185.239 90.1171 190.506 86.7075 197.159L90.8122 199.263C93.7346 193.56 98.5485 189.044 104.435 186.485L102.596 182.255ZM124.349 180.793C117.147 178.754 109.459 179.271 102.596 182.255L104.435 186.485C110.321 183.925 116.915 183.482 123.093 185.231L124.349 180.793ZM142.096 193.435C137.823 187.299 131.551 182.831 124.349 180.793L123.093 185.231C129.27 186.979 134.648 190.81 138.31 196.071L142.096 193.435ZM147.778 214.449C148.377 206.999 146.368 199.572 142.096 193.435L138.31 196.071C141.973 201.331 143.694 207.696 143.181 214.079L147.778 214.449ZM138.813 234.289C144.011 228.91 147.18 221.899 147.778 214.449L143.181 214.079C142.668 220.463 139.953 226.473 135.497 231.084L138.813 234.289ZM128.45 241.494C132.349 239.799 135.873 237.348 138.818 234.285L135.492 231.089C132.971 233.713 129.952 235.812 126.611 237.264L128.45 241.494ZM116.101 244.161C120.354 244.096 124.551 243.189 128.45 241.494L126.611 237.264C123.271 238.716 119.674 239.493 116.03 239.549L116.101 244.161ZM120.783 215.247C121.453 214.207 121.798 212.991 121.776 211.754L117.164 211.838C117.17 212.161 117.08 212.479 116.904 212.751L120.783 215.247ZM118.016 217.599C119.15 217.105 120.114 216.287 120.783 215.247L116.904 212.751C116.729 213.024 116.476 213.239 116.177 213.369L118.016 217.599ZM114.41 218.019C115.627 218.238 116.882 218.092 118.016 217.599L116.177 213.369C115.878 213.499 115.547 213.538 115.225 213.48L114.41 218.019ZM111.175 216.369C112.067 217.226 113.192 217.801 114.41 218.019L115.225 213.48C114.904 213.422 114.608 213.271 114.373 213.045L111.175 216.369ZM109.403 213.199C109.667 214.408 110.284 215.511 111.175 216.369L114.373 213.045C114.139 212.82 113.978 212.531 113.909 212.215L109.403 213.199ZM109.694 209.58C109.24 210.731 109.139 211.99 109.403 213.199L113.909 212.215C113.84 211.9 113.867 211.571 113.985 211.27L109.694 209.58ZM111.949 206.733C110.932 207.438 110.147 208.428 109.694 209.58L113.985 211.27C114.104 210.969 114.309 210.709 114.577 210.524L111.949 206.733ZM115.404 205.618C114.168 205.641 112.965 206.028 111.949 206.733L114.577 210.524C114.844 210.338 115.161 210.236 115.488 210.23L115.404 205.618ZM119.861 207.367C118.665 206.217 117.062 205.588 115.404 205.618L115.488 210.23C115.926 210.222 116.349 210.388 116.663 210.69L119.861 207.367ZM121.776 211.754C121.745 210.095 121.056 208.517 119.861 207.367L116.663 210.69C116.976 210.992 117.156 211.405 117.164 211.838L121.776 211.754ZM115.009 183.822C99.5177 184.103 87.1398 196.907 87.421 212.377L92.0326 212.293C91.7978 199.379 102.139 188.669 115.092 188.434L115.009 183.822ZM143.618 211.357C143.336 195.887 130.5 183.542 115.009 183.822L115.092 188.434C128.046 188.199 138.771 198.527 139.006 211.441L143.618 211.357ZM116.03 239.912C131.52 239.631 143.9 226.828 143.618 211.357L139.006 211.441C139.241 224.356 128.899 235.065 115.946 235.3L116.03 239.912ZM87.421 212.377C87.7022 227.847 100.54 240.192 116.03 239.912L115.946 235.3C102.994 235.535 92.2673 225.207 92.0326 212.293L87.421 212.377Z" fill="black" mask="url(#path-21-outside-1_5283_202863)"/>
<mask id="path-23-outside-2_5283_202863" maskUnits="userSpaceOnUse" x="110.022" y="151.927" width="71" height="93" fill="black">
<rect fill="white" x="110.022" y="151.927" width="71" height="93"/>
<path fill-rule="evenodd" clip-rule="evenodd" d="M124.209 155.646C122.615 154.747 120.612 154.735 118.894 155.367C117.342 155.938 113.911 157.943 114.617 159.853L113.022 211.56C113.022 211.56 113.243 213.34 115.105 213.467C116.904 213.589 117.122 211.599 117.122 211.599L117.04 176.278C119.361 176.369 123.312 176.68 127.9 177.684C134.609 179.153 144.058 182.445 150.972 189.792C159.376 198.723 162.697 208.946 164.003 215.951C164.07 216.309 164.132 216.663 164.19 217.012C163.919 217.052 163.649 217.102 163.38 217.16C160.969 217.685 158.767 218.911 157.054 220.684C155.341 222.457 154.193 224.697 153.755 227.121C153.318 229.545 153.61 232.044 154.596 234.302C155.582 236.56 157.217 238.476 159.293 239.807C161.37 241.138 163.796 241.824 166.264 241.78C169.572 241.716 172.719 240.345 175.016 237.969C177.313 235.592 178.571 232.403 178.514 229.102C178.47 226.639 177.694 224.245 176.286 222.222C174.877 220.2 172.9 218.639 170.602 217.738C169.372 217.255 168.079 216.973 166.773 216.896C166.7 216.439 166.619 215.974 166.532 215.5C165.684 210.848 164.266 206.317 162.31 202.01C161.348 199.898 160.249 197.854 159.021 195.893C159.091 192.275 158.684 186.5 157.529 183.778C157.216 183.004 156.794 182.277 156.278 181.621C155.755 180.979 155.126 180.456 154.426 180.035L156.389 180.125C156.932 180.15 157.482 180.175 158.012 180.056C158.542 179.937 159.059 179.657 159.344 179.195C159.684 178.643 159.639 177.932 159.451 177.312L159.443 177.284C159.134 176.264 158.652 174.669 156.487 174.175C154.306 173.678 152.106 174.248 150.185 174.745C149.062 175.036 148.035 175.302 147.163 175.316C147.004 175.319 146.85 175.321 146.698 175.323C145.268 175.343 144.142 175.359 143.353 175.676C142.734 175.926 142.201 176.349 141.817 176.894C141.418 177.461 141.216 178.28 141.646 178.825C141.89 179.136 142.293 179.289 142.687 179.323C143.083 179.337 143.48 179.305 143.868 179.226C144.14 179.185 144.414 179.149 144.689 179.12C144.43 179.203 144.174 179.296 143.922 179.401C143.887 179.416 143.845 179.433 143.798 179.452C143.499 179.573 142.985 179.782 142.592 180.042C141.988 179.715 141.372 179.4 140.745 179.096C137.012 177.29 132.855 175.878 128.387 174.9C123.55 173.842 119.441 173.524 117.033 173.435L116.999 158.819C117.761 158.033 118.881 157.533 119.973 157.275C121.089 157.011 122.297 156.927 123.358 157.362C124.394 157.787 125.142 158.631 125.895 159.481C126.422 160.075 126.951 160.673 127.585 161.133C129.394 162.446 132.058 162.435 133.855 161.107L133.19 159.705C132.452 160.081 131.68 160.466 130.852 160.474C130.036 160.482 129.256 160.118 128.596 159.639C127.883 159.121 127.279 158.468 126.676 157.816C125.922 157.001 125.17 156.188 124.209 155.646ZM164.638 220.28C163.247 220.488 161.917 221.013 160.754 221.82C159.259 222.856 158.105 224.312 157.439 226.002C156.773 227.693 156.625 229.543 157.012 231.318C157.4 233.092 158.306 234.713 159.616 235.974C160.927 237.235 162.582 238.079 164.374 238.401C166.165 238.723 168.012 238.508 169.681 237.782C171.35 237.057 172.765 235.854 173.749 234.325C174.733 232.797 175.24 231.012 175.207 229.196C175.16 226.761 174.147 224.445 172.39 222.754C170.968 221.385 169.152 220.518 167.217 220.26C167.462 222.634 167.529 224.662 167.523 226.215C167.857 226.374 168.165 226.586 168.436 226.846C169.095 227.481 169.475 228.351 169.492 229.266C169.504 229.948 169.314 230.618 168.945 231.192C168.575 231.766 168.044 232.218 167.417 232.49C166.791 232.762 166.097 232.843 165.424 232.722C164.752 232.602 164.13 232.284 163.638 231.811C163.146 231.337 162.806 230.729 162.66 230.063C162.515 229.396 162.571 228.702 162.821 228.067C163.071 227.432 163.504 226.885 164.065 226.496C164.341 226.305 164.641 226.156 164.957 226.053C164.957 224.549 164.886 222.578 164.638 220.28ZM152.741 187.747C150.389 185.248 147.635 183.038 144.521 181.147C144.852 181.008 145.167 180.831 145.483 180.654C145.75 180.505 146.016 180.355 146.293 180.228C148.193 179.356 150.52 179.64 152.288 180.755C154.056 181.87 155.276 183.739 155.824 185.754C156.329 187.608 156.295 189.577 155.924 191.465C154.923 190.179 153.861 188.938 152.741 187.747Z"/>
</mask>
<path fill-rule="evenodd" clip-rule="evenodd" d="M124.209 155.646C122.615 154.747 120.612 154.735 118.894 155.367C117.342 155.938 113.911 157.943 114.617 159.853L113.022 211.56C113.022 211.56 113.243 213.34 115.105 213.467C116.904 213.589 117.122 211.599 117.122 211.599L117.04 176.278C119.361 176.369 123.312 176.68 127.9 177.684C134.609 179.153 144.058 182.445 150.972 189.792C159.376 198.723 162.697 208.946 164.003 215.951C164.07 216.309 164.132 216.663 164.19 217.012C163.919 217.052 163.649 217.102 163.38 217.16C160.969 217.685 158.767 218.911 157.054 220.684C155.341 222.457 154.193 224.697 153.755 227.121C153.318 229.545 153.61 232.044 154.596 234.302C155.582 236.56 157.217 238.476 159.293 239.807C161.37 241.138 163.796 241.824 166.264 241.78C169.572 241.716 172.719 240.345 175.016 237.969C177.313 235.592 178.571 232.403 178.514 229.102C178.47 226.639 177.694 224.245 176.286 222.222C174.877 220.2 172.9 218.639 170.602 217.738C169.372 217.255 168.079 216.973 166.773 216.896C166.7 216.439 166.619 215.974 166.532 215.5C165.684 210.848 164.266 206.317 162.31 202.01C161.348 199.898 160.249 197.854 159.021 195.893C159.091 192.275 158.684 186.5 157.529 183.778C157.216 183.004 156.794 182.277 156.278 181.621C155.755 180.979 155.126 180.456 154.426 180.035L156.389 180.125C156.932 180.15 157.482 180.175 158.012 180.056C158.542 179.937 159.059 179.657 159.344 179.195C159.684 178.643 159.639 177.932 159.451 177.312L159.443 177.284C159.134 176.264 158.652 174.669 156.487 174.175C154.306 173.678 152.106 174.248 150.185 174.745C149.062 175.036 148.035 175.302 147.163 175.316C147.004 175.319 146.85 175.321 146.698 175.323C145.268 175.343 144.142 175.359 143.353 175.676C142.734 175.926 142.201 176.349 141.817 176.894C141.418 177.461 141.216 178.28 141.646 178.825C141.89 179.136 142.293 179.289 142.687 179.323C143.083 179.337 143.48 179.305 143.868 179.226C144.14 179.185 144.414 179.149 144.689 179.12C144.43 179.203 144.174 179.296 143.922 179.401C143.887 179.416 143.845 179.433 143.798 179.452C143.499 179.573 142.985 179.782 142.592 180.042C141.988 179.715 141.372 179.4 140.745 179.096C137.012 177.29 132.855 175.878 128.387 174.9C123.55 173.842 119.441 173.524 117.033 173.435L116.999 158.819C117.761 158.033 118.881 157.533 119.973 157.275C121.089 157.011 122.297 156.927 123.358 157.362C124.394 157.787 125.142 158.631 125.895 159.481C126.422 160.075 126.951 160.673 127.585 161.133C129.394 162.446 132.058 162.435 133.855 161.107L133.19 159.705C132.452 160.081 131.68 160.466 130.852 160.474C130.036 160.482 129.256 160.118 128.596 159.639C127.883 159.121 127.279 158.468 126.676 157.816C125.922 157.001 125.17 156.188 124.209 155.646ZM164.638 220.28C163.247 220.488 161.917 221.013 160.754 221.82C159.259 222.856 158.105 224.312 157.439 226.002C156.773 227.693 156.625 229.543 157.012 231.318C157.4 233.092 158.306 234.713 159.616 235.974C160.927 237.235 162.582 238.079 164.374 238.401C166.165 238.723 168.012 238.508 169.681 237.782C171.35 237.057 172.765 235.854 173.749 234.325C174.733 232.797 175.24 231.012 175.207 229.196C175.16 226.761 174.147 224.445 172.39 222.754C170.968 221.385 169.152 220.518 167.217 220.26C167.462 222.634 167.529 224.662 167.523 226.215C167.857 226.374 168.165 226.586 168.436 226.846C169.095 227.481 169.475 228.351 169.492 229.266C169.504 229.948 169.314 230.618 168.945 231.192C168.575 231.766 168.044 232.218 167.417 232.49C166.791 232.762 166.097 232.843 165.424 232.722C164.752 232.602 164.13 232.284 163.638 231.811C163.146 231.337 162.806 230.729 162.66 230.063C162.515 229.396 162.571 228.702 162.821 228.067C163.071 227.432 163.504 226.885 164.065 226.496C164.341 226.305 164.641 226.156 164.957 226.053C164.957 224.549 164.886 222.578 164.638 220.28ZM152.741 187.747C150.389 185.248 147.635 183.038 144.521 181.147C144.852 181.008 145.167 180.831 145.483 180.654C145.75 180.505 146.016 180.355 146.293 180.228C148.193 179.356 150.52 179.64 152.288 180.755C154.056 181.87 155.276 183.739 155.824 185.754C156.329 187.608 156.295 189.577 155.924 191.465C154.923 190.179 153.861 188.938 152.741 187.747Z" fill="white"/>
<path d="M118.894 155.367L119.69 157.531L119.69 157.531L118.894 155.367ZM124.209 155.646L125.342 153.637L125.342 153.637L124.209 155.646ZM114.617 159.853L116.922 159.924L116.936 159.475L116.78 159.054L114.617 159.853ZM113.022 211.56L110.717 211.489L110.712 211.667L110.734 211.843L113.022 211.56ZM115.105 213.467L115.262 211.166L115.262 211.166L115.105 213.467ZM117.122 211.599L119.415 211.85L119.429 211.722L119.428 211.594L117.122 211.599ZM117.04 176.278L117.131 173.973L114.728 173.878L114.733 176.283L117.04 176.278ZM127.9 177.684L128.393 175.432L128.393 175.432L127.9 177.684ZM150.972 189.792L152.651 188.211L152.651 188.211L150.972 189.792ZM164.003 215.951L166.27 215.528L166.27 215.528L164.003 215.951ZM164.19 217.012L164.531 219.293L166.851 218.946L166.465 216.633L164.19 217.012ZM163.38 217.16L163.87 219.414H163.87L163.38 217.16ZM153.755 227.121L151.486 226.711V226.711L153.755 227.121ZM154.596 234.302L152.483 235.225V235.225L154.596 234.302ZM159.293 239.807L160.538 237.865L160.538 237.865L159.293 239.807ZM166.264 241.78L166.306 244.085L166.308 244.085L166.264 241.78ZM175.016 237.969L176.674 239.571H176.674L175.016 237.969ZM178.514 229.102L180.82 229.063L180.82 229.06L178.514 229.102ZM176.286 222.222L174.393 223.54L174.393 223.54L176.286 222.222ZM170.602 217.738L171.445 215.591H171.445L170.602 217.738ZM166.773 216.896L164.496 217.262L164.789 219.09L166.637 219.199L166.773 216.896ZM166.532 215.5L164.263 215.914L164.264 215.918L166.532 215.5ZM162.31 202.01L164.41 201.056L164.409 201.054L162.31 202.01ZM159.021 195.893L156.716 195.849L156.703 196.535L157.067 197.116L159.021 195.893ZM157.529 183.778L155.391 184.643L155.398 184.661L155.406 184.679L157.529 183.778ZM156.278 181.621L158.091 180.195L158.079 180.18L158.066 180.164L156.278 181.621ZM154.426 180.035L154.532 177.731L153.238 182.012L154.426 180.035ZM156.389 180.125L156.496 177.821L156.495 177.821L156.389 180.125ZM158.012 180.056L158.516 182.307L158.516 182.307L158.012 180.056ZM159.344 179.195L157.381 177.985L157.381 177.985L159.344 179.195ZM159.451 177.312L157.244 177.979L157.244 177.98L159.451 177.312ZM159.443 177.284L157.235 177.952L157.235 177.952L159.443 177.284ZM156.487 174.175L157 171.927L157 171.927L156.487 174.175ZM150.185 174.745L149.606 172.513H149.606L150.185 174.745ZM147.163 175.316L147.125 173.011L147.125 173.011L147.163 175.316ZM146.698 175.323L146.666 173.017H146.666L146.698 175.323ZM143.353 175.676L142.493 173.537L142.489 173.538L143.353 175.676ZM141.817 176.894L139.932 175.565L139.929 175.568L141.817 176.894ZM141.646 178.825L139.833 180.251L139.833 180.251L141.646 178.825ZM142.687 179.323L142.491 181.62L142.547 181.625L142.603 181.627L142.687 179.323ZM143.868 179.226L143.522 176.946L143.466 176.955L143.411 176.966L143.868 179.226ZM144.689 179.12L145.392 181.316L144.449 176.826L144.689 179.12ZM143.922 179.401L143.035 177.273L143.035 177.273L143.922 179.401ZM143.798 179.452L142.931 177.315L142.931 177.315L143.798 179.452ZM142.592 180.042L141.495 182.07L142.71 182.727L143.863 181.966L142.592 180.042ZM140.745 179.096L141.749 177.02L141.749 177.02L140.745 179.096ZM128.387 174.9L127.894 177.153L127.894 177.153L128.387 174.9ZM117.033 173.435L114.727 173.44L114.732 175.657L116.948 175.739L117.033 173.435ZM116.999 158.819L115.344 157.213L114.69 157.886L114.693 158.824L116.999 158.819ZM119.973 157.275L120.503 159.52L120.504 159.519L119.973 157.275ZM123.358 157.362L122.482 159.495L122.483 159.495L123.358 157.362ZM125.895 159.481L127.621 157.951V157.951L125.895 159.481ZM127.585 161.133L126.229 162.999L126.23 162.999L127.585 161.133ZM133.855 161.107L135.226 162.961L136.752 161.833L135.939 160.119L133.855 161.107ZM133.19 159.705L135.274 158.717L134.257 156.572L132.143 157.65L133.19 159.705ZM130.852 160.474L130.829 158.168H130.829L130.852 160.474ZM128.596 159.639L129.951 157.773L129.951 157.773L128.596 159.639ZM126.676 157.816L124.983 159.382L126.676 157.816ZM160.754 221.82L159.44 219.925H159.44L160.754 221.82ZM164.638 220.28L166.931 220.033L166.674 217.643L164.297 217.999L164.638 220.28ZM157.439 226.002L155.294 225.157V225.157L157.439 226.002ZM157.012 231.318L154.759 231.809V231.809L157.012 231.318ZM159.616 235.974L161.215 234.312L161.215 234.312L159.616 235.974ZM164.374 238.401L163.966 240.671H163.966L164.374 238.401ZM169.681 237.782L168.761 235.668L169.681 237.782ZM173.749 234.325L175.688 235.573H175.688L173.749 234.325ZM175.207 229.196L177.513 229.154L177.513 229.151L175.207 229.196ZM172.39 222.754L173.99 221.093L172.39 222.754ZM167.217 220.26L167.522 217.974L164.622 217.586L164.923 220.497L167.217 220.26ZM167.523 226.215L165.217 226.207L165.212 227.67L166.533 228.298L167.523 226.215ZM168.436 226.846L166.837 228.508L166.837 228.508L168.436 226.846ZM169.492 229.266L167.186 229.308L169.492 229.266ZM168.945 231.192L170.884 232.44L170.884 232.44L168.945 231.192ZM167.417 232.49L166.498 230.375L166.498 230.375L167.417 232.49ZM165.424 232.722L165.832 230.453L165.832 230.453L165.424 232.722ZM163.638 231.811L165.237 230.149L165.237 230.149L163.638 231.811ZM162.66 230.063L164.913 229.571V229.571L162.66 230.063ZM162.821 228.067L164.966 228.912L164.966 228.912L162.821 228.067ZM164.065 226.496L165.379 228.392L165.379 228.392L164.065 226.496ZM164.957 226.053L165.676 228.244L167.263 227.723L167.263 226.052L164.957 226.053ZM144.521 181.147L143.63 179.02L139.454 180.769L143.324 183.118L144.521 181.147ZM152.741 187.747L154.421 186.168L154.42 186.166L152.741 187.747ZM145.483 180.654L146.611 182.665L146.611 182.665L145.483 180.654ZM146.293 180.228L145.331 178.132L145.331 178.132L146.293 180.228ZM152.288 180.755L151.057 182.706H151.057L152.288 180.755ZM155.824 185.754L158.049 185.148H158.049L155.824 185.754ZM155.924 191.465L154.105 192.882L157.213 196.873L158.187 191.909L155.924 191.465ZM119.69 157.531C120.909 157.083 122.186 157.153 123.076 157.655L125.342 153.637C123.043 152.341 120.316 152.387 118.099 153.202L119.69 157.531ZM116.78 159.054C116.892 159.356 116.775 159.567 116.807 159.506C116.861 159.404 117.029 159.179 117.394 158.872C118.123 158.258 119.126 157.739 119.69 157.531L118.099 153.202C117.11 153.566 115.621 154.335 114.423 155.344C113.825 155.847 113.171 156.517 112.731 157.347C112.27 158.217 111.989 159.395 112.454 160.652L116.78 159.054ZM115.328 211.631L116.922 159.924L112.312 159.782L110.717 211.489L115.328 211.631ZM115.262 211.166C115.175 211.16 115.196 211.145 115.256 211.185C115.305 211.217 115.324 211.248 115.321 211.244C115.315 211.234 115.305 211.212 115.298 211.188C115.295 211.179 115.296 211.178 115.298 211.189C115.299 211.195 115.301 211.205 115.303 211.219C115.304 211.226 115.305 211.234 115.307 211.244C115.307 211.248 115.308 211.253 115.309 211.259C115.309 211.262 115.31 211.264 115.31 211.267C115.31 211.269 115.31 211.27 115.311 211.272C115.311 211.272 115.311 211.273 115.311 211.274C115.311 211.275 115.311 211.276 113.022 211.56C110.734 211.843 110.734 211.845 110.734 211.846C110.734 211.846 110.734 211.847 110.734 211.848C110.735 211.85 110.735 211.851 110.735 211.853C110.735 211.856 110.736 211.86 110.736 211.863C110.737 211.87 110.738 211.878 110.739 211.886C110.742 211.902 110.744 211.921 110.748 211.941C110.754 211.981 110.762 212.029 110.773 212.084C110.795 212.193 110.827 212.332 110.874 212.492C110.967 212.806 111.128 213.236 111.41 213.688C112.016 214.658 113.151 215.645 114.949 215.767L115.262 211.166ZM117.122 211.599C114.83 211.348 114.83 211.347 114.83 211.346C114.83 211.346 114.83 211.345 114.83 211.344C114.83 211.343 114.83 211.342 114.831 211.34C114.831 211.338 114.831 211.335 114.831 211.333C114.832 211.329 114.832 211.324 114.833 211.321C114.834 211.313 114.835 211.307 114.835 211.302C114.837 211.292 114.838 211.288 114.838 211.287C114.838 211.287 114.835 211.3 114.83 211.322C114.824 211.344 114.817 211.367 114.808 211.388C114.804 211.399 114.801 211.407 114.798 211.413C114.796 211.416 114.795 211.419 114.794 211.42C114.793 211.422 114.793 211.423 114.793 211.423C114.793 211.423 114.793 211.422 114.795 211.42C114.796 211.418 114.798 211.415 114.8 211.412C114.806 211.404 114.815 211.393 114.828 211.378C114.855 211.348 114.9 211.306 114.965 211.266C115.032 211.224 115.104 211.195 115.171 211.179C115.237 211.163 115.272 211.166 115.262 211.166L114.949 215.767C115.854 215.829 116.688 215.624 117.394 215.187C118.072 214.767 118.509 214.209 118.784 213.735C119.057 213.263 119.207 212.81 119.291 212.494C119.333 212.331 119.362 212.19 119.381 212.081C119.391 212.027 119.398 211.979 119.403 211.941C119.406 211.921 119.408 211.904 119.41 211.889C119.411 211.881 119.412 211.874 119.413 211.868C119.413 211.864 119.413 211.861 119.414 211.858C119.414 211.857 119.414 211.855 119.414 211.854C119.414 211.853 119.414 211.852 119.414 211.852C119.415 211.851 119.415 211.85 117.122 211.599ZM114.733 176.283L114.816 211.604L119.428 211.594L119.346 176.272L114.733 176.283ZM128.393 175.432C123.639 174.391 119.548 174.069 117.131 173.973L116.949 178.582C119.174 178.67 122.985 178.969 127.407 179.937L128.393 175.432ZM152.651 188.211C145.276 180.375 135.299 176.943 128.393 175.432L127.407 179.937C133.92 181.363 142.84 184.516 149.293 191.372L152.651 188.211ZM166.27 215.528C164.913 208.25 161.454 197.565 152.651 188.211L149.292 191.372C157.299 199.88 160.481 209.642 161.736 216.373L166.27 215.528ZM166.465 216.633C166.404 216.269 166.339 215.901 166.27 215.528L161.736 216.373C161.8 216.717 161.86 217.056 161.915 217.391L166.465 216.633ZM163.87 219.414C164.09 219.366 164.31 219.326 164.531 219.293L163.85 214.731C163.529 214.779 163.209 214.837 162.89 214.907L163.87 219.414ZM158.712 222.286C160.109 220.841 161.904 219.841 163.87 219.414L162.89 214.907C160.034 215.528 157.426 216.98 155.396 219.081L158.712 222.286ZM156.025 227.531C156.381 225.556 157.316 223.731 158.712 222.286L155.396 219.081C153.365 221.182 152.004 223.837 151.486 226.711L156.025 227.531ZM156.71 233.379C155.907 231.54 155.668 229.505 156.025 227.531L151.486 226.711C150.967 229.585 151.314 232.548 152.483 235.225L156.71 233.379ZM160.538 237.865C158.845 236.78 157.513 235.219 156.71 233.379L152.483 235.225C153.651 237.902 155.589 240.172 158.049 241.748L160.538 237.865ZM166.222 239.474C164.209 239.51 162.231 238.95 160.538 237.865L158.049 241.748C160.51 243.325 163.383 244.138 166.306 244.085L166.222 239.474ZM173.358 236.366C171.485 238.304 168.918 239.422 166.219 239.474L166.308 244.085C170.225 244.01 173.953 242.387 176.674 239.571L173.358 236.366ZM176.209 229.141C176.254 231.83 175.23 234.429 173.358 236.366L176.674 239.571C179.396 236.755 180.887 232.976 180.82 229.063L176.209 229.141ZM174.393 223.54C175.54 225.188 176.172 227.138 176.209 229.144L180.82 229.06C180.767 226.14 179.847 223.302 178.178 220.905L174.393 223.54ZM169.76 219.885C171.633 220.62 173.245 221.892 174.393 223.54L178.178 220.905C176.509 218.507 174.166 216.658 171.445 215.591L169.76 219.885ZM166.637 219.199C167.702 219.261 168.757 219.491 169.76 219.885L171.445 215.591C169.987 215.019 168.455 214.685 166.909 214.594L166.637 219.199ZM164.264 215.918C164.348 216.374 164.425 216.822 164.496 217.262L169.05 216.531C168.974 216.057 168.891 215.573 168.8 215.082L164.264 215.918ZM160.21 202.964C162.088 207.098 163.449 211.448 164.263 215.914L168.801 215.086C167.919 210.248 166.444 205.536 164.41 201.056L160.21 202.964ZM157.067 197.116C158.24 198.992 159.291 200.946 160.211 202.966L164.409 201.054C163.405 198.85 162.258 196.717 160.976 194.669L157.067 197.116ZM155.406 184.679C155.842 185.706 156.207 187.54 156.441 189.743C156.668 191.881 156.749 194.133 156.716 195.849L161.327 195.937C161.364 194.034 161.275 191.59 161.028 189.256C160.787 186.986 160.371 184.572 159.652 182.877L155.406 184.679ZM154.465 183.046C154.848 183.532 155.159 184.07 155.391 184.643L159.667 182.913C159.272 181.937 158.741 181.023 158.091 180.195L154.465 183.046ZM153.238 182.012C153.736 182.311 154.155 182.665 154.49 183.077L158.066 180.164C157.356 179.293 156.515 178.6 155.614 178.058L153.238 182.012ZM156.495 177.821L154.532 177.731L154.32 182.339L156.284 182.429L156.495 177.821ZM157.509 177.806C157.33 177.846 157.091 177.849 156.496 177.821L156.283 182.429C156.773 182.451 157.635 182.504 158.516 182.307L157.509 177.806ZM157.381 177.985C157.458 177.86 157.539 177.804 157.558 177.792C157.575 177.782 157.559 177.794 157.509 177.806L158.516 182.307C159.422 182.104 160.589 181.569 161.307 180.405L157.381 177.985ZM157.244 177.98C157.263 178.044 157.276 178.1 157.283 178.146C157.29 178.191 157.29 178.217 157.29 178.224C157.29 178.24 157.289 178.133 157.381 177.985L161.307 180.406C162.158 179.024 161.922 177.517 161.658 176.644L157.244 177.98ZM157.235 177.952L157.244 177.979L161.658 176.644L161.65 176.617L157.235 177.952ZM155.974 176.424C156.504 176.544 156.691 176.745 156.799 176.893C156.967 177.123 157.073 177.414 157.235 177.952L161.65 176.617C161.504 176.134 161.214 175.118 160.523 174.171C159.772 173.143 158.635 172.3 157 171.927L155.974 176.424ZM150.763 176.978C152.778 176.456 154.429 176.071 155.974 176.424L157 171.927C154.183 171.284 151.433 172.04 149.606 172.513L150.763 176.978ZM147.2 177.622C148.407 177.603 149.73 177.245 150.763 176.978L149.606 172.513C148.394 172.827 147.663 173.002 147.125 173.011L147.2 177.622ZM146.73 177.629C146.882 177.627 147.039 177.625 147.2 177.622L147.125 173.011C146.97 173.013 146.818 173.015 146.666 173.017L146.73 177.629ZM144.213 177.816C144.292 177.784 144.504 177.726 144.975 177.687C145.439 177.648 145.992 177.64 146.73 177.629L146.666 173.017C145.974 173.027 145.249 173.036 144.596 173.09C143.948 173.144 143.203 173.251 142.493 173.537L144.213 177.816ZM143.701 178.223C143.83 178.041 144.008 177.899 144.217 177.815L142.489 173.538C141.46 173.954 140.572 174.657 139.932 175.565L143.701 178.223ZM143.458 177.399C143.731 177.746 143.718 178.086 143.706 178.178C143.695 178.255 143.681 178.251 143.704 178.219L139.929 175.568C139.553 176.104 139.239 176.793 139.135 177.558C139.03 178.337 139.131 179.359 139.833 180.251L143.458 177.399ZM142.883 177.025C142.905 177.027 142.966 177.034 143.057 177.075C143.151 177.117 143.31 177.212 143.458 177.399L139.833 180.251C140.609 181.237 141.72 181.555 142.491 181.62L142.883 177.025ZM143.411 176.966C143.201 177.008 142.986 177.026 142.772 177.018L142.603 181.627C143.181 181.648 143.759 181.601 144.326 181.486L143.411 176.966ZM144.449 176.826C144.133 176.859 143.823 176.9 143.522 176.946L144.215 181.506C144.458 181.469 144.695 181.438 144.929 181.413L144.449 176.826ZM144.81 181.53C144.998 181.451 145.193 181.38 145.392 181.316L143.986 176.923C143.667 177.025 143.35 177.141 143.035 177.273L144.81 181.53ZM144.665 181.589C144.709 181.571 144.762 181.55 144.81 181.53L143.035 177.273C143.012 177.282 142.982 177.294 142.931 177.315L144.665 181.589ZM143.863 181.966C143.925 181.925 144.037 181.863 144.201 181.787C144.358 181.714 144.514 181.65 144.665 181.589L142.931 177.315C142.671 177.421 141.938 177.71 141.321 178.117L143.863 181.966ZM139.74 181.172C140.337 181.461 140.922 181.761 141.495 182.07L143.688 178.013C143.054 177.67 142.408 177.339 141.749 177.02L139.74 181.172ZM127.894 177.153C132.203 178.096 136.186 179.452 139.74 181.172L141.749 177.02C137.838 175.127 133.507 173.66 128.88 172.648L127.894 177.153ZM116.948 175.739C119.256 175.825 123.223 176.131 127.894 177.153L128.88 172.648C123.877 171.552 119.626 171.223 117.118 171.13L116.948 175.739ZM114.693 158.824L114.727 173.44L119.339 173.429L119.305 158.813L114.693 158.824ZM119.442 155.031C118.104 155.347 116.521 156 115.344 157.213L118.654 160.425C119.002 160.066 119.658 159.719 120.503 159.52L119.442 155.031ZM124.234 155.229C122.523 154.526 120.753 154.721 119.442 155.031L120.504 159.519C121.426 159.301 122.072 159.327 122.482 159.495L124.234 155.229ZM127.621 157.951C126.938 157.18 125.849 155.892 124.234 155.229L122.483 159.495C122.939 159.683 123.345 160.081 124.169 161.01L127.621 157.951ZM128.94 159.267C128.545 158.98 128.179 158.58 127.621 157.951L124.169 161.01C124.665 161.57 125.357 162.365 126.229 162.999L128.94 159.267ZM132.484 159.252C131.496 159.983 129.935 159.989 128.94 159.267L126.23 162.999C128.852 164.903 132.62 164.888 135.226 162.961L132.484 159.252ZM131.107 160.693L131.771 162.095L135.939 160.119L135.274 158.717L131.107 160.693ZM130.874 162.78C132.333 162.766 133.584 162.093 134.238 161.759L132.143 157.65C131.321 158.069 131.028 158.166 130.829 158.168L130.874 162.78ZM127.24 161.505C128.107 162.134 129.368 162.795 130.874 162.78L130.829 158.168C130.703 158.17 130.405 158.102 129.951 157.773L127.24 161.505ZM124.983 159.382C125.558 160.004 126.313 160.831 127.241 161.505L129.951 157.773C129.453 157.411 128.999 156.932 128.369 156.251L124.983 159.382ZM123.076 157.654C123.669 157.989 124.184 158.518 124.983 159.382L128.369 156.251C127.66 155.483 126.671 154.386 125.342 153.637L123.076 157.654ZM162.068 223.715C162.94 223.11 163.937 222.717 164.98 222.561L164.297 217.999C162.558 218.26 160.895 218.916 159.44 219.925L162.068 223.715ZM159.585 226.848C160.084 225.582 160.947 224.492 162.068 223.715L159.44 219.925C157.57 221.221 156.127 223.042 155.294 225.157L159.585 226.848ZM159.265 230.826C158.975 229.497 159.087 228.113 159.585 226.848L155.294 225.157C154.46 227.273 154.274 229.588 154.759 231.809L159.265 230.826ZM161.215 234.312C160.234 233.367 159.555 232.154 159.265 230.826L154.759 231.809C155.244 234.031 156.378 236.058 158.017 237.635L161.215 234.312ZM164.782 236.132C163.438 235.89 162.197 235.257 161.215 234.312L158.017 237.635C159.656 239.213 161.726 240.269 163.966 240.671L164.782 236.132ZM168.761 235.668C167.51 236.211 166.125 236.373 164.782 236.132L163.966 240.671C166.205 241.074 168.514 240.804 170.6 239.897L168.761 235.668ZM171.81 233.077C171.073 234.222 170.012 235.124 168.761 235.668L170.6 239.897C172.687 238.99 174.458 237.486 175.688 235.573L171.81 233.077ZM172.901 229.238C172.926 230.597 172.546 231.933 171.81 233.077L175.688 235.573C176.919 233.661 177.554 231.427 177.513 229.154L172.901 229.238ZM170.791 224.416C172.108 225.683 172.866 227.418 172.901 229.24L177.513 229.151C177.454 226.104 176.186 223.206 173.99 221.093L170.791 224.416ZM166.911 222.545C168.363 222.739 169.725 223.39 170.791 224.416L173.99 221.093C172.211 219.381 169.94 218.297 167.522 217.974L166.911 222.545ZM164.923 220.497C165.159 222.78 165.222 224.726 165.217 226.207L169.83 226.223C169.835 224.598 169.766 222.487 169.511 220.022L164.923 220.497ZM166.533 228.298C166.644 228.351 166.747 228.421 166.837 228.508L170.035 225.184C169.583 224.75 169.069 224.397 168.514 224.133L166.533 228.298ZM166.837 228.508C167.056 228.719 167.181 229.006 167.186 229.308L171.798 229.224C171.77 227.696 171.135 226.243 170.035 225.184L166.837 228.508ZM167.186 229.308C167.19 229.533 167.128 229.754 167.005 229.944L170.884 232.44C171.5 231.482 171.819 230.363 171.798 229.224L167.186 229.308ZM167.005 229.944C166.883 230.134 166.707 230.284 166.498 230.375L168.337 234.605C169.381 234.151 170.268 233.398 170.884 232.44L167.005 229.944ZM166.498 230.375C166.289 230.466 166.057 230.493 165.832 230.453L165.016 234.992C166.137 235.194 167.292 235.059 168.337 234.605L166.498 230.375ZM165.832 230.453C165.607 230.412 165.4 230.306 165.237 230.149L162.039 233.473C162.86 234.262 163.896 234.791 165.016 234.992L165.832 230.453ZM165.237 230.149C165.074 229.992 164.961 229.791 164.913 229.571L160.407 230.554C160.65 231.667 161.218 232.683 162.039 233.473L165.237 230.149ZM164.913 229.571C164.865 229.351 164.884 229.122 164.966 228.912L160.675 227.222C160.257 228.281 160.164 229.441 160.407 230.554L164.913 229.571ZM164.966 228.912C165.049 228.702 165.192 228.521 165.379 228.392L162.751 224.601C161.815 225.25 161.092 226.162 160.675 227.222L164.966 228.912ZM165.379 228.392C165.471 228.328 165.571 228.278 165.676 228.244L164.238 223.861C163.712 224.034 163.211 224.282 162.751 224.601L165.379 228.392ZM167.263 226.052C167.263 224.478 167.189 222.423 166.931 220.033L162.346 220.527C162.583 222.733 162.651 224.621 162.651 226.053L167.263 226.052ZM143.324 183.118C146.272 184.908 148.861 186.989 151.062 189.327L154.42 186.166C151.917 183.507 148.998 181.168 145.718 179.176L143.324 183.118ZM144.355 178.643C144.019 178.831 143.818 178.941 143.63 179.02L145.411 183.274C145.885 183.076 146.315 182.831 146.611 182.665L144.355 178.643ZM145.331 178.132C144.955 178.305 144.607 178.501 144.355 178.643L146.611 182.665C146.892 182.508 147.077 182.406 147.255 182.324L145.331 178.132ZM153.518 178.805C151.185 177.332 148.034 176.892 145.331 178.132L147.254 182.324C148.351 181.821 149.855 181.947 151.057 182.706L153.518 178.805ZM158.049 185.148C157.378 182.68 155.858 180.28 153.518 178.805L151.057 182.706C152.254 183.46 153.175 184.799 153.599 186.359L158.049 185.148ZM158.187 191.909C158.609 189.762 158.668 187.423 158.049 185.148L153.599 186.359C153.989 187.793 153.981 189.391 153.661 191.021L158.187 191.909ZM151.061 189.326C152.131 190.466 153.147 191.652 154.105 192.882L157.744 190.048C156.698 188.706 155.59 187.411 154.421 186.168L151.061 189.326Z" fill="black" mask="url(#path-23-outside-2_5283_202863)"/>
<path d="M124.65 209.108L124.65 209.108C124.375 206.723 123.163 204.546 121.28 203.054C119.397 201.562 116.998 200.878 114.61 201.152L114.61 201.152C112.83 201.356 111.149 202.083 109.782 203.24C108.415 204.398 107.422 205.934 106.929 207.655C106.436 209.376 106.466 211.204 107.015 212.909C107.563 214.613 108.606 216.116 110.01 217.228C111.414 218.341 113.117 219.012 114.903 219.159C116.689 219.305 118.479 218.92 120.046 218.051C121.613 217.182 122.887 215.869 123.707 214.277C124.527 212.685 124.855 210.886 124.65 209.108Z" fill="white" stroke="black" stroke-width="2.30615"/>
<path d="M117.128 208.693L116.586 207.675L115.567 208.215L114.162 208.959L113.144 209.499L113.685 210.517L119.766 221.946L120.308 222.964L121.327 222.424L122.732 221.68L123.75 221.14L123.209 220.122L117.128 208.693Z" fill="white" stroke="black" stroke-width="2.30615"/>
<path d="M126.856 218.798L126.667 217.661L125.53 217.849L116.624 219.322L115.487 219.511L115.676 220.648L116.112 223.273L116.301 224.41L117.439 224.222L126.344 222.748L127.481 222.56L127.292 221.423L126.856 218.798Z" fill="white" stroke="black" stroke-width="2.30615"/>
</svg>
