<svg width="114" height="20" viewBox="0 0 114 20" fill="none" xmlns="http://www.w3.org/2000/svg">
<g clip-path="url(#clip0_2866_93770)">
<path d="M26.4238 4.59814H31.7023C33.7826 4.59814 35.1946 5.74078 35.1946 7.40204C35.1946 8.69726 34.3254 9.71838 33.0677 9.93172C34.3254 10.1297 35.1946 11.1659 35.1946 12.4613C35.1946 14.1222 33.7819 15.265 31.7023 15.265H26.4238V4.59814ZM31.3763 9.01734C32.199 9.01734 32.7579 8.48393 32.7579 7.73718C32.7579 6.97538 32.199 6.44209 31.3763 6.44209H28.8768V9.01734H31.3763ZM31.3763 13.3907C32.1835 13.3907 32.7425 12.8574 32.7425 12.1108C32.7425 11.3489 32.1835 10.8155 31.3763 10.8155H28.8768V13.3907H31.3763Z" fill="white"/>
<path d="M36.3438 10.6939C36.3438 7.18899 39.34 4.30859 43.066 4.30859C46.2022 4.30859 48.2822 6.24436 48.2822 9.16965C48.2822 12.6593 45.2705 15.555 41.56 15.555C38.4397 15.5549 36.3438 13.6043 36.3438 10.6939ZM41.56 13.3301C43.8422 13.3301 45.7672 11.3643 45.7672 9.21577C45.7672 7.63086 44.696 6.53365 43.066 6.53365C40.7993 6.53365 38.8588 8.4842 38.8588 10.6481C38.8588 12.2021 39.93 13.3301 41.56 13.3301Z" fill="white"/>
<path d="M49.6172 4.59814H52.1011L56.7896 11.3946L56.6963 4.59814H59.1493V15.265H56.6654L51.9769 8.46874L52.07 15.265H49.6172V4.59814Z" fill="white"/>
<path d="M60.6387 4.59814H64.9545C68.37 4.59814 70.6517 6.73152 70.6517 9.93172C70.6517 13.1319 68.3696 15.265 64.9545 15.265H60.6387V4.59814ZM64.877 13.3146C66.8176 13.3146 68.1215 11.9584 68.1215 9.93172C68.1215 7.90508 66.8176 6.5487 64.877 6.5487H63.1377V13.3146H64.877Z" fill="white"/>
<path d="M75.8379 4.59814H83.1344V6.5487H78.3528V9.12408H82.8241V11.0288H78.3528V15.265H75.8379V4.59814Z" fill="white"/>
<path d="M84.2693 9.41348L86.4272 3.57715L88.787 4.41531L86.6603 10.1906C86.0548 11.8211 87.0639 13.2993 88.7405 13.2993C89.7186 13.2993 90.4798 12.7507 90.883 11.6841L93.4384 4.59813L95.4427 6.43321L93.2272 12.6135C92.513 14.5184 90.883 15.5699 88.8173 15.5699C85.3251 15.5699 83.1206 12.5221 84.2693 9.41348Z" fill="white"/>
<path d="M94.9041 13.573L100.074 6.54821H93.4707V4.59766H103.055V6.25865L97.8849 13.3141H103.443V15.2645H94.9041V13.573Z" fill="white"/>
<path d="M104.653 13.573L109.823 6.54821H104.42V4.59766H112.803V6.25865L107.634 13.3141H113.191V15.2645H104.653V13.573Z" fill="white"/>
<path d="M2.36039 4.63374C1.89355 4.63374 1.4372 4.49786 1.04904 4.24328C0.660872 3.9887 0.358322 3.62685 0.179669 3.2035C0.00101686 2.78014 -0.0457189 2.3143 0.0453574 1.86487C0.136434 1.41544 0.361232 1.00262 0.691339 0.678597C1.02145 0.354577 1.44203 0.133916 1.8999 0.0445189C2.35777 -0.044878 2.83238 0.0010042 3.26368 0.176362C3.69499 0.351721 4.06363 0.648683 4.323 1.02969C4.58236 1.4107 4.72078 1.85864 4.72078 2.31687C4.7201 2.93114 4.47119 3.52004 4.02868 3.95439C3.58617 4.38874 2.9862 4.63306 2.36039 4.63374V4.63374Z" fill="#B37FEB"/>
<path d="M2.36081 4.25287C3.44998 4.25287 4.33292 3.3862 4.33292 2.31711C4.33292 1.24802 3.44998 0.381348 2.36081 0.381348C1.27163 0.381348 0.388672 1.24802 0.388672 2.31711C0.388672 3.3862 1.27163 4.25287 2.36081 4.25287Z" fill="#B37FEB"/>
<path d="M6.30417 8.12398C7.39335 8.12398 8.27631 7.2573 8.27631 6.18821C8.27631 5.11911 7.39335 4.25244 6.30417 4.25244C5.21499 4.25244 4.33203 5.11911 4.33203 6.18821C4.33203 7.2573 5.21499 8.12398 6.30417 8.12398Z" fill="#B37FEB"/>
<path d="M10.2495 11.9956C11.3387 11.9956 12.2216 11.1289 12.2216 10.0598C12.2216 8.9907 11.3387 8.12402 10.2495 8.12402C9.1603 8.12402 8.27734 8.9907 8.27734 10.0598C8.27734 11.1289 9.1603 11.9956 10.2495 11.9956Z" fill="#B37FEB"/>
<path d="M10.2491 20.1196C9.78222 20.1196 9.32587 19.9837 8.9377 19.7291C8.54954 19.4745 8.24701 19.1127 8.06835 18.6893C7.8897 18.266 7.84295 17.8001 7.93402 17.3507C8.0251 16.9013 8.24992 16.4885 8.58002 16.1644C8.91013 15.8404 9.33071 15.6198 9.78858 15.5304C10.2464 15.441 10.721 15.4868 11.1523 15.6622C11.5836 15.8376 11.9523 16.1345 12.2117 16.5155C12.471 16.8965 12.6094 17.3445 12.6094 17.8027C12.6088 18.417 12.3599 19.0059 11.9174 19.4402C11.4748 19.8746 10.8749 20.1189 10.2491 20.1196V20.1196Z" fill="#B37FEB"/>
<path d="M10.2495 19.7387C11.3387 19.7387 12.2216 18.872 12.2216 17.8029C12.2216 16.7339 11.3387 15.8672 10.2495 15.8672C9.1603 15.8672 8.27734 16.7339 8.27734 17.8029C8.27734 18.872 9.1603 19.7387 10.2495 19.7387Z" fill="#B37FEB"/>
<path d="M18.1381 11.9956C19.2273 11.9956 20.1103 11.1289 20.1103 10.0598C20.1103 8.9907 19.2273 8.12402 18.1381 8.12402C17.049 8.12402 16.166 8.9907 16.166 10.0598C16.166 11.1289 17.049 11.9956 18.1381 11.9956Z" fill="#B37FEB"/>
<path d="M2.36081 11.9956C3.44998 11.9956 4.33292 11.1289 4.33292 10.0598C4.33292 8.9907 3.44998 8.12402 2.36081 8.12402C1.27163 8.12402 0.388672 8.9907 0.388672 10.0598C0.388672 11.1289 1.27163 11.9956 2.36081 11.9956Z" fill="#B37FEB"/>
<path d="M10.2491 4.63374C9.78222 4.63374 9.32587 4.49786 8.9377 4.24328C8.54954 3.9887 8.24701 3.62685 8.06835 3.2035C7.8897 2.78014 7.84295 2.3143 7.93402 1.86487C8.0251 1.41544 8.24992 1.00262 8.58002 0.678597C8.91013 0.354577 9.33071 0.133916 9.78858 0.0445189C10.2464 -0.044878 10.721 0.0010042 11.1523 0.176362C11.5836 0.351721 11.9523 0.648683 12.2117 1.02969C12.471 1.4107 12.6094 1.85864 12.6094 2.31687C12.6088 2.93114 12.3599 3.52004 11.9174 3.95439C11.4748 4.38874 10.8749 4.63306 10.2491 4.63374V4.63374Z" fill="#B37FEB"/>
<path d="M10.2495 4.25287C11.3387 4.25287 12.2216 3.3862 12.2216 2.31711C12.2216 1.24802 11.3387 0.381348 10.2495 0.381348C9.1603 0.381348 8.27734 1.24802 8.27734 2.31711C8.27734 3.3862 9.1603 4.25287 10.2495 4.25287Z" fill="#B37FEB"/>
<path d="M14.1928 15.8671C15.282 15.8671 16.165 15.0005 16.165 13.9314C16.165 12.8623 15.282 11.9956 14.1928 11.9956C13.1036 11.9956 12.2207 12.8623 12.2207 13.9314C12.2207 15.0005 13.1036 15.8671 14.1928 15.8671Z" fill="#B37FEB"/>
<path d="M18.1379 20.059C17.671 20.0591 17.2147 19.9232 16.8265 19.6686C16.4383 19.4141 16.1357 19.0522 15.9571 18.6289C15.7784 18.2055 15.7316 17.7397 15.8227 17.2902C15.9137 16.8408 16.1385 16.428 16.4686 16.1039C16.7988 15.7799 17.2193 15.5592 17.6772 15.4698C18.1351 15.3804 18.6097 15.4263 19.041 15.6016C19.4723 15.777 19.841 16.074 20.1003 16.455C20.3597 16.836 20.4982 17.2839 20.4982 17.7422C20.4974 18.3564 20.2485 18.9453 19.806 19.3796C19.3636 19.8139 18.7637 20.0583 18.1379 20.059Z" fill="#B37FEB"/>
<path d="M18.1381 19.6782C19.2273 19.6782 20.1103 18.8115 20.1103 17.7424C20.1103 16.6733 19.2273 15.8066 18.1381 15.8066C17.049 15.8066 16.166 16.6733 16.166 17.7424C16.166 18.8115 17.049 19.6782 18.1381 19.6782Z" fill="#B37FEB"/>
<path d="M18.1379 4.63373C17.671 4.63376 17.2147 4.4979 16.8265 4.24334C16.4383 3.98877 16.1357 3.62694 15.9571 3.20359C15.7784 2.78024 15.7316 2.31439 15.8227 1.86495C15.9137 1.41552 16.1385 1.00267 16.4686 0.67864C16.7988 0.354607 17.2193 0.133937 17.6772 0.0445292C18.1351 -0.0448785 18.6097 0.000993875 19.041 0.176348C19.4723 0.351702 19.841 0.648658 20.1003 1.02967C20.3597 1.41068 20.4982 1.85863 20.4982 2.31687C20.4974 2.9311 20.2485 3.51997 19.806 3.95431C19.3636 4.38864 18.7637 4.63298 18.1379 4.63373Z" fill="#B37FEB"/>
<path d="M18.1381 4.25287C19.2273 4.25287 20.1103 3.3862 20.1103 2.31711C20.1103 1.24802 19.2273 0.381348 18.1381 0.381348C17.049 0.381348 16.166 1.24802 16.166 2.31711C16.166 3.3862 17.049 4.25287 18.1381 4.25287Z" fill="#B37FEB"/>
<path d="M14.1928 8.12398C15.282 8.12398 16.165 7.2573 16.165 6.18821C16.165 5.11911 15.282 4.25244 14.1928 4.25244C13.1036 4.25244 12.2207 5.11911 12.2207 6.18821C12.2207 7.2573 13.1036 8.12398 14.1928 8.12398Z" fill="#B37FEB"/>
<path d="M6.30417 15.8671C7.39335 15.8671 8.27631 15.0005 8.27631 13.9314C8.27631 12.8623 7.39335 11.9956 6.30417 11.9956C5.21499 11.9956 4.33203 12.8623 4.33203 13.9314C4.33203 15.0005 5.21499 15.8671 6.30417 15.8671Z" fill="#B37FEB"/>
<path d="M2.36039 20.059C1.89355 20.059 1.4372 19.9232 1.04904 19.6686C0.660872 19.414 0.358322 19.0521 0.179669 18.6288C0.00101686 18.2054 -0.0457189 17.7396 0.0453574 17.2902C0.136434 16.8407 0.361232 16.4279 0.691339 16.1039C1.02145 15.7799 1.44203 15.5592 1.8999 15.4698C2.35777 15.3804 2.83238 15.4263 3.26368 15.6017C3.69499 15.777 4.06363 16.074 4.323 16.455C4.58236 16.836 4.72078 17.2839 4.72078 17.7422C4.7201 18.3564 4.47119 18.9453 4.02868 19.3797C3.58617 19.814 2.9862 20.0584 2.36039 20.059V20.059Z" fill="#B37FEB"/>
<path d="M2.36081 19.6782C3.44998 19.6782 4.33292 18.8115 4.33292 17.7424C4.33292 16.6733 3.44998 15.8066 2.36081 15.8066C1.27163 15.8066 0.388672 16.6733 0.388672 17.7424C0.388672 18.8115 1.27163 19.6782 2.36081 19.6782Z" fill="#B37FEB"/>
<path d="M74.3638 4.63379H71.7754V15.4015H74.3638V4.63379Z" fill="white"/>
</g>
<defs>
<clipPath id="clip0_2866_93770">
<rect width="113.191" height="20" fill="white"/>
</clipPath>
</defs>
</svg>
