<svg width="88" height="14" viewBox="0 0 88 14" fill="none" xmlns="http://www.w3.org/2000/svg">
<path d="M0.611328 1.7998H5.92738C8.02258 1.7998 9.4454 2.99302 9.4454 4.72644C9.4454 6.07831 8.56984 7.14398 7.30328 7.36672C8.56984 7.57295 9.4454 8.65493 9.4454 10.007C9.4454 11.7405 8.02258 12.9335 5.92738 12.9335H0.611328V1.7998ZM5.59911 6.41228C6.42775 6.41228 6.99063 5.85558 6.99063 5.07616C6.99063 4.28067 6.42775 3.72442 5.59911 3.72442H3.08176V6.41228H5.59911ZM5.59911 10.977C6.41211 10.977 6.97486 10.4205 6.97486 9.64105C6.97486 8.84557 6.41196 8.28903 5.59911 8.28903H3.08176V10.977H5.59911Z" fill="white"/>
<path d="M10.6035 8.16179C10.6035 4.5036 13.6212 1.49756 17.3738 1.49756C20.5322 1.49756 22.6273 3.51748 22.6273 6.57125C22.6273 10.2135 19.594 13.2353 15.857 13.2353C12.7143 13.2353 10.6035 11.1995 10.6035 8.16179ZM15.8568 10.9131C18.1554 10.9131 20.0942 8.86139 20.0942 6.61887C20.0942 4.9647 19.0153 3.81995 17.3737 3.81995C15.0908 3.81995 13.1363 5.85577 13.1363 8.11435C13.1365 9.73625 14.2154 10.9131 15.8568 10.9131Z" fill="white"/>
<path d="M23.9727 1.7998H26.4742L31.1962 8.89346L31.1024 1.7998H33.5729V12.9335H31.0711L26.3492 5.83969L26.4429 12.9335H23.9727V1.7998Z" fill="white"/>
<path d="M35.0742 1.7998H39.4209C42.8608 1.7998 45.1592 4.02657 45.1592 7.36672C45.1592 10.7069 42.8608 12.9335 39.4209 12.9335H35.0742V1.7998ZM39.3427 10.8975C41.2977 10.8975 42.6106 9.48196 42.6106 7.36672C42.6106 5.25147 41.2973 3.83566 39.3427 3.83566H37.5916V10.8975H39.3427Z" fill="white"/>
<path d="M47.1281 0.988403C47.4181 0.986684 47.702 1.0727 47.9439 1.23552C48.1857 1.39833 48.3745 1.63063 48.4862 1.90284C48.598 2.17505 48.6277 2.47489 48.5716 2.76431C48.5154 3.05372 48.3759 3.31963 48.1709 3.52823C47.9658 3.73684 47.7044 3.87874 47.4199 3.93589C47.1354 3.99304 46.8406 3.96288 46.573 3.84922C46.3054 3.73555 46.0771 3.5435 45.917 3.29752C45.7569 3.05154 45.6723 2.7627 45.6739 2.4677C45.6715 2.27275 45.7074 2.07928 45.7796 1.89867C45.8517 1.71806 45.9588 1.55397 46.0943 1.4161C46.2298 1.27822 46.3911 1.16935 46.5687 1.0959C46.7462 1.02245 46.9364 0.985889 47.1281 0.988403ZM46.8467 4.7743L49.2389 5.06069L48.3008 13.1405L45.9086 12.8701L46.8467 4.7743Z" fill="white"/>
<path d="M50.3809 1.7998H57.7296V3.83566H52.9137V6.52334H57.4175V8.51205H52.9137V12.9338H50.3809V1.7998Z" fill="white"/>
<path d="M58.8712 6.82552L61.0444 0.733887L63.421 1.60866L61.279 7.63678C60.6692 9.33852 61.6855 10.8814 63.3742 10.8814C64.359 10.8814 65.1254 10.3089 65.532 9.19549L68.1058 1.79956L70.1244 3.71461L67.8931 10.1654C67.1738 12.1541 65.5326 13.251 63.4525 13.251C59.9344 13.2513 57.7141 10.0702 58.8712 6.82552Z" fill="white"/>
<path d="M69.5822 11.1679L74.7889 3.83566H68.1387V1.7998H77.791V3.53291L72.5842 10.8969H78.1817V12.9329H69.5822V11.1679Z" fill="white"/>
<path d="M79.4008 11.1679L84.6074 3.83566H79.166V1.7998H87.6088V3.53291L82.4022 10.8969H87.9996V12.9329H79.4002L79.4008 11.1679Z" fill="white"/>
</svg>
