<svg width="21" height="21" viewBox="0 0 21 21" fill="none" xmlns="http://www.w3.org/2000/svg">
<path d="M2.37745 4.83653C1.90725 4.83656 1.44761 4.69477 1.05664 4.42905C0.665676 4.16334 0.360945 3.78567 0.180995 3.34378C0.00104447 2.9019 -0.0460525 2.41563 0.0456715 1.94652C0.137396 1.4774 0.36382 1.0465 0.6963 0.708286C1.02878 0.370077 1.45239 0.139768 1.91355 0.0464632C2.37472 -0.0468414 2.85273 0.00104912 3.28713 0.1841C3.72153 0.367151 4.09281 0.677134 4.35402 1.07484C4.61523 1.47254 4.75462 1.94011 4.75459 2.41841C4.75387 3.05951 4.50319 3.67413 4.05754 4.12745C3.6119 4.58078 3.00769 4.83579 2.37745 4.83653V4.83653Z" fill="#B37FEB"/>
<path d="M2.37678 4.43871C3.4737 4.43871 4.36293 3.53415 4.36293 2.41833C4.36293 1.3025 3.4737 0.397949 2.37678 0.397949C1.27986 0.397949 0.390625 1.3025 0.390625 2.41833C0.390625 3.53415 1.27986 4.43871 2.37678 4.43871Z" fill="#B37FEB"/>
<path d="M6.34943 8.47972C7.44635 8.47972 8.33558 7.57517 8.33558 6.45934C8.33558 5.34352 7.44635 4.43896 6.34943 4.43896C5.25251 4.43896 4.36328 5.34352 4.36328 6.45934C4.36328 7.57517 5.25251 8.47972 6.34943 8.47972Z" fill="#B37FEB"/>
<path d="M10.3221 12.5207C11.419 12.5207 12.3082 11.6162 12.3082 10.5004C12.3082 9.38453 11.419 8.47998 10.3221 8.47998C9.22517 8.47998 8.33594 9.38453 8.33594 10.5004C8.33594 11.6162 9.22517 12.5207 10.3221 12.5207Z" fill="#B37FEB"/>
<path d="M10.3226 21.0001C9.85243 21.0001 9.3928 20.8583 9.00186 20.5925C8.61091 20.3268 8.30621 19.9491 8.12628 19.5073C7.94635 19.0654 7.89926 18.5792 7.99099 18.1101C8.08272 17.641 8.30913 17.2101 8.6416 16.8719C8.97407 16.5337 9.39767 16.3034 9.85882 16.21C10.32 16.1167 10.798 16.1646 11.2324 16.3476C11.6668 16.5307 12.038 16.8406 12.2993 17.2383C12.5605 17.636 12.6999 18.1036 12.6999 18.5819C12.6992 19.223 12.4485 19.8377 12.0029 20.291C11.5572 20.7444 10.9529 20.9994 10.3226 21.0001Z" fill="#B37FEB"/>
<path d="M10.3221 20.6023C11.419 20.6023 12.3082 19.6977 12.3082 18.5819C12.3082 17.4661 11.419 16.5615 10.3221 16.5615C9.22517 16.5615 8.33594 17.4661 8.33594 18.5819C8.33594 19.6977 9.22517 20.6023 10.3221 20.6023Z" fill="#B37FEB"/>
<path d="M18.2674 12.5207C19.3643 12.5207 20.2535 11.6162 20.2535 10.5004C20.2535 9.38453 19.3643 8.47998 18.2674 8.47998C17.1705 8.47998 16.2812 9.38453 16.2812 10.5004C16.2812 11.6162 17.1705 12.5207 18.2674 12.5207Z" fill="#B37FEB"/>
<path d="M2.37678 12.5207C3.4737 12.5207 4.36293 11.6162 4.36293 10.5004C4.36293 9.38453 3.4737 8.47998 2.37678 8.47998C1.27986 8.47998 0.390625 9.38453 0.390625 10.5004C0.390625 11.6162 1.27986 12.5207 2.37678 12.5207Z" fill="#B37FEB"/>
<path d="M10.3226 4.83652C9.85242 4.83652 9.39278 4.6947 9.00183 4.42897C8.61089 4.16324 8.30618 3.78555 8.12626 3.34366C7.94633 2.90177 7.89926 2.41553 7.991 1.94643C8.08274 1.47733 8.30917 1.04643 8.64165 0.708237C8.97414 0.370042 9.39774 0.139742 9.8589 0.0464496C10.3201 -0.0468431 10.7981 0.00106711 11.2325 0.184123C11.6669 0.367178 12.0381 0.677124 12.2993 1.07483C12.5605 1.47253 12.6999 1.9401 12.6999 2.4184C12.6992 3.05952 12.4485 3.67418 12.0028 4.12751C11.5571 4.58084 10.9529 4.83582 10.3226 4.83652Z" fill="#B37FEB"/>
<path d="M10.3221 4.43871C11.419 4.43871 12.3082 3.53415 12.3082 2.41833C12.3082 1.3025 11.419 0.397949 10.3221 0.397949C9.22517 0.397949 8.33594 1.3025 8.33594 2.41833C8.33594 3.53415 9.22517 4.43871 10.3221 4.43871Z" fill="#B37FEB"/>
<path d="M14.2947 16.5613C15.3917 16.5613 16.2809 15.6567 16.2809 14.5409C16.2809 13.4251 15.3917 12.5205 14.2947 12.5205C13.1978 12.5205 12.3086 13.4251 12.3086 14.5409C12.3086 15.6567 13.1978 16.5613 14.2947 16.5613Z" fill="#B37FEB"/>
<path d="M18.2681 20.9371C17.7979 20.9371 17.3382 20.7953 16.9473 20.5296C16.5563 20.2639 16.2516 19.8863 16.0716 19.4444C15.8917 19.0025 15.8446 18.5163 15.9363 18.0472C16.028 17.5781 16.2544 17.1471 16.5869 16.8089C16.9193 16.4707 17.3429 16.2404 17.8041 16.1471C18.2652 16.0537 18.7432 16.1016 19.1776 16.2846C19.612 16.4677 19.9833 16.7777 20.2446 17.1753C20.5058 17.573 20.6452 18.0405 20.6452 18.5188C20.6445 19.16 20.3939 19.7746 19.9482 20.228C19.5026 20.6813 18.8983 20.9364 18.2681 20.9371Z" fill="#B37FEB"/>
<path d="M18.2674 20.5393C19.3643 20.5393 20.2535 19.6347 20.2535 18.5189C20.2535 17.4031 19.3643 16.4985 18.2674 16.4985C17.1705 16.4985 16.2812 17.4031 16.2812 18.5189C16.2812 19.6347 17.1705 20.5393 18.2674 20.5393Z" fill="#B37FEB"/>
<path d="M18.2681 4.83653C17.7979 4.83656 17.3382 4.69477 16.9473 4.42905C16.5563 4.16334 16.2516 3.78567 16.0716 3.34378C15.8917 2.9019 15.8446 2.41563 15.9363 1.94652C16.028 1.4774 16.2544 1.0465 16.5869 0.708286C16.9194 0.370077 17.343 0.139768 17.8042 0.0464632C18.2653 -0.0468414 18.7434 0.00104912 19.1778 0.1841C19.6122 0.367151 19.9834 0.677134 20.2446 1.07484C20.5059 1.47254 20.6452 1.94011 20.6452 2.41841C20.6445 3.05952 20.3939 3.67416 19.9482 4.12749C19.5025 4.58082 18.8983 4.83583 18.2681 4.83653V4.83653Z" fill="#B37FEB"/>
<path d="M18.2674 4.43871C19.3643 4.43871 20.2535 3.53415 20.2535 2.41833C20.2535 1.3025 19.3643 0.397949 18.2674 0.397949C17.1705 0.397949 16.2812 1.3025 16.2812 2.41833C16.2812 3.53415 17.1705 4.43871 18.2674 4.43871Z" fill="#B37FEB"/>
<path d="M14.2947 8.47972C15.3917 8.47972 16.2809 7.57517 16.2809 6.45934C16.2809 5.34352 15.3917 4.43896 14.2947 4.43896C13.1978 4.43896 12.3086 5.34352 12.3086 6.45934C12.3086 7.57517 13.1978 8.47972 14.2947 8.47972Z" fill="#B37FEB"/>
<path d="M6.34943 16.5613C7.44635 16.5613 8.33558 15.6567 8.33558 14.5409C8.33558 13.4251 7.44635 12.5205 6.34943 12.5205C5.25251 12.5205 4.36328 13.4251 4.36328 14.5409C4.36328 15.6567 5.25251 16.5613 6.34943 16.5613Z" fill="#B37FEB"/>
<path d="M2.37744 20.9371C1.90725 20.9371 1.4476 20.7953 1.05663 20.5296C0.66567 20.2639 0.360958 19.8863 0.181003 19.4444C0.00104903 19.0025 -0.0460496 18.5163 0.0456627 18.0472C0.137375 17.5781 0.363773 17.1471 0.696238 16.8089C1.0287 16.4707 1.4523 16.2404 1.91346 16.1471C2.37461 16.0537 2.85261 16.1016 3.28702 16.2846C3.72142 16.4677 4.09271 16.7777 4.35394 17.1753C4.61516 17.573 4.75459 18.0405 4.75459 18.5188C4.75386 19.1599 4.50319 19.7746 4.05755 20.228C3.61191 20.6813 3.00769 20.9363 2.37744 20.9371V20.9371Z" fill="#B37FEB"/>
<path d="M2.37678 20.5393C3.4737 20.5393 4.36293 19.6347 4.36293 18.5189C4.36293 17.4031 3.4737 16.4985 2.37678 16.4985C1.27986 16.4985 0.390625 17.4031 0.390625 18.5189C0.390625 19.6347 1.27986 20.5393 2.37678 20.5393Z" fill="#B37FEB"/>
</svg>
