<svg width="40" height="40" viewBox="0 0 40 40" fill="none" xmlns="http://www.w3.org/2000/svg">
<rect x="0.5" y="4.5" width="31" height="31" rx="15.5" fill="#FFC619"/>
<path d="M20.8438 17.4732L20.4561 17.2936C20.2114 17.1802 19.9198 16.924 19.637 16.6436C19.3338 16.343 18.9775 15.9492 18.5945 15.4916C17.828 14.5756 16.9366 13.3827 16.1249 12.1225C15.3154 10.8656 14.5724 9.52233 14.116 8.30848C13.8878 7.70164 13.7243 7.10925 13.6662 6.56484C13.6085 6.0245 13.6499 5.48798 13.8793 5.02894C14.524 3.73792 15.9801 2.5381 17.4237 2.26154L17.4237 2.26153C18.2744 2.09858 18.9523 2.36878 19.4773 2.82605C19.9763 3.26068 20.3409 3.8661 20.6304 4.39722L20.8438 17.4732ZM20.8438 17.4732L21.1058 17.1358M20.8438 17.4732L21.1058 17.1358M21.1058 17.1358C22.4604 15.3913 22.7719 13.0081 22.549 10.7116M21.1058 17.1358L22.549 10.7116M22.549 10.7116C22.3251 8.40473 21.5544 6.09229 20.6304 4.39728L22.549 10.7116Z" fill="white" stroke="black" stroke-width="1.07359"/>
<path d="M22.1856 16.9805L22.5569 17.1916C22.7914 17.325 23.1694 17.4134 23.5619 17.4807C23.9827 17.5528 24.5103 17.6139 25.1052 17.6597C26.2961 17.7514 27.7849 17.7838 29.2822 17.7123C30.7755 17.6409 32.3005 17.4651 33.5536 17.1313C34.1801 16.9645 34.7572 16.7533 35.2341 16.4843C35.7074 16.2174 36.12 15.8719 36.3603 15.4185C37.0365 14.1436 37.167 12.2615 36.5533 10.9258L36.5533 10.9258C36.1917 10.1388 35.5779 9.74406 34.9007 9.58243C34.257 9.4288 33.5524 9.48381 32.952 9.55682L22.1856 16.9805ZM22.1856 16.9805L22.3079 16.5712M22.1856 16.9805L22.3079 16.5712M22.3079 16.5712C22.9407 14.455 24.6994 12.8169 26.698 11.664M22.3079 16.5712L26.698 11.664M26.698 11.664C28.7057 10.506 31.0355 9.78965 32.9519 9.55683L26.698 11.664Z" fill="white" stroke="black" stroke-width="1.07359"/>
<path d="M19.5699 19.3911C18.6514 19.9798 18.125 20.9573 18.1637 22.2627C18.2014 23.5363 18.7729 25.1117 19.9807 26.9961C21.1914 28.8851 22.613 30.4152 23.9506 31.3551C24.6183 31.8243 25.2868 32.1617 25.9148 32.3101C26.5449 32.4591 27.178 32.4259 27.7074 32.0862C28.2366 31.7467 28.531 31.1854 28.6588 30.5508C28.7861 29.9181 28.7588 29.17 28.6114 28.3675C28.3161 26.7599 27.5196 24.8296 26.3087 22.9403C25.1008 21.0558 23.9079 19.8786 22.7663 19.3125C21.5963 18.7323 20.4883 18.8024 19.5699 19.3911Z" fill="black" stroke="black" stroke-width="1.01305"/>
<circle r="3.77094" transform="matrix(-0.753807 -0.657096 -0.657096 0.753807 18.9725 18.6538)" fill="black"/>
<mask id="mask0_4252_106612" style="mask-type:alpha" maskUnits="userSpaceOnUse" x="18" y="19" width="11" height="13">
<path d="M20.4091 26.7228C18.0404 23.0271 18.3334 20.7865 19.8451 19.8175C21.3569 18.8486 23.5153 19.5177 25.8842 23.2136C28.253 26.9094 28.9473 30.6902 27.4358 31.6599C25.9244 32.6296 22.7774 30.4179 20.4091 26.7228Z" fill="black"/>
</mask>
<g mask="url(#mask0_4252_106612)">
<circle r="1.31231" transform="matrix(-0.753807 -0.657096 -0.657096 0.753807 27.7774 27.9375)" fill="#FFB016"/>
<circle r="1.73321" transform="matrix(-0.753807 -0.657096 -0.657096 0.753807 25.4218 23.9918)" fill="#FFB016"/>
<ellipse rx="5.49243" ry="2.4366" transform="matrix(-0.520709 -0.853734 -0.853734 0.520709 20.5305 27.2599)" fill="#FFB016"/>
</g>
<path d="M8.81238 17.7141C9.50693 17.8112 10.1341 17.4791 10.5831 16.9863C11.0343 16.4913 11.3505 15.7945 11.4591 15.0176C11.5676 14.2406 11.4545 13.4839 11.1563 12.8841C10.8595 12.2872 10.3474 11.7959 9.65287 11.6988C8.95833 11.6018 8.33119 11.9339 7.88211 12.4266C7.43095 12.9217 7.11475 13.6185 7.0062 14.3954C6.89764 15.1723 7.01073 15.9291 7.30893 16.5288C7.60575 17.1258 8.11783 17.6171 8.81238 17.7141Z" fill="white" stroke="black" stroke-width="1.07359"/>
<path fill-rule="evenodd" clip-rule="evenodd" d="M9.08504 16.003C8.7238 15.9565 8.50581 15.3166 8.60009 14.5737C8.69253 13.8241 9.06314 13.2628 9.42439 13.3093C9.71782 13.3456 9.98259 13.5819 9.85054 14.1533L9.20176 14.3155L9.73865 14.6534C9.7148 14.7934 9.6973 14.9345 9.68621 15.0764C9.64267 15.7722 9.38867 16.0403 9.08504 16.003Z" fill="black"/>
<path d="M13.5574 21.5582C14.6324 21.7192 15.6495 21.261 16.4199 20.482C17.1907 19.7026 17.7473 18.5763 17.9395 17.2931C18.1316 16.0099 17.9293 14.77 17.4207 13.7991C16.9122 12.8286 16.0739 12.0925 14.999 11.9315C13.924 11.7706 12.9069 12.2288 12.1364 13.0078C11.3657 13.7872 10.8091 14.9134 10.6169 16.1966C10.4248 17.4798 10.6271 18.7198 11.1357 19.6907C11.6442 20.6612 12.4825 21.3973 13.5574 21.5582Z" fill="white" stroke="black" stroke-width="1.07359"/>
<path d="M12.9597 16.6143C12.7243 18.1253 13.1322 19.444 13.8669 19.5599C14.4845 19.6534 15.0185 19.1209 15.1476 17.7031C15.2116 17.1037 15.3317 16.512 15.5067 15.9352C15.8706 14.7002 15.3301 14.1749 14.7153 14.0812C13.9806 13.9654 13.1917 15.0897 12.9597 16.6143Z" fill="black"/>
<path d="M16.1569 15.1978L13.9527 16.0658L16.822 17.6183L16.1569 15.1978Z" fill="white"/>
<path d="M23.3417 17.4122L23.5867 16.3109L22.5776 16.8155L11.1063 22.5511L2.63874 16.312L1.56851 15.5234L1.7911 16.834L4.52064 32.9055L4.5577 33.1237L4.73777 33.2524L10.7403 37.5417L11.0071 37.7324L11.2986 37.582L19.6103 33.2927L19.8336 33.1775L19.8881 32.9323L23.3417 17.4122Z" fill="white" stroke="black" stroke-width="1.07359"/>
<path d="M10.8867 22.7104L10.8867 37.5424" stroke="black" stroke-width="1.07359"/>
<path d="M1.77309 22.4635L11.2847 19.6997L10.7729 16.4875L1.77309 22.4635Z" fill="black"/>
<path d="M4.91292 22.9243L3.49219 21.7671L5.65836 21.1523L8.11338 20.4554L10.4962 19.7791L9.89519 21.5102L8.11338 20.4554L7.51239 22.1865L5.65836 21.1523L4.91292 22.9243Z" fill="black"/>
<rect x="0.5" y="4.5" width="31" height="31" rx="15.5" stroke="black"/>
</svg>
