<svg width="18" height="18" viewBox="0 0 18 18" fill="none" xmlns="http://www.w3.org/2000/svg">
<path d="M7.938 12L12.896 7.062L11.833 6L7.938 9.875L6.167 8.125L5.104 9.188L7.938 12ZM9 17C7.90267 17 6.868 16.7917 5.896 16.375C4.924 15.9583 4.07333 15.3853 3.344 14.656C2.61467 13.9267 2.04167 13.076 1.625 12.104C1.20833 11.132 1 10.0973 1 9C1 7.88867 1.20833 6.85033 1.625 5.885C2.04167 4.92033 2.61467 4.07333 3.344 3.344C4.07333 2.61467 4.924 2.04167 5.896 1.625C6.868 1.20833 7.90267 1 9 1C10.1113 1 11.1497 1.20833 12.115 1.625C13.0797 2.04167 13.9267 2.61467 14.656 3.344C15.3853 4.07333 15.9583 4.92033 16.375 5.885C16.7917 6.85033 17 7.88867 17 9C17 10.0973 16.7917 11.132 16.375 12.104C15.9583 13.076 15.3853 13.9267 14.656 14.656C13.9267 15.3853 13.0797 15.9583 12.115 16.375C11.1497 16.7917 10.1113 17 9 17ZM9 15.5C10.8053 15.5 12.34 14.868 13.604 13.604C14.868 12.34 15.5 10.8053 15.5 9C15.5 7.19467 14.868 5.66 13.604 4.396C12.34 3.132 10.8053 2.5 9 2.5C7.19467 2.5 5.66 3.132 4.396 4.396C3.132 5.66 2.5 7.19467 2.5 9C2.5 10.8053 3.132 12.34 4.396 13.604C5.66 14.868 7.19467 15.5 9 15.5Z" fill="currentColor"/>
</svg>
