<svg width="18" height="18" viewBox="0 0 18 18" fill="none" xmlns="http://www.w3.org/2000/svg">
<path d="M7.54205 15.5L10.441 12.5831H16.1134V15.5H7.54205ZM3.38058 14.0061H4.4297L10.4051 8.0307L9.35602 6.98158L3.38058 12.957V14.0061ZM13.5704 6.99951L10.3872 3.81545L11.2588 2.94474C11.5553 2.64825 11.9078 2.5 12.3164 2.5C12.7256 2.5 13.0784 2.64825 13.3749 2.94474L14.442 4.01179C14.7265 4.29633 14.8688 4.64888 14.8688 5.06944C14.8688 5.49057 14.7265 5.8434 14.442 6.12795L13.5704 6.99951ZM12.5213 8.04862L5.06992 15.5H1.88672V12.3168L9.33809 4.86542L12.5213 8.04862Z" fill="currentColor"/>
</svg>
