<svg width="18" height="18" viewBox="0 0 18 18" fill="none" xmlns="http://www.w3.org/2000/svg">
<path d="M6.58308 11.4167V6.5829H11.4169V11.4167H6.58308ZM8.03323 9.96658H9.96677V8.03305H8.03323V9.96658ZM6.34139 16.9998V15.2838H4.45619C3.97281 15.2838 3.56193 15.1146 3.22357 14.7763C2.8852 14.4379 2.71601 14.027 2.71601 13.5436V11.6584H1V10.2083H2.71601V7.79136H1V6.34121H2.71601V4.45601C2.71601 3.97263 2.8852 3.56175 3.22357 3.22338C3.56193 2.88501 3.97281 2.71583 4.45619 2.71583H6.34139V0.999817H7.79154V2.71583H10.2085V0.999817H11.6586V2.71583H13.5438C14.0272 2.71583 14.4381 2.88501 14.7764 3.22338C15.1148 3.56175 15.284 3.97263 15.284 4.45601V6.34121H17V7.79136H15.284V10.2083H17V11.6584H15.284V13.5436C15.284 14.027 15.1148 14.4379 14.7764 14.7763C14.4381 15.1146 14.0272 15.2838 13.5438 15.2838H11.6586V16.9998H10.2085V15.2838H7.79154V16.9998H6.34139ZM13.5438 13.8337C13.6083 13.8337 13.6727 13.8014 13.7372 13.737C13.8016 13.6725 13.8338 13.6081 13.8338 13.5436V4.45601C13.8338 4.39156 13.8016 4.32711 13.7372 4.26266C13.6727 4.19821 13.6083 4.16598 13.5438 4.16598H4.45619C4.39174 4.16598 4.32729 4.19821 4.26284 4.26266C4.19839 4.32711 4.16616 4.39156 4.16616 4.45601V13.5436C4.16616 13.6081 4.19839 13.6725 4.26284 13.737C4.32729 13.8014 4.39174 13.8337 4.45619 13.8337H13.5438Z" fill="currentColor"/>
</svg>
