<svg width="18" height="18" viewBox="0 0 18 18" fill="none" xmlns="http://www.w3.org/2000/svg">
<path d="M8.06667 16.17C6.30889 15.9522 4.85849 15.186 3.71547 13.8712C2.57182 12.5571 2 11.0133 2 9.24C2 8.29111 2.18667 7.38111 2.56 6.51C2.93333 5.63889 3.46222 4.87667 4.14667 4.22333L5.12667 5.22667C4.55111 5.74 4.1196 6.34262 3.83213 7.03453C3.54404 7.72707 3.4 8.46222 3.4 9.24C3.4 10.6089 3.83556 11.8144 4.70667 12.8567C5.57778 13.8989 6.69778 14.5367 8.06667 14.77V16.17ZM9.93333 16.1933V14.7933C11.2867 14.5133 12.4026 13.86 13.2812 12.8333C14.1604 11.8067 14.6 10.6089 14.6 9.24C14.6 7.68444 14.0556 6.36222 12.9667 5.27333C11.8778 4.18444 10.5556 3.64 9 3.64H8.67333L9.93333 4.9L8.95333 5.88L6.01333 2.94L8.95333 0L9.93333 0.98L8.67333 2.24H9C10.96 2.24 12.6167 2.91667 13.97 4.27C15.3233 5.62333 16 7.28 16 9.24C16 10.9978 15.4244 12.53 14.2733 13.8367C13.1222 15.1433 11.6756 15.9289 9.93333 16.1933Z" fill="currentColor"/>
</svg>
