<svg width="18" height="18" viewBox="0 0 18 18" fill="none" xmlns="http://www.w3.org/2000/svg">
<path d="M8.96912 16C7.18481 16 5.63026 15.4134 4.30547 14.2401C2.98124 13.0663 2.22304 11.5941 2.03088 9.82353H3.28677C3.49265 11.251 4.13088 12.4314 5.20147 13.3647C6.27206 14.298 7.52794 14.7647 8.96912 14.7647C10.575 14.7647 11.9374 14.2053 13.0563 13.0864C14.1746 11.968 14.7338 10.6059 14.7338 9C14.7338 7.39412 14.1746 6.03173 13.0563 4.91282C11.9374 3.79447 10.575 3.23529 8.96912 3.23529C8.07696 3.23529 7.23641 3.43431 6.44747 3.83235C5.65798 4.23039 4.98186 4.77941 4.41912 5.47941H6.5603V6.71471H2.38088V2.53529H3.61618V4.49118C4.28873 3.6951 5.09167 3.08075 6.025 2.64812C6.95833 2.21604 7.93971 2 8.96912 2C9.94363 2 10.8564 2.18529 11.7074 2.55588C12.5583 2.92647 13.2995 3.42745 13.9309 4.05882C14.5623 4.6902 15.0597 5.42808 15.4231 6.27247C15.7871 7.11631 15.9691 8.02549 15.9691 9C15.9691 9.97451 15.7871 10.8837 15.4231 11.7275C15.0597 12.5719 14.5623 13.3098 13.9309 13.9412C13.2995 14.5725 12.5583 15.0735 11.7074 15.4441C10.8564 15.8147 9.94363 16 8.96912 16ZM11.4397 12.3147L8.37206 9.24706V4.88235H9.60735V8.75294L12.3044 11.45L11.4397 12.3147Z" fill="currentColor"/>
</svg>
