<svg width="18" height="18" viewBox="0 0 18 18" fill="none" xmlns="http://www.w3.org/2000/svg">
<path d="M7.82041 12.136C8.11512 12.4307 8.50105 12.571 8.9782 12.557C9.45535 12.543 9.79917 12.3746 10.0097 12.0518L14.5777 5.42083L7.94672 9.98882C7.62394 10.1993 7.44852 10.5361 7.42045 10.9992C7.39238 11.4624 7.5257 11.8413 7.82041 12.136ZM8.99925 3C9.79917 3 10.55 3.10525 11.2517 3.31576C11.9534 3.52627 12.627 3.84203 13.2725 4.26304L12.0937 5.04191C11.6165 4.78931 11.1183 4.5962 10.5991 4.4626C10.0798 4.32956 9.54657 4.26304 8.99925 4.26304C7.13276 4.26304 5.54357 4.91898 4.2317 6.23085C2.91926 7.54329 2.26304 9.13276 2.26304 10.9992C2.26304 11.5887 2.34359 12.1711 2.5047 12.7465C2.66637 13.3218 2.89456 13.8621 3.18927 14.3674H14.8092C15.132 13.8341 15.3672 13.2797 15.5148 12.7044C15.6619 12.129 15.7355 11.5325 15.7355 10.915C15.7355 10.4098 15.6723 9.8976 15.546 9.37835C15.4197 8.8591 15.2302 8.36792 14.9776 7.9048L15.7355 6.72597C16.1565 7.39959 16.4689 8.07658 16.6726 8.75693C16.8758 9.43785 16.9845 10.1502 16.9985 10.894C17.0125 11.6518 16.9283 12.3712 16.7459 13.0521C16.5635 13.7325 16.2898 14.3954 15.9249 15.041C15.8126 15.2234 15.6549 15.3671 15.4517 15.4721C15.2479 15.5776 15.0338 15.6304 14.8092 15.6304H3.18927C2.96473 15.6304 2.75422 15.5776 2.55775 15.4721C2.36128 15.3671 2.19989 15.2094 2.07358 14.9989C1.75081 14.4375 1.49118 13.8271 1.29471 13.1675C1.09824 12.5079 1 11.7851 1 10.9992C1 9.90461 1.20686 8.87313 1.62057 7.9048C2.03485 6.93647 2.6035 6.08743 3.32652 5.35767C4.04898 4.62792 4.89802 4.05253 5.87365 3.63152C6.84871 3.21051 7.89058 3 8.99925 3Z" fill="currentColor"/>
</svg>
