<svg width="18" height="18" viewBox="0 0 18 18" fill="none" xmlns="http://www.w3.org/2000/svg">
<path d="M6.1875 11.8125H11.8125V6.1875H6.1875V11.8125ZM9 16.5C7.97125 16.5 7.00125 16.3047 6.09 15.9141C5.17875 15.5234 4.38125 14.9862 3.6975 14.3025C3.01375 13.6188 2.47656 12.8212 2.08594 11.91C1.69531 10.9987 1.5 10.0288 1.5 9C1.5 7.95813 1.69531 6.98469 2.08594 6.07969C2.47656 5.17531 3.01375 4.38125 3.6975 3.6975C4.38125 3.01375 5.17875 2.47656 6.09 2.08594C7.00125 1.69531 7.97125 1.5 9 1.5C10.0419 1.5 11.0153 1.69531 11.9203 2.08594C12.8247 2.47656 13.6188 3.01375 14.3025 3.6975C14.9862 4.38125 15.5234 5.17531 15.9141 6.07969C16.3047 6.98469 16.5 7.95813 16.5 9C16.5 10.0288 16.3047 10.9987 15.9141 11.91C15.5234 12.8212 14.9862 13.6188 14.3025 14.3025C13.6188 14.9862 12.8247 15.5234 11.9203 15.9141C11.0153 16.3047 10.0419 16.5 9 16.5ZM9 15.0938C10.6925 15.0938 12.1313 14.5013 13.3162 13.3162C14.5013 12.1313 15.0938 10.6925 15.0938 9C15.0938 7.3075 14.5013 5.86875 13.3162 4.68375C12.1313 3.49875 10.6925 2.90625 9 2.90625C7.3075 2.90625 5.86875 3.49875 4.68375 4.68375C3.49875 5.86875 2.90625 7.3075 2.90625 9C2.90625 10.6925 3.49875 12.1313 4.68375 13.3162C5.86875 14.5013 7.3075 15.0938 9 15.0938Z" fill="currentColor"/>
</svg>
