<svg width="18" height="18" viewBox="0 0 18 18" fill="none" xmlns="http://www.w3.org/2000/svg">
<path d="M2.50004 15.5V14.2296H4.97724L4.36323 13.6368C3.67159 12.9875 3.17757 12.264 2.88115 11.4662C2.58473 10.669 2.43652 9.86808 2.43652 9.06352C2.43652 7.59555 2.86365 6.28285 3.71789 5.12541C4.57157 3.96797 5.69711 3.17047 7.0945 2.7329V4.06678C6.07822 4.462 5.25954 5.11496 4.63848 6.02567C4.01741 6.93581 3.70688 7.94843 3.70688 9.06352C3.70688 9.72693 3.83392 10.3692 4.08799 10.9902C4.34206 11.6113 4.73023 12.19 5.25248 12.7264L5.7818 13.2557V10.9479H7.05216V15.5H2.50004ZM10.9056 15.2671V13.9332C11.9219 13.538 12.7405 12.885 13.3616 11.9743C13.9827 11.0642 14.2932 10.0516 14.2932 8.93648C14.2932 8.27307 14.1662 7.63084 13.9121 7.00977C13.658 6.38871 13.2699 5.80999 12.7476 5.27362L12.2183 4.7443V7.05212H10.9479V2.5H15.5V3.77036H13.0228L13.6369 4.36319C14.3144 5.0266 14.8047 5.75353 15.1079 6.54397C15.4117 7.33442 15.5636 8.13192 15.5636 8.93648C15.5636 10.4045 15.1367 11.7172 14.283 12.8746C13.4288 14.032 12.303 14.8295 10.9056 15.2671Z" fill="currentColor"/>
</svg>
